999
dxflib 2.2.0.0
  0
SECTION
  2
HEADER
  9
$ACADVER
  1
AC1015
  9
$HANDSEED
  5
FFFF
  9
$DIMASZ
 40
2.5
  9
$DIMGAP
 40
0.625
  9
$INSUNITS
 70
4
  9
$DIMEXO
 40
0.625
  9
$DIMTXT
 40
2.5
  9
$DIMSTYLE
  2
Standard
  9
$PLIMMIN
 10
0.0
 20
0.0
  9
$PLIMMAX
 10
210.0
 20
297.0
  9
$DIMEXE
 40
1.25
  0
ENDSEC
  0
SECTION
  2
TABLES
  0
TABLE
  2
VPORT
  5
8
100
AcDbSymbolTable
 70
1
  0
VPORT
  5
30
100
AcDbSymbolTableRecord
100
AcDbViewportTableRecord
  2
*Active
 70
0
 10
0.0
 20
0.0
 11
1.0
 21
1.0
 12
286.3055555555554861
 22
148.5
 13
0.0
 23
0.0
 14
10.0
 24
10.0
 15
10.0
 25
10.0
 16
0.0
 26
0.0
 36
1.0
 17
0.0
 27
0.0
 37
0.0
 40
297.0
 41
1.92798353909465
 42
50.0
 43
0.0
 44
0.0
 50
0.0
 51
0.0
 71
0
 72
100
 73
1
 74
3
 75
1
 76
1
 77
0
 78
0
281
0
 65
1
110
0.0
120
0.0
130
0.0
111
1.0
121
0.0
131
0.0
112
0.0
122
1.0
132
0.0
 79
0
146
0.0
  0
ENDTAB
  0
TABLE
  2
LTYPE
  5
5
100
AcDbSymbolTable
 70
21
  0
LTYPE
  5
14
100
AcDbSymbolTableRecord
100
AcDbLinetypeTableRecord
  2
ByBlock
 70
0
  3

 72
65
 73
0
 40
0.0
  0
LTYPE
  5
15
100
AcDbSymbolTableRecord
100
AcDbLinetypeTableRecord
  2
ByLayer
 70
0
  3

 72
65
 73
0
 40
0.0
  0
LTYPE
  5
16
100
AcDbSymbolTableRecord
100
AcDbLinetypeTableRecord
  2
CONTINUOUS
 70
0
  3
Solid line
 72
65
 73
0
 40
0.0
  0
LTYPE
  5
31
100
AcDbSymbolTableRecord
100
AcDbLinetypeTableRecord
  2
DOT
 70
0
  3
Dot . . . . . . . . . . . . . . . . . . . . . .
 72
65
 73
2
 40
6.3499999999999996
 49
0.0
 74
0
 49
-6.3499999999999996
 74
0
  0
LTYPE
  5
32
100
AcDbSymbolTableRecord
100
AcDbLinetypeTableRecord
  2
DOT2
 70
0
  3
Dot (.5x) .....................................
 72
65
 73
2
 40
3.1749999999999998
 49
0.0
 74
0
 49
-3.1749999999999998
 74
0
  0
LTYPE
  5
33
100
AcDbSymbolTableRecord
100
AcDbLinetypeTableRecord
  2
DOTX2
 70
0
  3
Dot (2x) .  .  .  .  .  .  .  .  .  .  .  .  .
 72
65
 73
2
 40
12.6999999999999993
 49
0.0
 74
0
 49
-12.6999999999999993
 74
0
  0
LTYPE
  5
34
100
AcDbSymbolTableRecord
100
AcDbLinetypeTableRecord
  2
DASHED
 70
0
  3
Dashed __ __ __ __ __ __ __ __ __ __ __ __ __ _
 72
65
 73
2
 40
19.0500000000000007
 49
12.6999999999999993
 74
0
 49
-6.3499999999999996
 74
0
  0
LTYPE
  5
35
100
AcDbSymbolTableRecord
100
AcDbLinetypeTableRecord
  2
DASHED2
 70
0
  3
Dashed (.5x) _ _ _ _ _ _ _ _ _ _ _ _ _ _ _ _ _
 72
65
 73
2
 40
9.5250000000000004
 49
6.3499999999999996
 74
0
 49
-3.1749999999999998
 74
0
  0
LTYPE
  5
36
100
AcDbSymbolTableRecord
100
AcDbLinetypeTableRecord
  2
DASHEDX2
 70
0
  3
Dashed (2x) ____  ____  ____  ____  ____  ___
 72
65
 73
2
 40
38.1000000000000014
 49
25.3999999999999986
 74
0
 49
-12.6999999999999993
 74
0
  0
LTYPE
  5
37
100
AcDbSymbolTableRecord
100
AcDbLinetypeTableRecord
  2
DASHDOT
 70
0
  3
Dash dot __ . __ . __ . __ . __ . __ . __ . __
 72
65
 73
4
 40
25.3999999999999986
 49
12.6999999999999993
 74
0
 49
-6.3499999999999996
 74
0
 49
0.0
 74
0
 49
-6.3499999999999996
 74
0
  0
LTYPE
  5
38
100
AcDbSymbolTableRecord
100
AcDbLinetypeTableRecord
  2
DASHDOT2
 70
0
  3
Dash dot (.5x) _._._._._._._._._._._._._._._.
 72
65
 73
4
 40
12.6999999999999993
 49
6.3499999999999996
 74
0
 49
-3.1749999999999998
 74
0
 49
0.0
 74
0
 49
-3.1749999999999998
 74
0
  0
LTYPE
  5
39
100
AcDbSymbolTableRecord
100
AcDbLinetypeTableRecord
  2
DASHDOTX2
 70
0
  3
Dash dot (2x) ____  .  ____  .  ____  .  ___
 72
65
 73
4
 40
50.7999999999999972
 49
25.3999999999999986
 74
0
 49
-12.6999999999999993
 74
0
 49
0.0
 74
0
 49
-12.6999999999999993
 74
0
  0
LTYPE
  5
3A
100
AcDbSymbolTableRecord
100
AcDbLinetypeTableRecord
  2
DIVIDE
 70
0
  3
Divide ____ . . ____ . . ____ . . ____ . . ____
 72
65
 73
6
 40
31.75
 49
12.6999999999999993
 74
0
 49
-6.3499999999999996
 74
0
 49
0.0
 74
0
 49
-6.3499999999999996
 74
0
 49
0.0
 74
0
 49
-6.3499999999999996
 74
0
  0
LTYPE
  5
3B
100
AcDbSymbolTableRecord
100
AcDbLinetypeTableRecord
  2
DIVIDE2
 70
0
  3
Divide (.5x) __..__..__..__..__..__..__..__.._
 72
65
 73
6
 40
15.875
 49
6.3499999999999996
 74
0
 49
-3.1749999999999998
 74
0
 49
0.0
 74
0
 49
-3.1749999999999998
 74
0
 49
0.0
 74
0
 49
-3.1749999999999998
 74
0
  0
LTYPE
  5
3C
100
AcDbSymbolTableRecord
100
AcDbLinetypeTableRecord
  2
DIVIDEX2
 70
0
  3
Divide (2x) ________  .  .  ________  .  .  _
 72
65
 73
6
 40
63.5
 49
25.3999999999999986
 74
0
 49
-12.6999999999999993
 74
0
 49
0.0
 74
0
 49
-12.6999999999999993
 74
0
 49
0.0
 74
0
 49
-12.6999999999999993
 74
0
  0
LTYPE
  5
3D
100
AcDbSymbolTableRecord
100
AcDbLinetypeTableRecord
  2
CENTER
 70
0
  3
Center ____ _ ____ _ ____ _ ____ _ ____ _ ____
 72
65
 73
4
 40
50.7999999999999972
 49
31.75
 74
0
 49
-6.3499999999999996
 74
0
 49
6.3499999999999996
 74
0
 49
-6.3499999999999996
 74
0
  0
LTYPE
  5
3E
100
AcDbSymbolTableRecord
100
AcDbLinetypeTableRecord
  2
CENTER2
 70
0
  3
Center (.5x) ___ _ ___ _ ___ _ ___ _ ___ _ ___
 72
65
 73
4
 40
28.5749999999999993
 49
19.0500000000000007
 74
0
 49
-3.1749999999999998
 74
0
 49
3.1749999999999998
 74
0
 49
-3.1749999999999998
 74
0
  0
LTYPE
  5
3F
100
AcDbSymbolTableRecord
100
AcDbLinetypeTableRecord
  2
CENTERX2
 70
0
  3
Center (2x) ________  __  ________  __  _____
 72
65
 73
4
 40
101.5999999999999943
 49
63.5
 74
0
 49
-12.6999999999999993
 74
0
 49
12.6999999999999993
 74
0
 49
-12.6999999999999993
 74
0
  0
LTYPE
  5
40
100
AcDbSymbolTableRecord
100
AcDbLinetypeTableRecord
  2
BORDER
 70
0
  3
Border __ __ . __ __ . __ __ . __ __ . __ __ .
 72
65
 73
6
 40
44.4500000000000028
 49
12.6999999999999993
 74
0
 49
-6.3499999999999996
 74
0
 49
12.6999999999999993
 74
0
 49
-6.3499999999999996
 74
0
 49
0.0
 74
0
 49
-6.3499999999999996
 74
0
  0
LTYPE
  5
41
100
AcDbSymbolTableRecord
100
AcDbLinetypeTableRecord
  2
BORDER2
 70
0
  3
Border (.5x) __.__.__.__.__.__.__.__.__.__.__.
 72
65
 73
6
 40
22.2250000000000014
 49
6.3499999999999996
 74
0
 49
-3.1749999999999998
 74
0
 49
6.3499999999999996
 74
0
 49
-3.1749999999999998
 74
0
 49
0.0
 74
0
 49
-3.1749999999999998
 74
0
  0
LTYPE
  5
42
100
AcDbSymbolTableRecord
100
AcDbLinetypeTableRecord
  2
BORDERX2
 70
0
  3
Border (2x) ____  ____  .  ____  ____  .  ___
 72
65
 73
6
 40
88.9000000000000057
 49
25.3999999999999986
 74
0
 49
-12.6999999999999993
 74
0
 49
25.3999999999999986
 74
0
 49
-12.6999999999999993
 74
0
 49
0.0
 74
0
 49
-12.6999999999999993
 74
0
  0
ENDTAB
  0
TABLE
  2
LAYER
  5
2
100
AcDbSymbolTable
 70
1
  0
LAYER
  5
10
100
AcDbSymbolTableRecord
100
AcDbLayerTableRecord
  2
0
 70
0
 62
7
  6
CONTINUOUS
370
0
390
F
  0
ENDTAB
  0
TABLE
  2
STYLE
  5
3
100
AcDbSymbolTable
 70
1
  0
STYLE
  5
11
100
AcDbSymbolTableRecord
100
AcDbTextStyleTableRecord
  2
Standard
 70
0
 40
0.0
 41
0.75
 50
0.0
 71
0
 42
2.5
  3
txt
  4

  0
ENDTAB
  0
TABLE
  2
VIEW
  5
6
100
AcDbSymbolTable
 70
0
  0
ENDTAB
  0
TABLE
  2
UCS
  5
7
100
AcDbSymbolTable
 70
0
  0
ENDTAB
  0
TABLE
  2
APPID
  5
9
100
AcDbSymbolTable
 70
1
  0
APPID
  5
12
100
AcDbSymbolTableRecord
100
AcDbRegAppTableRecord
  2
ACAD
 70
0
  0
ENDTAB
  0
TABLE
  2
DIMSTYLE
  5
A
100
AcDbSymbolTable
 70
1
100
AcDbDimStyleTable
 71
0
  0
DIMSTYLE
105
27
100
AcDbSymbolTableRecord
100
AcDbDimStyleTableRecord
  2
Standard
 41
2.5
 42
0.625
 43
3.75
 44
1.25
 70
0
 73
0
 74
0
 77
1
 78
8
140
2.5
141
2.5
143
0.03937007874016
147
0.625
171
3
172
1
271
2
272
2
274
3
278
44
283
0
284
8
340
11
  0
ENDTAB
  0
TABLE
  2
BLOCK_RECORD
  5
1
100
AcDbSymbolTable
 70
1
  0
BLOCK_RECORD
  5
1F
100
AcDbSymbolTableRecord
100
AcDbBlockTableRecord
  2
*Model_Space
340
22
  0
BLOCK_RECORD
  5
1B
100
AcDbSymbolTableRecord
100
AcDbBlockTableRecord
  2
*Paper_Space
340
1E
  0
BLOCK_RECORD
  5
23
100
AcDbSymbolTableRecord
100
AcDbBlockTableRecord
  2
*Paper_Space0
340
26
  0
ENDTAB
  0
ENDSEC
  0
SECTION
  2
BLOCKS
  0
BLOCK
  5
20
100
AcDbEntity
  8
0
100
AcDbBlockBegin
  2
*Model_Space
 70
0
 10
0.0
 20
0.0
 30
0.0
  3
*Model_Space
  1

  0
ENDBLK
  5
21
100
AcDbEntity
  8
0
100
AcDbBlockEnd
  0
BLOCK
  5
1C
100
AcDbEntity
 67
1
  8
0
100
AcDbBlockBegin
  2
*Paper_Space
 70
0
 10
0.0
 20
0.0
 30
0.0
  3
*Paper_Space
  1

  0
ENDBLK
  5
1D
100
AcDbEntity
 67
1
  8
0
100
AcDbBlockEnd
  0
BLOCK
  5
24
100
AcDbEntity
  8
0
100
AcDbBlockBegin
  2
*Paper_Space0
 70
0
 10
0.0
 20
0.0
 30
0.0
  3
*Paper_Space0
  1

  0
ENDBLK
  5
25
100
AcDbEntity
  8
0
100
AcDbBlockEnd
  0
ENDSEC
  0
SECTION
  2
ENTITIES
  0
LINE
  5
43
100
AcDbEntity
100
AcDbLine
  8
0
 62
256
370
-1
  6
ByLayer
 10
0.0
 20
0.0
 30
0.0
 11
140.0
 21
0.0
 31
0.0
  0
LINE
  5
44
100
AcDbEntity
100
AcDbLine
  8
0
 62
256
370
-1
  6
ByLayer
 10
140.0
 20
88.0
 30
0.0
 11
0.0
 21
88.0
 31
0.0
  0
LINE
  5
45
100
AcDbEntity
100
AcDbLine
  8
0
 62
256
370
-1
  6
ByLayer
 10
0.0
 20
88.0
 30
0.0
 11
0.0
 21
0.0
 31
0.0
  0
CIRCLE
  5
46
100
AcDbEntity
100
AcDbCircle
  8
0
 62
256
370
-1
  6
ByLayer
 10
130.0
 20
22.0
 30
0.0
 40
1.6499999999999999
  0
CIRCLE
  5
47
100
AcDbEntity
100
AcDbCircle
  8
0
 62
256
370
-1
  6
ByLayer
 10
130.0
 20
66.0
 30
0.0
 40
1.6499999999999999
  0
LINE
  5
48
100
AcDbEntity
100
AcDbLine
  8
0
 62
256
370
-1
  6
ByLayer
 10
130.0
 20
44.0
 30
0.0
 11
130.0
 21
60.0
 31
0.0
  0
LINE
  5
49
100
AcDbEntity
100
AcDbLine
  8
0
 62
256
370
-1
  6
ByLayer
 10
130.0
 20
60.0
 30
0.0
 11
140.0
 21
66.0
 31
0.0
  0
LINE
  5
4A
100
AcDbEntity
100
AcDbLine
  8
0
 62
256
370
-1
  6
ByLayer
 10
130.0
 20
44.0
 30
0.0
 11
130.0
 21
27.9999999999999645
 31
0.0
  0
LINE
  5
4B
100
AcDbEntity
100
AcDbLine
  8
0
 62
256
370
-1
  6
ByLayer
 10
130.0
 20
27.9999999999999645
 30
0.0
 11
140.0
 21
22.0000000000000142
 31
0.0
  0
LINE
  5
4C
100
AcDbEntity
100
AcDbLine
  8
0
 62
256
370
-1
  6
ByLayer
 10
140.0
 20
0.0
 30
0.0
 11
140.0
 21
22.0000000000000142
 31
0.0
  0
LINE
  5
4D
100
AcDbEntity
100
AcDbLine
  8
0
 62
256
370
-1
  6
ByLayer
 10
140.0
 20
66.0
 30
0.0
 11
140.0
 21
88.0
 31
0.0
  0
CIRCLE
  5
4E
100
AcDbEntity
100
AcDbCircle
  8
0
 62
256
370
-1
  6
ByLayer
 10
10.0
 20
66.0
 30
0.0
 40
1.6499999999999999
  0
CIRCLE
  5
4F
100
AcDbEntity
100
AcDbCircle
  8
0
 62
256
370
-1
  6
ByLayer
 10
10.0
 20
22.0
 30
0.0
 40
1.6499999999999999
  0
CIRCLE
  5
50
100
AcDbEntity
100
AcDbCircle
  8
0
 62
256
370
-1
  6
ByLayer
 10
10.0
 20
66.0
 30
0.0
 40
3.5
  0
CIRCLE
  5
51
100
AcDbEntity
100
AcDbCircle
  8
0
 62
256
370
-1
  6
ByLayer
 10
10.0
 20
22.0
 30
0.0
 40
3.5
  0
CIRCLE
  5
52
100
AcDbEntity
100
AcDbCircle
  8
0
 62
256
370
-1
  6
ByLayer
 10
130.0
 20
22.0
 30
0.0
 40
3.5
  0
CIRCLE
  5
53
100
AcDbEntity
100
AcDbCircle
  8
0
 62
256
370
-1
  6
ByLayer
 10
130.0
 20
66.0
 30
0.0
 40
3.5
  0
LINE
  5
54
100
AcDbEntity
100
AcDbLine
  8
0
 62
256
370
-1
  6
ByLayer
 10
14.8897399618505251
 20
65.6171329361003615
 30
0.0
 11
14.8897399618505251
 21
66.6171330472114676
 31
0.0
  0
LINE
  5
55
100
AcDbEntity
100
AcDbLine
  8
0
 62
256
370
-1
  6
ByLayer
 10
14.8897399618505251
 20
66.6171330472114676
 30
0.0
 11
15.2230732951838572
 21
66.0615774916559104
 31
0.0
  0
LINE
  5
56
100
AcDbEntity
100
AcDbLine
  8
0
 62
256
370
-1
  6
ByLayer
 10
15.2230732951838572
 20
66.0615774916559104
 30
0.0
 11
15.5564066285171911
 21
66.6171330472114676
 31
0.0
  0
LINE
  5
57
100
AcDbEntity
100
AcDbLine
  8
0
 62
256
370
-1
  6
ByLayer
 10
15.5564066285171911
 20
66.6171330472114676
 30
0.0
 11
15.5564066285171911
 21
65.6171329361466178
 31
0.0
  0
LINE
  5
58
100
AcDbEntity
100
AcDbLine
  8
0
 62
256
370
-1
  6
ByLayer
 10
15.8897399618505233
 20
66.6171330472114676
 30
0.0
 11
16.1119621840727447
 21
66.6171330472114676
 31
0.0
  0
LINE
  5
59
100
AcDbEntity
100
AcDbLine
  8
0
 62
256
370
-1
  6
ByLayer
 10
16.1119621840727447
 20
66.1726884916559186
 30
0.0
 11
16.000851072961634
 21
66.1726884916559186
 31
0.0
  0
LINE
  5
5A
100
AcDbEntity
100
AcDbLine
  8
0
 62
256
370
-1
  6
ByLayer
 10
16.3341844062949662
 20
65.9504663805447962
 30
0.0
 11
16.3341844062949662
 21
65.8393552694336961
 31
0.0
  0
LINE
  5
5B
100
AcDbEntity
100
AcDbLine
  8
0
 62
256
370
-1
  6
ByLayer
 10
16.1119621840727447
 20
65.6171329360954161
 30
0.0
 11
15.8897400729616294
 21
65.6171330472114676
 31
0.0
  0
ARC
  5
5C
100
AcDbEntity
  8
0
 62
256
370
-1
  6
ByLayer
100
AcDbCircle
 10
16.1119621840727447
 20
66.394910824989239
 30
0.0
 40
0.2222222222222222
100
AcDbArc
 50
270.0
 51
90.0
  0
ARC
  5
5D
100
AcDbEntity
  8
0
 62
256
370
-1
  6
ByLayer
100
AcDbCircle
 10
16.1119621840727447
 20
65.9504663805447962
 30
0.0
 40
0.2222222222222222
100
AcDbArc
 50
0.0
 51
90.0
  0
ARC
  5
5E
100
AcDbEntity
  8
0
 62
256
370
-1
  6
ByLayer
100
AcDbCircle
 10
16.1119621840727447
 20
65.8393552694336961
 30
0.0
 40
0.2222222222222222
100
AcDbArc
 50
270.0
 51
0.0
  0
LINE
  5
5F
100
AcDbEntity
100
AcDbLine
  8
0
 62
256
370
-1
  6
ByLayer
 10
16.6675177396283019
 20
66.6171330472114676
 30
0.0
 11
17.3341732951838559
 21
65.6171329361466178
 31
0.0
  0
LINE
  5
60
100
AcDbEntity
100
AcDbLine
  8
0
 62
256
370
-1
  6
ByLayer
 10
16.6675178507394079
 20
65.6171330472114676
 30
0.0
 11
17.3341732951838559
 21
66.6171330472114676
 31
0.0
  0
LINE
  5
61
100
AcDbEntity
100
AcDbLine
  8
0
 62
256
370
-1
  6
ByLayer
 10
17.6674955174060813
 20
66.394910824989239
 30
0.0
 11
17.8897177396283027
 21
66.6171330472114676
 31
0.0
  0
LINE
  5
62
100
AcDbEntity
100
AcDbLine
  8
0
 62
256
370
-1
  6
ByLayer
 10
17.8897177396283027
 20
66.6171330472114676
 30
0.0
 11
17.8897177396283027
 21
65.6171329361009725
 31
0.0
  0
ARC
  5
63
100
AcDbEntity
  8
0
 62
256
370
-1
  6
ByLayer
100
AcDbCircle
 10
18.4452732951838563
 20
66.4960763805448067
 30
0.0
 40
0.1210566666666667
100
AcDbArc
 50
32.7569500000000033
 51
147.2430420000000026
  0
ARC
  5
64
100
AcDbEntity
  8
0
 62
256
370
-1
  6
ByLayer
100
AcDbCircle
 10
18.7712010729616345
 20
66.2419686027670167
 30
0.0
 40
0.5339544444444444
100
AcDbArc
 50
143.2324680000000114
 51
169.4911350000000141
  0
ARC
  5
65
100
AcDbEntity
  8
0
 62
256
370
-1
  6
ByLayer
100
AcDbCircle
 10
18.7712010729616345
 20
65.9922974916559184
 30
0.0
 40
0.5339544444444444
100
AcDbArc
 50
190.5088649999999859
 51
216.7675319999999886
  0
ARC
  5
66
100
AcDbEntity
  8
0
 62
256
370
-1
  6
ByLayer
100
AcDbCircle
 10
18.4452732951838563
 20
65.7381897138781284
 30
0.0
 40
0.1210566666666667
100
AcDbArc
 50
212.7569579999999974
 51
327.2430420000000026
  0
ARC
  5
67
100
AcDbEntity
  8
0
 62
256
370
-1
  6
ByLayer
100
AcDbCircle
 10
18.119345517406078
 20
65.9922974916559184
 30
0.0
 40
0.5339544444444444
100
AcDbArc
 50
323.2324520000000234
 51
349.4911190000000261
  0
ARC
  5
68
100
AcDbEntity
  8
0
 62
256
370
-1
  6
ByLayer
100
AcDbCircle
 10
17.6225329618505242
 20
66.1136952694336912
 30
0.0
 40
1.04497
100
AcDbArc
 50
347.9131469999999808
 51
0.18851
  0
ARC
  5
69
100
AcDbEntity
  8
0
 62
256
370
-1
  6
ByLayer
100
AcDbCircle
 10
17.6225329618505242
 20
66.1205708249892439
 30
0.0
 40
1.04497
100
AcDbArc
 50
359.8114929999999845
 51
12.0868599999999997
  0
ARC
  5
6A
100
AcDbEntity
  8
0
 62
256
370
-1
  6
ByLayer
100
AcDbCircle
 10
18.119345517406078
 20
66.2419686027670167
 30
0.0
 40
0.5339544444444444
100
AcDbArc
 50
10.5088699999999999
 51
36.7675399999999968
  0
ARC
  5
6B
100
AcDbEntity
  8
0
 62
256
370
-1
  6
ByLayer
100
AcDbCircle
 10
19.2680136285171919
 20
66.1136952694336912
 30
0.0
 40
1.04497
100
AcDbArc
 50
179.8114930000000129
 51
192.0868680000000097
  0
ARC
  5
6C
100
AcDbEntity
  8
0
 62
256
370
-1
  6
ByLayer
100
AcDbCircle
 10
19.2680136285171919
 20
66.1205708249892439
 30
0.0
 40
1.04497
100
AcDbArc
 50
167.9131319999999903
 51
180.1885069999999871
  0
LINE
  5
6D
100
AcDbEntity
100
AcDbLine
  8
0
 62
256
370
-1
  6
ByLayer
 10
19.0008251840727489
 20
65.6171329361003615
 30
0.0
 11
19.0008251840727489
 21
66.6171330472114676
 31
0.0
  0
LINE
  5
6E
100
AcDbEntity
100
AcDbLine
  8
0
 62
256
370
-1
  6
ByLayer
 10
19.0008251840727489
 20
66.6171330472114676
 30
0.0
 11
19.334158517406081
 21
66.0615774916559104
 31
0.0
  0
LINE
  5
6F
100
AcDbEntity
100
AcDbLine
  8
0
 62
256
370
-1
  6
ByLayer
 10
19.334158517406081
 20
66.0615774916559104
 30
0.0
 11
19.6674918507394132
 21
66.6171330472114676
 31
0.0
  0
LINE
  5
70
100
AcDbEntity
100
AcDbLine
  8
0
 62
256
370
-1
  6
ByLayer
 10
19.6674918507394132
 20
66.6171330472114676
 30
0.0
 11
19.6674918507394132
 21
65.6171329361466178
 31
0.0
  0
LINE
  5
71
100
AcDbEntity
100
AcDbLine
  8
0
 62
256
370
-1
  6
ByLayer
 10
20.000814072961635
 20
65.6171329361003615
 30
0.0
 11
20.000814072961635
 21
66.6171330472114676
 31
0.0
  0
LINE
  5
72
100
AcDbEntity
100
AcDbLine
  8
0
 62
256
370
-1
  6
ByLayer
 10
20.000814072961635
 20
66.6171330472114676
 30
0.0
 11
20.3341474062949672
 21
66.0615774916559104
 31
0.0
  0
LINE
  5
73
100
AcDbEntity
100
AcDbLine
  8
0
 62
256
370
-1
  6
ByLayer
 10
20.3341474062949672
 20
66.0615774916559104
 30
0.0
 11
20.6674807396282993
 21
66.6171330472114676
 31
0.0
  0
LINE
  5
74
100
AcDbEntity
100
AcDbLine
  8
0
 62
256
370
-1
  6
ByLayer
 10
20.6674807396282993
 20
66.6171330472114676
 30
0.0
 11
20.6674807396282993
 21
65.6171329361466178
 31
0.0
  0
LINE
  5
75
100
AcDbEntity
100
AcDbLine
  8
0
 62
256
370
-1
  6
ByLayer
 10
21.7508029618505248
 20
66.0615774916559104
 30
0.0
 11
22.1952585174060779
 21
66.0615774916559104
 31
0.0
  0
LINE
  5
76
100
AcDbEntity
100
AcDbLine
  8
0
 62
256
370
-1
  6
ByLayer
 10
21.9730362951838565
 20
66.2837996027670187
 30
0.0
 11
21.9730362951838565
 21
65.8393552694336961
 31
0.0
  0
LINE
  5
77
100
AcDbEntity
100
AcDbLine
  8
0
 62
256
370
-1
  6
ByLayer
 10
23.2785807396282998
 20
65.6171329361003615
 30
0.0
 11
23.2785807396282998
 21
66.6171330472114676
 31
0.0
  0
LINE
  5
78
100
AcDbEntity
100
AcDbLine
  8
0
 62
256
370
-1
  6
ByLayer
 10
23.2785807396282998
 20
66.6171330472114676
 30
0.0
 11
23.6119140729616319
 21
66.0615774916559104
 31
0.0
  0
LINE
  5
79
100
AcDbEntity
100
AcDbLine
  8
0
 62
256
370
-1
  6
ByLayer
 10
23.6119140729616319
 20
66.0615774916559104
 30
0.0
 11
23.9452474062949641
 21
66.6171330472114676
 31
0.0
  0
LINE
  5
7A
100
AcDbEntity
100
AcDbLine
  8
0
 62
256
370
-1
  6
ByLayer
 10
23.9452474062949641
 20
66.6171330472114676
 30
0.0
 11
23.9452474062949641
 21
65.6171329361466178
 31
0.0
  0
LINE
  5
7B
100
AcDbEntity
100
AcDbLine
  8
0
 62
256
370
-1
  6
ByLayer
 10
24.2785807396283033
 20
66.6171330472114818
 30
0.0
 11
24.5008029618505248
 21
66.6171330472114818
 31
0.0
  0
LINE
  5
7C
100
AcDbEntity
100
AcDbLine
  8
0
 62
256
370
-1
  6
ByLayer
 10
24.5008029618505248
 20
66.1726884916559328
 30
0.0
 11
24.389691850739414
 21
66.1726884916559328
 31
0.0
  0
LINE
  5
7D
100
AcDbEntity
100
AcDbLine
  8
0
 62
256
370
-1
  6
ByLayer
 10
24.7230251840727462
 20
65.9504663805448104
 30
0.0
 11
24.7230251840727462
 21
65.8393552694337103
 31
0.0
  0
LINE
  5
7E
100
AcDbEntity
100
AcDbLine
  8
0
 62
256
370
-1
  6
ByLayer
 10
24.5008029618505248
 20
65.6171329360954303
 30
0.0
 11
24.2785808507394094
 21
65.6171330472114818
 31
0.0
  0
ARC
  5
7F
100
AcDbEntity
  8
0
 62
256
370
-1
  6
ByLayer
100
AcDbCircle
 10
24.5008029618505248
 20
66.3949108249892532
 30
0.0
 40
0.2222222222222222
100
AcDbArc
 50
270.0
 51
90.0
  0
ARC
  5
80
100
AcDbEntity
  8
0
 62
256
370
-1
  6
ByLayer
100
AcDbCircle
 10
24.5008029618505248
 20
65.9504663805448104
 30
0.0
 40
0.2222222222222222
100
AcDbArc
 50
0.0
 51
90.0
  0
ARC
  5
81
100
AcDbEntity
  8
0
 62
256
370
-1
  6
ByLayer
100
AcDbCircle
 10
24.5008029618505248
 20
65.8393552694337103
 30
0.0
 40
0.2222222222222222
100
AcDbArc
 50
270.0
 51
0.0
  0
LINE
  5
82
100
AcDbEntity
100
AcDbLine
  8
0
 62
256
370
-1
  6
ByLayer
 10
25.806347406294968
 20
66.6171330472114676
 30
0.0
 11
26.0285696285171895
 21
65.6171329361009725
 31
0.0
  0
LINE
  5
83
100
AcDbEntity
100
AcDbLine
  8
0
 62
256
370
-1
  6
ByLayer
 10
26.0285696285171895
 20
65.6171329361009725
 30
0.0
 11
26.2507918507394109
 21
66.2837996027670187
 31
0.0
  0
LINE
  5
84
100
AcDbEntity
100
AcDbLine
  8
0
 62
256
370
-1
  6
ByLayer
 10
26.2507918507394109
 20
66.2837996027670187
 30
0.0
 11
26.4730140729616323
 21
65.6171329361466178
 31
0.0
  0
LINE
  5
85
100
AcDbEntity
100
AcDbLine
  8
0
 62
256
370
-1
  6
ByLayer
 10
26.4730140729616323
 20
65.6171329361466178
 30
0.0
 11
26.6952362951838573
 21
66.6171330472114676
 31
0.0
  0
LINE
  5
86
100
AcDbEntity
100
AcDbLine
  8
0
 62
256
370
-1
  6
ByLayer
 10
27.0285585174060792
 20
65.6171329361003473
 30
0.0
 11
27.361880739628301
 21
66.6171330472114533
 31
0.0
  0
LINE
  5
87
100
AcDbEntity
100
AcDbLine
  8
0
 62
256
370
-1
  6
ByLayer
 10
27.361880739628301
 20
66.6171330472114533
 30
0.0
 11
27.6952474062949676
 21
65.6171329365880638
 31
0.0
  0
LINE
  5
88
100
AcDbEntity
100
AcDbLine
  8
0
 62
256
370
-1
  6
ByLayer
 10
27.1211585174060801
 20
65.8949108249892248
 30
0.0
 11
27.6026362951838564
 21
65.8949108249892248
 31
0.0
  0
LINE
  5
89
100
AcDbEntity
100
AcDbLine
  8
0
 62
256
370
-1
  6
ByLayer
 10
28.149869628517191
 20
66.1969428249892502
 30
0.0
 11
28.4628362951838589
 21
66.0373229361003524
 31
0.0
  0
ARC
  5
8A
100
AcDbEntity
  8
0
 62
256
370
-1
  6
ByLayer
100
AcDbCircle
 10
28.250814072961635
 20
65.8810218249892472
 30
0.0
 40
0.736111111111111
100
AcDbArc
 50
63.0745840000000015
 51
90.0
  0
ARC
  5
8B
100
AcDbEntity
  8
0
 62
256
370
-1
  6
ByLayer
100
AcDbCircle
 10
28.250814072961635
 20
66.394910824989239
 30
0.0
 40
0.2222222222222222
100
AcDbArc
 50
90.0
 51
242.9811799999999948
  0
ARC
  5
8C
100
AcDbEntity
  8
0
 62
256
370
-1
  6
ByLayer
100
AcDbCircle
 10
28.3619251840727493
 20
65.8393552694336961
 30
0.0
 40
0.2222222222222222
100
AcDbArc
 50
270.0
 51
62.9811850000000035
  0
ARC
  5
8D
100
AcDbEntity
  8
0
 62
256
370
-1
  6
ByLayer
100
AcDbCircle
 10
28.3619251840727493
 20
66.3532440472114615
 30
0.0
 40
0.736111111111111
100
AcDbArc
 50
243.0745799999999974
 51
270.0
  0
LINE
  5
8E
100
AcDbEntity
100
AcDbLine
  8
0
 62
256
370
-1
  6
ByLayer
 10
28.9174807919971997
 20
66.6171330472114818
 30
0.0
 11
28.9174809031083058
 21
65.6171330472114818
 31
0.0
  0
LINE
  5
8F
100
AcDbEntity
100
AcDbLine
  8
0
 62
256
370
-1
  6
ByLayer
 10
29.4730363475527568
 20
65.6171329361447846
 30
0.0
 11
29.4730363475527568
 21
66.6171330472114818
 31
0.0
  0
LINE
  5
90
100
AcDbEntity
100
AcDbLine
  8
0
 62
256
370
-1
  6
ByLayer
 10
28.9174807919971997
 20
66.1726884916559328
 30
0.0
 11
29.4730363475527568
 21
66.1726884916559328
 31
0.0
  0
LINE
  5
91
100
AcDbEntity
100
AcDbLine
  8
0
 62
256
370
-1
  6
ByLayer
 10
30.2508030142194215
 20
66.6171330472114676
 30
0.0
 11
29.806369680886089
 21
66.6171330472114676
 31
0.0
  0
LINE
  5
92
100
AcDbEntity
100
AcDbLine
  8
0
 62
256
370
-1
  6
ByLayer
 10
29.806369680886089
 20
66.6171330472114676
 30
0.0
 11
29.8063697919971951
 21
65.6171330472114676
 31
0.0
  0
LINE
  5
93
100
AcDbEntity
100
AcDbLine
  8
0
 62
256
370
-1
  6
ByLayer
 10
29.8063697919971951
 20
65.6171330472114676
 30
0.0
 11
30.2508030142194215
 21
65.6171329361969242
 31
0.0
  0
LINE
  5
94
100
AcDbEntity
100
AcDbLine
  8
0
 62
256
370
-1
  6
ByLayer
 10
29.806369680886089
 20
66.1726884916559186
 30
0.0
 11
30.1396919031083108
 21
66.1726884916559186
 31
0.0
  0
LINE
  5
95
100
AcDbEntity
100
AcDbLine
  8
0
 62
256
370
-1
  6
ByLayer
 10
30.5841364586638633
 20
65.6171330472114533
 30
0.0
 11
30.5841363475527572
 21
66.6171330472114533
 31
0.0
  0
LINE
  5
96
100
AcDbEntity
100
AcDbLine
  8
0
 62
256
370
-1
  6
ByLayer
 10
30.5841363475527572
 20
66.6171330472114533
 30
0.0
 11
30.9174696808860894
 21
66.6171330472114533
 31
0.0
  0
LINE
  5
97
100
AcDbEntity
100
AcDbLine
  8
0
 62
256
370
-1
  6
ByLayer
 10
31.1396919031083144
 20
66.3949108249892248
 30
0.0
 11
31.1396919031083144
 21
66.2837996027670044
 31
0.0
  0
LINE
  5
98
100
AcDbEntity
100
AcDbLine
  8
0
 62
256
370
-1
  6
ByLayer
 10
30.9174696808860894
 20
66.0615774916558962
 30
0.0
 11
30.5841363475527572
 21
66.0615774916558962
 31
0.0
  0
LINE
  5
99
100
AcDbEntity
100
AcDbLine
  8
0
 62
256
370
-1
  6
ByLayer
 10
30.9174696808860894
 20
66.0615774916558962
 30
0.0
 11
31.1396919031083144
 21
65.6171329361447562
 31
0.0
  0
ARC
  5
9A
100
AcDbEntity
  8
0
 62
256
370
-1
  6
ByLayer
100
AcDbCircle
 10
30.9174696808860894
 20
66.3949108249892248
 30
0.0
 40
0.2222222222222222
100
AcDbArc
 50
0.0
 51
90.0
  0
ARC
  5
9B
100
AcDbEntity
  8
0
 62
256
370
-1
  6
ByLayer
100
AcDbCircle
 10
30.9174696808860894
 20
66.2837996027670044
 30
0.0
 40
0.2222222222222222
100
AcDbArc
 50
270.0
 51
0.0
  0
LINE
  5
9C
100
AcDbEntity
100
AcDbLine
  8
0
 62
256
370
-1
  6
ByLayer
 10
15.4215167858848883
 20
21.5521715627090522
 30
0.0
 11
15.4215167858848883
 21
22.5521716738201619
 31
0.0
  0
LINE
  5
9D
100
AcDbEntity
100
AcDbLine
  8
0
 62
256
370
-1
  6
ByLayer
 10
15.4215167858848883
 20
22.5521716738201619
 30
0.0
 11
15.7548501192182204
 21
21.9966161182646047
 31
0.0
  0
LINE
  5
9E
100
AcDbEntity
100
AcDbLine
  8
0
 62
256
370
-1
  6
ByLayer
 10
15.7548501192182204
 20
21.9966161182646047
 30
0.0
 11
16.0881834525515544
 21
22.5521716738201619
 31
0.0
  0
LINE
  5
9F
100
AcDbEntity
100
AcDbLine
  8
0
 62
256
370
-1
  6
ByLayer
 10
16.0881834525515544
 20
22.5521716738201619
 30
0.0
 11
16.0881834525515544
 21
21.5521715627553156
 31
0.0
  0
LINE
  5
A0
100
AcDbEntity
100
AcDbLine
  8
0
 62
256
370
-1
  6
ByLayer
 10
16.4215167858848865
 20
22.5521716738201619
 30
0.0
 11
16.6437390081071079
 21
22.5521716738201619
 31
0.0
  0
LINE
  5
A1
100
AcDbEntity
100
AcDbLine
  8
0
 62
256
370
-1
  6
ByLayer
 10
16.6437390081071079
 20
22.1077271182646058
 30
0.0
 11
16.5326278969959972
 21
22.1077271182646058
 31
0.0
  0
LINE
  5
A2
100
AcDbEntity
100
AcDbLine
  8
0
 62
256
370
-1
  6
ByLayer
 10
16.8659612303293294
 20
21.885505007153494
 30
0.0
 11
16.8659612303293294
 21
21.7743938960423833
 31
0.0
  0
LINE
  5
A3
100
AcDbEntity
100
AcDbLine
  8
0
 62
256
370
-1
  6
ByLayer
 10
16.6437390081071079
 20
21.5521715627041104
 30
0.0
 11
16.4215168969959961
 21
21.5521716738201619
 31
0.0
  0
ARC
  5
A4
100
AcDbEntity
  8
0
 62
256
370
-1
  6
ByLayer
100
AcDbCircle
 10
16.6437390081071079
 20
22.3299494515979404
 30
0.0
 40
0.2222222222222222
100
AcDbArc
 50
270.0
 51
90.0
  0
ARC
  5
A5
100
AcDbEntity
  8
0
 62
256
370
-1
  6
ByLayer
100
AcDbCircle
 10
16.6437390081071079
 20
21.885505007153494
 30
0.0
 40
0.2222222222222222
100
AcDbArc
 50
0.0
 51
90.0
  0
ARC
  5
A6
100
AcDbEntity
  8
0
 62
256
370
-1
  6
ByLayer
100
AcDbCircle
 10
16.6437390081071079
 20
21.7743938960423833
 30
0.0
 40
0.2222222222222222
100
AcDbArc
 50
270.0
 51
0.0
  0
LINE
  5
A7
100
AcDbEntity
100
AcDbLine
  8
0
 62
256
370
-1
  6
ByLayer
 10
17.1992945636626651
 20
22.5521716738201619
 30
0.0
 11
17.8659501192182191
 21
21.5521715627553156
 31
0.0
  0
LINE
  5
A8
100
AcDbEntity
100
AcDbLine
  8
0
 62
256
370
-1
  6
ByLayer
 10
17.1992946747737747
 20
21.5521716738201619
 30
0.0
 11
17.8659501192182191
 21
22.5521716738201619
 31
0.0
  0
LINE
  5
A9
100
AcDbEntity
100
AcDbLine
  8
0
 62
256
370
-1
  6
ByLayer
 10
18.1992723414404445
 20
22.3299494515979404
 30
0.0
 11
18.4214945636626659
 21
22.5521716738201619
 31
0.0
  0
LINE
  5
AA
100
AcDbEntity
100
AcDbLine
  8
0
 62
256
370
-1
  6
ByLayer
 10
18.4214945636626659
 20
22.5521716738201619
 30
0.0
 11
18.4214945636626659
 21
21.5521715627096668
 31
0.0
  0
ARC
  5
AB
100
AcDbEntity
  8
0
 62
256
370
-1
  6
ByLayer
100
AcDbCircle
 10
18.9770501192182195
 20
22.4311150071534939
 30
0.0
 40
0.1210566666666667
100
AcDbArc
 50
32.7569500000000033
 51
147.2430420000000026
  0
ARC
  5
AC
100
AcDbEntity
  8
0
 62
256
370
-1
  6
ByLayer
100
AcDbCircle
 10
19.3029778969959978
 20
22.1770072293757181
 30
0.0
 40
0.5339544444444444
100
AcDbArc
 50
143.2324680000000114
 51
169.4911350000000141
  0
ARC
  5
AD
100
AcDbEntity
  8
0
 62
256
370
-1
  6
ByLayer
100
AcDbCircle
 10
19.3029778969959978
 20
21.9273361182646056
 30
0.0
 40
0.5339544444444444
100
AcDbArc
 50
190.5088649999999859
 51
216.7675319999999886
  0
ARC
  5
AE
100
AcDbEntity
  8
0
 62
256
370
-1
  6
ByLayer
100
AcDbCircle
 10
18.9770501192182195
 20
21.6732283404868298
 30
0.0
 40
0.1210566666666667
100
AcDbArc
 50
212.7569579999999974
 51
327.2430420000000026
  0
ARC
  5
AF
100
AcDbEntity
  8
0
 62
256
370
-1
  6
ByLayer
100
AcDbCircle
 10
18.6511223414404412
 20
21.9273361182646056
 30
0.0
 40
0.5339544444444444
100
AcDbArc
 50
323.2324520000000234
 51
349.4911190000000261
  0
ARC
  5
B0
100
AcDbEntity
  8
0
 62
256
370
-1
  6
ByLayer
100
AcDbCircle
 10
18.1543097858848874
 20
22.0487338960423855
 30
0.0
 40
1.04497
100
AcDbArc
 50
347.9131469999999808
 51
0.18851
  0
ARC
  5
B1
100
AcDbEntity
  8
0
 62
256
370
-1
  6
ByLayer
100
AcDbCircle
 10
18.1543097858848874
 20
22.0556094515979382
 30
0.0
 40
1.04497
100
AcDbArc
 50
359.8114929999999845
 51
12.0868599999999997
  0
ARC
  5
B2
100
AcDbEntity
  8
0
 62
256
370
-1
  6
ByLayer
100
AcDbCircle
 10
18.6511223414404412
 20
22.1770072293757181
 30
0.0
 40
0.5339544444444444
100
AcDbArc
 50
10.5088699999999999
 51
36.7675399999999968
  0
ARC
  5
B3
100
AcDbEntity
  8
0
 62
256
370
-1
  6
ByLayer
100
AcDbCircle
 10
19.7997904525515551
 20
22.0487338960423855
 30
0.0
 40
1.04497
100
AcDbArc
 50
179.8114930000000129
 51
192.0868680000000097
  0
ARC
  5
B4
100
AcDbEntity
  8
0
 62
256
370
-1
  6
ByLayer
100
AcDbCircle
 10
19.7997904525515551
 20
22.0556094515979382
 30
0.0
 40
1.04497
100
AcDbArc
 50
167.9131319999999903
 51
180.1885069999999871
  0
LINE
  5
B5
100
AcDbEntity
100
AcDbLine
  8
0
 62
256
370
-1
  6
ByLayer
 10
19.5326020081071121
 20
21.5521715627090487
 30
0.0
 11
19.5326020081071121
 21
22.5521716738201583
 31
0.0
  0
LINE
  5
B6
100
AcDbEntity
100
AcDbLine
  8
0
 62
256
370
-1
  6
ByLayer
 10
19.5326020081071121
 20
22.5521716738201583
 30
0.0
 11
19.8659353414404443
 21
21.9966161182646012
 31
0.0
  0
LINE
  5
B7
100
AcDbEntity
100
AcDbLine
  8
0
 62
256
370
-1
  6
ByLayer
 10
19.8659353414404443
 20
21.9966161182646012
 30
0.0
 11
20.1992686747737764
 21
22.5521716738201583
 31
0.0
  0
LINE
  5
B8
100
AcDbEntity
100
AcDbLine
  8
0
 62
256
370
-1
  6
ByLayer
 10
20.1992686747737764
 20
22.5521716738201583
 30
0.0
 11
20.1992686747737764
 21
21.5521715627553121
 31
0.0
  0
LINE
  5
B9
100
AcDbEntity
100
AcDbLine
  8
0
 62
256
370
-1
  6
ByLayer
 10
20.5325908969959983
 20
21.5521715627090522
 30
0.0
 11
20.5325908969959983
 21
22.5521716738201619
 31
0.0
  0
LINE
  5
BA
100
AcDbEntity
100
AcDbLine
  8
0
 62
256
370
-1
  6
ByLayer
 10
20.5325908969959983
 20
22.5521716738201619
 30
0.0
 11
20.8659242303293304
 21
21.9966161182646047
 31
0.0
  0
LINE
  5
BB
100
AcDbEntity
100
AcDbLine
  8
0
 62
256
370
-1
  6
ByLayer
 10
20.8659242303293304
 20
21.9966161182646047
 30
0.0
 11
21.1992575636626626
 21
22.5521716738201619
 31
0.0
  0
LINE
  5
BC
100
AcDbEntity
100
AcDbLine
  8
0
 62
256
370
-1
  6
ByLayer
 10
21.1992575636626626
 20
22.5521716738201619
 30
0.0
 11
21.1992575636626626
 21
21.5521715627553156
 31
0.0
  0
LINE
  5
BD
100
AcDbEntity
100
AcDbLine
  8
0
 62
256
370
-1
  6
ByLayer
 10
22.282579785884888
 20
21.9966161182646012
 30
0.0
 11
22.7270353414404411
 21
21.9966161182646012
 31
0.0
  0
LINE
  5
BE
100
AcDbEntity
100
AcDbLine
  8
0
 62
256
370
-1
  6
ByLayer
 10
22.5048131192182197
 20
22.218838229375713
 30
0.0
 11
22.5048131192182197
 21
21.7743938960423797
 31
0.0
  0
LINE
  5
BF
100
AcDbEntity
100
AcDbLine
  8
0
 62
256
370
-1
  6
ByLayer
 10
23.8103575636626665
 20
21.5521715627090593
 30
0.0
 11
23.8103575636626665
 21
22.552171673820169
 31
0.0
  0
LINE
  5
C0
100
AcDbEntity
100
AcDbLine
  8
0
 62
256
370
-1
  6
ByLayer
 10
23.8103575636626665
 20
22.552171673820169
 30
0.0
 11
24.1436908969959987
 21
21.9966161182646118
 31
0.0
  0
LINE
  5
C1
100
AcDbEntity
100
AcDbLine
  8
0
 62
256
370
-1
  6
ByLayer
 10
24.1436908969959987
 20
21.9966161182646118
 30
0.0
 11
24.4770242303293308
 21
22.552171673820169
 31
0.0
  0
LINE
  5
C2
100
AcDbEntity
100
AcDbLine
  8
0
 62
256
370
-1
  6
ByLayer
 10
24.4770242303293308
 20
22.552171673820169
 30
0.0
 11
24.4770242303293308
 21
21.5521715627553228
 31
0.0
  0
LINE
  5
C3
100
AcDbEntity
100
AcDbLine
  8
0
 62
256
370
-1
  6
ByLayer
 10
24.810357563662663
 20
22.552171673820169
 30
0.0
 11
25.0325797858848844
 21
22.552171673820169
 31
0.0
  0
LINE
  5
C4
100
AcDbEntity
100
AcDbLine
  8
0
 62
256
370
-1
  6
ByLayer
 10
25.0325797858848844
 20
22.1077271182646129
 30
0.0
 11
24.9214686747737737
 21
22.1077271182646129
 31
0.0
  0
LINE
  5
C5
100
AcDbEntity
100
AcDbLine
  8
0
 62
256
370
-1
  6
ByLayer
 10
25.2548020081071058
 20
21.8855050071535011
 30
0.0
 11
25.2548020081071058
 21
21.7743938960423904
 31
0.0
  0
LINE
  5
C6
100
AcDbEntity
100
AcDbLine
  8
0
 62
256
370
-1
  6
ByLayer
 10
25.0325797858848844
 20
21.5521715627041175
 30
0.0
 11
24.8103576747737726
 21
21.552171673820169
 31
0.0
  0
ARC
  5
C7
100
AcDbEntity
  8
0
 62
256
370
-1
  6
ByLayer
100
AcDbCircle
 10
25.0325797858848844
 20
22.3299494515979475
 30
0.0
 40
0.2222222222222222
100
AcDbArc
 50
270.0
 51
90.0
  0
ARC
  5
C8
100
AcDbEntity
  8
0
 62
256
370
-1
  6
ByLayer
100
AcDbCircle
 10
25.0325797858848844
 20
21.8855050071535011
 30
0.0
 40
0.2222222222222222
100
AcDbArc
 50
0.0
 51
90.0
  0
ARC
  5
C9
100
AcDbEntity
  8
0
 62
256
370
-1
  6
ByLayer
100
AcDbCircle
 10
25.0325797858848844
 20
21.7743938960423904
 30
0.0
 40
0.2222222222222222
100
AcDbArc
 50
270.0
 51
0.0
  0
LINE
  5
CA
100
AcDbEntity
100
AcDbLine
  8
0
 62
256
370
-1
  6
ByLayer
 10
26.3381242303293313
 20
22.5521716738201619
 30
0.0
 11
26.5603464525515527
 21
21.5521715627096668
 31
0.0
  0
LINE
  5
CB
100
AcDbEntity
100
AcDbLine
  8
0
 62
256
370
-1
  6
ByLayer
 10
26.5603464525515527
 20
21.5521715627096668
 30
0.0
 11
26.7825686747737741
 21
22.2188382293757165
 31
0.0
  0
LINE
  5
CC
100
AcDbEntity
100
AcDbLine
  8
0
 62
256
370
-1
  6
ByLayer
 10
26.7825686747737741
 20
22.2188382293757165
 30
0.0
 11
27.0047908969959991
 21
21.5521715627553156
 31
0.0
  0
LINE
  5
CD
100
AcDbEntity
100
AcDbLine
  8
0
 62
256
370
-1
  6
ByLayer
 10
27.0047908969959991
 20
21.5521715627553156
 30
0.0
 11
27.2270131192182205
 21
22.5521716738201619
 31
0.0
  0
LINE
  5
CE
100
AcDbEntity
100
AcDbLine
  8
0
 62
256
370
-1
  6
ByLayer
 10
27.5603353414404424
 20
21.5521715627090451
 30
0.0
 11
27.8936575636626642
 21
22.5521716738201548
 31
0.0
  0
LINE
  5
CF
100
AcDbEntity
100
AcDbLine
  8
0
 62
256
370
-1
  6
ByLayer
 10
27.8936575636626642
 20
22.5521716738201548
 30
0.0
 11
28.2270242303293308
 21
21.5521715631967723
 31
0.0
  0
LINE
  5
D0
100
AcDbEntity
100
AcDbLine
  8
0
 62
256
370
-1
  6
ByLayer
 10
27.6529353414404433
 20
21.8299494515979333
 30
0.0
 11
28.1344131192182196
 21
21.8299494515979333
 31
0.0
  0
LINE
  5
D1
100
AcDbEntity
100
AcDbLine
  8
0
 62
256
370
-1
  6
ByLayer
 10
28.6816464525515507
 20
22.1319814515979409
 30
0.0
 11
28.9946131192182186
 21
21.9723615627090503
 31
0.0
  0
ARC
  5
D2
100
AcDbEntity
  8
0
 62
256
370
-1
  6
ByLayer
100
AcDbCircle
 10
28.7825908969959947
 20
21.8160604515979379
 30
0.0
 40
0.736111111111111
100
AcDbArc
 50
63.0745840000000015
 51
90.0
  0
ARC
  5
D3
100
AcDbEntity
  8
0
 62
256
370
-1
  6
ByLayer
100
AcDbCircle
 10
28.7825908969959947
 20
22.3299494515979404
 30
0.0
 40
0.2222222222222222
100
AcDbArc
 50
90.0
 51
242.9811799999999948
  0
ARC
  5
D4
100
AcDbEntity
  8
0
 62
256
370
-1
  6
ByLayer
100
AcDbCircle
 10
28.893702008107109
 20
21.7743938960423833
 30
0.0
 40
0.2222222222222222
100
AcDbArc
 50
270.0
 51
62.9811850000000035
  0
ARC
  5
D5
100
AcDbEntity
  8
0
 62
256
370
-1
  6
ByLayer
100
AcDbCircle
 10
28.893702008107109
 20
22.2882826738201629
 30
0.0
 40
0.736111111111111
100
AcDbArc
 50
243.0745799999999974
 51
270.0
  0
LINE
  5
D6
100
AcDbEntity
100
AcDbLine
  8
0
 62
256
370
-1
  6
ByLayer
 10
29.4492576160315629
 20
22.5521716738201832
 30
0.0
 11
29.4492577271426725
 21
21.5521716738201832
 31
0.0
  0
LINE
  5
D7
100
AcDbEntity
100
AcDbLine
  8
0
 62
256
370
-1
  6
ByLayer
 10
30.0048131715871165
 20
21.552171562753486
 30
0.0
 11
30.0048131715871165
 21
22.5521716738201832
 31
0.0
  0
LINE
  5
D8
100
AcDbEntity
100
AcDbLine
  8
0
 62
256
370
-1
  6
ByLayer
 10
29.4492576160315629
 20
22.1077271182646271
 30
0.0
 11
30.0048131715871165
 21
22.1077271182646271
 31
0.0
  0
LINE
  5
D9
100
AcDbEntity
100
AcDbLine
  8
0
 62
256
370
-1
  6
ByLayer
 10
30.7825798382537847
 20
22.5521716738201619
 30
0.0
 11
30.3381465049204522
 21
22.5521716738201619
 31
0.0
  0
LINE
  5
DA
100
AcDbEntity
100
AcDbLine
  8
0
 62
256
370
-1
  6
ByLayer
 10
30.3381465049204522
 20
22.5521716738201619
 30
0.0
 11
30.3381466160315618
 21
21.5521716738201619
 31
0.0
  0
LINE
  5
DB
100
AcDbEntity
100
AcDbLine
  8
0
 62
256
370
-1
  6
ByLayer
 10
30.3381466160315618
 20
21.5521716738201619
 30
0.0
 11
30.7825798382537847
 21
21.552171562805615
 31
0.0
  0
LINE
  5
DC
100
AcDbEntity
100
AcDbLine
  8
0
 62
256
370
-1
  6
ByLayer
 10
30.3381465049204522
 20
22.1077271182646058
 30
0.0
 11
30.671468727142674
 21
22.1077271182646058
 31
0.0
  0
LINE
  5
DD
100
AcDbEntity
100
AcDbLine
  8
0
 62
256
370
-1
  6
ByLayer
 10
31.1159132826982265
 20
21.5521716738201441
 30
0.0
 11
31.1159131715871169
 21
22.5521716738201441
 31
0.0
  0
LINE
  5
DE
100
AcDbEntity
100
AcDbLine
  8
0
 62
256
370
-1
  6
ByLayer
 10
31.1159131715871169
 20
22.5521716738201441
 30
0.0
 11
31.449246504920449
 21
22.5521716738201441
 31
0.0
  0
LINE
  5
DF
100
AcDbEntity
100
AcDbLine
  8
0
 62
256
370
-1
  6
ByLayer
 10
31.671468727142674
 20
22.3299494515979227
 30
0.0
 11
31.671468727142674
 21
22.2188382293756987
 31
0.0
  0
LINE
  5
E0
100
AcDbEntity
100
AcDbLine
  8
0
 62
256
370
-1
  6
ByLayer
 10
31.449246504920449
 20
21.996616118264587
 30
0.0
 11
31.1159131715871169
 21
21.996616118264587
 31
0.0
  0
LINE
  5
E1
100
AcDbEntity
100
AcDbLine
  8
0
 62
256
370
-1
  6
ByLayer
 10
31.449246504920449
 20
21.996616118264587
 30
0.0
 11
31.671468727142674
 21
21.5521715627534469
 31
0.0
  0
ARC
  5
E2
100
AcDbEntity
  8
0
 62
256
370
-1
  6
ByLayer
100
AcDbCircle
 10
31.449246504920449
 20
22.3299494515979227
 30
0.0
 40
0.2222222222222222
100
AcDbArc
 50
0.0
 51
90.0
  0
ARC
  5
E3
100
AcDbEntity
  8
0
 62
256
370
-1
  6
ByLayer
100
AcDbCircle
 10
31.449246504920449
 20
22.2188382293756987
 30
0.0
 40
0.2222222222222222
100
AcDbArc
 50
270.0
 51
0.0
  0
LINE
  5
E4
100
AcDbEntity
100
AcDbLine
  8
0
 62
256
370
-1
  6
ByLayer
 10
108.331388030521822
 20
21.2500256399622636
 30
0.0
 11
108.331388030521822
 21
22.2500257510733732
 31
0.0
  0
LINE
  5
E5
100
AcDbEntity
100
AcDbLine
  8
0
 62
256
370
-1
  6
ByLayer
 10
108.331388030521822
 20
22.2500257510733732
 30
0.0
 11
108.6647213638551506
 21
21.6944701955178161
 31
0.0
  0
LINE
  5
E6
100
AcDbEntity
100
AcDbLine
  8
0
 62
256
370
-1
  6
ByLayer
 10
108.6647213638551506
 20
21.6944701955178161
 30
0.0
 11
108.9980546971884792
 21
22.2500257510733732
 31
0.0
  0
LINE
  5
E7
100
AcDbEntity
100
AcDbLine
  8
0
 62
256
370
-1
  6
ByLayer
 10
108.9980546971884792
 20
22.2500257510733732
 30
0.0
 11
108.9980546971884792
 21
21.250025640008527
 31
0.0
  0
LINE
  5
E8
100
AcDbEntity
100
AcDbLine
  8
0
 62
256
370
-1
  6
ByLayer
 10
109.331388030521822
 20
22.2500257510733732
 30
0.0
 11
109.5536102527440505
 21
22.2500257510733732
 31
0.0
  0
LINE
  5
E9
100
AcDbEntity
100
AcDbLine
  8
0
 62
256
370
-1
  6
ByLayer
 10
109.5536102527440505
 20
21.8055811955178172
 30
0.0
 11
109.4424991416329362
 21
21.8055811955178172
 31
0.0
  0
LINE
  5
EA
100
AcDbEntity
100
AcDbLine
  8
0
 62
256
370
-1
  6
ByLayer
 10
109.7758324749662648
 20
21.5833590844067054
 30
0.0
 11
109.7758324749662648
 21
21.4722479732955946
 31
0.0
  0
LINE
  5
EB
100
AcDbEntity
100
AcDbLine
  8
0
 62
256
370
-1
  6
ByLayer
 10
109.5536102527440505
 20
21.2500256399573217
 30
0.0
 11
109.3313881416329281
 21
21.2500257510733732
 31
0.0
  0
ARC
  5
EC
100
AcDbEntity
  8
0
 62
256
370
-1
  6
ByLayer
100
AcDbCircle
 10
109.5536102527440505
 20
22.0278035288511518
 30
0.0
 40
0.2222222222222222
100
AcDbArc
 50
270.0
 51
90.0
  0
ARC
  5
ED
100
AcDbEntity
  8
0
 62
256
370
-1
  6
ByLayer
100
AcDbCircle
 10
109.5536102527440505
 20
21.5833590844067054
 30
0.0
 40
0.2222222222222222
100
AcDbArc
 50
0.0
 51
90.0
  0
ARC
  5
EE
100
AcDbEntity
  8
0
 62
256
370
-1
  6
ByLayer
100
AcDbCircle
 10
109.5536102527440505
 20
21.4722479732955946
 30
0.0
 40
0.2222222222222222
100
AcDbArc
 50
270.0
 51
0.0
  0
LINE
  5
EF
100
AcDbEntity
100
AcDbLine
  8
0
 62
256
370
-1
  6
ByLayer
 10
110.1091658082995934
 20
22.2500257510733732
 30
0.0
 11
110.7758213638551439
 21
21.250025640008527
 31
0.0
  0
LINE
  5
F0
100
AcDbEntity
100
AcDbLine
  8
0
 62
256
370
-1
  6
ByLayer
 10
110.1091659194106995
 20
21.2500257510733732
 30
0.0
 11
110.7758213638551439
 21
22.2500257510733732
 31
0.0
  0
LINE
  5
F1
100
AcDbEntity
100
AcDbLine
  8
0
 62
256
370
-1
  6
ByLayer
 10
111.10914358607738
 20
22.0278035288511518
 30
0.0
 11
111.3313658082995943
 21
22.2500257510733732
 31
0.0
  0
LINE
  5
F2
100
AcDbEntity
100
AcDbLine
  8
0
 62
256
370
-1
  6
ByLayer
 10
111.3313658082995943
 20
22.2500257510733732
 30
0.0
 11
111.3313658082995943
 21
21.2500256399628782
 31
0.0
  0
ARC
  5
F3
100
AcDbEntity
  8
0
 62
256
370
-1
  6
ByLayer
100
AcDbCircle
 10
111.8869213638551514
 20
22.1289690844067053
 30
0.0
 40
0.1210566666666667
100
AcDbArc
 50
32.7569500000000033
 51
147.2430420000000026
  0
ARC
  5
F4
100
AcDbEntity
  8
0
 62
256
370
-1
  6
ByLayer
100
AcDbCircle
 10
112.2128491416329297
 20
21.8748613066289295
 30
0.0
 40
0.5339544444444444
100
AcDbArc
 50
143.2324680000000114
 51
169.4911350000000141
  0
ARC
  5
F5
100
AcDbEntity
  8
0
 62
256
370
-1
  6
ByLayer
100
AcDbCircle
 10
112.2128491416329297
 20
21.625190195517817
 30
0.0
 40
0.5339544444444444
100
AcDbArc
 50
190.5088649999999859
 51
216.7675319999999886
  0
ARC
  5
F6
100
AcDbEntity
  8
0
 62
256
370
-1
  6
ByLayer
100
AcDbCircle
 10
111.8869213638551514
 20
21.3710824177400411
 30
0.0
 40
0.1210566666666667
100
AcDbArc
 50
212.7569579999999974
 51
327.2430420000000026
  0
ARC
  5
F7
100
AcDbEntity
  8
0
 62
256
370
-1
  6
ByLayer
100
AcDbCircle
 10
111.5609935860773732
 20
21.625190195517817
 30
0.0
 40
0.5339544444444444
100
AcDbArc
 50
323.2324520000000234
 51
349.4911190000000261
  0
ARC
  5
F8
100
AcDbEntity
  8
0
 62
256
370
-1
  6
ByLayer
100
AcDbCircle
 10
111.0641810305218087
 20
21.7465879732955969
 30
0.0
 40
1.04497
100
AcDbArc
 50
347.9131469999999808
 51
0.18851
  0
ARC
  5
F9
100
AcDbEntity
  8
0
 62
256
370
-1
  6
ByLayer
100
AcDbCircle
 10
111.0641810305218087
 20
21.7534635288511495
 30
0.0
 40
1.04497
100
AcDbArc
 50
359.8114929999999845
 51
12.0868599999999997
  0
ARC
  5
FA
100
AcDbEntity
  8
0
 62
256
370
-1
  6
ByLayer
100
AcDbCircle
 10
111.5609935860773732
 20
21.8748613066289295
 30
0.0
 40
0.5339544444444444
100
AcDbArc
 50
10.5088699999999999
 51
36.7675399999999968
  0
ARC
  5
FB
100
AcDbEntity
  8
0
 62
256
370
-1
  6
ByLayer
100
AcDbCircle
 10
112.7096616971884799
 20
21.7465879732955969
 30
0.0
 40
1.04497
100
AcDbArc
 50
179.8114930000000129
 51
192.0868680000000097
  0
ARC
  5
FC
100
AcDbEntity
  8
0
 62
256
370
-1
  6
ByLayer
100
AcDbCircle
 10
112.7096616971884799
 20
21.7534635288511495
 30
0.0
 40
1.04497
100
AcDbArc
 50
167.9131319999999903
 51
180.1885069999999871
  0
LINE
  5
FD
100
AcDbEntity
100
AcDbLine
  8
0
 62
256
370
-1
  6
ByLayer
 10
112.4424732527440511
 20
21.25002563996226
 30
0.0
 11
112.4424732527440511
 21
22.2500257510733697
 31
0.0
  0
LINE
  5
FE
100
AcDbEntity
100
AcDbLine
  8
0
 62
256
370
-1
  6
ByLayer
 10
112.4424732527440511
 20
22.2500257510733697
 30
0.0
 11
112.7758065860773797
 21
21.6944701955178125
 31
0.0
  0
LINE
  5
FF
100
AcDbEntity
100
AcDbLine
  8
0
 62
256
370
-1
  6
ByLayer
 10
112.7758065860773797
 20
21.6944701955178125
 30
0.0
 11
113.1091399194107083
 21
22.2500257510733697
 31
0.0
  0
LINE
  5
100
100
AcDbEntity
100
AcDbLine
  8
0
 62
256
370
-1
  6
ByLayer
 10
113.1091399194107083
 20
22.2500257510733697
 30
0.0
 11
113.1091399194107083
 21
21.2500256400085235
 31
0.0
  0
LINE
  5
101
100
AcDbEntity
100
AcDbLine
  8
0
 62
256
370
-1
  6
ByLayer
 10
113.4424621416329302
 20
21.2500256399622636
 30
0.0
 11
113.4424621416329302
 21
22.2500257510733732
 31
0.0
  0
LINE
  5
102
100
AcDbEntity
100
AcDbLine
  8
0
 62
256
370
-1
  6
ByLayer
 10
113.4424621416329302
 20
22.2500257510733732
 30
0.0
 11
113.7757954749662588
 21
21.6944701955178161
 31
0.0
  0
LINE
  5
103
100
AcDbEntity
100
AcDbLine
  8
0
 62
256
370
-1
  6
ByLayer
 10
113.7757954749662588
 20
21.6944701955178161
 30
0.0
 11
114.1091288082995874
 21
22.2500257510733732
 31
0.0
  0
LINE
  5
104
100
AcDbEntity
100
AcDbLine
  8
0
 62
256
370
-1
  6
ByLayer
 10
114.1091288082995874
 20
22.2500257510733732
 30
0.0
 11
114.1091288082995874
 21
21.250025640008527
 31
0.0
  0
LINE
  5
105
100
AcDbEntity
100
AcDbLine
  8
0
 62
256
370
-1
  6
ByLayer
 10
115.1924510305218234
 20
21.6944701955178125
 30
0.0
 11
115.636906586077373
 21
21.6944701955178125
 31
0.0
  0
LINE
  5
106
100
AcDbEntity
100
AcDbLine
  8
0
 62
256
370
-1
  6
ByLayer
 10
115.4146843638551587
 20
21.9166923066289243
 30
0.0
 11
115.4146843638551587
 21
21.4722479732955911
 31
0.0
  0
LINE
  5
107
100
AcDbEntity
100
AcDbLine
  8
0
 62
256
370
-1
  6
ByLayer
 10
116.7202288082995949
 20
21.2500256399622707
 30
0.0
 11
116.7202288082995949
 21
22.2500257510733803
 31
0.0
  0
LINE
  5
108
100
AcDbEntity
100
AcDbLine
  8
0
 62
256
370
-1
  6
ByLayer
 10
116.7202288082995949
 20
22.2500257510733803
 30
0.0
 11
117.0535621416329235
 21
21.6944701955178232
 31
0.0
  0
LINE
  5
109
100
AcDbEntity
100
AcDbLine
  8
0
 62
256
370
-1
  6
ByLayer
 10
117.0535621416329235
 20
21.6944701955178232
 30
0.0
 11
117.3868954749662521
 21
22.2500257510733803
 31
0.0
  0
LINE
  5
10A
100
AcDbEntity
100
AcDbLine
  8
0
 62
256
370
-1
  6
ByLayer
 10
117.3868954749662521
 20
22.2500257510733803
 30
0.0
 11
117.3868954749662521
 21
21.2500256400085341
 31
0.0
  0
LINE
  5
10B
100
AcDbEntity
100
AcDbLine
  8
0
 62
256
370
-1
  6
ByLayer
 10
117.7202288082995949
 20
22.2500257510733803
 30
0.0
 11
117.9424510305218234
 21
22.2500257510733803
 31
0.0
  0
LINE
  5
10C
100
AcDbEntity
100
AcDbLine
  8
0
 62
256
370
-1
  6
ByLayer
 10
117.9424510305218234
 20
21.8055811955178243
 30
0.0
 11
117.8313399194107092
 21
21.8055811955178243
 31
0.0
  0
LINE
  5
10D
100
AcDbEntity
100
AcDbLine
  8
0
 62
256
370
-1
  6
ByLayer
 10
118.1646732527440378
 20
21.5833590844067125
 30
0.0
 11
118.1646732527440378
 21
21.4722479732956018
 31
0.0
  0
LINE
  5
10E
100
AcDbEntity
100
AcDbLine
  8
0
 62
256
370
-1
  6
ByLayer
 10
117.9424510305218234
 20
21.2500256399573288
 30
0.0
 11
117.720228919410701
 21
21.2500257510733803
 31
0.0
  0
ARC
  5
10F
100
AcDbEntity
  8
0
 62
256
370
-1
  6
ByLayer
100
AcDbCircle
 10
117.9424510305218234
 20
22.0278035288511589
 30
0.0
 40
0.2222222222222222
100
AcDbArc
 50
270.0
 51
90.0
  0
ARC
  5
110
100
AcDbEntity
  8
0
 62
256
370
-1
  6
ByLayer
100
AcDbCircle
 10
117.9424510305218234
 20
21.5833590844067125
 30
0.0
 40
0.2222222222222222
100
AcDbArc
 50
0.0
 51
90.0
  0
ARC
  5
111
100
AcDbEntity
  8
0
 62
256
370
-1
  6
ByLayer
100
AcDbCircle
 10
117.9424510305218234
 20
21.4722479732956018
 30
0.0
 40
0.2222222222222222
100
AcDbArc
 50
270.0
 51
0.0
  0
LINE
  5
112
100
AcDbEntity
100
AcDbLine
  8
0
 62
256
370
-1
  6
ByLayer
 10
119.2479954749662596
 20
22.2500257510733732
 30
0.0
 11
119.4702176971884739
 21
21.2500256399628782
 31
0.0
  0
LINE
  5
113
100
AcDbEntity
100
AcDbLine
  8
0
 62
256
370
-1
  6
ByLayer
 10
119.4702176971884739
 20
21.2500256399628782
 30
0.0
 11
119.6924399194107025
 21
21.9166923066289279
 31
0.0
  0
LINE
  5
114
100
AcDbEntity
100
AcDbLine
  8
0
 62
256
370
-1
  6
ByLayer
 10
119.6924399194107025
 20
21.9166923066289279
 30
0.0
 11
119.9146621416329168
 21
21.250025640008527
 31
0.0
  0
LINE
  5
115
100
AcDbEntity
100
AcDbLine
  8
0
 62
256
370
-1
  6
ByLayer
 10
119.9146621416329168
 20
21.250025640008527
 30
0.0
 11
120.1368843638551454
 21
22.2500257510733732
 31
0.0
  0
LINE
  5
116
100
AcDbEntity
100
AcDbLine
  8
0
 62
256
370
-1
  6
ByLayer
 10
120.4702065860773814
 20
21.2500256399622565
 30
0.0
 11
120.8035288082996033
 21
22.2500257510733661
 31
0.0
  0
LINE
  5
117
100
AcDbEntity
100
AcDbLine
  8
0
 62
256
370
-1
  6
ByLayer
 10
120.8035288082996033
 20
22.2500257510733661
 30
0.0
 11
121.1368954749662663
 21
21.2500256404499837
 31
0.0
  0
LINE
  5
118
100
AcDbEntity
100
AcDbLine
  8
0
 62
256
370
-1
  6
ByLayer
 10
120.5628065860773717
 20
21.5278035288511447
 30
0.0
 11
121.0442843638551551
 21
21.5278035288511447
 31
0.0
  0
LINE
  5
119
100
AcDbEntity
100
AcDbLine
  8
0
 62
256
370
-1
  6
ByLayer
 10
121.591517697188479
 20
21.8298355288511523
 30
0.0
 11
121.904484363855147
 21
21.6702156399622616
 31
0.0
  0
ARC
  5
11A
100
AcDbEntity
  8
0
 62
256
370
-1
  6
ByLayer
100
AcDbCircle
 10
121.6924621416329302
 20
21.5139145288511493
 30
0.0
 40
0.736111111111111
100
AcDbArc
 50
63.0745840000000015
 51
90.0
  0
ARC
  5
11B
100
AcDbEntity
  8
0
 62
256
370
-1
  6
ByLayer
100
AcDbCircle
 10
121.6924621416329302
 20
22.0278035288511518
 30
0.0
 40
0.2222222222222222
100
AcDbArc
 50
90.0
 51
242.9811799999999948
  0
ARC
  5
11C
100
AcDbEntity
  8
0
 62
256
370
-1
  6
ByLayer
100
AcDbCircle
 10
121.8035732527440445
 20
21.4722479732955946
 30
0.0
 40
0.2222222222222222
100
AcDbArc
 50
270.0
 51
62.9811850000000035
  0
ARC
  5
11D
100
AcDbEntity
  8
0
 62
256
370
-1
  6
ByLayer
100
AcDbCircle
 10
121.8035732527440445
 20
21.9861367510733743
 30
0.0
 40
0.736111111111111
100
AcDbArc
 50
243.0745799999999974
 51
270.0
  0
LINE
  5
11E
100
AcDbEntity
100
AcDbLine
  8
0
 62
256
370
-1
  6
ByLayer
 10
122.3591288606684913
 20
22.2500257510733945
 30
0.0
 11
122.3591289717795974
 21
21.2500257510733945
 31
0.0
  0
LINE
  5
11F
100
AcDbEntity
100
AcDbLine
  8
0
 62
256
370
-1
  6
ByLayer
 10
122.9146844162240484
 20
21.2500256400066974
 30
0.0
 11
122.9146844162240484
 21
22.2500257510733945
 31
0.0
  0
LINE
  5
120
100
AcDbEntity
100
AcDbLine
  8
0
 62
256
370
-1
  6
ByLayer
 10
122.3591288606684913
 20
21.8055811955178385
 30
0.0
 11
122.9146844162240484
 21
21.8055811955178385
 31
0.0
  0
LINE
  5
121
100
AcDbEntity
100
AcDbLine
  8
0
 62
256
370
-1
  6
ByLayer
 10
123.6924510828907131
 20
22.2500257510733732
 30
0.0
 11
123.248017749557377
 21
22.2500257510733732
 31
0.0
  0
LINE
  5
122
100
AcDbEntity
100
AcDbLine
  8
0
 62
256
370
-1
  6
ByLayer
 10
123.248017749557377
 20
22.2500257510733732
 30
0.0
 11
123.2480178606684831
 21
21.2500257510733732
 31
0.0
  0
LINE
  5
123
100
AcDbEntity
100
AcDbLine
  8
0
 62
256
370
-1
  6
ByLayer
 10
123.2480178606684831
 20
21.2500257510733732
 30
0.0
 11
123.6924510828907131
 21
21.2500256400588263
 31
0.0
  0
LINE
  5
124
100
AcDbEntity
100
AcDbLine
  8
0
 62
256
370
-1
  6
ByLayer
 10
123.248017749557377
 20
21.8055811955178172
 30
0.0
 11
123.5813399717795988
 21
21.8055811955178172
 31
0.0
  0
LINE
  5
125
100
AcDbEntity
100
AcDbLine
  8
0
 62
256
370
-1
  6
ByLayer
 10
124.0257845273351478
 20
21.2500257510733555
 30
0.0
 11
124.0257844162240417
 21
22.2500257510733555
 31
0.0
  0
LINE
  5
126
100
AcDbEntity
100
AcDbLine
  8
0
 62
256
370
-1
  6
ByLayer
 10
124.0257844162240417
 20
22.2500257510733555
 30
0.0
 11
124.3591177495573703
 21
22.2500257510733555
 31
0.0
  0
LINE
  5
127
100
AcDbEntity
100
AcDbLine
  8
0
 62
256
370
-1
  6
ByLayer
 10
124.5813399717795988
 20
22.027803528851134
 30
0.0
 11
124.5813399717795988
 21
21.9166923066289101
 31
0.0
  0
LINE
  5
128
100
AcDbEntity
100
AcDbLine
  8
0
 62
256
370
-1
  6
ByLayer
 10
124.3591177495573703
 20
21.6944701955177983
 30
0.0
 11
124.0257844162240417
 21
21.6944701955177983
 31
0.0
  0
LINE
  5
129
100
AcDbEntity
100
AcDbLine
  8
0
 62
256
370
-1
  6
ByLayer
 10
124.3591177495573703
 20
21.6944701955177983
 30
0.0
 11
124.5813399717795988
 21
21.2500256400066583
 31
0.0
  0
ARC
  5
12A
100
AcDbEntity
  8
0
 62
256
370
-1
  6
ByLayer
100
AcDbCircle
 10
124.3591177495573703
 20
22.027803528851134
 30
0.0
 40
0.2222222222222222
100
AcDbArc
 50
0.0
 51
90.0
  0
ARC
  5
12B
100
AcDbEntity
  8
0
 62
256
370
-1
  6
ByLayer
100
AcDbCircle
 10
124.3591177495573703
 20
21.9166923066289101
 30
0.0
 40
0.2222222222222222
100
AcDbArc
 50
270.0
 51
0.0
  0
LINE
  5
12C
100
AcDbEntity
100
AcDbLine
  8
0
 62
256
370
-1
  6
ByLayer
 10
108.5957657129252709
 20
65.6277080433965949
 30
0.0
 11
108.5957657129252709
 21
66.627708154507701
 31
0.0
  0
LINE
  5
12D
100
AcDbEntity
100
AcDbLine
  8
0
 62
256
370
-1
  6
ByLayer
 10
108.5957657129252709
 20
66.627708154507701
 30
0.0
 11
108.9290990462585995
 21
66.0721525989521439
 31
0.0
  0
LINE
  5
12E
100
AcDbEntity
100
AcDbLine
  8
0
 62
256
370
-1
  6
ByLayer
 10
108.9290990462585995
 20
66.0721525989521439
 30
0.0
 11
109.2624323795919281
 21
66.627708154507701
 31
0.0
  0
LINE
  5
12F
100
AcDbEntity
100
AcDbLine
  8
0
 62
256
370
-1
  6
ByLayer
 10
109.2624323795919281
 20
66.627708154507701
 30
0.0
 11
109.2624323795919281
 21
65.6277080434428512
 31
0.0
  0
LINE
  5
130
100
AcDbEntity
100
AcDbLine
  8
0
 62
256
370
-1
  6
ByLayer
 10
109.5957657129252709
 20
66.627708154507701
 30
0.0
 11
109.8179879351474995
 21
66.627708154507701
 31
0.0
  0
LINE
  5
131
100
AcDbEntity
100
AcDbLine
  8
0
 62
256
370
-1
  6
ByLayer
 10
109.8179879351474995
 20
66.1832635989521521
 30
0.0
 11
109.7068768240363852
 21
66.1832635989521521
 31
0.0
  0
LINE
  5
132
100
AcDbEntity
100
AcDbLine
  8
0
 62
256
370
-1
  6
ByLayer
 10
110.0402101573697138
 20
65.9610414878410296
 30
0.0
 11
110.0402101573697138
 21
65.8499303767299295
 31
0.0
  0
LINE
  5
133
100
AcDbEntity
100
AcDbLine
  8
0
 62
256
370
-1
  6
ByLayer
 10
109.8179879351474995
 20
65.6277080433916495
 30
0.0
 11
109.595765824036377
 21
65.627708154507701
 31
0.0
  0
ARC
  5
134
100
AcDbEntity
  8
0
 62
256
370
-1
  6
ByLayer
100
AcDbCircle
 10
109.8179879351474995
 20
66.4054859322854725
 30
0.0
 40
0.2222222222222222
100
AcDbArc
 50
270.0
 51
90.0
  0
ARC
  5
135
100
AcDbEntity
  8
0
 62
256
370
-1
  6
ByLayer
100
AcDbCircle
 10
109.8179879351474995
 20
65.9610414878410296
 30
0.0
 40
0.2222222222222222
100
AcDbArc
 50
0.0
 51
90.0
  0
ARC
  5
136
100
AcDbEntity
  8
0
 62
256
370
-1
  6
ByLayer
100
AcDbCircle
 10
109.8179879351474995
 20
65.8499303767299295
 30
0.0
 40
0.2222222222222222
100
AcDbArc
 50
270.0
 51
0.0
  0
LINE
  5
137
100
AcDbEntity
100
AcDbLine
  8
0
 62
256
370
-1
  6
ByLayer
 10
110.3735434907030424
 20
66.627708154507701
 30
0.0
 11
111.0401990462585928
 21
65.6277080434428512
 31
0.0
  0
LINE
  5
138
100
AcDbEntity
100
AcDbLine
  8
0
 62
256
370
-1
  6
ByLayer
 10
110.3735436018141485
 20
65.627708154507701
 30
0.0
 11
111.0401990462585928
 21
66.627708154507701
 31
0.0
  0
LINE
  5
139
100
AcDbEntity
100
AcDbLine
  8
0
 62
256
370
-1
  6
ByLayer
 10
111.3735212684808289
 20
66.4054859322854725
 30
0.0
 11
111.5957434907030432
 21
66.627708154507701
 31
0.0
  0
LINE
  5
13A
100
AcDbEntity
100
AcDbLine
  8
0
 62
256
370
-1
  6
ByLayer
 10
111.5957434907030432
 20
66.627708154507701
 30
0.0
 11
111.5957434907030432
 21
65.627708043397206
 31
0.0
  0
ARC
  5
13B
100
AcDbEntity
  8
0
 62
256
370
-1
  6
ByLayer
100
AcDbCircle
 10
112.1512990462586004
 20
66.5066514878410402
 30
0.0
 40
0.1210566666666667
100
AcDbArc
 50
32.7569500000000033
 51
147.2430420000000026
  0
ARC
  5
13C
100
AcDbEntity
  8
0
 62
256
370
-1
  6
ByLayer
100
AcDbCircle
 10
112.4772268240363786
 20
66.2525437100632502
 30
0.0
 40
0.5339544444444444
100
AcDbArc
 50
143.2324680000000114
 51
169.4911350000000141
  0
ARC
  5
13D
100
AcDbEntity
  8
0
 62
256
370
-1
  6
ByLayer
100
AcDbCircle
 10
112.4772268240363786
 20
66.0028725989521519
 30
0.0
 40
0.5339544444444444
100
AcDbArc
 50
190.5088649999999859
 51
216.7675319999999886
  0
ARC
  5
13E
100
AcDbEntity
  8
0
 62
256
370
-1
  6
ByLayer
100
AcDbCircle
 10
112.1512990462586004
 20
65.7487648211743618
 30
0.0
 40
0.1210566666666667
100
AcDbArc
 50
212.7569579999999974
 51
327.2430420000000026
  0
ARC
  5
13F
100
AcDbEntity
  8
0
 62
256
370
-1
  6
ByLayer
100
AcDbCircle
 10
111.8253712684808221
 20
66.0028725989521519
 30
0.0
 40
0.5339544444444444
100
AcDbArc
 50
323.2324520000000234
 51
349.4911190000000261
  0
ARC
  5
140
100
AcDbEntity
  8
0
 62
256
370
-1
  6
ByLayer
100
AcDbCircle
 10
111.3285587129252576
 20
66.1242703767299247
 30
0.0
 40
1.04497
100
AcDbArc
 50
347.9131469999999808
 51
0.18851
  0
ARC
  5
141
100
AcDbEntity
  8
0
 62
256
370
-1
  6
ByLayer
100
AcDbCircle
 10
111.3285587129252576
 20
66.1311459322854773
 30
0.0
 40
1.04497
100
AcDbArc
 50
359.8114929999999845
 51
12.0868599999999997
  0
ARC
  5
142
100
AcDbEntity
  8
0
 62
256
370
-1
  6
ByLayer
100
AcDbCircle
 10
111.8253712684808221
 20
66.2525437100632502
 30
0.0
 40
0.5339544444444444
100
AcDbArc
 50
10.5088699999999999
 51
36.7675399999999968
  0
ARC
  5
143
100
AcDbEntity
  8
0
 62
256
370
-1
  6
ByLayer
100
AcDbCircle
 10
112.9740393795919289
 20
66.1242703767299247
 30
0.0
 40
1.04497
100
AcDbArc
 50
179.8114930000000129
 51
192.0868680000000097
  0
ARC
  5
144
100
AcDbEntity
  8
0
 62
256
370
-1
  6
ByLayer
100
AcDbCircle
 10
112.9740393795919289
 20
66.1311459322854773
 30
0.0
 40
1.04497
100
AcDbArc
 50
167.9131319999999903
 51
180.1885069999999871
  0
LINE
  5
145
100
AcDbEntity
100
AcDbLine
  8
0
 62
256
370
-1
  6
ByLayer
 10
112.7068509351475001
 20
65.6277080433965949
 30
0.0
 11
112.7068509351475001
 21
66.627708154507701
 31
0.0
  0
LINE
  5
146
100
AcDbEntity
100
AcDbLine
  8
0
 62
256
370
-1
  6
ByLayer
 10
112.7068509351475001
 20
66.627708154507701
 30
0.0
 11
113.0401842684808287
 21
66.0721525989521439
 31
0.0
  0
LINE
  5
147
100
AcDbEntity
100
AcDbLine
  8
0
 62
256
370
-1
  6
ByLayer
 10
113.0401842684808287
 20
66.0721525989521439
 30
0.0
 11
113.3735176018141573
 21
66.627708154507701
 31
0.0
  0
LINE
  5
148
100
AcDbEntity
100
AcDbLine
  8
0
 62
256
370
-1
  6
ByLayer
 10
113.3735176018141573
 20
66.627708154507701
 30
0.0
 11
113.3735176018141573
 21
65.6277080434428512
 31
0.0
  0
LINE
  5
149
100
AcDbEntity
100
AcDbLine
  8
0
 62
256
370
-1
  6
ByLayer
 10
113.7068398240363791
 20
65.6277080433965949
 30
0.0
 11
113.7068398240363791
 21
66.627708154507701
 31
0.0
  0
LINE
  5
14A
100
AcDbEntity
100
AcDbLine
  8
0
 62
256
370
-1
  6
ByLayer
 10
113.7068398240363791
 20
66.627708154507701
 30
0.0
 11
114.0401731573697077
 21
66.0721525989521439
 31
0.0
  0
LINE
  5
14B
100
AcDbEntity
100
AcDbLine
  8
0
 62
256
370
-1
  6
ByLayer
 10
114.0401731573697077
 20
66.0721525989521439
 30
0.0
 11
114.3735064907030363
 21
66.627708154507701
 31
0.0
  0
LINE
  5
14C
100
AcDbEntity
100
AcDbLine
  8
0
 62
256
370
-1
  6
ByLayer
 10
114.3735064907030363
 20
66.627708154507701
 30
0.0
 11
114.3735064907030363
 21
65.6277080434428512
 31
0.0
  0
LINE
  5
14D
100
AcDbEntity
100
AcDbLine
  8
0
 62
256
370
-1
  6
ByLayer
 10
115.4568287129252724
 20
66.0721525989521439
 30
0.0
 11
115.901284268480822
 21
66.0721525989521439
 31
0.0
  0
LINE
  5
14E
100
AcDbEntity
100
AcDbLine
  8
0
 62
256
370
-1
  6
ByLayer
 10
115.6790620462586077
 20
66.2943747100632521
 30
0.0
 11
115.6790620462586077
 21
65.8499303767299295
 31
0.0
  0
LINE
  5
14F
100
AcDbEntity
100
AcDbLine
  8
0
 62
256
370
-1
  6
ByLayer
 10
116.9846064907030438
 20
65.6277080433965949
 30
0.0
 11
116.9846064907030438
 21
66.627708154507701
 31
0.0
  0
LINE
  5
150
100
AcDbEntity
100
AcDbLine
  8
0
 62
256
370
-1
  6
ByLayer
 10
116.9846064907030438
 20
66.627708154507701
 30
0.0
 11
117.3179398240363724
 21
66.0721525989521439
 31
0.0
  0
LINE
  5
151
100
AcDbEntity
100
AcDbLine
  8
0
 62
256
370
-1
  6
ByLayer
 10
117.3179398240363724
 20
66.0721525989521439
 30
0.0
 11
117.651273157369701
 21
66.627708154507701
 31
0.0
  0
LINE
  5
152
100
AcDbEntity
100
AcDbLine
  8
0
 62
256
370
-1
  6
ByLayer
 10
117.651273157369701
 20
66.627708154507701
 30
0.0
 11
117.651273157369701
 21
65.6277080434428512
 31
0.0
  0
LINE
  5
153
100
AcDbEntity
100
AcDbLine
  8
0
 62
256
370
-1
  6
ByLayer
 10
117.9846064907030438
 20
66.6277081545077152
 30
0.0
 11
118.2068287129252724
 21
66.6277081545077152
 31
0.0
  0
LINE
  5
154
100
AcDbEntity
100
AcDbLine
  8
0
 62
256
370
-1
  6
ByLayer
 10
118.2068287129252724
 20
66.1832635989521663
 30
0.0
 11
118.0957176018141581
 21
66.1832635989521663
 31
0.0
  0
LINE
  5
155
100
AcDbEntity
100
AcDbLine
  8
0
 62
256
370
-1
  6
ByLayer
 10
118.4290509351474867
 20
65.9610414878410438
 30
0.0
 11
118.4290509351474867
 21
65.8499303767299438
 31
0.0
  0
LINE
  5
156
100
AcDbEntity
100
AcDbLine
  8
0
 62
256
370
-1
  6
ByLayer
 10
118.2068287129252724
 20
65.6277080433916638
 30
0.0
 11
117.9846066018141499
 21
65.6277081545077152
 31
0.0
  0
ARC
  5
157
100
AcDbEntity
  8
0
 62
256
370
-1
  6
ByLayer
100
AcDbCircle
 10
118.2068287129252724
 20
66.4054859322854867
 30
0.0
 40
0.2222222222222222
100
AcDbArc
 50
270.0
 51
90.0
  0
ARC
  5
158
100
AcDbEntity
  8
0
 62
256
370
-1
  6
ByLayer
100
AcDbCircle
 10
118.2068287129252724
 20
65.9610414878410438
 30
0.0
 40
0.2222222222222222
100
AcDbArc
 50
0.0
 51
90.0
  0
ARC
  5
159
100
AcDbEntity
  8
0
 62
256
370
-1
  6
ByLayer
100
AcDbCircle
 10
118.2068287129252724
 20
65.8499303767299438
 30
0.0
 40
0.2222222222222222
100
AcDbArc
 50
270.0
 51
0.0
  0
LINE
  5
15A
100
AcDbEntity
100
AcDbLine
  8
0
 62
256
370
-1
  6
ByLayer
 10
119.5123731573697086
 20
66.627708154507701
 30
0.0
 11
119.7345953795919229
 21
65.627708043397206
 31
0.0
  0
LINE
  5
15B
100
AcDbEntity
100
AcDbLine
  8
0
 62
256
370
-1
  6
ByLayer
 10
119.7345953795919229
 20
65.627708043397206
 30
0.0
 11
119.9568176018141514
 21
66.2943747100632521
 31
0.0
  0
LINE
  5
15C
100
AcDbEntity
100
AcDbLine
  8
0
 62
256
370
-1
  6
ByLayer
 10
119.9568176018141514
 20
66.2943747100632521
 30
0.0
 11
120.1790398240363658
 21
65.6277080434428512
 31
0.0
  0
LINE
  5
15D
100
AcDbEntity
100
AcDbLine
  8
0
 62
256
370
-1
  6
ByLayer
 10
120.1790398240363658
 20
65.6277080434428512
 30
0.0
 11
120.4012620462585943
 21
66.627708154507701
 31
0.0
  0
LINE
  5
15E
100
AcDbEntity
100
AcDbLine
  8
0
 62
256
370
-1
  6
ByLayer
 10
120.7345842684808304
 20
65.6277080433965807
 30
0.0
 11
121.0679064907030522
 21
66.6277081545076868
 31
0.0
  0
LINE
  5
15F
100
AcDbEntity
100
AcDbLine
  8
0
 62
256
370
-1
  6
ByLayer
 10
121.0679064907030522
 20
66.6277081545076868
 30
0.0
 11
121.4012731573697152
 21
65.6277080438842972
 31
0.0
  0
LINE
  5
160
100
AcDbEntity
100
AcDbLine
  8
0
 62
256
370
-1
  6
ByLayer
 10
120.8271842684808206
 20
65.9054859322854583
 30
0.0
 11
121.3086620462586041
 21
65.9054859322854583
 31
0.0
  0
LINE
  5
161
100
AcDbEntity
100
AcDbLine
  8
0
 62
256
370
-1
  6
ByLayer
 10
121.855895379591928
 20
66.2075179322854837
 30
0.0
 11
122.1688620462585959
 21
66.0478980433965859
 31
0.0
  0
ARC
  5
162
100
AcDbEntity
  8
0
 62
256
370
-1
  6
ByLayer
100
AcDbCircle
 10
121.9568398240363791
 20
65.8915969322854806
 30
0.0
 40
0.736111111111111
100
AcDbArc
 50
63.0745840000000015
 51
90.0
  0
ARC
  5
163
100
AcDbEntity
  8
0
 62
256
370
-1
  6
ByLayer
100
AcDbCircle
 10
121.9568398240363791
 20
66.4054859322854725
 30
0.0
 40
0.2222222222222222
100
AcDbArc
 50
90.0
 51
242.9811799999999948
  0
ARC
  5
164
100
AcDbEntity
  8
0
 62
256
370
-1
  6
ByLayer
100
AcDbCircle
 10
122.0679509351474934
 20
65.8499303767299295
 30
0.0
 40
0.2222222222222222
100
AcDbArc
 50
270.0
 51
62.9811850000000035
  0
ARC
  5
165
100
AcDbEntity
  8
0
 62
256
370
-1
  6
ByLayer
100
AcDbCircle
 10
122.0679509351474934
 20
66.363819154507695
 30
0.0
 40
0.736111111111111
100
AcDbArc
 50
243.0745799999999974
 51
270.0
  0
LINE
  5
166
100
AcDbEntity
100
AcDbLine
  8
0
 62
256
370
-1
  6
ByLayer
 10
122.6235065430719402
 20
66.6277081545077152
 30
0.0
 11
122.6235066541830463
 21
65.6277081545077152
 31
0.0
  0
LINE
  5
167
100
AcDbEntity
100
AcDbLine
  8
0
 62
256
370
-1
  6
ByLayer
 10
123.1790620986274973
 20
65.627708043441018
 30
0.0
 11
123.1790620986274973
 21
66.6277081545077152
 31
0.0
  0
LINE
  5
168
100
AcDbEntity
100
AcDbLine
  8
0
 62
256
370
-1
  6
ByLayer
 10
122.6235065430719402
 20
66.1832635989521663
 30
0.0
 11
123.1790620986274973
 21
66.1832635989521663
 31
0.0
  0
LINE
  5
169
100
AcDbEntity
100
AcDbLine
  8
0
 62
256
370
-1
  6
ByLayer
 10
123.9568287652941621
 20
66.627708154507701
 30
0.0
 11
123.5123954319608259
 21
66.627708154507701
 31
0.0
  0
LINE
  5
16A
100
AcDbEntity
100
AcDbLine
  8
0
 62
256
370
-1
  6
ByLayer
 10
123.5123954319608259
 20
66.627708154507701
 30
0.0
 11
123.512395543071932
 21
65.627708154507701
 31
0.0
  0
LINE
  5
16B
100
AcDbEntity
100
AcDbLine
  8
0
 62
256
370
-1
  6
ByLayer
 10
123.512395543071932
 20
65.627708154507701
 30
0.0
 11
123.9568287652941621
 21
65.6277080434931577
 31
0.0
  0
LINE
  5
16C
100
AcDbEntity
100
AcDbLine
  8
0
 62
256
370
-1
  6
ByLayer
 10
123.5123954319608259
 20
66.1832635989521521
 30
0.0
 11
123.8457176541830478
 21
66.1832635989521521
 31
0.0
  0
LINE
  5
16D
100
AcDbEntity
100
AcDbLine
  8
0
 62
256
370
-1
  6
ByLayer
 10
124.2901622097385967
 20
65.6277081545076868
 30
0.0
 11
124.2901620986274906
 21
66.6277081545076868
 31
0.0
  0
LINE
  5
16E
100
AcDbEntity
100
AcDbLine
  8
0
 62
256
370
-1
  6
ByLayer
 10
124.2901620986274906
 20
66.6277081545076868
 30
0.0
 11
124.6234954319608192
 21
66.6277081545076868
 31
0.0
  0
LINE
  5
16F
100
AcDbEntity
100
AcDbLine
  8
0
 62
256
370
-1
  6
ByLayer
 10
124.8457176541830478
 20
66.4054859322854583
 30
0.0
 11
124.8457176541830478
 21
66.2943747100632379
 31
0.0
  0
LINE
  5
170
100
AcDbEntity
100
AcDbLine
  8
0
 62
256
370
-1
  6
ByLayer
 10
124.6234954319608192
 20
66.0721525989521297
 30
0.0
 11
124.2901620986274906
 21
66.0721525989521297
 31
0.0
  0
LINE
  5
171
100
AcDbEntity
100
AcDbLine
  8
0
 62
256
370
-1
  6
ByLayer
 10
124.6234954319608192
 20
66.0721525989521297
 30
0.0
 11
124.8457176541830478
 21
65.6277080434409896
 31
0.0
  0
ARC
  5
172
100
AcDbEntity
  8
0
 62
256
370
-1
  6
ByLayer
100
AcDbCircle
 10
124.6234954319608192
 20
66.4054859322854583
 30
0.0
 40
0.2222222222222222
100
AcDbArc
 50
0.0
 51
90.0
  0
ARC
  5
173
100
AcDbEntity
  8
0
 62
256
370
-1
  6
ByLayer
100
AcDbCircle
 10
124.6234954319608192
 20
66.2943747100632379
 30
0.0
 40
0.2222222222222222
100
AcDbArc
 50
270.0
 51
0.0
  0
LINE
  5
174
100
AcDbEntity
100
AcDbLine
  8
0
 62
256
370
-1
  6
ByLayer
 10
38.3583135431576281
 20
41.6201711182650911
 30
0.0
 11
38.3583135431576281
 21
46.6201716738206429
 31
0.0
  0
LINE
  5
175
100
AcDbEntity
100
AcDbLine
  8
0
 62
256
370
-1
  6
ByLayer
 10
38.3583135431576281
 20
46.6201716738206429
 30
0.0
 11
39.7472024320465138
 21
46.6201716738206429
 31
0.0
  0
LINE
  5
176
100
AcDbEntity
100
AcDbLine
  8
0
 62
256
370
-1
  6
ByLayer
 10
38.3583135431576281
 20
44.3979488960428696
 30
0.0
 11
39.802813543157626
 21
44.3979488960428696
 31
0.0
  0
LINE
  5
177
100
AcDbEntity
100
AcDbLine
  8
0
 62
256
370
-1
  6
ByLayer
 10
41.1360913209354067
 20
43.0646155627095268
 30
0.0
 11
41.1360913209354067
 21
42.9535038960428679
 31
0.0
  0
LINE
  5
178
100
AcDbEntity
100
AcDbLine
  8
0
 62
256
370
-1
  6
ByLayer
 10
39.802813543157626
 20
41.6201711183538876
 30
0.0
 11
38.3583135431576281
 21
41.6201711182650911
 31
0.0
  0
ARC
  5
179
100
AcDbEntity
  8
0
 62
256
370
-1
  6
ByLayer
100
AcDbCircle
 10
39.7472024320465138
 20
45.5090605627095357
 30
0.0
 40
1.1111111111111112
100
AcDbArc
 50
270.0
 51
90.0
  0
ARC
  5
17A
100
AcDbEntity
  8
0
 62
256
370
-1
  6
ByLayer
100
AcDbCircle
 10
39.802813543157626
 20
43.0646155627095268
 30
0.0
 40
1.3333333333333333
100
AcDbArc
 50
0.0
 51
90.0
  0
ARC
  5
17B
100
AcDbEntity
  8
0
 62
256
370
-1
  6
ByLayer
100
AcDbCircle
 10
39.802813543157626
 20
42.9535038960428679
 30
0.0
 40
1.3333333333333333
100
AcDbArc
 50
270.0
 51
0.0
  0
LINE
  5
17C
100
AcDbEntity
100
AcDbLine
  8
0
 62
256
370
-1
  6
ByLayer
 10
45.0249802098242924
 20
46.6201716738206429
 30
0.0
 11
42.802813543157626
 21
46.6201716738206429
 31
0.0
  0
LINE
  5
17D
100
AcDbEntity
100
AcDbLine
  8
0
 62
256
370
-1
  6
ByLayer
 10
42.802813543157626
 20
46.6201716738206429
 30
0.0
 11
42.8028140987131778
 21
41.6201716738206429
 31
0.0
  0
LINE
  5
17E
100
AcDbEntity
100
AcDbLine
  8
0
 62
256
370
-1
  6
ByLayer
 10
42.8028140987131778
 20
41.6201716738206429
 30
0.0
 11
45.0249802098242924
 21
41.6201711187478978
 31
0.0
  0
LINE
  5
17F
100
AcDbEntity
100
AcDbLine
  8
0
 62
256
370
-1
  6
ByLayer
 10
42.802813543157626
 20
44.3979488960428696
 30
0.0
 11
44.4694246542687353
 21
44.3979488960428696
 31
0.0
  0
LINE
  5
180
100
AcDbEntity
100
AcDbLine
  8
0
 62
256
370
-1
  6
ByLayer
 10
46.6915913209354088
 20
41.6201711182650911
 30
0.0
 11
48.3582579876020731
 21
41.6201711185056666
 31
0.0
  0
LINE
  5
181
100
AcDbEntity
100
AcDbLine
  8
0
 62
256
370
-1
  6
ByLayer
 10
49.4693690987131873
 20
42.7312827849317571
 30
0.0
 11
49.4693690987131873
 21
45.5090605627095357
 31
0.0
  0
LINE
  5
182
100
AcDbEntity
100
AcDbLine
  8
0
 62
256
370
-1
  6
ByLayer
 10
48.3582579876020731
 20
46.6201716738206429
 30
0.0
 11
46.6915913209354088
 21
46.6201716738206429
 31
0.0
  0
LINE
  5
183
100
AcDbEntity
100
AcDbLine
  8
0
 62
256
370
-1
  6
ByLayer
 10
46.6915913209354088
 20
46.6201716738206429
 30
0.0
 11
46.6915913209354088
 21
41.6201711182650911
 31
0.0
  0
ARC
  5
184
100
AcDbEntity
  8
0
 62
256
370
-1
  6
ByLayer
100
AcDbCircle
 10
48.3582579876020731
 20
42.7312827849317571
 30
0.0
 40
1.1111111111111112
100
AcDbArc
 50
270.0
 51
0.0
  0
ARC
  5
185
100
AcDbEntity
  8
0
 62
256
370
-1
  6
ByLayer
100
AcDbCircle
 10
48.3582579876020731
 20
45.5090605627095357
 30
0.0
 40
1.1111111111111112
100
AcDbArc
 50
0.0
 51
90.0
  0
LINE
  5
186
100
AcDbEntity
100
AcDbLine
  8
0
 62
256
370
-1
  6
ByLayer
 10
54.8860357653798445
 20
46.6201716738206358
 30
0.0
 11
54.8860363209353963
 21
41.6201716738206358
 31
0.0
  0
LINE
  5
187
100
AcDbEntity
100
AcDbLine
  8
0
 62
256
370
-1
  6
ByLayer
 10
57.6638135431576231
 20
41.6201711184871428
 30
0.0
 11
57.6638135431576231
 21
46.6201716738206358
 31
0.0
  0
LINE
  5
188
100
AcDbEntity
100
AcDbLine
  8
0
 62
256
370
-1
  6
ByLayer
 10
54.8860357653798445
 20
44.3979488960428625
 30
0.0
 11
57.6638135431576231
 21
44.3979488960428625
 31
0.0
  0
LINE
  5
189
100
AcDbEntity
100
AcDbLine
  8
0
 62
256
370
-1
  6
ByLayer
 10
61.5526468764909538
 20
46.6201716738206215
 30
0.0
 11
59.3304802098242874
 21
46.6201716738206215
 31
0.0
  0
LINE
  5
18A
100
AcDbEntity
100
AcDbLine
  8
0
 62
256
370
-1
  6
ByLayer
 10
59.3304802098242874
 20
46.6201716738206215
 30
0.0
 11
59.3304807653798392
 21
41.6201716738206215
 31
0.0
  0
LINE
  5
18B
100
AcDbEntity
100
AcDbLine
  8
0
 62
256
370
-1
  6
ByLayer
 10
59.3304807653798392
 20
41.6201716738206215
 30
0.0
 11
61.5526468764909538
 21
41.6201711187478764
 31
0.0
  0
LINE
  5
18C
100
AcDbEntity
100
AcDbLine
  8
0
 62
256
370
-1
  6
ByLayer
 10
59.3304802098242874
 20
44.3979488960428483
 30
0.0
 11
60.9970913209353967
 21
44.3979488960428483
 31
0.0
  0
LINE
  5
18D
100
AcDbEntity
100
AcDbLine
  8
0
 62
256
370
-1
  6
ByLayer
 10
63.2192579876020702
 20
41.6201711182650698
 30
0.0
 11
64.8858690987131723
 21
46.6201716738206215
 31
0.0
  0
LINE
  5
18E
100
AcDbEntity
100
AcDbLine
  8
0
 62
256
370
-1
  6
ByLayer
 10
64.8858690987131723
 20
46.6201716738206215
 30
0.0
 11
66.5527024320465159
 21
41.6201711162609271
 31
0.0
  0
LINE
  5
18F
100
AcDbEntity
100
AcDbLine
  8
0
 62
256
370
-1
  6
ByLayer
 10
63.682257987602064
 20
43.0090605627095073
 30
0.0
 11
66.0896468764909599
 21
43.0090605627095073
 31
0.0
  0
LINE
  5
190
100
AcDbEntity
100
AcDbLine
  8
0
 62
256
370
-1
  6
ByLayer
 10
68.219313543157611
 20
46.6201716738206144
 30
0.0
 11
71.5527579876020638
 21
46.6201716738206144
 31
0.0
  0
LINE
  5
191
100
AcDbEntity
100
AcDbLine
  8
0
 62
256
370
-1
  6
ByLayer
 10
69.8859802098242824
 20
46.6201716738206144
 30
0.0
 11
69.8859802098242824
 21
41.6201711185056382
 31
0.0
  0
LINE
  5
192
100
AcDbEntity
100
AcDbLine
  8
0
 62
256
370
-1
  6
ByLayer
 10
77.5758690987131843
 20
44.519220562709485
 30
0.0
 11
79.1407024320465098
 21
43.7211211182650388
 31
0.0
  0
ARC
  5
193
100
AcDbEntity
  8
0
 62
256
370
-1
  6
ByLayer
100
AcDbCircle
 10
78.0805913209353974
 20
42.9396155627094842
 30
0.0
 40
3.6805555555555558
100
AcDbArc
 50
63.0745840000000015
 51
90.0
  0
ARC
  5
194
100
AcDbEntity
  8
0
 62
256
370
-1
  6
ByLayer
100
AcDbCircle
 10
78.0805913209353974
 20
45.5090605627094789
 30
0.0
 40
1.1111111111111112
100
AcDbArc
 50
90.0
 51
242.9811799999999948
  0
ARC
  5
195
100
AcDbEntity
  8
0
 62
256
370
-1
  6
ByLayer
100
AcDbCircle
 10
78.6361468764909546
 20
42.7312827849317074
 30
0.0
 40
1.1111111111111112
100
AcDbArc
 50
270.0
 51
62.9811850000000035
  0
ARC
  5
196
100
AcDbEntity
  8
0
 62
256
370
-1
  6
ByLayer
100
AcDbCircle
 10
78.6361468764909546
 20
45.3007266738205914
 30
0.0
 40
3.6805555555555558
100
AcDbArc
 50
243.0745799999999974
 51
270.0
  0
LINE
  5
197
100
AcDbEntity
100
AcDbLine
  8
0
 62
256
370
-1
  6
ByLayer
 10
81.4139249161132454
 20
46.6201716738206002
 30
0.0
 11
81.4139254716687901
 21
41.6201716738206002
 31
0.0
  0
LINE
  5
198
100
AcDbEntity
100
AcDbLine
  8
0
 62
256
370
-1
  6
ByLayer
 10
84.1917026938910169
 20
41.6201711184871073
 30
0.0
 11
84.1917026938910169
 21
46.6201716738206002
 31
0.0
  0
LINE
  5
199
100
AcDbEntity
100
AcDbLine
  8
0
 62
256
370
-1
  6
ByLayer
 10
81.4139249161132454
 20
44.397948896042827
 30
0.0
 11
84.1917026938910169
 21
44.397948896042827
 31
0.0
  0
LINE
  5
19A
100
AcDbEntity
100
AcDbLine
  8
0
 62
256
370
-1
  6
ByLayer
 10
85.8584249161132362
 20
46.6201716738206073
 30
0.0
 11
85.8584249161132362
 21
41.6201711182650556
 31
0.0
  0
LINE
  5
19B
100
AcDbEntity
100
AcDbLine
  8
0
 62
256
370
-1
  6
ByLayer
 10
89.747258249446574
 20
46.6201716738206144
 30
0.0
 11
87.5250915827799076
 21
46.6201716738206144
 31
0.0
  0
LINE
  5
19C
100
AcDbEntity
100
AcDbLine
  8
0
 62
256
370
-1
  6
ByLayer
 10
87.5250915827799076
 20
46.6201716738206144
 30
0.0
 11
87.5250921383354523
 21
41.6201716738206144
 31
0.0
  0
LINE
  5
19D
100
AcDbEntity
100
AcDbLine
  8
0
 62
256
370
-1
  6
ByLayer
 10
87.5250921383354523
 20
41.6201716738206144
 30
0.0
 11
89.747258249446574
 21
41.6201711187478693
 31
0.0
  0
LINE
  5
19E
100
AcDbEntity
100
AcDbLine
  8
0
 62
256
370
-1
  6
ByLayer
 10
87.5250915827799076
 20
44.3979488960428412
 30
0.0
 11
89.1917026938910169
 21
44.3979488960428412
 31
0.0
  0
LINE
  5
19F
100
AcDbEntity
100
AcDbLine
  8
0
 62
256
370
-1
  6
ByLayer
 10
91.4138693605576833
 20
46.6201716738206215
 30
0.0
 11
91.4138693605576833
 21
41.6201711182650698
 31
0.0
  0
LINE
  5
1A0
100
AcDbEntity
100
AcDbLine
  8
0
 62
256
370
-1
  6
ByLayer
 10
91.4138693605576833
 20
41.6201711182650698
 30
0.0
 11
93.6360915827799118
 21
41.6201711187478764
 31
0.0
  0
LINE
  5
1A1
100
AcDbEntity
100
AcDbLine
  8
0
 62
256
370
-1
  6
ByLayer
 10
95.3027026938910069
 20
41.6201711182651053
 30
0.0
 11
96.9693693605576783
 21
41.6201711185056809
 31
0.0
  0
LINE
  5
1A2
100
AcDbEntity
100
AcDbLine
  8
0
 62
256
370
-1
  6
ByLayer
 10
98.0804804716687926
 20
42.7312827849317713
 30
0.0
 11
98.0804804716687926
 21
45.5090605627095499
 31
0.0
  0
LINE
  5
1A3
100
AcDbEntity
100
AcDbLine
  8
0
 62
256
370
-1
  6
ByLayer
 10
96.9693693605576783
 20
46.6201716738206571
 30
0.0
 11
95.3027026938910069
 21
46.6201716738206571
 31
0.0
  0
LINE
  5
1A4
100
AcDbEntity
100
AcDbLine
  8
0
 62
256
370
-1
  6
ByLayer
 10
95.3027026938910069
 20
46.6201716738206571
 30
0.0
 11
95.3027026938910069
 21
41.6201711182651053
 31
0.0
  0
ARC
  5
1A5
100
AcDbEntity
  8
0
 62
256
370
-1
  6
ByLayer
100
AcDbCircle
 10
96.9693693605576783
 20
42.7312827849317713
 30
0.0
 40
1.1111111111111112
100
AcDbArc
 50
270.0
 51
0.0
  0
ARC
  5
1A6
100
AcDbEntity
  8
0
 62
256
370
-1
  6
ByLayer
100
AcDbCircle
 10
96.9693693605576783
 20
45.5090605627095499
 30
0.0
 40
1.1111111111111112
100
AcDbArc
 50
0.0
 51
90.0
  0
ENDSEC
  0
SECTION
  2
OBJECTS
  0
DICTIONARY
  5
C
100
AcDbDictionary
280
0
281
1
  3
ACAD_GROUP
350
D
  3
ACAD_LAYOUT
350
1A
  3
ACAD_MLINESTYLE
350
17
  3
ACAD_PLOTSETTINGS
350
19
  3
ACAD_PLOTSTYLENAME
350
E
  3
AcDbVariableDictionary
350
1A7
  0
DICTIONARY
  5
D
100
AcDbDictionary
280
0
281
1
  0
ACDBDICTIONARYWDFLT
  5
E
100
AcDbDictionary
281
1
  3
Normal
350
F
100
AcDbDictionaryWithDefault
340
F
  0
ACDBPLACEHOLDER
  5
F
  0
DICTIONARY
  5
17
100
AcDbDictionary
280
0
281
1
  3
Standard
350
18
  0
MLINESTYLE
  5
18
100
AcDbMlineStyle
  2
STANDARD
 70
0
  3

 62
256
 51
90.0
 52
90.0
 71
2
 49
0.5
 62
256
  6
BYLAYER
 49
-0.5
 62
256
  6
BYLAYER
  0
DICTIONARY
  5
19
100
AcDbDictionary
280
0
281
1
  0
DICTIONARY
  5
1A
100
AcDbDictionary
281
1
  3
Layout1
350
1E
  3
Layout2
350
26
  3
Model
350
22
  0
LAYOUT
  5
1E
100
AcDbPlotSettings
  1

  2
C:\Program Files\AutoCAD 2002\plotters\DWF ePlot (optimized for plotting).pc3
  4

  6

 40
0.0
 41
0.0
 42
0.0
 43
0.0
 44
0.0
 45
0.0
 46
0.0
 47
0.0
 48
0.0
 49
0.0
140
0.0
141
0.0
142
1.0
143
1.0
 70
688
 72
0
 73
0
 74
5
  7

 75
16
147
1.0
148
0.0
149
0.0
100
AcDbLayout
  1
Layout1
 70
1
 71
1
 10
0.0
 20
0.0
 11
420.0
 21
297.0
 12
0.0
 22
0.0
 32
0.0
 14
100000000000000000000.0
 24
100000000000000000000.0
 34
100000000000000000000.0
 15
-100000000000000000000.0
 25
-100000000000000000000.0
 35
-100000000000000000000.0
146
0.0
 13
0.0
 23
0.0
 33
0.0
 16
1.0
 26
0.0
 36
0.0
 17
0.0
 27
1.0
 37
0.0
 76
0
330
1B
  0
LAYOUT
  5
22
100
AcDbPlotSettings
  1

  2
C:\Program Files\AutoCAD 2002\plotters\DWF ePlot (optimized for plotting).pc3
  4

  6

 40
0.0
 41
0.0
 42
0.0
 43
0.0
 44
0.0
 45
0.0
 46
0.0
 47
0.0
 48
0.0
 49
0.0
140
0.0
141
0.0
142
1.0
143
1.0
 70
1712
 72
0
 73
0
 74
0
  7

 75
0
147
1.0
148
0.0
149
0.0
100
AcDbLayout
  1
Model
 70
1
 71
0
 10
0.0
 20
0.0
 11
12.0
 21
9.0
 12
0.0
 22
0.0
 32
0.0
 14
0.0
 24
0.0
 34
0.0
 15
0.0
 25
0.0
 35
0.0
146
0.0
 13
0.0
 23
0.0
 33
0.0
 16
1.0
 26
0.0
 36
0.0
 17
0.0
 27
1.0
 37
0.0
 76
0
330
1F
  0
LAYOUT
  5
26
100
AcDbPlotSettings
  1

  2
C:\Program Files\AutoCAD 2002\plotters\DWF ePlot (optimized for plotting).pc3
  4

  6

 40
0.0
 41
0.0
 42
0.0
 43
0.0
 44
0.0
 45
0.0
 46
0.0
 47
0.0
 48
0.0
 49
0.0
140
0.0
141
0.0
142
1.0
143
1.0
 70
688
 72
0
 73
0
 74
5
  7

 75
16
147
1.0
148
0.0
149
0.0
100
AcDbLayout
  1
Layout2
 70
1
 71
2
 10
0.0
 20
0.0
 11
12.0
 21
9.0
 12
0.0
 22
0.0
 32
0.0
 14
0.0
 24
0.0
 34
0.0
 15
0.0
 25
0.0
 35
0.0
146
0.0
 13
0.0
 23
0.0
 33
0.0
 16
1.0
 26
0.0
 36
0.0
 17
0.0
 27
1.0
 37
0.0
 76
0
330
23
  0
DICTIONARY
  5
1A7
100
AcDbDictionary
281
1
  3
DIMASSOC
350
1A9
  3
HIDETEXT
350
1A8
  0
DICTIONARYVAR
  5
1A8
100
DictionaryVariables
280
0
  1
2
  0
DICTIONARYVAR
  5
1A9
100
DictionaryVariables
280
0
  1
1
  0
ENDSEC
  0
EOF
