999
Inkscape export via "Better DXF Output" (bob@bobcookdev.com)
  0
SECTION
  2
HEADER
  9
$ACADVER
  1
AC1014
  9
$HANDSEED
  5
FFFF
  0
ENDSEC
  0
SECTION
  2
TABLES
  0
TABLE
  2
VPORT
  5
8
330
0
100
AcDbSymbolTable
 70
     4
  0
VPORT
  5
2E
330
8
100
AcDbSymbolTableRecord
100
AcDbViewportTableRecord
  2
*ACTIVE
 70
     0
 10
0.0
 20
0.0
 11
1.0
 21
1.0
 12
4.25
 22
5.5
 13
0.0
 23
0.0
 14
10.0
 24
10.0
 15
10.0
 25
10.0
 16
0.0
 26
0.0
 36
1.0
 17
0.0
 27
0.0
 37
0.0
 40
11
 41
1.24
 42
50.0
 43
0.0
 44
0.0
 50
0.0
 51
0.0
 71
     0
 72
   100
 73
     1
 74
     3
 75
     0
 76
     0
 77
     0
 78
     0
  0
ENDTAB
  0
TABLE
  2
LTYPE
  5
5
330
0
100
AcDbSymbolTable
 70
     1
  0
LTYPE
  5
14
330
5
100
AcDbSymbolTableRecord
100
AcDbLinetypeTableRecord
  2
BYBLOCK
 70
     0
  3

 72
    65
 73
     0
 40
0.0
  0
LTYPE
  5
15
330
5
100
AcDbSymbolTableRecord
100
AcDbLinetypeTableRecord
  2
BYLAYER
 70
     0
  3

 72
    65
 73
     0
 40
0.0
  0
LTYPE
  5
16
330
5
100
AcDbSymbolTableRecord
100
AcDbLinetypeTableRecord
  2
CONTINUOUS
 70
     0
  3
Solid line
 72
    65
 73
     0
 40
0.0
  0
ENDTAB
  0
TABLE
  2
LAYER
  5
2
330
0
100
AcDbSymbolTable
 70
1
  0
LAYER
  5
10
330
2
100
AcDbSymbolTableRecord
100
AcDbLayerTableRecord
  2
0
 70
     0
 62
     7
  6
CONTINUOUS
  0
ENDTAB
  0
TABLE
  2
STYLE
  5
3
330
0
100
AcDbSymbolTable
 70
     1
  0
STYLE
  5
11
330
3
100
AcDbSymbolTableRecord
100
AcDbTextStyleTableRecord
  2
STANDARD
 70
     0
 40
0.0
 41
1.0
 50
0.0
 71
     0
 42
2.5
  3
txt
  4

  0
ENDTAB
  0
TABLE
  2
VIEW
  5
6
330
0
100
AcDbSymbolTable
 70
     0
  0
ENDTAB
  0
TABLE
  2
UCS
  5
7
330
0
100
AcDbSymbolTable
 70
     0
  0
ENDTAB
  0
TABLE
  2
APPID
  5
9
330
0
100
AcDbSymbolTable
 70
     2
  0
APPID
  5
12
330
9
100
AcDbSymbolTableRecord
100
AcDbRegAppTableRecord
  2
ACAD
 70
     0
  0
ENDTAB
  0
TABLE
  2
DIMSTYLE
  5
A
330
0
100
AcDbSymbolTable
 70
     1
  0
DIMSTYLE
105
27
330
A
100
AcDbSymbolTableRecord
100
AcDbDimStyleTableRecord
  2
ISO-25
 70
     0
  3

  4

  5

  6

  7

 40
1.0
 41
2.5
 42
0.625
 43
3.75
 44
1.25
 45
0.0
 46
0.0
 47
0.0
 48
0.0
140
2.5
141
2.5
142
0.0
143
0.03937007874016
144
1.0
145
0.0
146
1.0
147
0.625
 71
     0
 72
     0
 73
     0
 74
     0
 75
     0
 76
     0
 77
     1
 78
     8
170
     0
171
     3
172
     1
173
     0
174
     0
175
     0
176
     0
177
     0
178
     0
270
     2
271
     2
272
     2
273
     2
274
     3
340
11
275
     0
280
     0
281
     0
282
     0
283
     0
284
     8
285
     0
286
     0
287
     3
288
     0
  0
ENDTAB
  0
TABLE
  2
BLOCK_RECORD
  5
1
330
0
100
AcDbSymbolTable
 70
     1
  0
BLOCK_RECORD
  5
1F
330
1
100
AcDbSymbolTableRecord
100
AcDbBlockTableRecord
  2
*MODEL_SPACE
  0
BLOCK_RECORD
  5
1B
330
1
100
AcDbSymbolTableRecord
100
AcDbBlockTableRecord
  2
*PAPER_SPACE
  0
ENDTAB
  0
ENDSEC
  0
SECTION
  2
BLOCKS
  0
BLOCK
  5
20
330
1F
100
AcDbEntity
  8
0
100
AcDbBlockBegin
  2
*MODEL_SPACE
 70
     0
 10
0.0
 20
0.0
 30
0.0
  3
*MODEL_SPACE
  1

  0
ENDBLK
  5
21
330
1F
100
AcDbEntity
  8
0
100
AcDbBlockEnd
  0
BLOCK
  5
1C
330
1B
100
AcDbEntity
 67
     1
  8
0
100
AcDbBlockBegin
  2
*PAPER_SPACE
  1

  0
ENDBLK
  5
1D
330
1B
100
AcDbEntity
 67
     1
  8
0
100
AcDbBlockEnd
  0
ENDSEC
  0
SECTION
  2
ENTITIES
0
LINE
8
Layer 1
62
4
5
100
100
AcDbEntity
100
AcDbLine
10
0.846667
20
140.828889
30
0.0
11
-0.846667
21
139.135556
31
0.0
0
LINE
8
Layer 1
62
4
5
101
100
AcDbEntity
100
AcDbLine
10
0.000000
20
141.393333
30
0.0
11
0.000000
21
138.571111
31
0.0
0
LINE
8
silkscreen
62
4
5
102
100
AcDbEntity
100
AcDbLine
10
14.365111
20
-108.655555
30
0.0
11
14.226388
21
-107.609913
31
0.0
0
LINE
8
silkscreen
62
4
5
103
100
AcDbEntity
100
AcDbLine
10
14.226388
20
-107.609913
30
0.0
11
13.828200
21
-106.651778
31
0.0
0
LINE
8
silkscreen
62
4
5
104
100
AcDbEntity
100
AcDbLine
10
13.828200
20
-106.651778
30
0.0
11
13.197524
21
-105.827870
31
0.0
0
LINE
8
silkscreen
62
4
5
105
100
AcDbEntity
100
AcDbLine
10
13.197524
20
-105.827870
30
0.0
11
12.361333
21
-105.184911
31
0.0
0
LINE
8
silkscreen
62
4
5
106
100
AcDbEntity
100
AcDbLine
10
12.361333
20
-105.184911
30
0.0
11
11.386419
21
-104.782228
31
0.0
0
LINE
8
silkscreen
62
4
5
107
100
AcDbEntity
100
AcDbLine
10
11.386419
20
-104.782228
30
0.0
11
10.357556
21
-104.648000
31
0.0
0
LINE
8
silkscreen
62
4
5
108
100
AcDbEntity
100
AcDbLine
10
10.357556
20
-104.648000
30
0.0
11
9.328692
21
-104.782228
31
0.0
0
LINE
8
silkscreen
62
4
5
109
100
AcDbEntity
100
AcDbLine
10
9.328692
20
-104.782228
30
0.0
11
8.353778
21
-105.184911
31
0.0
0
LINE
8
silkscreen
62
4
5
10a
100
AcDbEntity
100
AcDbLine
10
8.353778
20
-105.184911
30
0.0
11
7.517587
21
-105.827870
31
0.0
0
LINE
8
silkscreen
62
4
5
10b
100
AcDbEntity
100
AcDbLine
10
7.517587
20
-105.827870
30
0.0
11
6.886911
21
-106.651778
31
0.0
0
LINE
8
silkscreen
62
4
5
10c
100
AcDbEntity
100
AcDbLine
10
6.886911
20
-106.651778
30
0.0
11
6.488723
21
-107.609914
31
0.0
0
LINE
8
silkscreen
62
4
5
10d
100
AcDbEntity
100
AcDbLine
10
6.488723
20
-107.609914
30
0.0
11
6.350000
21
-108.655556
31
0.0
0
LINE
8
silkscreen
62
4
5
10e
100
AcDbEntity
100
AcDbLine
10
6.350000
20
-108.655556
30
0.0
11
6.488723
21
-109.701198
31
0.0
0
LINE
8
silkscreen
62
4
5
10f
100
AcDbEntity
100
AcDbLine
10
6.488723
20
-109.701198
30
0.0
11
6.886911
21
-110.659333
31
0.0
0
LINE
8
silkscreen
62
4
5
110
100
AcDbEntity
100
AcDbLine
10
6.886911
20
-110.659333
30
0.0
11
7.517587
21
-111.483241
31
0.0
0
LINE
8
silkscreen
62
4
5
111
100
AcDbEntity
100
AcDbLine
10
7.517587
20
-111.483241
30
0.0
11
8.353778
21
-112.126200
31
0.0
0
LINE
8
silkscreen
62
4
5
112
100
AcDbEntity
100
AcDbLine
10
8.353778
20
-112.126200
30
0.0
11
9.328692
21
-112.528883
31
0.0
0
LINE
8
silkscreen
62
4
5
113
100
AcDbEntity
100
AcDbLine
10
9.328692
20
-112.528883
30
0.0
11
10.357556
21
-112.663111
31
0.0
0
LINE
8
silkscreen
62
4
5
114
100
AcDbEntity
100
AcDbLine
10
10.357556
20
-112.663111
30
0.0
11
11.386419
21
-112.528883
31
0.0
0
LINE
8
silkscreen
62
4
5
115
100
AcDbEntity
100
AcDbLine
10
11.386419
20
-112.528883
30
0.0
11
12.361333
21
-112.126200
31
0.0
0
LINE
8
silkscreen
62
4
5
116
100
AcDbEntity
100
AcDbLine
10
12.361333
20
-112.126200
30
0.0
11
13.197524
21
-111.483241
31
0.0
0
LINE
8
silkscreen
62
4
5
117
100
AcDbEntity
100
AcDbLine
10
13.197524
20
-111.483241
30
0.0
11
13.828200
21
-110.659333
31
0.0
0
LINE
8
silkscreen
62
4
5
118
100
AcDbEntity
100
AcDbLine
10
13.828200
20
-110.659333
30
0.0
11
14.226388
21
-109.701198
31
0.0
0
LINE
8
silkscreen
62
4
5
119
100
AcDbEntity
100
AcDbLine
10
14.226388
20
-109.701198
30
0.0
11
14.365111
21
-108.655556
31
0.0
0
LINE
8
silkscreen
62
4
5
11a
100
AcDbEntity
100
AcDbLine
10
14.365111
20
-108.655556
30
0.0
11
14.365111
21
-108.655556
31
0.0
0
LINE
8
silkscreen
62
4
5
11b
100
AcDbEntity
100
AcDbLine
10
134.337778
20
-108.655556
30
0.0
11
134.363275
21
-107.486894
31
0.0
0
LINE
8
silkscreen
62
4
5
11c
100
AcDbEntity
100
AcDbLine
10
134.363275
20
-107.486894
30
0.0
11
134.059557
21
-106.382075
31
0.0
0
LINE
8
silkscreen
62
4
5
11d
100
AcDbEntity
100
AcDbLine
10
134.059557
20
-106.382075
30
0.0
11
133.455903
21
-105.408179
31
0.0
0
LINE
8
silkscreen
62
4
5
11e
100
AcDbEntity
100
AcDbLine
10
133.455903
20
-105.408179
30
0.0
11
132.581596
21
-104.632288
31
0.0
0
LINE
8
silkscreen
62
4
5
11f
100
AcDbEntity
100
AcDbLine
10
132.581596
20
-104.632288
30
0.0
11
131.520728
21
-104.141392
31
0.0
0
LINE
8
silkscreen
62
4
5
120
100
AcDbEntity
100
AcDbLine
10
131.520728
20
-104.141392
30
0.0
11
130.386667
21
-103.977759
31
0.0
0
LINE
8
silkscreen
62
4
5
121
100
AcDbEntity
100
AcDbLine
10
130.386667
20
-103.977759
30
0.0
11
129.252606
21
-104.141392
31
0.0
0
LINE
8
silkscreen
62
4
5
122
100
AcDbEntity
100
AcDbLine
10
129.252606
20
-104.141392
30
0.0
11
128.191738
21
-104.632288
31
0.0
0
LINE
8
silkscreen
62
4
5
123
100
AcDbEntity
100
AcDbLine
10
128.191738
20
-104.632288
30
0.0
11
127.317430
21
-105.408179
31
0.0
0
LINE
8
silkscreen
62
4
5
124
100
AcDbEntity
100
AcDbLine
10
127.317430
20
-105.408179
30
0.0
11
126.713776
21
-106.382075
31
0.0
0
LINE
8
silkscreen
62
4
5
125
100
AcDbEntity
100
AcDbLine
10
126.713776
20
-106.382075
30
0.0
11
126.410058
21
-107.486894
31
0.0
0
LINE
8
silkscreen
62
4
5
126
100
AcDbEntity
100
AcDbLine
10
126.410058
20
-107.486894
30
0.0
11
126.435556
21
-108.655556
31
0.0
0
LINE
8
silkscreen
62
4
5
127
100
AcDbEntity
100
AcDbLine
10
126.435556
20
-108.655556
30
0.0
11
126.915955
21
-109.990027
31
0.0
0
LINE
8
silkscreen
62
4
5
128
100
AcDbEntity
100
AcDbLine
10
126.915955
20
-109.990027
30
0.0
11
127.800697
21
-111.046894
31
0.0
0
LINE
8
silkscreen
62
4
5
129
100
AcDbEntity
100
AcDbLine
10
127.800697
20
-111.046894
30
0.0
11
128.990647
21
-111.742420
31
0.0
0
LINE
8
silkscreen
62
4
5
12a
100
AcDbEntity
100
AcDbLine
10
128.990647
20
-111.742420
30
0.0
11
130.386667
21
-111.992870
31
0.0
0
LINE
8
silkscreen
62
4
5
12b
100
AcDbEntity
100
AcDbLine
10
130.386667
20
-111.992870
30
0.0
11
131.782686
21
-111.742420
31
0.0
0
LINE
8
silkscreen
62
4
5
12c
100
AcDbEntity
100
AcDbLine
10
131.782686
20
-111.742420
30
0.0
11
132.972636
21
-111.046894
31
0.0
0
LINE
8
silkscreen
62
4
5
12d
100
AcDbEntity
100
AcDbLine
10
132.972636
20
-111.046894
30
0.0
11
133.857379
21
-109.990027
31
0.0
0
LINE
8
silkscreen
62
4
5
12e
100
AcDbEntity
100
AcDbLine
10
133.857379
20
-109.990027
30
0.0
11
134.337778
21
-108.655556
31
0.0
0
LINE
8
silkscreen
62
4
5
12f
100
AcDbEntity
100
AcDbLine
10
134.337778
20
-108.655556
30
0.0
11
134.337778
21
-108.655556
31
0.0
0
LINE
8
silkscreen
62
4
5
130
100
AcDbEntity
100
AcDbLine
10
134.337778
20
-64.628889
30
0.0
11
134.363275
21
-63.460227
31
0.0
0
LINE
8
silkscreen
62
4
5
131
100
AcDbEntity
100
AcDbLine
10
134.363275
20
-63.460227
30
0.0
11
134.059557
21
-62.355408
31
0.0
0
LINE
8
silkscreen
62
4
5
132
100
AcDbEntity
100
AcDbLine
10
134.059557
20
-62.355408
30
0.0
11
133.455903
21
-61.381513
31
0.0
0
LINE
8
silkscreen
62
4
5
133
100
AcDbEntity
100
AcDbLine
10
133.455903
20
-61.381513
30
0.0
11
132.581596
21
-60.605622
31
0.0
0
LINE
8
silkscreen
62
4
5
134
100
AcDbEntity
100
AcDbLine
10
132.581596
20
-60.605622
30
0.0
11
131.520728
21
-60.114725
31
0.0
0
LINE
8
silkscreen
62
4
5
135
100
AcDbEntity
100
AcDbLine
10
131.520728
20
-60.114725
30
0.0
11
130.386667
21
-59.951093
31
0.0
0
LINE
8
silkscreen
62
4
5
136
100
AcDbEntity
100
AcDbLine
10
130.386667
20
-59.951093
30
0.0
11
129.252606
21
-60.114725
31
0.0
0
LINE
8
silkscreen
62
4
5
137
100
AcDbEntity
100
AcDbLine
10
129.252606
20
-60.114725
30
0.0
11
128.191738
21
-60.605622
31
0.0
0
LINE
8
silkscreen
62
4
5
138
100
AcDbEntity
100
AcDbLine
10
128.191738
20
-60.605622
30
0.0
11
127.317430
21
-61.381513
31
0.0
0
LINE
8
silkscreen
62
4
5
139
100
AcDbEntity
100
AcDbLine
10
127.317430
20
-61.381513
30
0.0
11
126.713776
21
-62.355408
31
0.0
0
LINE
8
silkscreen
62
4
5
13a
100
AcDbEntity
100
AcDbLine
10
126.713776
20
-62.355408
30
0.0
11
126.410058
21
-63.460227
31
0.0
0
LINE
8
silkscreen
62
4
5
13b
100
AcDbEntity
100
AcDbLine
10
126.410058
20
-63.460227
30
0.0
11
126.435556
21
-64.628889
31
0.0
0
LINE
8
silkscreen
62
4
5
13c
100
AcDbEntity
100
AcDbLine
10
126.435556
20
-64.628889
30
0.0
11
126.915955
21
-65.963360
31
0.0
0
LINE
8
silkscreen
62
4
5
13d
100
AcDbEntity
100
AcDbLine
10
126.915955
20
-65.963360
30
0.0
11
127.800697
21
-67.020227
31
0.0
0
LINE
8
silkscreen
62
4
5
13e
100
AcDbEntity
100
AcDbLine
10
127.800697
20
-67.020227
30
0.0
11
128.990647
21
-67.715754
31
0.0
0
LINE
8
silkscreen
62
4
5
13f
100
AcDbEntity
100
AcDbLine
10
128.990647
20
-67.715754
30
0.0
11
130.386667
21
-67.966204
31
0.0
0
LINE
8
silkscreen
62
4
5
140
100
AcDbEntity
100
AcDbLine
10
130.386667
20
-67.966204
30
0.0
11
131.782686
21
-67.715754
31
0.0
0
LINE
8
silkscreen
62
4
5
141
100
AcDbEntity
100
AcDbLine
10
131.782686
20
-67.715754
30
0.0
11
132.972636
21
-67.020227
31
0.0
0
LINE
8
silkscreen
62
4
5
142
100
AcDbEntity
100
AcDbLine
10
132.972636
20
-67.020227
30
0.0
11
133.857379
21
-65.963360
31
0.0
0
LINE
8
silkscreen
62
4
5
143
100
AcDbEntity
100
AcDbLine
10
133.857379
20
-65.963360
30
0.0
11
134.337778
21
-64.628889
31
0.0
0
LINE
8
silkscreen
62
4
5
144
100
AcDbEntity
100
AcDbLine
10
134.337778
20
-64.628889
30
0.0
11
134.337778
21
-64.628889
31
0.0
0
LINE
8
silkscreen
62
4
5
145
100
AcDbEntity
100
AcDbLine
10
14.365111
20
-64.628889
30
0.0
11
14.226388
21
-63.583247
31
0.0
0
LINE
8
silkscreen
62
4
5
146
100
AcDbEntity
100
AcDbLine
10
14.226388
20
-63.583247
30
0.0
11
13.828200
21
-62.625111
31
0.0
0
LINE
8
silkscreen
62
4
5
147
100
AcDbEntity
100
AcDbLine
10
13.828200
20
-62.625111
30
0.0
11
13.197524
21
-61.801203
31
0.0
0
LINE
8
silkscreen
62
4
5
148
100
AcDbEntity
100
AcDbLine
10
13.197524
20
-61.801203
30
0.0
11
12.361333
21
-61.158244
31
0.0
0
LINE
8
silkscreen
62
4
5
149
100
AcDbEntity
100
AcDbLine
10
12.361333
20
-61.158244
30
0.0
11
11.386419
21
-60.755561
31
0.0
0
LINE
8
silkscreen
62
4
5
14a
100
AcDbEntity
100
AcDbLine
10
11.386419
20
-60.755561
30
0.0
11
10.357556
21
-60.621333
31
0.0
0
LINE
8
silkscreen
62
4
5
14b
100
AcDbEntity
100
AcDbLine
10
10.357556
20
-60.621333
30
0.0
11
9.328692
21
-60.755561
31
0.0
0
LINE
8
silkscreen
62
4
5
14c
100
AcDbEntity
100
AcDbLine
10
9.328692
20
-60.755561
30
0.0
11
8.353778
21
-61.158244
31
0.0
0
LINE
8
silkscreen
62
4
5
14d
100
AcDbEntity
100
AcDbLine
10
8.353778
20
-61.158244
30
0.0
11
7.517587
21
-61.801203
31
0.0
0
LINE
8
silkscreen
62
4
5
14e
100
AcDbEntity
100
AcDbLine
10
7.517587
20
-61.801203
30
0.0
11
6.886911
21
-62.625111
31
0.0
0
LINE
8
silkscreen
62
4
5
14f
100
AcDbEntity
100
AcDbLine
10
6.886911
20
-62.625111
30
0.0
11
6.488723
21
-63.583247
31
0.0
0
LINE
8
silkscreen
62
4
5
150
100
AcDbEntity
100
AcDbLine
10
6.488723
20
-63.583247
30
0.0
11
6.350000
21
-64.628889
31
0.0
0
LINE
8
silkscreen
62
4
5
151
100
AcDbEntity
100
AcDbLine
10
6.350000
20
-64.628889
30
0.0
11
6.488723
21
-65.674531
31
0.0
0
LINE
8
silkscreen
62
4
5
152
100
AcDbEntity
100
AcDbLine
10
6.488723
20
-65.674531
30
0.0
11
6.886911
21
-66.632667
31
0.0
0
LINE
8
silkscreen
62
4
5
153
100
AcDbEntity
100
AcDbLine
10
6.886911
20
-66.632667
30
0.0
11
7.517587
21
-67.456575
31
0.0
0
LINE
8
silkscreen
62
4
5
154
100
AcDbEntity
100
AcDbLine
10
7.517587
20
-67.456575
30
0.0
11
8.353778
21
-68.099534
31
0.0
0
LINE
8
silkscreen
62
4
5
155
100
AcDbEntity
100
AcDbLine
10
8.353778
20
-68.099534
30
0.0
11
9.328692
21
-68.502217
31
0.0
0
LINE
8
silkscreen
62
4
5
156
100
AcDbEntity
100
AcDbLine
10
9.328692
20
-68.502217
30
0.0
11
10.357556
21
-68.636444
31
0.0
0
LINE
8
silkscreen
62
4
5
157
100
AcDbEntity
100
AcDbLine
10
10.357556
20
-68.636444
30
0.0
11
11.386419
21
-68.502217
31
0.0
0
LINE
8
silkscreen
62
4
5
158
100
AcDbEntity
100
AcDbLine
10
11.386419
20
-68.502217
30
0.0
11
12.361333
21
-68.099534
31
0.0
0
LINE
8
silkscreen
62
4
5
159
100
AcDbEntity
100
AcDbLine
10
12.361333
20
-68.099534
30
0.0
11
13.197524
21
-67.456575
31
0.0
0
LINE
8
silkscreen
62
4
5
15a
100
AcDbEntity
100
AcDbLine
10
13.197524
20
-67.456575
30
0.0
11
13.828200
21
-66.632667
31
0.0
0
LINE
8
silkscreen
62
4
5
15b
100
AcDbEntity
100
AcDbLine
10
13.828200
20
-66.632667
30
0.0
11
14.226388
21
-65.674531
31
0.0
0
LINE
8
silkscreen
62
4
5
15c
100
AcDbEntity
100
AcDbLine
10
14.226388
20
-65.674531
30
0.0
11
14.365111
21
-64.628889
31
0.0
0
LINE
8
silkscreen
62
4
5
15d
100
AcDbEntity
100
AcDbLine
10
14.365111
20
-64.628889
30
0.0
11
14.365111
21
-64.628889
31
0.0
0
LINE
8
silkscreen
62
4
5
15e
100
AcDbEntity
100
AcDbLine
10
140.264444
20
-16.651111
30
0.0
11
140.264444
21
-156.351111
31
0.0
0
LINE
8
silkscreen
62
4
5
15f
100
AcDbEntity
100
AcDbLine
10
140.264444
20
-156.351111
30
0.0
11
0.355600
21
-156.351111
31
0.0
0
LINE
8
silkscreen
62
4
5
160
100
AcDbEntity
100
AcDbLine
10
0.355600
20
-156.351111
30
0.0
11
0.355600
21
-16.651111
31
0.0
0
LINE
8
silkscreen
62
4
5
161
100
AcDbEntity
100
AcDbLine
10
0.355600
20
-16.651111
30
0.0
11
140.264444
21
-16.651111
31
0.0
  0
ENDSEC
  0
SECTION
  2
OBJECTS
  0
DICTIONARY
  5
C
330
0
100
AcDbDictionary
  3
ACAD_GROUP
350
D
  3
ACAD_MLINESTYLE
350
17
  0
DICTIONARY
  5
D
330
C
100
AcDbDictionary
  0
DICTIONARY
  5
1A
330
C
100
AcDbDictionary
  0
DICTIONARY
  5
17
330
C
100
AcDbDictionary
  3
STANDARD
350
18
  0
DICTIONARY
  5
19
330
C
100
AcDbDictionary
  0
ENDSEC
  0
EOF
