999
dxflib 2.2.0.0
  0
SECTION
  2
HEADER
  9
$ACADVER
  1
AC1015
  9
$HANDSEED
  5
FFFF
  9
$DIMASZ
 40
2.5
  9
$DIMGAP
 40
0.625
  9
$DIMEXO
 40
0.625
  9
$INSUNITS
 70
4
  9
$DIMTXT
 40
2.5
  9
$PLIMMAX
 10
210.0
 20
297.0
  9
$PLIMMIN
 10
0.0
 20
0.0
  9
$DIMEXE
 40
1.25
  0
ENDSEC
  0
SECTION
  2
TABLES
  0
TABLE
  2
VPORT
  5
8
100
AcDbSymbolTable
 70
1
  0
VPORT
  5
30
100
AcDbSymbolTableRecord
100
AcDbViewportTableRecord
  2
*Active
 70
0
 10
0.0
 20
0.0
 11
1.0
 21
1.0
 12
286.3055555555554861
 22
148.5
 13
0.0
 23
0.0
 14
10.0
 24
10.0
 15
10.0
 25
10.0
 16
0.0
 26
0.0
 36
1.0
 17
0.0
 27
0.0
 37
0.0
 40
297.0
 41
1.92798353909465
 42
50.0
 43
0.0
 44
0.0
 50
0.0
 51
0.0
 71
0
 72
100
 73
1
 74
3
 75
1
 76
1
 77
0
 78
0
281
0
 65
1
110
0.0
120
0.0
130
0.0
111
1.0
121
0.0
131
0.0
112
0.0
122
1.0
132
0.0
 79
0
146
0.0
  0
ENDTAB
  0
TABLE
  2
LTYPE
  5
5
100
AcDbSymbolTable
 70
21
  0
LTYPE
  5
14
100
AcDbSymbolTableRecord
100
AcDbLinetypeTableRecord
  2
ByBlock
 70
0
  3

 72
65
 73
0
 40
0.0
  0
LTYPE
  5
15
100
AcDbSymbolTableRecord
100
AcDbLinetypeTableRecord
  2
ByLayer
 70
0
  3

 72
65
 73
0
 40
0.0
  0
LTYPE
  5
16
100
AcDbSymbolTableRecord
100
AcDbLinetypeTableRecord
  2
CONTINUOUS
 70
0
  3
Solid line
 72
65
 73
0
 40
0.0
  0
LTYPE
  5
31
100
AcDbSymbolTableRecord
100
AcDbLinetypeTableRecord
  2
DOT
 70
0
  3
Dot . . . . . . . . . . . . . . . . . . . . . .
 72
65
 73
2
 40
6.3499999999999996
 49
0.0
 74
0
 49
-6.3499999999999996
 74
0
  0
LTYPE
  5
32
100
AcDbSymbolTableRecord
100
AcDbLinetypeTableRecord
  2
DOT2
 70
0
  3
Dot (.5x) .....................................
 72
65
 73
2
 40
3.1749999999999998
 49
0.0
 74
0
 49
-3.1749999999999998
 74
0
  0
LTYPE
  5
33
100
AcDbSymbolTableRecord
100
AcDbLinetypeTableRecord
  2
DOTX2
 70
0
  3
Dot (2x) .  .  .  .  .  .  .  .  .  .  .  .  .
 72
65
 73
2
 40
12.6999999999999993
 49
0.0
 74
0
 49
-12.6999999999999993
 74
0
  0
LTYPE
  5
34
100
AcDbSymbolTableRecord
100
AcDbLinetypeTableRecord
  2
DASHED
 70
0
  3
Dashed __ __ __ __ __ __ __ __ __ __ __ __ __ _
 72
65
 73
2
 40
19.0500000000000007
 49
12.6999999999999993
 74
0
 49
-6.3499999999999996
 74
0
  0
LTYPE
  5
35
100
AcDbSymbolTableRecord
100
AcDbLinetypeTableRecord
  2
DASHED2
 70
0
  3
Dashed (.5x) _ _ _ _ _ _ _ _ _ _ _ _ _ _ _ _ _
 72
65
 73
2
 40
9.5250000000000004
 49
6.3499999999999996
 74
0
 49
-3.1749999999999998
 74
0
  0
LTYPE
  5
36
100
AcDbSymbolTableRecord
100
AcDbLinetypeTableRecord
  2
DASHEDX2
 70
0
  3
Dashed (2x) ____  ____  ____  ____  ____  ___
 72
65
 73
2
 40
38.1000000000000014
 49
25.3999999999999986
 74
0
 49
-12.6999999999999993
 74
0
  0
LTYPE
  5
37
100
AcDbSymbolTableRecord
100
AcDbLinetypeTableRecord
  2
DASHDOT
 70
0
  3
Dash dot __ . __ . __ . __ . __ . __ . __ . __
 72
65
 73
4
 40
25.3999999999999986
 49
12.6999999999999993
 74
0
 49
-6.3499999999999996
 74
0
 49
0.0
 74
0
 49
-6.3499999999999996
 74
0
  0
LTYPE
  5
38
100
AcDbSymbolTableRecord
100
AcDbLinetypeTableRecord
  2
DASHDOT2
 70
0
  3
Dash dot (.5x) _._._._._._._._._._._._._._._.
 72
65
 73
4
 40
12.6999999999999993
 49
6.3499999999999996
 74
0
 49
-3.1749999999999998
 74
0
 49
0.0
 74
0
 49
-3.1749999999999998
 74
0
  0
LTYPE
  5
39
100
AcDbSymbolTableRecord
100
AcDbLinetypeTableRecord
  2
DASHDOTX2
 70
0
  3
Dash dot (2x) ____  .  ____  .  ____  .  ___
 72
65
 73
4
 40
50.7999999999999972
 49
25.3999999999999986
 74
0
 49
-12.6999999999999993
 74
0
 49
0.0
 74
0
 49
-12.6999999999999993
 74
0
  0
LTYPE
  5
3A
100
AcDbSymbolTableRecord
100
AcDbLinetypeTableRecord
  2
DIVIDE
 70
0
  3
Divide ____ . . ____ . . ____ . . ____ . . ____
 72
65
 73
6
 40
31.75
 49
12.6999999999999993
 74
0
 49
-6.3499999999999996
 74
0
 49
0.0
 74
0
 49
-6.3499999999999996
 74
0
 49
0.0
 74
0
 49
-6.3499999999999996
 74
0
  0
LTYPE
  5
3B
100
AcDbSymbolTableRecord
100
AcDbLinetypeTableRecord
  2
DIVIDE2
 70
0
  3
Divide (.5x) __..__..__..__..__..__..__..__.._
 72
65
 73
6
 40
15.875
 49
6.3499999999999996
 74
0
 49
-3.1749999999999998
 74
0
 49
0.0
 74
0
 49
-3.1749999999999998
 74
0
 49
0.0
 74
0
 49
-3.1749999999999998
 74
0
  0
LTYPE
  5
3C
100
AcDbSymbolTableRecord
100
AcDbLinetypeTableRecord
  2
DIVIDEX2
 70
0
  3
Divide (2x) ________  .  .  ________  .  .  _
 72
65
 73
6
 40
63.5
 49
25.3999999999999986
 74
0
 49
-12.6999999999999993
 74
0
 49
0.0
 74
0
 49
-12.6999999999999993
 74
0
 49
0.0
 74
0
 49
-12.6999999999999993
 74
0
  0
LTYPE
  5
3D
100
AcDbSymbolTableRecord
100
AcDbLinetypeTableRecord
  2
CENTER
 70
0
  3
Center ____ _ ____ _ ____ _ ____ _ ____ _ ____
 72
65
 73
4
 40
50.7999999999999972
 49
31.75
 74
0
 49
-6.3499999999999996
 74
0
 49
6.3499999999999996
 74
0
 49
-6.3499999999999996
 74
0
  0
LTYPE
  5
3E
100
AcDbSymbolTableRecord
100
AcDbLinetypeTableRecord
  2
CENTER2
 70
0
  3
Center (.5x) ___ _ ___ _ ___ _ ___ _ ___ _ ___
 72
65
 73
4
 40
28.5749999999999993
 49
19.0500000000000007
 74
0
 49
-3.1749999999999998
 74
0
 49
3.1749999999999998
 74
0
 49
-3.1749999999999998
 74
0
  0
LTYPE
  5
3F
100
AcDbSymbolTableRecord
100
AcDbLinetypeTableRecord
  2
CENTERX2
 70
0
  3
Center (2x) ________  __  ________  __  _____
 72
65
 73
4
 40
101.5999999999999943
 49
63.5
 74
0
 49
-12.6999999999999993
 74
0
 49
12.6999999999999993
 74
0
 49
-12.6999999999999993
 74
0
  0
LTYPE
  5
40
100
AcDbSymbolTableRecord
100
AcDbLinetypeTableRecord
  2
BORDER
 70
0
  3
Border __ __ . __ __ . __ __ . __ __ . __ __ .
 72
65
 73
6
 40
44.4500000000000028
 49
12.6999999999999993
 74
0
 49
-6.3499999999999996
 74
0
 49
12.6999999999999993
 74
0
 49
-6.3499999999999996
 74
0
 49
0.0
 74
0
 49
-6.3499999999999996
 74
0
  0
LTYPE
  5
41
100
AcDbSymbolTableRecord
100
AcDbLinetypeTableRecord
  2
BORDER2
 70
0
  3
Border (.5x) __.__.__.__.__.__.__.__.__.__.__.
 72
65
 73
6
 40
22.2250000000000014
 49
6.3499999999999996
 74
0
 49
-3.1749999999999998
 74
0
 49
6.3499999999999996
 74
0
 49
-3.1749999999999998
 74
0
 49
0.0
 74
0
 49
-3.1749999999999998
 74
0
  0
LTYPE
  5
42
100
AcDbSymbolTableRecord
100
AcDbLinetypeTableRecord
  2
BORDERX2
 70
0
  3
Border (2x) ____  ____  .  ____  ____  .  ___
 72
65
 73
6
 40
88.9000000000000057
 49
25.3999999999999986
 74
0
 49
-12.6999999999999993
 74
0
 49
25.3999999999999986
 74
0
 49
-12.6999999999999993
 74
0
 49
0.0
 74
0
 49
-12.6999999999999993
 74
0
  0
ENDTAB
  0
TABLE
  2
LAYER
  5
2
100
AcDbSymbolTable
 70
2
  0
LAYER
  5
10
100
AcDbSymbolTableRecord
100
AcDbLayerTableRecord
  2
0
 70
0
 62
7
  6
CONTINUOUS
370
0
390
F
  0
LAYER
  5
43
100
AcDbSymbolTableRecord
100
AcDbLayerTableRecord
  2
1
 70
0
 62
4
  6
CONTINUOUS
370
0
390
F
  0
ENDTAB
  0
TABLE
  2
STYLE
  5
3
100
AcDbSymbolTable
 70
1
  0
STYLE
  5
11
100
AcDbSymbolTableRecord
100
AcDbTextStyleTableRecord
  2
Standard
 70
0
 40
0.0
 41
0.75
 50
0.0
 71
0
 42
2.5
  3
txt
  4

  0
ENDTAB
  0
TABLE
  2
VIEW
  5
6
100
AcDbSymbolTable
 70
0
  0
ENDTAB
  0
TABLE
  2
UCS
  5
7
100
AcDbSymbolTable
 70
0
  0
ENDTAB
  0
TABLE
  2
APPID
  5
9
100
AcDbSymbolTable
 70
1
  0
APPID
  5
12
100
AcDbSymbolTableRecord
100
AcDbRegAppTableRecord
  2
ACAD
 70
0
  0
ENDTAB
  0
TABLE
  2
DIMSTYLE
  5
A
100
AcDbSymbolTable
 70
1
100
AcDbDimStyleTable
 71
0
  0
DIMSTYLE
105
27
100
AcDbSymbolTableRecord
100
AcDbDimStyleTableRecord
  2
Standard
 41
2.5
 42
0.625
 43
3.75
 44
1.25
 70
0
 73
0
 74
0
 77
1
 78
8
140
2.5
141
2.5
143
0.03937007874016
147
0.625
171
3
172
1
271
2
272
2
274
3
278
44
283
0
284
8
340
11
  0
ENDTAB
  0
TABLE
  2
BLOCK_RECORD
  5
1
100
AcDbSymbolTable
 70
1
  0
BLOCK_RECORD
  5
1F
100
AcDbSymbolTableRecord
100
AcDbBlockTableRecord
  2
*Model_Space
340
22
  0
BLOCK_RECORD
  5
1B
100
AcDbSymbolTableRecord
100
AcDbBlockTableRecord
  2
*Paper_Space
340
1E
  0
BLOCK_RECORD
  5
23
100
AcDbSymbolTableRecord
100
AcDbBlockTableRecord
  2
*Paper_Space0
340
26
  0
ENDTAB
  0
ENDSEC
  0
SECTION
  2
BLOCKS
  0
BLOCK
  5
20
100
AcDbEntity
  8
0
100
AcDbBlockBegin
  2
*Model_Space
 70
0
 10
0.0
 20
0.0
 30
0.0
  3
*Model_Space
  1

  0
ENDBLK
  5
21
100
AcDbEntity
  8
0
100
AcDbBlockEnd
  0
BLOCK
  5
1C
100
AcDbEntity
 67
1
  8
0
100
AcDbBlockBegin
  2
*Paper_Space
 70
0
 10
0.0
 20
0.0
 30
0.0
  3
*Paper_Space
  1

  0
ENDBLK
  5
1D
100
AcDbEntity
 67
1
  8
0
100
AcDbBlockEnd
  0
BLOCK
  5
24
100
AcDbEntity
  8
0
100
AcDbBlockBegin
  2
*Paper_Space0
 70
0
 10
0.0
 20
0.0
 30
0.0
  3
*Paper_Space0
  1

  0
ENDBLK
  5
25
100
AcDbEntity
  8
0
100
AcDbBlockEnd
  0
ENDSEC
  0
SECTION
  2
ENTITIES
  0
LINE
  5
44
100
AcDbEntity
100
AcDbLine
  8
1
 62
256
370
-1
  6
ByLayer
 10
67.7333329999999876
 20
0.0
 30
0.0
 11
67.733333000000016
 21
14.9577769999999539
 31
0.0
  0
LINE
  5
45
100
AcDbEntity
100
AcDbLine
  8
1
 62
256
370
-1
  6
ByLayer
 10
67.733333000000016
 20
14.9577769999999539
 30
0.0
 11
20.6022219999999834
 21
14.957776999999961
 31
0.0
  0
LINE
  5
46
100
AcDbEntity
100
AcDbLine
  8
1
 62
256
370
-1
  6
ByLayer
 10
20.6022219999999834
 20
14.957776999999961
 30
0.0
 11
20.6022219999999905
 21
25.7104440000000558
 31
0.0
  0
LINE
  5
47
100
AcDbEntity
100
AcDbLine
  8
1
 62
256
370
-1
  6
ByLayer
 10
20.6022219999999905
 20
25.7104440000000558
 30
0.0
 11
67.7333329999999592
 21
25.7104440000000132
 31
0.0
  0
LINE
  5
48
100
AcDbEntity
100
AcDbLine
  8
1
 62
256
370
-1
  6
ByLayer
 10
67.7333329999999592
 20
25.7104440000000132
 30
0.0
 11
67.7333329999999876
 21
40.6682220000000285
 31
0.0
  0
LINE
  5
49
100
AcDbEntity
100
AcDbLine
  8
1
 62
256
370
-1
  6
ByLayer
 10
67.7333329999999876
 20
40.6682220000000285
 30
0.0
 11
20.6022219999999834
 21
40.6682220000000427
 31
0.0
  0
LINE
  5
4A
100
AcDbEntity
100
AcDbLine
  8
1
 62
256
370
-1
  6
ByLayer
 10
20.6022219999999834
 20
40.6682220000000427
 30
0.0
 11
20.6022220000000189
 21
51.1104440000000295
 31
0.0
  0
LINE
  5
4B
100
AcDbEntity
100
AcDbLine
  8
1
 62
256
370
-1
  6
ByLayer
 10
20.6022220000000189
 20
51.1104440000000295
 30
0.0
 11
67.733333000000016
 21
51.1104440000000153
 31
0.0
  0
LINE
  5
4C
100
AcDbEntity
100
AcDbLine
  8
1
 62
256
370
-1
  6
ByLayer
 10
67.733333000000016
 20
51.1104440000000153
 30
0.0
 11
67.7333329999999876
 21
67.7615550000000439
 31
0.0
  0
LINE
  5
4D
100
AcDbEntity
100
AcDbLine
  8
1
 62
256
370
-1
  6
ByLayer
 10
67.7333329999999876
 20
67.7615550000000439
 30
0.0
 11
-0.0000000000000142
 21
67.7615550000000439
 31
0.0
  0
LINE
  5
4E
100
AcDbEntity
100
AcDbLine
  8
1
 62
256
370
-1
  6
ByLayer
 10
-0.0000000000000142
 20
67.7615550000000439
 30
0.0
 11
0.0
 21
0.0
 31
0.0
  0
LINE
  5
4F
100
AcDbEntity
100
AcDbLine
  8
1
 62
256
370
-1
  6
ByLayer
 10
0.0
 20
0.0
 30
0.0
 11
67.7333329999999876
 21
0.0
 31
0.0
  0
LINE
  5
50
100
AcDbEntity
100
AcDbLine
  8
1
 62
256
370
-1
  6
ByLayer
 10
69.7088889999999708
 20
70.301555000000036
 30
0.0
 11
74.1962219999999775
 21
74.2526660000000334
 31
0.0
  0
LINE
  5
51
100
AcDbEntity
100
AcDbLine
  8
1
 62
256
370
-1
  6
ByLayer
 10
74.1962219999999775
 20
74.2526660000000334
 30
0.0
 11
28.2222220000000164
 21
74.2526660000000334
 31
0.0
  0
LINE
  5
52
100
AcDbEntity
100
AcDbLine
  8
1
 62
256
370
-1
  6
ByLayer
 10
28.2222220000000164
 20
74.2526660000000334
 30
0.0
 11
32.1733329999999995
 21
77.0748890000000415
 31
0.0
  0
LINE
  5
53
100
AcDbEntity
100
AcDbLine
  8
1
 62
256
370
-1
  6
ByLayer
 10
32.1733329999999995
 20
77.0748890000000415
 30
0.0
 11
77.8651109999999846
 21
77.0748890000000557
 31
0.0
  0
LINE
  5
54
100
AcDbEntity
100
AcDbLine
  8
1
 62
256
370
-1
  6
ByLayer
 10
77.8651109999999846
 20
77.0748890000000557
 30
0.0
 11
82.6628890000000069
 21
80.7437770000000228
 31
0.0
  0
LINE
  5
55
100
AcDbEntity
100
AcDbLine
  8
1
 62
256
370
-1
  6
ByLayer
 10
82.6628890000000069
 20
80.7437770000000228
 30
0.0
 11
37.8177769999999995
 21
81.0260000000000105
 31
0.0
  0
LINE
  5
56
100
AcDbEntity
100
AcDbLine
  8
1
 62
256
370
-1
  6
ByLayer
 10
37.8177769999999995
 20
81.0260000000000105
 30
0.0
 11
41.2044439999999952
 21
83.5660000000000309
 31
0.0
  0
LINE
  5
57
100
AcDbEntity
100
AcDbLine
  8
1
 62
256
370
-1
  6
ByLayer
 10
41.2044439999999952
 20
83.5660000000000309
 30
0.0
 11
86.6140000000000043
 21
83.5660000000000309
 31
0.0
  0
LINE
  5
58
100
AcDbEntity
100
AcDbLine
  8
1
 62
256
370
-1
  6
ByLayer
 10
86.6140000000000043
 20
83.5660000000000309
 30
0.0
 11
91.6940000000000168
 21
87.7993330000000327
 31
0.0
  0
LINE
  5
59
100
AcDbEntity
100
AcDbLine
  8
1
 62
256
370
-1
  6
ByLayer
 10
91.6940000000000168
 20
87.7993330000000327
 30
0.0
 11
27.6577769999999887
 21
87.7993330000000469
 31
0.0
  0
LINE
  5
5A
100
AcDbEntity
100
AcDbLine
  8
1
 62
256
370
-1
  6
ByLayer
 10
27.6577769999999887
 20
87.7993330000000469
 30
0.0
 11
1.6933329999999849
 21
70.3015550000000218
 31
0.0
  0
LINE
  5
5B
100
AcDbEntity
100
AcDbLine
  8
1
 62
256
370
-1
  6
ByLayer
 10
1.6933329999999849
 20
70.3015550000000218
 30
0.0
 11
69.7088889999999708
 21
70.301555000000036
 31
0.0
  0
LINE
  5
5C
100
AcDbEntity
100
AcDbLine
  8
1
 62
256
370
-1
  6
ByLayer
 10
77.0184439999999881
 20
5.0800000000000445
 30
0.0
 11
77.0184439999999881
 21
51.957111000000026
 31
0.0
  0
LINE
  5
5D
100
AcDbEntity
100
AcDbLine
  8
1
 62
256
370
-1
  6
ByLayer
 10
77.0184439999999881
 20
51.957111000000026
 30
0.0
 11
80.9695550000000139
 21
55.0615550000000411
 31
0.0
  0
LINE
  5
5E
100
AcDbEntity
100
AcDbLine
  8
1
 62
256
370
-1
  6
ByLayer
 10
80.9695550000000139
 20
55.0615550000000411
 30
0.0
 11
80.9695550000000139
 21
8.4666659999999858
 31
0.0
  0
LINE
  5
5F
100
AcDbEntity
100
AcDbLine
  8
1
 62
256
370
-1
  6
ByLayer
 10
80.9695550000000139
 20
8.4666659999999858
 30
0.0
 11
85.4851110000000176
 21
11.853332999999953
 31
0.0
  0
LINE
  5
60
100
AcDbEntity
100
AcDbLine
  8
1
 62
256
370
-1
  6
ByLayer
 10
85.4851110000000176
 20
11.853332999999953
 30
0.0
 11
85.4851109999999892
 21
58.7304440000000483
 31
0.0
  0
LINE
  5
61
100
AcDbEntity
100
AcDbLine
  8
1
 62
256
370
-1
  6
ByLayer
 10
85.4851109999999892
 20
58.7304440000000483
 30
0.0
 11
90.0006660000000238
 21
61.8348890000000182
 31
0.0
  0
LINE
  5
62
100
AcDbEntity
100
AcDbLine
  8
1
 62
256
370
-1
  6
ByLayer
 10
90.0006660000000238
 20
61.8348890000000182
 30
0.0
 11
90.0006659999999954
 21
15.5222220000000171
 31
0.0
  0
LINE
  5
63
100
AcDbEntity
100
AcDbLine
  8
1
 62
256
370
-1
  6
ByLayer
 10
90.0006659999999954
 20
15.5222220000000171
 30
0.0
 11
93.6695550000000026
 21
18.9088889999999843
 31
0.0
  0
LINE
  5
64
100
AcDbEntity
100
AcDbLine
  8
1
 62
256
370
-1
  6
ByLayer
 10
93.6695550000000026
 20
18.9088889999999843
 30
0.0
 11
93.6695550000000026
 21
85.259332999999998
 31
0.0
  0
LINE
  5
65
100
AcDbEntity
100
AcDbLine
  8
1
 62
256
370
-1
  6
ByLayer
 10
93.6695550000000026
 20
85.259332999999998
 30
0.0
 11
71.684443999999985
 21
68.0437770000000626
 31
0.0
  0
LINE
  5
66
100
AcDbEntity
100
AcDbLine
  8
1
 62
256
370
-1
  6
ByLayer
 10
71.684443999999985
 20
68.0437770000000626
 30
0.0
 11
71.684443999999985
 21
0.8466659999999564
 31
0.0
  0
LINE
  5
67
100
AcDbEntity
100
AcDbLine
  8
1
 62
256
370
-1
  6
ByLayer
 10
110.0384440000000268
 20
-0.0000000000000213
 30
0.0
 11
117.7148889999999994
 21
-0.282223000000041
 31
0.0
  0
LINE
  5
68
100
AcDbEntity
100
AcDbLine
  8
1
 62
256
370
-1
  6
ByLayer
 10
117.7148889999999994
 20
-0.282223000000041
 30
0.0
 11
143.0866659999999797
 21
-0.2822229999999806
 31
0.0
  0
LINE
  5
69
100
AcDbEntity
100
AcDbLine
  8
1
 62
256
370
-1
  6
ByLayer
 10
143.0866659999999797
 20
-0.2822229999999806
 30
0.0
 11
143.0866659999999797
 21
5.3622219999999352
 31
0.0
  0
LINE
  5
6A
100
AcDbEntity
100
AcDbLine
  8
1
 62
256
370
-1
  6
ByLayer
 10
143.0866659999999797
 20
5.3622219999999352
 30
0.0
 11
112.7477770000000135
 21
5.3622219999999707
 31
0.0
  0
LINE
  5
6B
100
AcDbEntity
100
AcDbLine
  8
1
 62
256
370
-1
  6
ByLayer
 10
112.7477770000000135
 20
5.3622219999999707
 30
0.0
 11
112.747776999999985
 21
11.5711109999999415
 31
0.0
  0
LINE
  5
6C
100
AcDbEntity
100
AcDbLine
  8
1
 62
256
370
-1
  6
ByLayer
 10
112.747776999999985
 20
11.5711109999999415
 30
0.0
 11
143.0866659999999797
 21
11.5711109999999699
 31
0.0
  0
LINE
  5
6D
100
AcDbEntity
100
AcDbLine
  8
1
 62
256
370
-1
  6
ByLayer
 10
143.0866659999999797
 20
11.5711109999999699
 30
0.0
 11
143.0866659999999797
 21
18.3444439999999211
 31
0.0
  0
LINE
  5
6E
100
AcDbEntity
100
AcDbLine
  8
1
 62
256
370
-1
  6
ByLayer
 10
143.0866659999999797
 20
18.3444439999999211
 30
0.0
 11
142.8044439999999895
 21
25.4282219999999874
 31
0.0
  0
LINE
  5
6F
100
AcDbEntity
100
AcDbLine
  8
1
 62
256
370
-1
  6
ByLayer
 10
142.8044439999999895
 20
25.4282219999999874
 30
0.0
 11
140.5466660000000161
 21
27.9682219999999866
 31
0.0
  0
LINE
  5
70
100
AcDbEntity
100
AcDbLine
  8
1
 62
256
370
-1
  6
ByLayer
 10
140.5466660000000161
 20
27.9682219999999866
 30
0.0
 11
139.417777000000001
 21
28.5326660000000025
 31
0.0
  0
LINE
  5
71
100
AcDbEntity
100
AcDbLine
  8
1
 62
256
370
-1
  6
ByLayer
 10
139.417777000000001
 20
28.5326660000000025
 30
0.0
 11
109.474000000000018
 21
28.5326660000000025
 31
0.0
  0
LINE
  5
72
100
AcDbEntity
100
AcDbLine
  8
1
 62
256
370
-1
  6
ByLayer
 10
109.474000000000018
 20
28.5326660000000025
 30
0.0
 11
106.087333000000001
 21
25.9926659999999963
 31
0.0
  0
LINE
  5
73
100
AcDbEntity
100
AcDbLine
  8
1
 62
256
370
-1
  6
ByLayer
 10
106.087333000000001
 20
25.9926659999999963
 30
0.0
 11
105.8051110000000108
 21
24.5815549999999767
 31
0.0
  0
LINE
  5
74
100
AcDbEntity
100
AcDbLine
  8
1
 62
256
370
-1
  6
ByLayer
 10
105.8051110000000108
 20
24.5815549999999767
 30
0.0
 11
105.8051110000000108
 21
3.668888999999929
 31
0.0
  0
LINE
  5
75
100
AcDbEntity
100
AcDbLine
  8
1
 62
256
370
-1
  6
ByLayer
 10
105.8051110000000108
 20
3.668888999999929
 30
0.0
 11
106.9339999999999975
 21
1.1288889999999263
 31
0.0
  0
LINE
  5
76
100
AcDbEntity
100
AcDbLine
  8
1
 62
256
370
-1
  6
ByLayer
 10
106.9339999999999975
 20
1.1288889999999263
 30
0.0
 11
107.7806659999999965
 21
0.5644439999999307
 31
0.0
  0
LINE
  5
77
100
AcDbEntity
100
AcDbLine
  8
1
 62
256
370
-1
  6
ByLayer
 10
157.7622220000000084
 20
-0.2822229999998633
 30
0.0
 11
164.8177770000000351
 21
-0.2822229999999983
 31
0.0
  0
LINE
  5
78
100
AcDbEntity
100
AcDbLine
  8
1
 62
256
370
-1
  6
ByLayer
 10
164.8177770000000351
 20
-0.2822229999999983
 30
0.0
 11
164.8177769999999782
 21
24.8637769999999669
 31
0.0
  0
LINE
  5
79
100
AcDbEntity
100
AcDbLine
  8
1
 62
256
370
-1
  6
ByLayer
 10
164.8177769999999782
 20
24.8637769999999669
 30
0.0
 11
179.7755549999999971
 21
3.951110999999834
 31
0.0
  0
LINE
  5
7A
100
AcDbEntity
100
AcDbLine
  8
1
 62
256
370
-1
  6
ByLayer
 10
179.7755549999999971
 20
3.951110999999834
 30
0.0
 11
181.7511109999999803
 21
3.9511110000001999
 31
0.0
  0
LINE
  5
7B
100
AcDbEntity
100
AcDbLine
  8
1
 62
256
370
-1
  6
ByLayer
 10
181.7511109999999803
 20
3.9511110000001999
 30
0.0
 11
196.9911109999999894
 21
25.1459999999999404
 31
0.0
  0
LINE
  5
7C
100
AcDbEntity
100
AcDbLine
  8
1
 62
256
370
-1
  6
ByLayer
 10
196.9911109999999894
 20
25.1459999999999404
 30
0.0
 11
196.7088889999999992
 21
-0.2822230000001085
 31
0.0
  0
LINE
  5
7D
100
AcDbEntity
100
AcDbLine
  8
1
 62
256
370
-1
  6
ByLayer
 10
196.7088889999999992
 20
-0.2822230000001085
 30
0.0
 11
204.3288890000000606
 21
-0.2822230000000765
 31
0.0
  0
LINE
  5
7E
100
AcDbEntity
100
AcDbLine
  8
1
 62
256
370
-1
  6
ByLayer
 10
204.3288890000000606
 20
-0.2822230000000765
 30
0.0
 11
204.3288890000000038
 21
35.3059999999999263
 31
0.0
  0
LINE
  5
7F
100
AcDbEntity
100
AcDbLine
  8
1
 62
256
370
-1
  6
ByLayer
 10
204.3288890000000038
 20
35.3059999999999263
 30
0.0
 11
197.5555550000000267
 21
35.3060000000000116
 31
0.0
  0
LINE
  5
80
100
AcDbEntity
100
AcDbLine
  8
1
 62
256
370
-1
  6
ByLayer
 10
197.5555550000000267
 20
35.3060000000000116
 30
0.0
 11
181.4688889999999901
 21
13.8288889999999576
 31
0.0
  0
LINE
  5
81
100
AcDbEntity
100
AcDbLine
  8
1
 62
256
370
-1
  6
ByLayer
 10
181.4688889999999901
 20
13.8288889999999576
 30
0.0
 11
164.8177769999999782
 21
35.3059999999999974
 31
0.0
  0
LINE
  5
82
100
AcDbEntity
100
AcDbLine
  8
1
 62
256
370
-1
  6
ByLayer
 10
164.8177769999999782
 20
35.3059999999999974
 30
0.0
 11
157.7622220000000084
 21
35.3059999999999832
 31
0.0
  0
LINE
  5
83
100
AcDbEntity
100
AcDbLine
  8
1
 62
256
370
-1
  6
ByLayer
 10
157.7622220000000084
 20
35.3059999999999832
 30
0.0
 11
157.7622220000000084
 21
-0.2822229999998633
 31
0.0
  0
LINE
  5
84
100
AcDbEntity
100
AcDbLine
  8
1
 62
256
370
-1
  6
ByLayer
 10
215.0533330000000092
 20
-0.2822230000000445
 30
0.0
 11
223.2377769999999941
 21
-0.2822229999999983
 31
0.0
  0
LINE
  5
85
100
AcDbEntity
100
AcDbLine
  8
1
 62
256
370
-1
  6
ByLayer
 10
223.2377769999999941
 20
-0.2822229999999983
 30
0.0
 11
225.2133329999999773
 21
3.6688889999999219
 31
0.0
  0
LINE
  5
86
100
AcDbEntity
100
AcDbLine
  8
1
 62
256
370
-1
  6
ByLayer
 10
225.2133329999999773
 20
3.6688889999999219
 30
0.0
 11
228.035554999999988
 21
7.6199999999999086
 31
0.0
  0
LINE
  5
87
100
AcDbEntity
100
AcDbLine
  8
1
 62
256
370
-1
  6
ByLayer
 10
228.035554999999988
 20
7.6199999999999086
 30
0.0
 11
250.6133330000000399
 21
7.6200000000001573
 31
0.0
  0
LINE
  5
88
100
AcDbEntity
100
AcDbLine
  8
1
 62
256
370
-1
  6
ByLayer
 10
250.6133330000000399
 20
7.6200000000001573
 30
0.0
 11
252.8711109999999564
 21
3.6688890000001884
 31
0.0
  0
LINE
  5
89
100
AcDbEntity
100
AcDbLine
  8
1
 62
256
370
-1
  6
ByLayer
 10
252.8711109999999564
 20
3.6688890000001884
 30
0.0
 11
252.8711109999999564
 21
-0.2822230000000623
 31
0.0
  0
LINE
  5
8A
100
AcDbEntity
100
AcDbLine
  8
1
 62
256
370
-1
  6
ByLayer
 10
252.8711109999999564
 20
-0.2822230000000623
 30
0.0
 11
264.160000000000025
 21
-0.2822230000002115
 31
0.0
  0
LINE
  5
8B
100
AcDbEntity
100
AcDbLine
  8
1
 62
256
370
-1
  6
ByLayer
 10
264.160000000000025
 20
-0.2822230000002115
 30
0.0
 11
259.6444440000000782
 21
5.3622220000000844
 31
0.0
  0
LINE
  5
8C
100
AcDbEntity
100
AcDbLine
  8
1
 62
256
370
-1
  6
ByLayer
 10
259.6444440000000782
 20
5.3622220000000844
 30
0.0
 11
257.3866660000000479
 21
11.8533329999998394
 31
0.0
  0
LINE
  5
8D
100
AcDbEntity
100
AcDbLine
  8
1
 62
256
370
-1
  6
ByLayer
 10
257.3866660000000479
 20
11.8533329999998394
 30
0.0
 11
248.3555550000000096
 21
25.992665999999975
 31
0.0
  0
LINE
  5
8E
100
AcDbEntity
100
AcDbLine
  8
1
 62
256
370
-1
  6
ByLayer
 10
248.3555550000000096
 20
25.992665999999975
 30
0.0
 11
246.0977769999999794
 21
29.3793330000000132
 31
0.0
  0
LINE
  5
8F
100
AcDbEntity
100
AcDbLine
  8
1
 62
256
370
-1
  6
ByLayer
 10
246.0977769999999794
 20
29.3793330000000132
 30
0.0
 11
243.8399999999999466
 21
35.3059999999997984
 31
0.0
  0
LINE
  5
90
100
AcDbEntity
100
AcDbLine
  8
1
 62
256
370
-1
  6
ByLayer
 10
243.8399999999999466
 20
35.3059999999997984
 30
0.0
 11
234.8088889999999651
 21
35.30600000000004
 31
0.0
  0
LINE
  5
91
100
AcDbEntity
100
AcDbLine
  8
1
 62
256
370
-1
  6
ByLayer
 10
230.2933330000000183
 20
13.8288889999999647
 30
0.0
 11
246.0977769999999794
 21
13.8288890000001636
 31
0.0
  0
LINE
  5
92
100
AcDbEntity
100
AcDbLine
  8
1
 62
256
370
-1
  6
ByLayer
 10
246.0977769999999794
 20
13.8288890000001636
 30
0.0
 11
239.3244439999999713
 21
27.9682219999998871
 31
0.0
  0
LINE
  5
93
100
AcDbEntity
100
AcDbLine
  8
1
 62
256
370
-1
  6
ByLayer
 10
239.3244439999999713
 20
27.9682219999998871
 30
0.0
 11
230.2933330000000183
 21
13.8288889999999647
 31
0.0
  0
LINE
  5
94
100
AcDbEntity
100
AcDbLine
  8
1
 62
256
370
-1
  6
ByLayer
 10
275.7311109999999985
 20
-0.2822230000001511
 30
0.0
 11
282.5044439999999781
 21
-0.2822230000002079
 31
0.0
  0
LINE
  5
95
100
AcDbEntity
100
AcDbLine
  8
1
 62
256
370
-1
  6
ByLayer
 10
282.5044439999999781
 20
-0.2822230000002079
 30
0.0
 11
282.5044440000000918
 21
15.2400000000000695
 31
0.0
  0
LINE
  5
96
100
AcDbEntity
100
AcDbLine
  8
1
 62
256
370
-1
  6
ByLayer
 10
282.5044440000000918
 20
15.2400000000000695
 30
0.0
 11
287.0200000000000387
 21
12.9822220000001245
 31
0.0
  0
LINE
  5
97
100
AcDbEntity
100
AcDbLine
  8
1
 62
256
370
-1
  6
ByLayer
 10
287.0200000000000387
 20
12.9822220000001245
 30
0.0
 11
296.0511110000000485
 21
5.3622220000001555
 31
0.0
  0
LINE
  5
98
100
AcDbEntity
100
AcDbLine
  8
1
 62
256
370
-1
  6
ByLayer
 10
296.0511110000000485
 20
5.3622220000001555
 30
0.0
 11
305.0822220000000584
 21
-0.2822229999996999
 31
0.0
  0
LINE
  5
99
100
AcDbEntity
100
AcDbLine
  8
1
 62
256
370
-1
  6
ByLayer
 10
305.0822220000000584
 20
-0.2822229999996999
 30
0.0
 11
316.3711109999999849
 21
-0.2822230000001191
 31
0.0
  0
LINE
  5
9A
100
AcDbEntity
100
AcDbLine
  8
1
 62
256
370
-1
  6
ByLayer
 10
316.3711109999999849
 20
-0.2822230000001191
 30
0.0
 11
311.855555000000038
 21
3.3866659999999555
 31
0.0
  0
LINE
  5
9B
100
AcDbEntity
100
AcDbLine
  8
1
 62
256
370
-1
  6
ByLayer
 10
311.855555000000038
 20
3.3866659999999555
 30
0.0
 11
291.535554999999988
 21
18.3444440000001414
 31
0.0
  0
LINE
  5
9C
100
AcDbEntity
100
AcDbLine
  8
1
 62
256
370
-1
  6
ByLayer
 10
291.535554999999988
 20
18.3444440000001414
 30
0.0
 11
314.1133330000000683
 21
35.023777000000166
 31
0.0
  0
LINE
  5
9D
100
AcDbEntity
100
AcDbLine
  8
1
 62
256
370
-1
  6
ByLayer
 10
314.1133330000000683
 20
35.023777000000166
 30
0.0
 11
302.8244440000000282
 21
35.3060000000000684
 31
0.0
  0
LINE
  5
9E
100
AcDbEntity
100
AcDbLine
  8
1
 62
256
370
-1
  6
ByLayer
 10
302.8244440000000282
 20
35.3060000000000684
 30
0.0
 11
293.7933330000000183
 21
27.9682219999999013
 31
0.0
  0
LINE
  5
9F
100
AcDbEntity
100
AcDbLine
  8
1
 62
256
370
-1
  6
ByLayer
 10
293.7933330000000183
 20
27.9682219999999013
 30
0.0
 11
282.5044439999999781
 21
20.6022219999999372
 31
0.0
  0
LINE
  5
A0
100
AcDbEntity
100
AcDbLine
  8
1
 62
256
370
-1
  6
ByLayer
 10
282.5044439999999781
 20
20.6022219999999372
 30
0.0
 11
282.5044439999999781
 21
35.3059999999999548
 31
0.0
  0
LINE
  5
A1
100
AcDbEntity
100
AcDbLine
  8
1
 62
256
370
-1
  6
ByLayer
 10
282.5044439999999781
 20
35.3059999999999548
 30
0.0
 11
275.7311109999999985
 21
35.3059999999997558
 31
0.0
  0
LINE
  5
A2
100
AcDbEntity
100
AcDbLine
  8
1
 62
256
370
-1
  6
ByLayer
 10
275.7311109999999985
 20
35.3059999999997558
 30
0.0
 11
275.7311109999999985
 21
-0.2822230000001511
 31
0.0
  0
LINE
  5
A3
100
AcDbEntity
100
AcDbLine
  8
1
 62
256
370
-1
  6
ByLayer
 10
329.9177770000000578
 20
-0.2822230000002079
 30
0.0
 11
366.0422219999999811
 21
-0.2822230000006059
 31
0.0
  0
LINE
  5
A4
100
AcDbEntity
100
AcDbLine
  8
1
 62
256
370
-1
  6
ByLayer
 10
366.0422219999999811
 20
-0.2822230000006059
 30
0.0
 11
366.0422219999999811
 21
6.4911109999999574
 31
0.0
  0
LINE
  5
A5
100
AcDbEntity
100
AcDbLine
  8
1
 62
256
370
-1
  6
ByLayer
 10
366.0422219999999811
 20
6.4911109999999574
 30
0.0
 11
336.6911110000000349
 21
6.491111000000334
 31
0.0
  0
LINE
  5
A6
100
AcDbEntity
100
AcDbLine
  8
1
 62
256
370
-1
  6
ByLayer
 10
336.6911110000000349
 20
6.491111000000334
 30
0.0
 11
336.6911110000000349
 21
15.2400000000001832
 31
0.0
  0
LINE
  5
A7
100
AcDbEntity
100
AcDbLine
  8
1
 62
256
370
-1
  6
ByLayer
 10
336.6911110000000349
 20
15.2400000000001832
 30
0.0
 11
354.7533330000000547
 21
15.2399999999998847
 31
0.0
  0
LINE
  5
A8
100
AcDbEntity
100
AcDbLine
  8
1
 62
256
370
-1
  6
ByLayer
 10
354.7533330000000547
 20
15.2399999999998847
 30
0.0
 11
354.7533330000000547
 21
21.1666660000002729
 31
0.0
  0
LINE
  5
A9
100
AcDbEntity
100
AcDbLine
  8
1
 62
256
370
-1
  6
ByLayer
 10
354.7533330000000547
 20
21.1666660000002729
 30
0.0
 11
336.6911110000000349
 21
21.1666659999999389
 31
0.0
  0
LINE
  5
AA
100
AcDbEntity
100
AcDbLine
  8
1
 62
256
370
-1
  6
ByLayer
 10
336.6911110000000349
 20
21.1666659999999389
 30
0.0
 11
336.6911110000000349
 21
29.0971110000001296
 31
0.0
  0
LINE
  5
AB
100
AcDbEntity
100
AcDbLine
  8
1
 62
256
370
-1
  6
ByLayer
 10
336.6911110000000349
 20
29.0971110000001296
 30
0.0
 11
366.0422219999999811
 21
29.0971109999997601
 31
0.0
  0
LINE
  5
AC
100
AcDbEntity
100
AcDbLine
  8
1
 62
256
370
-1
  6
ByLayer
 10
366.0422219999999811
 20
29.0971109999997601
 30
0.0
 11
366.0422219999999811
 21
35.3059999999997416
 31
0.0
  0
LINE
  5
AD
100
AcDbEntity
100
AcDbLine
  8
1
 62
256
370
-1
  6
ByLayer
 10
366.0422219999999811
 20
35.3059999999997416
 30
0.0
 11
329.9177770000000578
 21
35.3059999999999263
 31
0.0
  0
LINE
  5
AE
100
AcDbEntity
100
AcDbLine
  8
1
 62
256
370
-1
  6
ByLayer
 10
329.9177770000000578
 20
35.3059999999999263
 30
0.0
 11
329.9177770000000578
 21
-0.2822230000002079
 31
0.0
  0
LINE
  5
AF
100
AcDbEntity
100
AcDbLine
  8
1
 62
256
370
-1
  6
ByLayer
 10
381.8466659999999706
 20
-0.2822229999997212
 30
0.0
 11
388.6200000000000614
 21
-0.2822229999998278
 31
0.0
  0
LINE
  5
B0
100
AcDbEntity
100
AcDbLine
  8
1
 62
256
370
-1
  6
ByLayer
 10
388.6200000000000614
 20
-0.2822229999998278
 30
0.0
 11
388.6200000000000614
 21
12.9822220000003306
 31
0.0
  0
LINE
  5
B1
100
AcDbEntity
100
AcDbLine
  8
1
 62
256
370
-1
  6
ByLayer
 10
388.6200000000000614
 20
12.9822220000003306
 30
0.0
 11
397.0866659999999797
 21
13.2644439999997807
 31
0.0
  0
LINE
  5
B2
100
AcDbEntity
100
AcDbLine
  8
1
 62
256
370
-1
  6
ByLayer
 10
397.0866659999999797
 20
13.2644439999997807
 30
0.0
 11
405.5533330000000092
 21
6.4911110000001706
 31
0.0
  0
LINE
  5
B3
100
AcDbEntity
100
AcDbLine
  8
1
 62
256
370
-1
  6
ByLayer
 10
405.5533330000000092
 20
6.4911110000001706
 30
0.0
 11
411.1977770000000305
 21
-0.2822229999999806
 31
0.0
  0
LINE
  5
B4
100
AcDbEntity
100
AcDbLine
  8
1
 62
256
370
-1
  6
ByLayer
 10
411.1977770000000305
 20
-0.2822229999999806
 30
0.0
 11
425.3088890000000788
 21
-0.2822229999999841
 31
0.0
  0
LINE
  5
B5
100
AcDbEntity
100
AcDbLine
  8
1
 62
256
370
-1
  6
ByLayer
 10
425.3088890000000788
 20
-0.2822229999999841
 30
0.0
 11
425.3088890000000788
 21
0.5644439999997886
 31
0.0
  0
LINE
  5
B6
100
AcDbEntity
100
AcDbLine
  8
1
 62
256
370
-1
  6
ByLayer
 10
425.3088890000000788
 20
0.5644439999997886
 30
0.0
 11
416.8422219999999356
 21
6.7733329999995071
 31
0.0
  0
LINE
  5
B7
100
AcDbEntity
100
AcDbLine
  8
1
 62
256
370
-1
  6
ByLayer
 10
416.8422219999999356
 20
6.7733329999995071
 30
0.0
 11
405.5533330000000092
 21
12.9822219999995845
 31
0.0
  0
LINE
  5
B8
100
AcDbEntity
100
AcDbLine
  8
1
 62
256
370
-1
  6
ByLayer
 10
405.5533330000000092
 20
12.9822219999995845
 30
0.0
 11
411.1977770000000305
 21
13.2644439999998305
 31
0.0
  0
LINE
  5
B9
100
AcDbEntity
100
AcDbLine
  8
1
 62
256
370
-1
  6
ByLayer
 10
411.1977770000000305
 20
13.2644439999998305
 30
0.0
 11
416.8422219999999356
 21
13.5466659999994725
 31
0.0
  0
LINE
  5
BA
100
AcDbEntity
100
AcDbLine
  8
1
 62
256
370
-1
  6
ByLayer
 10
416.8422219999999356
 20
13.5466659999994725
 30
0.0
 11
419.6644439999999463
 21
15.24000000000024
 31
0.0
  0
LINE
  5
BB
100
AcDbEntity
100
AcDbLine
  8
1
 62
256
370
-1
  6
ByLayer
 10
419.6644439999999463
 20
15.24000000000024
 30
0.0
 11
419.6644439999999463
 21
33.3304440000000142
 31
0.0
  0
LINE
  5
BC
100
AcDbEntity
100
AcDbLine
  8
1
 62
256
370
-1
  6
ByLayer
 10
419.6644439999999463
 20
33.3304440000000142
 30
0.0
 11
419.6644439999999463
 21
33.3304440000000142
 31
0.0
  0
LINE
  5
BD
100
AcDbEntity
100
AcDbLine
  8
1
 62
256
370
-1
  6
ByLayer
 10
419.6644439999999463
 20
33.3304440000000142
 30
0.0
 11
418.4317885841002749
 21
34.1050460800277904
 31
0.0
  0
LINE
  5
BE
100
AcDbEntity
100
AcDbLine
  8
1
 62
256
370
-1
  6
ByLayer
 10
418.4317885841002749
 20
34.1050460800277904
 30
0.0
 11
417.0217138150838423
 21
34.6434382645613397
 31
0.0
  0
LINE
  5
BF
100
AcDbEntity
100
AcDbLine
  8
1
 62
256
370
-1
  6
ByLayer
 10
417.0217138150838423
 20
34.6434382645613397
 30
0.0
 11
415.1245223076799107
 21
34.9510909414376556
 31
0.0
  0
LINE
  5
C0
100
AcDbEntity
100
AcDbLine
  8
1
 62
256
370
-1
  6
ByLayer
 10
415.1245223076799107
 20
34.9510909414376556
 30
0.0
 11
412.0223578158436908
 21
35.1049172798758207
 31
0.0
  0
LINE
  5
C1
100
AcDbEntity
100
AcDbLine
  8
1
 62
256
370
-1
  6
ByLayer
 10
412.0223578158436908
 20
35.1049172798758207
 30
0.0
 11
397.0866659999999797
 21
35.3059999999999832
 31
0.0
  0
LINE
  5
C2
100
AcDbEntity
100
AcDbLine
  8
1
 62
256
370
-1
  6
ByLayer
 10
397.0866659999999797
 20
35.3059999999999832
 30
0.0
 11
381.8466659999999706
 21
35.3059999999999121
 31
0.0
  0
LINE
  5
C3
100
AcDbEntity
100
AcDbLine
  8
1
 62
256
370
-1
  6
ByLayer
 10
381.8466659999999706
 20
35.3059999999999121
 30
0.0
 11
381.8466659999999706
 21
-0.2822229999997212
 31
0.0
  0
LINE
  5
C4
100
AcDbEntity
100
AcDbLine
  8
1
 62
256
370
-1
  6
ByLayer
 10
388.6200000000000614
 20
19.1911109999997826
 30
0.0
 11
411.1977770000000305
 21
19.1911110000001521
 31
0.0
  0
LINE
  5
C5
100
AcDbEntity
100
AcDbLine
  8
1
 62
256
370
-1
  6
ByLayer
 10
411.1977770000000305
 20
19.1911110000001521
 30
0.0
 11
411.1977770000000305
 21
28.8148890000000044
 31
0.0
  0
LINE
  5
C6
100
AcDbEntity
100
AcDbLine
  8
1
 62
256
370
-1
  6
ByLayer
 10
411.1977770000000305
 20
28.8148890000000044
 30
0.0
 11
408.3755550000000198
 21
29.0971109999999236
 31
0.0
  0
LINE
  5
C7
100
AcDbEntity
100
AcDbLine
  8
1
 62
256
370
-1
  6
ByLayer
 10
408.3755550000000198
 20
29.0971109999999236
 30
0.0
 11
388.6200000000000614
 21
29.0971109999999236
 31
0.0
  0
LINE
  5
C8
100
AcDbEntity
100
AcDbLine
  8
1
 62
256
370
-1
  6
ByLayer
 10
388.6200000000000614
 20
29.0971109999999236
 30
0.0
 11
388.6200000000000614
 21
19.1911109999997826
 31
0.0
  0
LINE
  5
C9
100
AcDbEntity
100
AcDbLine
  8
1
 62
256
370
-1
  6
ByLayer
 10
115.0055550000000153
 20
17.2155550000000837
 30
0.0
 11
136.031110999999953
 21
17.2155550000000623
 31
0.0
  0
LINE
  5
CA
100
AcDbEntity
100
AcDbLine
  8
1
 62
256
370
-1
  6
ByLayer
 10
136.031110999999953
 20
17.2155550000000623
 30
0.0
 11
136.0311110000000099
 21
23.4526659999999687
 31
0.0
  0
LINE
  5
CB
100
AcDbEntity
100
AcDbLine
  8
1
 62
256
370
-1
  6
ByLayer
 10
136.0311110000000099
 20
23.4526659999999687
 30
0.0
 11
112.747776999999985
 21
23.4526659999999403
 31
0.0
  0
LINE
  5
CC
100
AcDbEntity
100
AcDbLine
  8
1
 62
256
370
-1
  6
ByLayer
 10
112.747776999999985
 20
23.4526659999999403
 30
0.0
 11
112.5219999999999629
 21
20.6022219999999372
 31
0.0
  0
LINE
  5
CD
100
AcDbEntity
100
AcDbLine
  8
1
 62
256
370
-1
  6
ByLayer
 10
71.684443999999985
 20
0.8466659999999564
 30
0.0
 11
77.0184439999999881
 21
5.0800000000000445
 31
0.0
  0
LINE
  5
CE
100
AcDbEntity
100
AcDbLine
  8
1
 62
256
370
-1
  6
ByLayer
 10
107.7806659999999965
 20
0.5644439999999307
 30
0.0
 11
110.0384440000000268
 21
-0.0000000000000213
 31
0.0
  0
LINE
  5
CF
100
AcDbEntity
100
AcDbLine
  8
1
 62
256
370
-1
  6
ByLayer
 10
112.5220000000000198
 20
17.4977769999999815
 30
0.0
 11
115.0055550000000153
 21
17.2155550000000837
 31
0.0
  0
LINE
  5
D0
100
AcDbEntity
100
AcDbLine
  8
1
 62
256
370
-1
  6
ByLayer
 10
112.5219999999999629
 20
20.6022219999999372
 30
0.0
 11
112.5220000000000198
 21
17.4977769999999815
 31
0.0
  0
LINE
  5
D1
100
AcDbEntity
100
AcDbLine
  8
1
 62
256
370
-1
  6
ByLayer
 10
234.8088889999999651
 20
35.30600000000004
 30
0.0
 11
215.0533330000000092
 21
-0.2822230000000445
 31
0.0
  0
ENDSEC
  0
SECTION
  2
OBJECTS
  0
DICTIONARY
  5
C
100
AcDbDictionary
280
0
281
1
  3
ACAD_GROUP
350
D
  3
ACAD_LAYOUT
350
1A
  3
ACAD_MLINESTYLE
350
17
  3
ACAD_PLOTSETTINGS
350
19
  3
ACAD_PLOTSTYLENAME
350
E
  3
AcDbVariableDictionary
350
D2
  0
DICTIONARY
  5
D
100
AcDbDictionary
280
0
281
1
  0
ACDBDICTIONARYWDFLT
  5
E
100
AcDbDictionary
281
1
  3
Normal
350
F
100
AcDbDictionaryWithDefault
340
F
  0
ACDBPLACEHOLDER
  5
F
  0
DICTIONARY
  5
17
100
AcDbDictionary
280
0
281
1
  3
Standard
350
18
  0
MLINESTYLE
  5
18
100
AcDbMlineStyle
  2
STANDARD
 70
0
  3

 62
256
 51
90.0
 52
90.0
 71
2
 49
0.5
 62
256
  6
BYLAYER
 49
-0.5
 62
256
  6
BYLAYER
  0
DICTIONARY
  5
19
100
AcDbDictionary
280
0
281
1
  0
DICTIONARY
  5
1A
100
AcDbDictionary
281
1
  3
Layout1
350
1E
  3
Layout2
350
26
  3
Model
350
22
  0
LAYOUT
  5
1E
100
AcDbPlotSettings
  1

  2
C:\Program Files\AutoCAD 2002\plotters\DWF ePlot (optimized for plotting).pc3
  4

  6

 40
0.0
 41
0.0
 42
0.0
 43
0.0
 44
0.0
 45
0.0
 46
0.0
 47
0.0
 48
0.0
 49
0.0
140
0.0
141
0.0
142
1.0
143
1.0
 70
688
 72
0
 73
0
 74
5
  7

 75
16
147
1.0
148
0.0
149
0.0
100
AcDbLayout
  1
Layout1
 70
1
 71
1
 10
0.0
 20
0.0
 11
420.0
 21
297.0
 12
0.0
 22
0.0
 32
0.0
 14
100000000000000000000.0
 24
100000000000000000000.0
 34
100000000000000000000.0
 15
-100000000000000000000.0
 25
-100000000000000000000.0
 35
-100000000000000000000.0
146
0.0
 13
0.0
 23
0.0
 33
0.0
 16
1.0
 26
0.0
 36
0.0
 17
0.0
 27
1.0
 37
0.0
 76
0
330
1B
  0
LAYOUT
  5
22
100
AcDbPlotSettings
  1

  2
C:\Program Files\AutoCAD 2002\plotters\DWF ePlot (optimized for plotting).pc3
  4

  6

 40
0.0
 41
0.0
 42
0.0
 43
0.0
 44
0.0
 45
0.0
 46
0.0
 47
0.0
 48
0.0
 49
0.0
140
0.0
141
0.0
142
1.0
143
1.0
 70
1712
 72
0
 73
0
 74
0
  7

 75
0
147
1.0
148
0.0
149
0.0
100
AcDbLayout
  1
Model
 70
1
 71
0
 10
0.0
 20
0.0
 11
12.0
 21
9.0
 12
0.0
 22
0.0
 32
0.0
 14
0.0
 24
0.0
 34
0.0
 15
0.0
 25
0.0
 35
0.0
146
0.0
 13
0.0
 23
0.0
 33
0.0
 16
1.0
 26
0.0
 36
0.0
 17
0.0
 27
1.0
 37
0.0
 76
0
330
1F
  0
LAYOUT
  5
26
100
AcDbPlotSettings
  1

  2
C:\Program Files\AutoCAD 2002\plotters\DWF ePlot (optimized for plotting).pc3
  4

  6

 40
0.0
 41
0.0
 42
0.0
 43
0.0
 44
0.0
 45
0.0
 46
0.0
 47
0.0
 48
0.0
 49
0.0
140
0.0
141
0.0
142
1.0
143
1.0
 70
688
 72
0
 73
0
 74
5
  7

 75
16
147
1.0
148
0.0
149
0.0
100
AcDbLayout
  1
Layout2
 70
1
 71
2
 10
0.0
 20
0.0
 11
12.0
 21
9.0
 12
0.0
 22
0.0
 32
0.0
 14
0.0
 24
0.0
 34
0.0
 15
0.0
 25
0.0
 35
0.0
146
0.0
 13
0.0
 23
0.0
 33
0.0
 16
1.0
 26
0.0
 36
0.0
 17
0.0
 27
1.0
 37
0.0
 76
0
330
23
  0
DICTIONARY
  5
D2
100
AcDbDictionary
281
1
  3
DIMASSOC
350
D4
  3
HIDETEXT
350
D3
  0
DICTIONARYVAR
  5
D3
100
DictionaryVariables
280
0
  1
2
  0
DICTIONARYVAR
  5
D4
100
DictionaryVariables
280
0
  1
1
  0
ENDSEC
  0
EOF
