999
dxflib 2.2.0.0
  0
SECTION
  2
HEADER
  9
$ACADVER
  1
AC1015
  9
$HANDSEED
  5
FFFF
  9
$DIMTAD
 70
1
  9
$DIMTDEC
 70
2
  9
$USERR4
 40
0.0
  9
$CLAYER
  8
0
  9
$DIMALTZ
 70
0
  9
$MENU
  1
.
  9
$CHAMFERA
 40
10.0
  9
$UCSYDIR
 10
0.0
 20
1.0
 30
0.0
  9
$USERR5
 40
0.0
  9
$SHADEDIF
 70
70
  9
$TILEMODE
 70
1
  9
$VISRETAIN
 70
1
  9
$CMLSTYLE
  2
Standard
  9
$EXTMIN
 10
-93.0077302302999982
 20
-4.0636082974000001
 30
0.0
  9
$ORTHOMODE
 70
0
  9
$REGENMODE
 70
1
  9
$TRACEWID
 40
1.0
  9
$DIMASZ
 40
6.0
  9
$DIMUPT
 70
0
  9
$DIMADEC
 70
2
  9
$CHAMFERB
 40
10.0
  9
$UCSXDIR
 10
1.0
 20
0.0
 30
0.0
  9
$OLESTARTUP
290
0
  9
$DIMSHO
 70
1
  9
$DIMALT
 70
0
  9
$DIMSAH
 70
0
  9
$DIMTFAC
 40
1.0
  9
$DIMGAP
 40
1.524
  9
$SKETCHINC
 40
1.0
  9
$CHAMFERC
 40
20.0
  9
$USRTIMER
 70
1
  9
$ANGBASE
 50
0.0
  9
$PUCSYDIR
 10
0.0
 20
1.0
 30
0.0
  9
$CMLJUST
 70
0
  9
$MEASUREMENT
 70
1
  9
$ENDCAPS
280
0
  9
$LIMMIN
 10
0.0
 20
0.0
  9
$DIMTSZ
 40
0.0
  9
$DIMALTTD
 70
3
  9
$DIMALTRND
 40
0.0
  9
$CHAMFERD
 40
0.0
  9
$SPLFRAME
 70
0
  9
$SURFTYPE
 70
6
  9
$PUCSXDIR
 10
1.0
 20
0.0
 30
0.0
  9
$LWDISPLAY
290
1
  9
$VERSIONGUID
  2
{FAEB1C32-E019-11D5-929B-00C0DF256EC4}
  9
$DWGCODEPAGE
  3
ANSI_1252
  9
$LUNITS
 70
2
  9
$AUPREC
 70
2
  9
$SPLINESEGS
 70
8
  9
$SURFTAB1
 70
6
  9
$CELWEIGHT
370
-1
  9
$INSBASE
 10
0.0
 20
0.0
 30
0.0
  9
$DIMRND
 40
0.0
  9
$DIMCEN
 40
2.5
  9
$DIMDSEP
 70
44
  9
$ELEVATION
 40
0.0
  9
$SKPOLY
 70
0
  9
$TDUCREATE
 40
2455749.2778043057769537
  9
$TDUUPDATE
 40
2455749.2778043169528246
  9
$SURFTAB2
 70
6
  9
$UCSORTHOVIEW
 70
0
  9
$USERI1
 70
0
  9
$UNITMODE
 70
0
  9
$PSTYLEMODE
290
1
  9
$EXTMAX
 10
-1.4077302303000001
 20
129.936391702599991
 30
0.0
  9
$FILLMODE
 70
1
  9
$TEXTSIZE
 40
3.5
  9
$DIMEXO
 40
1.0
  9
$PELEVATION
 40
0.0
  9
$UCSORG
 10
0.0
 20
0.0
 30
0.0
  9
$UCSORGRIGHT
 10
0.0
 20
0.0
 30
0.0
  9
$USERI2
 70
0
  9
$INSUNITS
 70
4
  9
$DIMSCALE
 40
1.0
  9
$DIMDLE
 40
0.0
  9
$DIMZIN
 70
0
  9
$DIMTOLJ
 70
0
  9
$DIMTZIN
 70
0
  9
$DIMLWD
 70
-2
  9
$TDUSRTIMER
 40
0.0000000116
  9
$ANGDIR
 70
0
  9
$SURFU
 70
6
  9
$PUCSORGBOTTOM
 10
0.0
 20
0.0
 30
0.0
  9
$USERI3
 70
0
  9
$JOINSTYLE
280
0
  9
$ACADMAINTVER
 70
6
  9
$LIMMAX
 10
420.0
 20
297.0
  9
$QTEXTMODE
 70
0
  9
$DIMJUST
 70
0
  9
$DIMALTTZ
 70
0
  9
$DIMATFIT
 70
3
  9
$DIMLUNIT
 70
2
  9
$DIMLWE
 70
-2
  9
$SURFV
 70
6
  9
$USERI4
 70
0
  9
$WORLDVIEW
 70
1
  9
$ATTMODE
 70
1
  9
$DIMTXT
 40
3.5
  9
$DIMLIM
 70
0
  9
$DIMSE1
 70
0
  9
$DIMAZIN
 70
0
  9
$THICKNESS
 40
0.0
  9
$LIMCHECK
 70
0
  9
$PDMODE
 70
0
  9
$UCSORGTOP
 10
0.0
 20
0.0
 30
0.0
  9
$USERI5
 70
0
  9
$PROXYGRAPHICS
 70
1
  9
$EXTNAMES
290
1
  9
$CELTYPE
  6
ByLayer
  9
$DIMTOH
 70
1
  9
$DIMSE2
 70
0
  9
$DIMLFAC
 40
1.0
  9
$DIMSOXD
 70
0
  9
$LUPREC
 70
2
  9
$TDINDWG
 40
0.0000000116
  9
$SPLINETYPE
 70
6
  9
$PUCSORG
 10
0.0
 20
0.0
 30
0.0
  9
$PEXTMIN
 10
100000000000000000000.0
 20
100000000000000000000.0
 30
100000000000000000000.0
  9
$PEXTMAX
 10
-100000000000000000000.0
 20
-100000000000000000000.0
 30
-100000000000000000000.0
  9
$XEDIT
290
1
  9
$CECOLOR
 62
256
  9
$DISPSILH
 70
0
  9
$DIMDLI
 40
3.75
  9
$DIMTM
 40
0.0
  9
$DIMASO
 70
1
  9
$DIMTVP
 40
0.0
  9
$DIMSTYLE
  2
ISO-25
  9
$DIMFRAC
 70
0
  9
$PLINEWID
 40
0.0
  9
$PUCSORGRIGHT
 10
0.0
 20
0.0
 30
0.0
  9
$PLIMCHECK
 70
0
  9
$FINGERPRINTGUID
  2
{B8947179-0C0B-486E-B02B-F78B060BC548}
  9
$PSVPSCALE
 40
0.0
  9
$LTSCALE
 40
1.0
  9
$DIMTIH
 70
1
  9
$DIMALTD
 70
3
  9
$DIMCLRT
 70
0
  9
$DIMDEC
 70
2
  9
$DIMALTU
 70
2
  9
$FILLETRAD
 40
10.0
  9
$TDUPDATE
 40
2455749.3194709839299321
  9
$UCSORGLEFT
 10
0.0
 20
0.0
 30
0.0
  9
$UCSORGBACK
 10
0.0
 20
0.0
 30
0.0
  9
$MAXACTVP
 70
64
  9
$PLIMMIN
 10
0.0
 20
0.0
  9
$PLIMMAX
 10
420.0
 20
297.0
  9
$TREEDEPTH
 70
3020
  9
$CELTSCALE
 40
1.0
  9
$DIMEXE
 40
1.0
  9
$DIMCLRD
 70
0
  9
$DIMTXSTY
  7
Standard
  9
$PDSIZE
 40
-1.0
  9
$PUCSORTHOVIEW
 70
0
  9
$USERR1
 40
0.0
  9
$PINSBASE
 10
0.0
 20
0.0
 30
0.0
  9
$CMLSCALE
 40
20.0
  9
$CEPSNTYPE
380
0
  9
$TEXTSTYLE
  7
Standard
  9
$DIMTP
 40
0.0
  9
$DIMTOL
 70
0
  9
$DIMALTF
 40
0.0393700787
  9
$DIMTOFL
 70
1
  9
$DIMCLRE
 70
0
  9
$DIMSD1
 70
0
  9
$DIMAUNIT
 70
0
  9
$DIMTMOVE
 70
0
  9
$TDCREATE
 40
2455749.3194709718227386
  9
$UCSORGFRONT
 10
0.0
 20
0.0
 30
0.0
  9
$PUCSORGTOP
 10
0.0
 20
0.0
 30
0.0
  9
$USERR2
 40
0.0
  9
$SHADEDGE
 70
3
  9
$PLINEGEN
 70
0
  9
$PSLTSCALE
 70
1
  9
$MIRRTEXT
 70
1
  9
$DIMTIX
 70
0
  9
$DIMSD2
 70
0
  9
$AUNITS
 70
0
  9
$UCSORGBOTTOM
 10
0.0
 20
0.0
 30
0.0
  9
$PUCSORGLEFT
 10
0.0
 20
0.0
 30
0.0
  9
$PUCSORGFRONT
 10
0.0
 20
0.0
 30
0.0
  9
$PUCSORGBACK
 10
0.0
 20
0.0
 30
0.0
  9
$USERR3
 40
0.0
  0
ENDSEC
  0
SECTION
  2
TABLES
  0
TABLE
  2
VPORT
  5
8
100
AcDbSymbolTable
 70
1
  0
VPORT
  5
30
100
AcDbSymbolTableRecord
100
AcDbViewportTableRecord
  2
*Active
 70
0
 10
0.0
 20
0.0
 11
1.0
 21
1.0
 12
286.3055555555554861
 22
148.5
 13
0.0
 23
0.0
 14
10.0
 24
10.0
 15
10.0
 25
10.0
 16
0.0
 26
0.0
 36
1.0
 17
0.0
 27
0.0
 37
0.0
 40
297.0
 41
1.92798353909465
 42
50.0
 43
0.0
 44
0.0
 50
0.0
 51
0.0
 71
0
 72
100
 73
1
 74
3
 75
1
 76
1
 77
0
 78
0
281
0
 65
1
110
0.0
120
0.0
130
0.0
111
1.0
121
0.0
131
0.0
112
0.0
122
1.0
132
0.0
 79
0
146
0.0
  0
ENDTAB
  0
TABLE
  2
LTYPE
  5
5
100
AcDbSymbolTable
 70
21
  0
LTYPE
  5
14
100
AcDbSymbolTableRecord
100
AcDbLinetypeTableRecord
  2
ByBlock
 70
0
  3

 72
65
 73
0
 40
0.0
  0
LTYPE
  5
15
100
AcDbSymbolTableRecord
100
AcDbLinetypeTableRecord
  2
ByLayer
 70
0
  3

 72
65
 73
0
 40
0.0
  0
LTYPE
  5
16
100
AcDbSymbolTableRecord
100
AcDbLinetypeTableRecord
  2
CONTINUOUS
 70
0
  3
Solid line
 72
65
 73
0
 40
0.0
  0
LTYPE
  5
31
100
AcDbSymbolTableRecord
100
AcDbLinetypeTableRecord
  2
DOT
 70
0
  3
Dot . . . . . . . . . . . . . . . . . . . . . .
 72
65
 73
2
 40
6.3499999999999996
 49
0.0
 74
0
 49
-6.3499999999999996
 74
0
  0
LTYPE
  5
32
100
AcDbSymbolTableRecord
100
AcDbLinetypeTableRecord
  2
DOT2
 70
0
  3
Dot (.5x) .....................................
 72
65
 73
2
 40
3.1749999999999998
 49
0.0
 74
0
 49
-3.1749999999999998
 74
0
  0
LTYPE
  5
33
100
AcDbSymbolTableRecord
100
AcDbLinetypeTableRecord
  2
DOTX2
 70
0
  3
Dot (2x) .  .  .  .  .  .  .  .  .  .  .  .  .
 72
65
 73
2
 40
12.6999999999999993
 49
0.0
 74
0
 49
-12.6999999999999993
 74
0
  0
LTYPE
  5
34
100
AcDbSymbolTableRecord
100
AcDbLinetypeTableRecord
  2
DASHED
 70
0
  3
Dashed __ __ __ __ __ __ __ __ __ __ __ __ __ _
 72
65
 73
2
 40
19.0500000000000007
 49
12.6999999999999993
 74
0
 49
-6.3499999999999996
 74
0
  0
LTYPE
  5
35
100
AcDbSymbolTableRecord
100
AcDbLinetypeTableRecord
  2
DASHED2
 70
0
  3
Dashed (.5x) _ _ _ _ _ _ _ _ _ _ _ _ _ _ _ _ _
 72
65
 73
2
 40
9.5250000000000004
 49
6.3499999999999996
 74
0
 49
-3.1749999999999998
 74
0
  0
LTYPE
  5
36
100
AcDbSymbolTableRecord
100
AcDbLinetypeTableRecord
  2
DASHEDX2
 70
0
  3
Dashed (2x) ____  ____  ____  ____  ____  ___
 72
65
 73
2
 40
38.1000000000000014
 49
25.3999999999999986
 74
0
 49
-12.6999999999999993
 74
0
  0
LTYPE
  5
37
100
AcDbSymbolTableRecord
100
AcDbLinetypeTableRecord
  2
DASHDOT
 70
0
  3
Dash dot __ . __ . __ . __ . __ . __ . __ . __
 72
65
 73
4
 40
25.3999999999999986
 49
12.6999999999999993
 74
0
 49
-6.3499999999999996
 74
0
 49
0.0
 74
0
 49
-6.3499999999999996
 74
0
  0
LTYPE
  5
38
100
AcDbSymbolTableRecord
100
AcDbLinetypeTableRecord
  2
DASHDOT2
 70
0
  3
Dash dot (.5x) _._._._._._._._._._._._._._._.
 72
65
 73
4
 40
12.6999999999999993
 49
6.3499999999999996
 74
0
 49
-3.1749999999999998
 74
0
 49
0.0
 74
0
 49
-3.1749999999999998
 74
0
  0
LTYPE
  5
39
100
AcDbSymbolTableRecord
100
AcDbLinetypeTableRecord
  2
DASHDOTX2
 70
0
  3
Dash dot (2x) ____  .  ____  .  ____  .  ___
 72
65
 73
4
 40
50.7999999999999972
 49
25.3999999999999986
 74
0
 49
-12.6999999999999993
 74
0
 49
0.0
 74
0
 49
-12.6999999999999993
 74
0
  0
LTYPE
  5
3A
100
AcDbSymbolTableRecord
100
AcDbLinetypeTableRecord
  2
DIVIDE
 70
0
  3
Divide ____ . . ____ . . ____ . . ____ . . ____
 72
65
 73
6
 40
31.75
 49
12.6999999999999993
 74
0
 49
-6.3499999999999996
 74
0
 49
0.0
 74
0
 49
-6.3499999999999996
 74
0
 49
0.0
 74
0
 49
-6.3499999999999996
 74
0
  0
LTYPE
  5
3B
100
AcDbSymbolTableRecord
100
AcDbLinetypeTableRecord
  2
DIVIDE2
 70
0
  3
Divide (.5x) __..__..__..__..__..__..__..__.._
 72
65
 73
6
 40
15.875
 49
6.3499999999999996
 74
0
 49
-3.1749999999999998
 74
0
 49
0.0
 74
0
 49
-3.1749999999999998
 74
0
 49
0.0
 74
0
 49
-3.1749999999999998
 74
0
  0
LTYPE
  5
3C
100
AcDbSymbolTableRecord
100
AcDbLinetypeTableRecord
  2
DIVIDEX2
 70
0
  3
Divide (2x) ________  .  .  ________  .  .  _
 72
65
 73
6
 40
63.5
 49
25.3999999999999986
 74
0
 49
-12.6999999999999993
 74
0
 49
0.0
 74
0
 49
-12.6999999999999993
 74
0
 49
0.0
 74
0
 49
-12.6999999999999993
 74
0
  0
LTYPE
  5
3D
100
AcDbSymbolTableRecord
100
AcDbLinetypeTableRecord
  2
CENTER
 70
0
  3
Center ____ _ ____ _ ____ _ ____ _ ____ _ ____
 72
65
 73
4
 40
50.7999999999999972
 49
31.75
 74
0
 49
-6.3499999999999996
 74
0
 49
6.3499999999999996
 74
0
 49
-6.3499999999999996
 74
0
  0
LTYPE
  5
3E
100
AcDbSymbolTableRecord
100
AcDbLinetypeTableRecord
  2
CENTER2
 70
0
  3
Center (.5x) ___ _ ___ _ ___ _ ___ _ ___ _ ___
 72
65
 73
4
 40
28.5749999999999993
 49
19.0500000000000007
 74
0
 49
-3.1749999999999998
 74
0
 49
3.1749999999999998
 74
0
 49
-3.1749999999999998
 74
0
  0
LTYPE
  5
3F
100
AcDbSymbolTableRecord
100
AcDbLinetypeTableRecord
  2
CENTERX2
 70
0
  3
Center (2x) ________  __  ________  __  _____
 72
65
 73
4
 40
101.5999999999999943
 49
63.5
 74
0
 49
-12.6999999999999993
 74
0
 49
12.6999999999999993
 74
0
 49
-12.6999999999999993
 74
0
  0
LTYPE
  5
40
100
AcDbSymbolTableRecord
100
AcDbLinetypeTableRecord
  2
BORDER
 70
0
  3
Border __ __ . __ __ . __ __ . __ __ . __ __ .
 72
65
 73
6
 40
44.4500000000000028
 49
12.6999999999999993
 74
0
 49
-6.3499999999999996
 74
0
 49
12.6999999999999993
 74
0
 49
-6.3499999999999996
 74
0
 49
0.0
 74
0
 49
-6.3499999999999996
 74
0
  0
LTYPE
  5
41
100
AcDbSymbolTableRecord
100
AcDbLinetypeTableRecord
  2
BORDER2
 70
0
  3
Border (.5x) __.__.__.__.__.__.__.__.__.__.__.
 72
65
 73
6
 40
22.2250000000000014
 49
6.3499999999999996
 74
0
 49
-3.1749999999999998
 74
0
 49
6.3499999999999996
 74
0
 49
-3.1749999999999998
 74
0
 49
0.0
 74
0
 49
-3.1749999999999998
 74
0
  0
LTYPE
  5
42
100
AcDbSymbolTableRecord
100
AcDbLinetypeTableRecord
  2
BORDERX2
 70
0
  3
Border (2x) ____  ____  .  ____  ____  .  ___
 72
65
 73
6
 40
88.9000000000000057
 49
25.3999999999999986
 74
0
 49
-12.6999999999999993
 74
0
 49
25.3999999999999986
 74
0
 49
-12.6999999999999993
 74
0
 49
0.0
 74
0
 49
-12.6999999999999993
 74
0
  0
ENDTAB
  0
TABLE
  2
LAYER
  5
2
100
AcDbSymbolTable
 70
1
  0
LAYER
  5
10
100
AcDbSymbolTableRecord
100
AcDbLayerTableRecord
  2
0
 70
0
 62
7
  6
CONTINUOUS
370
-3
390
F
  0
ENDTAB
  0
TABLE
  2
STYLE
  5
3
100
AcDbSymbolTable
 70
1
  0
STYLE
  5
11
100
AcDbSymbolTableRecord
100
AcDbTextStyleTableRecord
  2
Standard
 70
0
 40
0.0
 41
0.75
 50
0.0
 71
0
 42
2.5
  3
txt
  4

  0
ENDTAB
  0
TABLE
  2
VIEW
  5
6
100
AcDbSymbolTable
 70
0
  0
ENDTAB
  0
TABLE
  2
UCS
  5
7
100
AcDbSymbolTable
 70
0
  0
ENDTAB
  0
TABLE
  2
APPID
  5
9
100
AcDbSymbolTable
 70
1
  0
APPID
  5
12
100
AcDbSymbolTableRecord
100
AcDbRegAppTableRecord
  2
ACAD
 70
0
  0
ENDTAB
  0
TABLE
  2
DIMSTYLE
  5
A
100
AcDbSymbolTable
 70
1
100
AcDbDimStyleTable
 71
0
  0
DIMSTYLE
105
27
100
AcDbSymbolTableRecord
100
AcDbDimStyleTableRecord
  2
Standard
 41
6.0
 42
1.0
 43
3.75
 44
1.0
 70
0
 73
0
 74
0
 77
1
 78
8
140
3.5
141
2.5
143
0.03937007874016
147
1.524
171
3
172
1
271
2
272
2
274
3
278
44
283
0
284
8
340
11
  0
ENDTAB
  0
TABLE
  2
BLOCK_RECORD
  5
1
100
AcDbSymbolTable
 70
1
  0
BLOCK_RECORD
  5
1F
100
AcDbSymbolTableRecord
100
AcDbBlockTableRecord
  2
*Model_Space
340
22
  0
BLOCK_RECORD
  5
1B
100
AcDbSymbolTableRecord
100
AcDbBlockTableRecord
  2
*Paper_Space
340
1E
  0
BLOCK_RECORD
  5
23
100
AcDbSymbolTableRecord
100
AcDbBlockTableRecord
  2
*Paper_Space0
340
26
  0
BLOCK_RECORD
  5
43
100
AcDbSymbolTableRecord
100
AcDbBlockTableRecord
  2
logo
340
0
  0
ENDTAB
  0
ENDSEC
  0
SECTION
  2
BLOCKS
  0
BLOCK
  5
20
100
AcDbEntity
  8
0
100
AcDbBlockBegin
  2
*Model_Space
 70
0
 10
0.0
 20
0.0
 30
0.0
  3
*Model_Space
  1

  0
ENDBLK
  5
21
100
AcDbEntity
  8
0
100
AcDbBlockEnd
  0
BLOCK
  5
1C
100
AcDbEntity
 67
1
  8
0
100
AcDbBlockBegin
  2
*Paper_Space
 70
0
 10
0.0
 20
0.0
 30
0.0
  3
*Paper_Space
  1

  0
ENDBLK
  5
1D
100
AcDbEntity
 67
1
  8
0
100
AcDbBlockEnd
  0
BLOCK
  5
24
100
AcDbEntity
  8
0
100
AcDbBlockBegin
  2
*Paper_Space0
 70
0
 10
0.0
 20
0.0
 30
0.0
  3
*Paper_Space0
  1

  0
ENDBLK
  5
25
100
AcDbEntity
  8
0
100
AcDbBlockEnd
  0
BLOCK
  5
44
100
AcDbEntity
  8
0
100
AcDbBlockBegin
  2
logo
 70
0
 10
0.0
 20
0.0
 30
0.0
  3
logo
  1

  0
ENDBLK
  5
45
100
AcDbEntity
  8
0
100
AcDbBlockEnd
  0
ENDSEC
  0
SECTION
  2
ENTITIES
  0
CIRCLE
  5
46
100
AcDbEntity
100
AcDbCircle
  8
0
 62
7
370
15
  6
CONTINUOUS
 10
-5.5577302302999998
 20
120.9363917026000053
 30
0.0
 40
1.599999999999997
  0
CIRCLE
  5
47
100
AcDbEntity
100
AcDbCircle
  8
0
 62
7
370
15
  6
CONTINUOUS
 10
-14.0577302303000007
 20
110.9363917026000053
 30
0.0
 40
1.5999999999999961
  0
CIRCLE
  5
48
100
AcDbEntity
100
AcDbCircle
  8
0
 62
7
370
15
  6
CONTINUOUS
 10
-69.2085191761999994
 20
122.9363917026000053
 30
0.0
 40
1.6000000000000369
  0
CIRCLE
  5
49
100
AcDbEntity
100
AcDbCircle
  8
0
 62
7
370
15
  6
CONTINUOUS
 10
-66.207730230300001
 20
70.9363917026000053
 30
0.0
 40
1.649999999999977
  0
CIRCLE
  5
4A
100
AcDbEntity
100
AcDbCircle
  8
0
 62
7
370
15
  6
CONTINUOUS
 10
-80.3577302303000067
 20
110.9363917026000053
 30
0.0
 40
1.5999999999999659
  0
CIRCLE
  5
4B
100
AcDbEntity
100
AcDbCircle
  8
0
 62
7
370
15
  6
CONTINUOUS
 10
-88.8577302303000067
 20
120.9363917026000053
 30
0.0
 40
1.5999999999999941
  0
CIRCLE
  5
4C
100
AcDbEntity
100
AcDbCircle
  8
0
 62
7
370
15
  6
CONTINUOUS
 10
-25.2069412843999991
 20
2.9363917025999999
 30
0.0
 40
1.600000000000001
  0
CIRCLE
  5
4D
100
AcDbEntity
100
AcDbCircle
  8
0
 62
7
370
15
  6
CONTINUOUS
 10
-80.3577302303000067
 20
4.9363917025999999
 30
0.0
 40
1.5999999999999801
  0
CIRCLE
  5
4E
100
AcDbEntity
100
AcDbCircle
  8
0
 62
7
370
15
  6
CONTINUOUS
 10
-88.8577302303000067
 20
14.9363917025999999
 30
0.0
 40
1.5999999999999801
  0
CIRCLE
  5
4F
100
AcDbEntity
100
AcDbCircle
  8
0
 62
7
370
15
  6
CONTINUOUS
 10
-69.2085191761999994
 20
2.9363917025999999
 30
0.0
 40
1.5999999999999941
  0
CIRCLE
  5
50
100
AcDbEntity
100
AcDbCircle
  8
0
 62
7
370
15
  6
CONTINUOUS
 10
-14.0577302303000007
 20
14.9363917025999999
 30
0.0
 40
1.6000000000000161
  0
CIRCLE
  5
51
100
AcDbEntity
100
AcDbCircle
  8
0
 62
7
370
15
  6
CONTINUOUS
 10
-5.5577302302999998
 20
4.9363917025999999
 30
0.0
 40
1.600000000000003
  0
CIRCLE
  5
52
100
AcDbEntity
100
AcDbCircle
  8
0
 62
7
370
15
  6
CONTINUOUS
 10
-28.207730230300001
 20
54.9363917025999982
 30
0.0
 40
1.6500000000000059
  0
CIRCLE
  5
53
100
AcDbEntity
100
AcDbCircle
  8
0
 62
7
370
15
  6
CONTINUOUS
 10
-14.0577302303000007
 20
4.9363917025999999
 30
0.0
 40
1.6000000000000101
  0
CIRCLE
  5
54
100
AcDbEntity
100
AcDbCircle
  8
0
 62
7
370
15
  6
CONTINUOUS
 10
-66.207730230300001
 20
54.9363917025999982
 30
0.0
 40
1.649999999999991
  0
CIRCLE
  5
55
100
AcDbEntity
100
AcDbCircle
  8
0
 62
7
370
15
  6
CONTINUOUS
 10
-80.3577302303000067
 20
14.9363917025999999
 30
0.0
 40
1.5999999999999801
  0
CIRCLE
  5
56
100
AcDbEntity
100
AcDbCircle
  8
0
 62
7
370
15
  6
CONTINUOUS
 10
-88.8577302303000067
 20
4.9363917025999999
 30
0.0
 40
1.5999999999999941
  0
CIRCLE
  5
57
100
AcDbEntity
100
AcDbCircle
  8
0
 62
7
370
15
  6
CONTINUOUS
 10
-25.2069412843999991
 20
122.9363917026000053
 30
0.0
 40
1.6000000000000121
  0
CIRCLE
  5
58
100
AcDbEntity
100
AcDbCircle
  8
0
 62
7
370
15
  6
CONTINUOUS
 10
-28.207730230300001
 20
70.9363917026000053
 30
0.0
 40
1.6500000000000159
  0
CIRCLE
  5
59
100
AcDbEntity
100
AcDbCircle
  8
0
 62
7
370
15
  6
CONTINUOUS
 10
-80.3577302303000067
 20
120.9363917026000053
 30
0.0
 40
1.5999999999999659
  0
CIRCLE
  5
5A
100
AcDbEntity
100
AcDbCircle
  8
0
 62
7
370
15
  6
CONTINUOUS
 10
-88.8577302303000067
 20
110.9363917026000053
 30
0.0
 40
1.5999999999999941
  0
CIRCLE
  5
5B
100
AcDbEntity
100
AcDbCircle
  8
0
 62
7
370
15
  6
CONTINUOUS
 10
-5.5577302302999998
 20
110.9363917026000053
 30
0.0
 40
1.600000000000001
  0
CIRCLE
  5
5C
100
AcDbEntity
100
AcDbCircle
  8
0
 62
7
370
15
  6
CONTINUOUS
 10
-14.0577302303000007
 20
120.9363917026000053
 30
0.0
 40
1.5999999999999961
  0
CIRCLE
  5
5D
100
AcDbEntity
100
AcDbCircle
  8
0
 62
7
370
15
  6
CONTINUOUS
 10
-5.5577302302999998
 20
14.9363917025999999
 30
0.0
 40
1.600000000000001
  0
LINE
  5
5E
100
AcDbEntity
100
AcDbLine
  8
0
 62
7
370
15
  6
CONTINUOUS
 10
-6.5712274168000002
 20
103.0831560280000048
 30
0.0
 11
-17.0442330437000003
 21
97.2960020515999986
 31
0.0
  0
LINE
  5
5F
100
AcDbEntity
100
AcDbLine
  8
0
 62
7
370
15
  6
CONTINUOUS
 10
-22.207730230300001
 20
88.5433886968999957
 30
0.0
 11
-22.207730230300001
 21
37.3293947084000024
 31
0.0
  0
LINE
  5
60
100
AcDbEntity
100
AcDbLine
  8
0
 62
7
370
15
  6
CONTINUOUS
 10
-17.0442330437000003
 20
28.5767813536999995
 30
0.0
 11
-6.5712274168000002
 21
22.7896273773000004
 31
0.0
  0
LINE
  5
61
100
AcDbEntity
100
AcDbLine
  8
0
 62
7
370
15
  6
CONTINUOUS
 10
-1.4077302303000001
 20
14.0370140226999993
 30
0.0
 11
-1.4077302303000001
 21
4.9363917025999999
 31
0.0
  0
LINE
  5
62
100
AcDbEntity
100
AcDbLine
  8
0
 62
7
370
15
  6
CONTINUOUS
 10
-6.4077302303000003
 20
-0.0636082974
 30
0.0
 11
-20.2069412843999991
 21
-0.0636082974
 31
0.0
  0
LINE
  5
63
100
AcDbEntity
100
AcDbLine
  8
0
 62
7
370
15
  6
CONTINUOUS
 10
-21.2069412843999991
 20
-1.0636082974000001
 30
0.0
 11
-21.2069412843999991
 21
-3.0636082974000001
 31
0.0
  0
LINE
  5
64
100
AcDbEntity
100
AcDbLine
  8
0
 62
7
370
15
  6
CONTINUOUS
 10
-22.2069412843999991
 20
-4.0636082974000001
 30
0.0
 11
-72.2085191761999994
 21
-4.0636082974000001
 31
0.0
  0
LINE
  5
65
100
AcDbEntity
100
AcDbLine
  8
0
 62
7
370
15
  6
CONTINUOUS
 10
-73.2085191761999994
 20
-3.0636082974000001
 30
0.0
 11
-73.2085191761999994
 21
-1.0636082974000001
 31
0.0
  0
LINE
  5
66
100
AcDbEntity
100
AcDbLine
  8
0
 62
7
370
15
  6
CONTINUOUS
 10
-74.2085191761999994
 20
-0.0636082974
 30
0.0
 11
-88.0077302302999982
 21
-0.0636082974
 31
0.0
  0
LINE
  5
67
100
AcDbEntity
100
AcDbLine
  8
0
 62
7
370
15
  6
CONTINUOUS
 10
-93.0077302302999982
 20
4.9363917025999999
 30
0.0
 11
-93.0077302302999982
 21
14.0370140226999993
 31
0.0
  0
LINE
  5
68
100
AcDbEntity
100
AcDbLine
  8
0
 62
7
370
15
  6
CONTINUOUS
 10
-87.844233043700001
 20
22.7896273773000004
 30
0.0
 11
-77.3712274167999965
 21
28.5767813536999995
 31
0.0
  0
LINE
  5
69
100
AcDbEntity
100
AcDbLine
  8
0
 62
7
370
15
  6
CONTINUOUS
 10
-72.207730230300001
 20
37.3293947084000024
 30
0.0
 11
-72.207730230300001
 21
88.5433886968999957
 31
0.0
  0
LINE
  5
6A
100
AcDbEntity
100
AcDbLine
  8
0
 62
7
370
15
  6
CONTINUOUS
 10
-77.3712274167999965
 20
97.2960020515999986
 30
0.0
 11
-87.844233043700001
 21
103.0831560280000048
 31
0.0
  0
LINE
  5
6B
100
AcDbEntity
100
AcDbLine
  8
0
 62
7
370
15
  6
CONTINUOUS
 10
-93.0077302302999982
 20
111.8357693826000059
 30
0.0
 11
-93.0077302302999982
 21
120.9363917026000053
 31
0.0
  0
LINE
  5
6C
100
AcDbEntity
100
AcDbLine
  8
0
 62
7
370
15
  6
CONTINUOUS
 10
-88.0077302302999982
 20
125.9363917026000053
 30
0.0
 11
-74.2085191761999994
 21
125.9363917026000053
 31
0.0
  0
LINE
  5
6D
100
AcDbEntity
100
AcDbLine
  8
0
 62
7
370
15
  6
CONTINUOUS
 10
-73.2085191761999994
 20
126.9363917026000053
 30
0.0
 11
-73.2085191761999994
 21
128.936391702599991
 31
0.0
  0
LINE
  5
6E
100
AcDbEntity
100
AcDbLine
  8
0
 62
7
370
15
  6
CONTINUOUS
 10
-72.2085191761999994
 20
129.936391702599991
 30
0.0
 11
-22.2069412843999991
 21
129.936391702599991
 31
0.0
  0
LINE
  5
6F
100
AcDbEntity
100
AcDbLine
  8
0
 62
7
370
15
  6
CONTINUOUS
 10
-21.2069412843999991
 20
128.936391702599991
 30
0.0
 11
-21.2069412843999991
 21
126.9363917026000053
 31
0.0
  0
LINE
  5
70
100
AcDbEntity
100
AcDbLine
  8
0
 62
7
370
15
  6
CONTINUOUS
 10
-20.2069412843999991
 20
125.9363917026000053
 30
0.0
 11
-6.4077302303000003
 21
125.9363917026000053
 31
0.0
  0
LINE
  5
71
100
AcDbEntity
100
AcDbLine
  8
0
 62
7
370
15
  6
CONTINUOUS
 10
-1.4077302303000001
 20
120.9363917026000053
 30
0.0
 11
-1.4077302303000001
 21
111.8357693826000059
 31
0.0
  0
ARC
  5
72
100
AcDbEntity
  8
0
 62
7
370
15
  6
CONTINUOUS
100
AcDbCircle
 10
-11.4077302303000003
 20
111.8357693826000059
 30
0.0
 40
10.0000000000000107
100
AcDbArc
 50
298.9240803061999827
 51
0.0
  0
ARC
  5
73
100
AcDbEntity
  8
0
 62
7
370
15
  6
CONTINUOUS
100
AcDbCircle
 10
-12.2077302302999993
 20
88.5433886968999957
 30
0.0
 40
9.9999999999999893
100
AcDbArc
 50
118.9240803061999969
 51
180.0
  0
ARC
  5
74
100
AcDbEntity
  8
0
 62
7
370
15
  6
CONTINUOUS
100
AcDbCircle
 10
-12.2077302302999993
 20
37.3293947084000024
 30
0.0
 40
9.9999999999999876
100
AcDbArc
 50
180.0
 51
241.0759196937999889
  0
ARC
  5
75
100
AcDbEntity
  8
0
 62
7
370
15
  6
CONTINUOUS
100
AcDbCircle
 10
-11.4077302303000003
 20
14.0370140226999993
 30
0.0
 40
9.9999999999999591
100
AcDbArc
 50
0.0
 51
61.0759196938000031
  0
ARC
  5
76
100
AcDbEntity
  8
0
 62
7
370
15
  6
CONTINUOUS
100
AcDbCircle
 10
-6.4077302303000003
 20
4.9363917025999999
 30
0.0
 40
4.9999999999999893
100
AcDbArc
 50
270.0
 51
0.0
  0
ARC
  5
77
100
AcDbEntity
  8
0
 62
7
370
15
  6
CONTINUOUS
100
AcDbCircle
 10
-20.2069412843999991
 20
-1.0636082974000001
 30
0.0
 40
1.000000000000004
100
AcDbArc
 50
90.0
 51
180.0
  0
ARC
  5
78
100
AcDbEntity
  8
0
 62
7
370
15
  6
CONTINUOUS
100
AcDbCircle
 10
-22.2069412843999991
 20
-3.0636082974000001
 30
0.0
 40
1.0000000000000071
100
AcDbArc
 50
270.0
 51
0.0
  0
ARC
  5
79
100
AcDbEntity
  8
0
 62
7
370
15
  6
CONTINUOUS
100
AcDbCircle
 10
-72.2085191761999994
 20
-3.0636082974000001
 30
0.0
 40
1.0
100
AcDbArc
 50
180.0
 51
270.0
  0
ARC
  5
7A
100
AcDbEntity
  8
0
 62
7
370
15
  6
CONTINUOUS
100
AcDbCircle
 10
-74.2085191761999994
 20
-1.0636082974000001
 30
0.0
 40
1.000000000000014
100
AcDbArc
 50
0.0
 51
90.0
  0
ARC
  5
7B
100
AcDbEntity
  8
0
 62
7
370
15
  6
CONTINUOUS
100
AcDbCircle
 10
-88.0077302302999982
 20
4.9363917025999999
 30
0.0
 40
4.9999999999999734
100
AcDbArc
 50
180.0
 51
270.0
  0
ARC
  5
7C
100
AcDbEntity
  8
0
 62
7
370
15
  6
CONTINUOUS
100
AcDbCircle
 10
-83.0077302302999982
 20
14.0370140226999993
 30
0.0
 40
9.9999999999999485
100
AcDbArc
 50
118.9240803061999969
 51
180.0
  0
ARC
  5
7D
100
AcDbEntity
  8
0
 62
7
370
15
  6
CONTINUOUS
100
AcDbCircle
 10
-82.207730230300001
 20
37.3293947084000024
 30
0.0
 40
9.9999999999999485
100
AcDbArc
 50
298.9240803061999827
 51
0.0
  0
ARC
  5
7E
100
AcDbEntity
  8
0
 62
7
370
15
  6
CONTINUOUS
100
AcDbCircle
 10
-82.207730230300001
 20
88.5433886968999957
 30
0.0
 40
9.9999999999998863
100
AcDbArc
 50
0.0
 51
61.0759196938000031
  0
ARC
  5
7F
100
AcDbEntity
  8
0
 62
7
370
15
  6
CONTINUOUS
100
AcDbCircle
 10
-83.0077302302999982
 20
111.8357693826000059
 30
0.0
 40
10.0000000000000195
100
AcDbArc
 50
180.0
 51
241.0759196937999889
  0
ARC
  5
80
100
AcDbEntity
  8
0
 62
7
370
15
  6
CONTINUOUS
100
AcDbCircle
 10
-88.0077302302999982
 20
120.9363917026000053
 30
0.0
 40
4.9999999999999716
100
AcDbArc
 50
90.0
 51
180.0
  0
ARC
  5
81
100
AcDbEntity
  8
0
 62
7
370
15
  6
CONTINUOUS
100
AcDbCircle
 10
-74.2085191761999994
 20
126.9363917026000053
 30
0.0
 40
1.000000000000028
100
AcDbArc
 50
270.0
 51
0.0
  0
ARC
  5
82
100
AcDbEntity
  8
0
 62
7
370
15
  6
CONTINUOUS
100
AcDbCircle
 10
-72.2085191761999994
 20
128.936391702599991
 30
0.0
 40
0.9999999999999716
100
AcDbArc
 50
90.0
 51
180.0
  0
ARC
  5
83
100
AcDbEntity
  8
0
 62
7
370
15
  6
CONTINUOUS
100
AcDbCircle
 10
-22.2069412843999991
 20
128.936391702599991
 30
0.0
 40
1.000000000000028
100
AcDbArc
 50
0.0
 51
90.0
  0
ARC
  5
84
100
AcDbEntity
  8
0
 62
7
370
15
  6
CONTINUOUS
100
AcDbCircle
 10
-20.2069412843999991
 20
126.9363917026000053
 30
0.0
 40
1.0000000000000431
100
AcDbArc
 50
180.0
 51
270.0
  0
ARC
  5
85
100
AcDbEntity
  8
0
 62
7
370
15
  6
CONTINUOUS
100
AcDbCircle
 10
-6.4077302303000003
 20
120.9363917026000053
 30
0.0
 40
4.9999999999999716
100
AcDbArc
 50
0.0
 51
90.0
  0
INSERT
  5
86
100
AcDbEntity
100
AcDbBlockReference
  8
0
 62
256
370
-1
  6
ByLayer
  2
logo
 10
-62.3965231788082377
 20
19.4122516556292304
 30
0.0
 44
1.0
 45
1.0
  0
INSERT
  5
87
100
AcDbEntity
100
AcDbBlockReference
  8
0
 62
256
370
-1
  6
ByLayer
  2
logo
 10
-45.7574503311260443
 20
30.0427704194261906
 30
0.0
 44
1.0
 45
1.0
  0
INSERT
  5
88
100
AcDbEntity
100
AcDbBlockReference
  8
0
 62
256
370
-1
  6
ByLayer
  2
logo
 10
-61.9343267108170679
 20
19.4122516556292304
 30
0.0
 44
1.0
 45
1.0
  0
INSERT
  5
89
100
AcDbEntity
100
AcDbBlockReference
  8
0
 62
256
370
-1
  6
ByLayer
  2
logo
 10
-7.3951434878587543
 20
41.5976821192054942
 30
0.0
 44
1.0
 45
1.0
  0
INSERT
  5
8A
100
AcDbEntity
100
AcDbBlockReference
  8
0
 62
256
370
-1
  6
ByLayer
  2
logo
 10
27.7317880794703306
 20
23.5720198675497805
 30
0.0
 44
1.0
 45
1.0
  0
INSERT
  5
8B
100
AcDbEntity
100
AcDbBlockReference
  8
0
 62
256
370
-1
  6
ByLayer
  2
logo
 10
16.639072847682197
 20
-9.2439293598234435
 30
0.0
 44
1.0
 45
1.0
  0
INSERT
  5
8C
100
AcDbEntity
100
AcDbBlockReference
  8
0
 62
256
370
-1
  6
ByLayer
  2
logo
 10
-132.650386313466413
 20
32.8159492273732241
 30
0.0
 44
1.0
 45
1.0
  0
INSERT
  5
8D
100
AcDbEntity
100
AcDbBlockReference
  8
0
 62
256
370
-1
  6
ByLayer
  2
logo
 10
-132.1881898454752218
 20
32.8159492273732241
 30
0.0
 44
1.0
 45
1.0
  0
INSERT
  5
8E
100
AcDbEntity
100
AcDbBlockReference
  8
0
 62
256
370
-1
  6
ByLayer
  2
logo
 10
-97.5234547461373182
 20
88.2795253863138782
 30
0.0
 44
1.0
 45
1.0
  0
INSERT
  5
8F
100
AcDbEntity
100
AcDbBlockReference
  8
0
 62
256
370
-1
  6
ByLayer
  2
logo
 10
93.3636865342167681
 20
21.7232339955850904
 30
0.0
 44
1.0
 45
1.0
  0
INSERT
  5
90
100
AcDbEntity
100
AcDbBlockReference
  8
0
 62
256
370
-1
  6
ByLayer
  2
logo
 10
14.328090507726337
 20
41.5976821192054942
 30
0.0
 44
1.0
 45
1.0
  0
INSERT
  5
91
100
AcDbEntity
100
AcDbBlockReference
  8
0
 62
256
370
-1
  6
ByLayer
  2
logo
 10
14.7902869757175086
 20
41.1354856512143243
 30
0.0
 44
1.0
 45
1.0
  0
INSERT
  5
92
100
AcDbEntity
100
AcDbBlockReference
  8
0
 62
256
370
-1
  6
ByLayer
  2
logo
 10
14.7902869757175086
 20
41.1354856512143243
 30
0.0
 44
1.0
 45
1.0
  0
INSERT
  5
93
100
AcDbEntity
100
AcDbBlockReference
  8
0
 62
256
370
-1
  6
ByLayer
  2
logo
 10
-19.8744481236204038
 20
11.0927152317881319
 30
0.0
 44
1.0
 45
1.0
  0
INSERT
  5
94
100
AcDbEntity
100
AcDbBlockReference
  8
0
 62
256
370
-1
  6
ByLayer
  2
logo
 10
-62.8587196467994147
 20
58.2367549668876876
 30
0.0
 44
1.0
 45
1.0
  0
INSERT
  5
95
100
AcDbEntity
100
AcDbBlockReference
  8
0
 62
256
370
-1
  6
ByLayer
  2
logo
 10
5.0552738686534475
 20
34.6647350993379249
 30
0.0
 44
1.0
 45
1.0
  0
INSERT
  5
96
100
AcDbEntity
100
AcDbBlockReference
  8
0
 62
256
370
-1
  6
ByLayer
  2
logo
 10
5.0552738686534475
 20
35.3869170805741291
 30
0.0
 44
1.0
 45
1.0
  0
INSERT
  5
97
100
AcDbEntity
100
AcDbBlockReference
  8
0
 62
256
370
-1
  6
ByLayer
  2
logo
 10
5.0552738686534475
 20
35.3869170805741291
 30
0.0
 44
1.0
 45
1.0
  0
INSERT
  5
98
100
AcDbEntity
100
AcDbBlockReference
  8
0
 62
256
370
-1
  6
ByLayer
  2
logo
 10
5.0552738686534475
 20
35.3869170805741291
 30
0.0
 44
1.0
 45
1.0
  0
INSERT
  5
99
100
AcDbEntity
100
AcDbBlockReference
  8
0
 62
256
370
-1
  6
ByLayer
  2
logo
 10
5.0552738686534475
 20
39.7200089679913688
 30
0.0
 44
1.0
 45
1.0
  0
INSERT
  5
9A
100
AcDbEntity
100
AcDbBlockReference
  8
0
 62
256
370
-1
  6
ByLayer
  2
logo
 10
0.0
 20
0.0
 30
0.0
 44
1.0
 45
1.0
  0
INSERT
  5
9B
100
AcDbEntity
100
AcDbBlockReference
  8
0
 62
256
370
-1
  6
ByLayer
  2
logo
 10
0.7221819812362068
 20
0.0
 30
0.0
 44
1.0
 45
1.0
  0
INSERT
  5
9C
100
AcDbEntity
100
AcDbBlockReference
  8
0
 62
256
370
-1
  6
ByLayer
  2
logo
 10
28.1650972682120653
 20
15.8880035871965486
 30
0.0
 44
1.0
 45
1.0
  0
INSERT
  5
9D
100
AcDbEntity
100
AcDbBlockReference
  8
0
 62
256
370
-1
  6
ByLayer
  2
logo
 10
24.5541873620310298
 20
6.4996378311258605
 30
0.0
 44
1.0
 45
1.0
  0
INSERT
  5
9E
100
AcDbEntity
100
AcDbBlockReference
  8
0
 62
256
370
-1
  6
ByLayer
  2
logo
 10
8.6661837748344812
 20
13.7214576434879287
 30
0.0
 44
1.0
 45
1.0
  0
INSERT
  5
9F
100
AcDbEntity
100
AcDbBlockReference
  8
0
 62
256
370
-1
  6
ByLayer
  2
logo
 10
14.4436396247241348
 20
10.110547737306895
 30
0.0
 44
1.0
 45
1.0
  0
INSERT
  5
A0
100
AcDbEntity
100
AcDbBlockReference
  8
0
 62
256
370
-1
  6
ByLayer
  2
logo
 10
17.3323675496689624
 20
40.4421909492275802
 30
0.0
 44
1.0
 45
1.0
  0
INSERT
  5
A1
100
AcDbEntity
100
AcDbBlockReference
  8
0
 62
256
370
-1
  6
ByLayer
  2
logo
 10
-48.3861927428258554
 20
38.9978269867551646
 30
0.0
 44
1.0
 45
1.0
  0
INSERT
  5
A2
100
AcDbEntity
100
AcDbBlockReference
  8
0
 62
256
370
-1
  6
ByLayer
  2
logo
 10
-120.6043908664465363
 20
25.9985513245034419
 30
0.0
 44
1.0
 45
1.0
  0
INSERT
  5
A3
100
AcDbEntity
100
AcDbBlockReference
  8
0
 62
256
370
-1
  6
ByLayer
  2
logo
 10
-146.6029421909499604
 20
46.2196467991172355
 30
0.0
 44
1.0
 45
1.0
  0
INSERT
  5
A4
100
AcDbEntity
100
AcDbBlockReference
  8
0
 62
256
370
-1
  6
ByLayer
  2
logo
 10
27.4429152869758575
 20
15.8880035871965486
 30
0.0
 44
1.0
 45
1.0
  0
INSERT
  5
A5
100
AcDbEntity
100
AcDbBlockReference
  8
0
 62
256
370
-1
  6
ByLayer
  2
logo
 10
126.3818467163361845
 20
45.4974648178810241
 30
0.0
 44
1.0
 45
1.0
  0
INSERT
  5
A6
100
AcDbEntity
100
AcDbBlockReference
  8
0
 62
256
370
-1
  6
ByLayer
  2
logo
 10
1.4443639624724136
 20
38.2756450055189603
 30
0.0
 44
1.0
 45
1.0
  0
INSERT
  5
A7
100
AcDbEntity
100
AcDbBlockReference
  8
0
 62
256
370
-1
  6
ByLayer
  2
logo
 10
4.3330918874172406
 20
57.0523765176603348
 30
0.0
 44
1.0
 45
1.0
  0
INSERT
  5
A8
100
AcDbEntity
100
AcDbBlockReference
  8
0
 62
256
370
-1
  6
ByLayer
  2
logo
 10
0.7221819812362068
 20
41.8865549116999958
 30
0.0
 44
1.0
 45
1.0
  0
INSERT
  5
A9
100
AcDbEntity
100
AcDbBlockReference
  8
0
 62
256
370
-1
  6
ByLayer
  2
logo
 10
29.6094612306844773
 20
45.4974648178810241
 30
0.0
 44
1.0
 45
1.0
  0
INSERT
  5
AA
100
AcDbEntity
100
AcDbBlockReference
  8
0
 62
256
370
-1
  6
ByLayer
  2
logo
 10
71.4960161423844767
 20
73.6625620860930894
 30
0.0
 44
1.0
 45
1.0
  0
INSERT
  5
AB
100
AcDbEntity
100
AcDbBlockReference
  8
0
 62
256
370
-1
  6
ByLayer
  2
logo
 10
6.4996378311258605
 20
40.4421909492275802
 30
0.0
 44
1.0
 45
1.0
  0
INSERT
  5
AC
100
AcDbEntity
100
AcDbBlockReference
  8
0
 62
256
370
-1
  6
ByLayer
  2
logo
 10
7.2218198123620674
 20
40.4421909492275802
 30
0.0
 44
1.0
 45
1.0
  0
INSERT
  5
AD
100
AcDbEntity
100
AcDbBlockReference
  8
0
 62
256
370
-1
  6
ByLayer
  2
logo
 10
7.2218198123620674
 20
41.1643729304637844
 30
0.0
 44
1.0
 45
1.0
  0
INSERT
  5
AE
100
AcDbEntity
100
AcDbBlockReference
  8
0
 62
256
370
-1
  6
ByLayer
  2
logo
 10
5.7774558498896544
 20
40.4421909492275802
 30
0.0
 44
1.0
 45
1.0
  0
INSERT
  5
AF
100
AcDbEntity
100
AcDbBlockReference
  8
0
 62
256
370
-1
  6
ByLayer
  2
logo
 10
-6.3378378378378386
 20
32.1418918918918948
 30
0.0
 44
1.0
 45
1.0
  0
INSERT
  5
B0
100
AcDbEntity
100
AcDbBlockReference
  8
0
 62
256
370
-1
  6
ByLayer
  2
logo
 10
-47.9864864864864913
 20
71.5270270270270316
 30
0.0
 44
1.0
 45
1.0
  0
INSERT
  5
B1
100
AcDbEntity
100
AcDbBlockReference
  8
0
 62
256
370
-1
  6
ByLayer
  2
logo
 10
1.810810810810811
 20
40.2905405405405475
 30
0.0
 44
1.0
 45
1.0
  0
INSERT
  5
B2
100
AcDbEntity
100
AcDbBlockReference
  8
0
 62
256
370
-1
  6
ByLayer
  2
logo
 10
24.8986486486486527
 20
38.0270270270270316
 30
0.0
 44
1.0
 45
1.0
  0
INSERT
  5
B3
100
AcDbEntity
100
AcDbBlockReference
  8
0
 62
256
370
-1
  6
ByLayer
  2
logo
 10
24.0409980910767906
 20
-27.1284138471757181
 30
0.0
  0
SPLINE
  5
B4
  8
0
 62
256
370
-1
  6
ByLayer
100
AcDbEntity
100
AcDbSpline
 70
8
 71
3
 72
8
 73
4
 74
0
 40
0.0
 40
0.0
 40
0.0
 40
0.0
 40
1.0
 40
1.0
 40
1.0
 40
1.0
 10
-44.4848879912573381
 20
42.3664982829615866
 30
0.0
 10
-44.5977767912573171
 20
42.027831482961588
 30
0.0
 10
-44.7106657912573127
 20
41.8584982829615768
 30
0.0
 10
-44.9928879912573478
 20
41.6891648829615775
 30
0.0
  0
SPLINE
  5
B5
  8
0
 62
256
370
-1
  6
ByLayer
100
AcDbEntity
100
AcDbSpline
 70
8
 71
3
 72
8
 73
4
 74
0
 40
0.0
 40
0.0
 40
0.0
 40
0.0
 40
1.0
 40
1.0
 40
1.0
 40
1.0
 10
-49.6834211912573522
 20
41.6891648829615775
 30
0.0
 10
-49.9656433912573306
 20
41.8584982829615768
 30
0.0
 10
-50.0220879912573508
 20
41.9149426829615805
 30
0.0
 10
-50.0785323912573261
 20
42.1407204829615836
 30
0.0
  0
LWPOLYLINE
  5
B6
  8
0
 62
256
370
-1
  6
ByLayer
100
AcDbEntity
100
AcDbPolyline
 90
5
 70
0
 10
-44.9928879912573478
 20
41.6891648829615775
 10
-45.2186657912573224
 20
41.6327204829615738
 10
-47.3635545912573406
 20
41.6327204829615738
 10
-49.4011989912573739
 20
41.6327204829615738
 10
-49.6834211912573522
 20
41.6891648829615775
  0
SPLINE
  5
B7
  8
0
 62
256
370
-1
  6
ByLayer
100
AcDbEntity
100
AcDbSpline
 70
8
 71
3
 72
8
 73
4
 74
0
 40
0.0
 40
0.0
 40
0.0
 40
0.0
 40
1.0
 40
1.0
 40
1.0
 40
1.0
 10
-50.0785323912573261
 20
48.5810314829615919
 30
0.0
 10
-50.0220879912573508
 20
48.8068092829615665
 30
0.0
 10
-49.9091989912573553
 20
48.8632536829615702
 30
0.0
 10
-49.7398657912573157
 20
48.9196982829615621
 30
0.0
  0
SPLINE
  5
B8
  8
0
 62
256
370
-1
  6
ByLayer
100
AcDbEntity
100
AcDbSpline
 70
8
 71
3
 72
8
 73
4
 74
0
 40
0.0
 40
0.0
 40
0.0
 40
0.0
 40
1.0
 40
1.0
 40
1.0
 40
1.0
 10
-49.7398657912573157
 20
48.9196982829615621
 30
0.0
 10
-49.5705323912573448
 20
49.0325870829615695
 30
0.0
 10
-49.5140879912573695
 20
49.0890314829616017
 30
0.0
 10
-48.1537767912573571
 20
49.0890314829615733
 30
0.0
  0
LWPOLYLINE
  5
B9
  8
0
 62
256
370
-1
  6
ByLayer
100
AcDbEntity
100
AcDbPolyline
 90
5
 70
0
 10
-50.0785323912573261
 20
42.1407204829615836
 10
-50.1914211912573336
 20
42.3664982829615866
 10
-50.1914211912573336
 20
45.3693426829615731
 10
-50.1914211912573336
 20
48.3552536829615889
 10
-50.0785323912573261
 20
48.5810314829615919
  0
SPLINE
  5
BA
  8
0
 62
256
370
-1
  6
ByLayer
100
AcDbEntity
100
AcDbSpline
 70
8
 71
3
 72
8
 73
4
 74
0
 40
0.0
 40
0.0
 40
0.0
 40
0.0
 40
1.0
 40
1.0
 40
1.0
 40
1.0
 10
-44.4284433912573462
 20
45.8265426829615734
 30
0.0
 10
-44.4284433912573462
 20
44.0146760829615715
 30
0.0
 10
-44.4848879912573381
 20
42.479387082961594
 30
0.0
 10
-44.4848879912573381
 20
42.3664982829615866
 30
0.0
  0
LWPOLYLINE
  5
BB
  8
0
 62
256
370
-1
  6
ByLayer
100
AcDbEntity
100
AcDbPolyline
 90
11
 70
0
 10
-48.1537767912573571
 20
49.0890314829615733
 10
-46.7991101912573271
 20
49.0890314829615733
 10
-46.7991101912573271
 20
46.0523204829615764
 10
-46.7991101912573271
 20
43.0212536829615857
 10
-46.1782211912573501
 20
43.0212536829615857
 10
-45.5573323912573613
 20
43.0212536829615857
 10
-45.5573323912573613
 20
46.0523204829615764
 10
-45.5573323912573613
 20
49.0890314829615733
 10
-44.9928879912573478
 20
49.0890314829615733
 10
-44.4284433912573462
 20
49.0890314829615733
 10
-44.4284433912573462
 20
45.8265426829615734
  0
LWPOLYLINE
  5
BC
  8
0
 62
256
370
-1
  6
ByLayer
100
AcDbEntity
100
AcDbPolyline
 90
2
 70
0
 10
-44.4848879912573381
 20
42.3664982829615866
 10
-44.4848879912573381
 20
42.3664982829615866
  0
SPLINE
  5
BD
  8
0
 62
256
370
-1
  6
ByLayer
100
AcDbEntity
100
AcDbSpline
 70
8
 71
3
 72
8
 73
4
 74
0
 40
0.0
 40
0.0
 40
0.0
 40
0.0
 40
1.0
 40
1.0
 40
1.0
 40
1.0
 10
-49.4011989912573171
 20
55.0721426829615979
 30
0.0
 10
-48.2666657912573527
 20
55.9752536829616218
 30
0.0
 10
-47.2506657912573331
 20
56.7654760829615981
 30
0.0
 10
-47.3071101912573653
 20
56.7654760829615981
 30
0.0
  0
SPLINE
  5
BE
  8
0
 62
256
370
-1
  6
ByLayer
100
AcDbEntity
100
AcDbSpline
 70
8
 71
3
 72
8
 73
4
 74
0
 40
0.0
 40
0.0
 40
0.0
 40
0.0
 40
1.0
 40
1.0
 40
1.0
 40
1.0
 10
-47.3071101912573653
 20
56.7654760829615981
 30
0.0
 10
-47.3071101912573653
 20
56.7654760829615981
 30
0.0
 10
-48.2666657912573527
 20
57.4992536829615943
 30
0.0
 10
-49.4011989912573739
 20
58.4023648829616064
 30
0.0
  0
LWPOLYLINE
  5
BF
  8
0
 62
256
370
-1
  6
ByLayer
100
AcDbEntity
100
AcDbPolyline
 90
5
 70
0
 10
-47.9844433912573862
 20
52.0241426829615961
 10
-51.5460879912573517
 20
52.0241426829615961
 10
-51.5460879912573517
 20
52.7579204829615804
 10
-51.5460879912573517
 20
53.435253682961573
 10
-49.4011989912573171
 20
55.0721426829615979
  0
SPLINE
  5
C0
  8
0
 62
256
370
-1
  6
ByLayer
100
AcDbEntity
100
AcDbSpline
 70
8
 71
3
 72
8
 73
4
 74
0
 40
0.0
 40
0.0
 40
0.0
 40
0.0
 40
1.0
 40
1.0
 40
1.0
 40
1.0
 10
-49.2318657912573343
 20
59.7005870829616043
 30
0.0
 10
-49.0568879912573692
 20
59.5876982829615969
 30
0.0
 10
-48.097332391257325
 20
58.9103648829615878
 30
0.0
 10
-47.1377767912573375
 20
58.1765870829616034
 30
0.0
  0
SPLINE
  5
C1
  8
0
 62
256
370
-1
  6
ByLayer
100
AcDbEntity
100
AcDbSpline
 70
8
 71
3
 72
8
 73
4
 74
0
 40
0.0
 40
0.0
 40
0.0
 40
0.0
 40
1.0
 40
1.0
 40
1.0
 40
1.0
 10
-47.1377767912573375
 20
58.1765870829616034
 30
0.0
 10
-45.275110191257383
 20
56.8219204829616018
 30
0.0
 10
-45.275110191257383
 20
56.8219204829616018
 30
0.0
 10
-45.2751101912573262
 20
56.5961426829615988
 30
0.0
  0
SPLINE
  5
C2
  8
0
 62
256
370
-1
  6
ByLayer
100
AcDbEntity
100
AcDbSpline
 70
8
 71
3
 72
8
 73
4
 74
0
 40
0.0
 40
0.0
 40
0.0
 40
0.0
 40
1.0
 40
1.0
 40
1.0
 40
1.0
 10
-45.2751101912573262
 20
56.5961426829615988
 30
0.0
 10
-45.2751101912573262
 20
56.4832536829616032
 30
0.0
 10
-45.2751101912573262
 20
56.4268092829615711
 30
0.0
 10
-47.0813323912573054
 20
55.1285870829615732
 30
0.0
  0
SPLINE
  5
C3
  8
0
 62
256
370
-1
  6
ByLayer
100
AcDbEntity
100
AcDbSpline
 70
8
 71
3
 72
8
 73
4
 74
0
 40
0.0
 40
0.0
 40
0.0
 40
0.0
 40
1.0
 40
1.0
 40
1.0
 40
1.0
 10
-47.0813323912573054
 20
55.1285870829615732
 30
0.0
 10
-48.0408879912573497
 20
54.3383648829616135
 30
0.0
 10
-49.0004433912573489
 20
53.661031482961576
 30
0.0
 10
-49.175421191257314
 20
53.6045870829615723
 30
0.0
  0
SPLINE
  5
C4
  8
0
 62
256
370
-1
  6
ByLayer
100
AcDbEntity
100
AcDbSpline
 70
8
 71
3
 72
8
 73
4
 74
0
 40
0.0
 40
0.0
 40
0.0
 40
0.0
 40
1.0
 40
1.0
 40
1.0
 40
1.0
 10
-49.175421191257314
 20
53.6045870829615723
 30
0.0
 10
-49.3447545912573418
 20
53.4916982829615932
 30
0.0
 10
-49.4011989912573171
 20
53.4352536829616014
 30
0.0
 10
-49.4576433912573492
 20
53.435253682961573
 30
0.0
  0
SPLINE
  5
C5
  8
0
 62
256
370
-1
  6
ByLayer
100
AcDbEntity
100
AcDbSpline
 70
8
 71
3
 72
8
 73
4
 74
0
 40
0.0
 40
0.0
 40
0.0
 40
0.0
 40
1.0
 40
1.0
 40
1.0
 40
1.0
 10
-49.4576433912573492
 20
53.435253682961573
 30
0.0
 10
-49.4576433912573492
 20
53.435253682961573
 30
0.0
 10
-48.323110191257328
 20
53.4352536829616014
 30
0.0
 10
-46.9119989912573345
 20
53.4352536829616014
 30
0.0
  0
LWPOLYLINE
  5
C6
  8
0
 62
256
370
-1
  6
ByLayer
100
AcDbEntity
100
AcDbPolyline
 90
11
 70
0
 10
-49.4011989912573739
 20
58.4023648829616064
 10
-51.5460879912573517
 20
59.9828092829616111
 10
-51.5460879912573517
 20
60.6601426829616202
 10
-51.5460879912573517
 20
61.3374760829616008
 10
-47.9844433912573294
 20
61.3374760829616008
 10
-44.4284433912573462
 20
61.3374760829616008
 10
-44.4284433912573462
 20
60.603698282961588
 10
-44.4284433912573178
 20
59.8134760829615999
 10
-46.9684433912573098
 20
59.8134760829615999
 10
-49.5140879912573126
 20
59.8699204829616036
 10
-49.2318657912573343
 20
59.7005870829616043
  0
SPLINE
  5
C7
  8
0
 62
256
370
-1
  6
ByLayer
100
AcDbEntity
100
AcDbSpline
 70
8
 71
3
 72
8
 73
4
 74
0
 40
0.0
 40
0.0
 40
0.0
 40
0.0
 40
1.0
 40
1.0
 40
1.0
 40
1.0
 10
-44.4284433912573462
 20
63.4823648829615905
 30
0.0
 10
-44.4848879912573096
 20
63.4823648829616189
 30
0.0
 10
-46.0653323912573427
 20
64.3854760829616026
 30
0.0
 10
-48.0408879912573497
 20
65.4579204829615975
 30
0.0
  0
LWPOLYLINE
  5
C8
  8
0
 62
256
370
-1
  6
ByLayer
100
AcDbEntity
100
AcDbPolyline
 90
6
 70
0
 10
-46.9119989912573345
 20
53.4352536829616014
 10
-44.4284433912573462
 20
53.4352536829616014
 10
-44.4284433912573462
 20
52.7579204829615804
 10
-44.4284433912573746
 20
52.0241426829615961
 10
-47.9844433912573862
 20
52.0241426829615961
 10
-47.9844433912573862
 20
52.0241426829615961
  0
SPLINE
  5
C9
  8
0
 62
256
370
-1
  6
ByLayer
100
AcDbEntity
100
AcDbSpline
 70
8
 71
3
 72
8
 73
4
 74
0
 40
0.0
 40
0.0
 40
0.0
 40
0.0
 40
1.0
 40
1.0
 40
1.0
 40
1.0
 10
-50.3607545912573613
 20
69.6912536829616016
 30
0.0
 10
-49.6834211912573522
 20
70.1428092829616077
 30
0.0
 10
-48.097332391257325
 20
71.0459204829615629
 30
0.0
 10
-46.8555545912573024
 20
71.9490314829615869
 30
0.0
  0
SPLINE
  5
CA
  8
0
 62
256
370
-1
  6
ByLayer
100
AcDbEntity
100
AcDbSpline
 70
8
 71
3
 72
8
 73
4
 74
0
 40
0.0
 40
0.0
 40
0.0
 40
0.0
 40
1.0
 40
1.0
 40
1.0
 40
1.0
 10
-46.8555545912573024
 20
71.9490314829615869
 30
0.0
 10
-45.5573323912573329
 20
72.400587082961593
 30
0.0
 10
-44.4284433912572894
 20
73.3036982829616051
 30
0.0
 10
-44.4284433912572894
 20
73.3036982829616051
 30
0.0
  0
SPLINE
  5
CB
  8
0
 62
256
370
-1
  6
ByLayer
100
AcDbEntity
100
AcDbSpline
 70
8
 71
3
 72
8
 73
4
 74
0
 40
0.0
 40
0.0
 40
0.0
 40
0.0
 40
1.0
 40
1.0
 40
1.0
 40
1.0
 10
-44.4284433912572894
 20
73.3036982829616051
 30
0.0
 10
-44.4284433912572894
 20
73.3036982829616051
 30
0.0
 10
-44.4284433912572325
 20
72.852142682961599
 30
0.0
 10
-44.4284433912572894
 20
72.400587082961593
 30
0.0
  0
LWPOLYLINE
  5
CC
  8
0
 62
256
370
-1
  6
ByLayer
100
AcDbEntity
100
AcDbPolyline
 90
5
 70
0
 10
-48.0408879912573497
 20
65.4579204829615975
 10
-51.5460879912573517
 20
67.4334760829616044
 10
-51.5460879912572949
 20
68.3365870829615716
 10
-51.5460879912572949
 20
69.2396982829615837
 10
-50.3607545912573613
 20
69.6912536829616016
  0
SPLINE
  5
CD
  8
0
 62
256
370
-1
  6
ByLayer
100
AcDbEntity
100
AcDbSpline
 70
8
 71
3
 72
8
 73
4
 74
0
 40
0.0
 40
0.0
 40
0.0
 40
0.0
 40
1.0
 40
1.0
 40
1.0
 40
1.0
 10
-44.4284433912573462
 20
64.2725870829616071
 30
0.0
 10
-44.4284433912572894
 20
63.821031482961601
 30
0.0
 10
-44.4284433912573462
 20
63.4823648829615905
 30
0.0
 10
-44.4284433912573462
 20
63.4823648829615905
 30
0.0
  0
LWPOLYLINE
  5
CE
  8
0
 62
256
370
-1
  6
ByLayer
100
AcDbEntity
100
AcDbPolyline
 90
9
 70
0
 10
-44.4284433912572894
 20
72.400587082961593
 10
-44.4284433912573462
 20
71.0459204829615629
 10
-45.2186657912574077
 20
71.0459204829615629
 10
-46.0088879912573674
 20
70.5943648829616137
 10
-46.0088879912573674
 20
68.3365870829616
 10
-46.0088879912573105
 20
66.0788092829616147
 10
-45.2186657912573224
 20
65.5143648829615728
 10
-44.4284433912573462
 20
65.1192536829615989
 10
-44.4284433912573462
 20
64.2725870829616071
  0
LWPOLYLINE
  5
CF
  8
0
 62
256
370
-1
  6
ByLayer
100
AcDbEntity
100
AcDbPolyline
 90
2
 70
0
 10
-44.4284433912573462
 20
63.4823648829615905
 10
-44.4284433912573462
 20
63.4823648829615905
  0
LWPOLYLINE
  5
D0
  8
0
 62
256
370
-1
  6
ByLayer
100
AcDbEntity
100
AcDbPolyline
 90
2
 70
0
 10
-47.3071101912573653
 20
69.6912536829616016
 10
-47.3071101912573653
 20
69.6912536829616016
  0
SPLINE
  5
D1
  8
0
 62
256
370
-1
  6
ByLayer
100
AcDbEntity
100
AcDbSpline
 70
8
 71
3
 72
8
 73
4
 74
0
 40
0.0
 40
0.0
 40
0.0
 40
0.0
 40
1.0
 40
1.0
 40
1.0
 40
1.0
 10
-49.85275459125738
 20
81.0365870829615886
 30
0.0
 10
-48.9439989912573168
 20
79.681920482961587
 30
0.0
 10
-48.210221191257304
 20
78.7788092829615749
 30
0.0
 10
-48.210221191257304
 20
78.7788092829615749
 30
0.0
  0
SPLINE
  5
D2
  8
0
 62
256
370
-1
  6
ByLayer
100
AcDbEntity
100
AcDbSpline
 70
8
 71
3
 72
8
 73
4
 74
0
 40
0.0
 40
0.0
 40
0.0
 40
0.0
 40
1.0
 40
1.0
 40
1.0
 40
1.0
 10
-48.210221191257304
 20
78.7788092829615749
 30
0.0
 10
-48.1537767912573571
 20
78.7788092829615749
 30
0.0
 10
-46.5733323912573809
 20
81.0365870829615886
 30
0.0
 10
-45.1622211912573306
 20
82.8428092829615963
 30
0.0
  0
SPLINE
  5
D3
  8
0
 62
256
370
-1
  6
ByLayer
100
AcDbEntity
100
AcDbSpline
 70
8
 71
3
 72
8
 73
4
 74
0
 40
0.0
 40
0.0
 40
0.0
 40
0.0
 40
1.0
 40
1.0
 40
1.0
 40
1.0
 10
-45.1622211912573306
 20
82.8428092829615963
 30
0.0
 10
-44.8235545912573201
 20
83.74592048296158
 30
0.0
 10
-44.4848879912573096
 20
83.74592048296158
 30
0.0
 10
-44.4284433912573178
 20
83.74592048296158
 30
0.0
  0
SPLINE
  5
D4
  8
0
 62
256
370
-1
  6
ByLayer
100
AcDbEntity
100
AcDbSpline
 70
8
 71
3
 72
8
 73
4
 74
0
 40
0.0
 40
0.0
 40
0.0
 40
0.0
 40
1.0
 40
1.0
 40
1.0
 40
1.0
 10
-44.4284433912573178
 20
83.74592048296158
 30
0.0
 10
-44.4284433912573178
 20
83.74592048296158
 30
0.0
 10
-44.4284433912573746
 20
83.2943648829616023
 30
0.0
 10
-44.4284433912573462
 20
82.8428092829615963
 30
0.0
  0
LWPOLYLINE
  5
D5
  8
0
 62
256
370
-1
  6
ByLayer
100
AcDbEntity
100
AcDbPolyline
 90
11
 70
0
 10
-47.9844433912573862
 20
75.6179204829615657
 10
-51.5460879912572665
 20
75.6179204829615941
 10
-51.5460879912573233
 20
76.0694760829615717
 10
-51.5460879912573517
 20
76.9725870829615673
 10
-50.0785323912572977
 20
76.9725870829615673
 10
-48.6053323912573347
 20
76.9725870829615673
 10
-50.0785323912573261
 20
79.230364882961581
 10
-51.5460879912573517
 20
81.0365870829615886
 10
-51.5460879912572949
 20
82.3912536829615618
 10
-51.4896433912573883
 20
83.2943648829616023
 10
-49.85275459125738
 20
81.0365870829615886
  0
SPLINE
  5
D6
  8
0
 62
256
370
-1
  6
ByLayer
100
AcDbEntity
100
AcDbSpline
 70
8
 71
3
 72
8
 73
4
 74
0
 40
0.0
 40
0.0
 40
0.0
 40
0.0
 40
1.0
 40
1.0
 40
1.0
 40
1.0
 10
-45.5573323912573898
 20
79.681920482961587
 30
0.0
 10
-46.121776791257318
 20
79.230364882961581
 30
0.0
 10
-46.8555545912573592
 20
77.8756982829615794
 30
0.0
 10
-47.0813323912573338
 20
77.8756982829615794
 30
0.0
  0
LWPOLYLINE
  5
D7
  8
0
 62
256
370
-1
  6
ByLayer
100
AcDbEntity
100
AcDbPolyline
 90
3
 70
0
 10
-44.4284433912573462
 20
82.8428092829615963
 10
-44.4284433912574031
 20
81.4881426829615947
 10
-45.5573323912573898
 20
79.681920482961587
  0
LWPOLYLINE
  5
D8
  8
0
 62
256
370
-1
  6
ByLayer
100
AcDbEntity
100
AcDbPolyline
 90
8
 70
0
 10
-47.0813323912573338
 20
77.8756982829615794
 10
-47.5328879912573683
 20
76.9725870829615957
 10
-46.0088879912574242
 20
76.9725870829615673
 10
-44.4284433912572894
 20
76.9725870829615673
 10
-44.4284433912574031
 20
76.0694760829615717
 10
-44.4284433912573178
 20
75.6179204829615657
 10
-47.9844433912573862
 20
75.6179204829615657
 10
-47.9844433912573862
 20
75.6179204829615657
  0
LWPOLYLINE
  5
D9
  8
0
 62
256
370
-1
  6
ByLayer
100
AcDbEntity
100
AcDbPolyline
 90
26
 70
0
 10
-47.9844433912573294
 20
86.4552536829616116
 10
-51.5460879912573517
 20
86.4552536829616116
 10
-51.5460879912573233
 20
90.0676982829615582
 10
-51.5460879912572665
 20
93.6801426829615735
 10
-50.925198991257318
 20
93.6801426829615735
 10
-50.3043101912573007
 20
93.6801426829615735
 10
-50.3043101912573292
 20
90.9708092829615822
 10
-50.304310191257386
 20
87.8099204829615729
 10
-49.5140879912573126
 20
87.8099204829615729
 10
-48.7182211912573422
 20
87.8099204829615729
 10
-48.7182211912573706
 20
89.6161426829615522
 10
-48.7182211912574274
 20
91.4223648829615883
 10
-48.0973323912573534
 20
91.4223648829615883
 10
-47.5328879912573115
 20
91.4223648829615883
 10
-47.5328879912573683
 20
89.616142682961609
 10
-47.5328879912573967
 20
87.8099204829615729
 10
-46.6297767912573278
 20
87.8099204829615729
 10
-45.7831101912573928
 20
87.8099204829615729
 10
-45.7831101912574212
 20
90.9708092829615822
 10
-45.7831101912573644
 20
93.6801426829615735
 10
-45.1057767912572416
 20
93.6801426829615735
 10
-44.4284433912572041
 20
93.6801426829615735
 10
-44.4284433912572609
 20
90.0676982829616151
 10
-44.4284433912572894
 20
86.4552536829616116
 10
-47.9844433912573294
 20
86.4552536829616116
 10
-47.9844433912573294
 20
86.4552536829616116
  0
SPLINE
  5
DA
  8
0
 62
256
370
-1
  6
ByLayer
100
AcDbEntity
100
AcDbSpline
 70
8
 71
3
 72
8
 73
4
 74
0
 40
0.0
 40
0.0
 40
0.0
 40
0.0
 40
1.0
 40
1.0
 40
1.0
 40
1.0
 10
-51.5460879912573517
 20
99.8890314829615846
 30
0.0
 10
-51.4896433912573883
 20
103.8401426829615701
 30
0.0
 10
-51.5460879912573233
 20
103.8401426829615701
 30
0.0
 10
-51.1509767912573778
 20
104.4045870829615552
 30
0.0
  0
SPLINE
  5
DB
  8
0
 62
256
370
-1
  6
ByLayer
100
AcDbEntity
100
AcDbSpline
 70
8
 71
3
 72
8
 73
4
 74
0
 40
0.0
 40
0.0
 40
0.0
 40
0.0
 40
1.0
 40
1.0
 40
1.0
 40
1.0
 10
-51.1509767912573778
 20
104.4045870829615552
 30
0.0
 10
-50.8687545912573427
 20
104.4045870829615552
 30
0.0
 10
-50.6994211912573718
 20
104.4045870829615552
 30
0.0
 10
-49.175421191257314
 20
104.4045870829615552
 30
0.0
  0
SPLINE
  5
DC
  8
0
 62
256
370
-1
  6
ByLayer
100
AcDbEntity
100
AcDbSpline
 70
8
 71
3
 72
8
 73
4
 74
0
 40
0.0
 40
0.0
 40
0.0
 40
0.0
 40
1.0
 40
1.0
 40
1.0
 40
1.0
 10
-49.175421191257314
 20
104.4045870829615552
 30
0.0
 10
-47.815110191257375
 20
104.4045870829615552
 30
0.0
 10
-47.815110191257375
 20
104.4045870829615552
 30
0.0
 10
-47.5328879912574251
 20
104.4045870829615552
 30
0.0
  0
SPLINE
  5
DD
  8
0
 62
256
370
-1
  6
ByLayer
100
AcDbEntity
100
AcDbSpline
 70
8
 71
3
 72
8
 73
4
 74
0
 40
0.0
 40
0.0
 40
0.0
 40
0.0
 40
1.0
 40
1.0
 40
1.0
 40
1.0
 10
-47.5328879912574251
 20
104.4045870829615552
 30
0.0
 10
-47.194221191257256
 20
103.8401426829615701
 30
0.0
 10
-47.1377767912574512
 20
103.8401426829615701
 30
0.0
 10
-47.1377767912573375
 20
102.7112536829615834
 30
0.0
  0
LWPOLYLINE
  5
DE
  8
0
 62
256
370
-1
  6
ByLayer
100
AcDbEntity
100
AcDbPolyline
 90
3
 70
0
 10
-48.0408879912574349
 20
96.8410314829615828
 10
-51.5460879912573517
 20
96.8410314829615828
 10
-51.5460879912573517
 20
99.8890314829615846
  0
SPLINE
  5
DF
  8
0
 62
256
370
-1
  6
ByLayer
100
AcDbEntity
100
AcDbSpline
 70
8
 71
3
 72
8
 73
4
 74
0
 40
0.0
 40
0.0
 40
0.0
 40
0.0
 40
1.0
 40
1.0
 40
1.0
 40
1.0
 10
-45.8395545912572544
 20
103.8401426829615701
 30
0.0
 10
-45.1622211912573306
 20
104.4045870829615552
 30
0.0
 10
-44.5977767912572887
 20
105.5334760829615988
 30
0.0
 10
-44.5413323912572281
 20
105.5334760829615988
 30
0.0
  0
SPLINE
  5
E0
  8
0
 62
256
370
-1
  6
ByLayer
100
AcDbEntity
100
AcDbSpline
 70
8
 71
3
 72
8
 73
4
 74
0
 40
0.0
 40
0.0
 40
0.0
 40
0.0
 40
1.0
 40
1.0
 40
1.0
 40
1.0
 10
-44.5413323912572281
 20
105.5334760829615988
 30
0.0
 10
-44.4284433912573746
 20
105.5334760829615988
 30
0.0
 10
-44.4284433912573746
 20
105.5334760829615988
 30
0.0
 10
-44.4284433912572609
 20
104.4045870829615552
 30
0.0
  0
LWPOLYLINE
  5
E1
  8
0
 62
256
370
-1
  6
ByLayer
100
AcDbEntity
100
AcDbPolyline
 90
3
 70
0
 10
-47.1377767912573375
 20
102.7112536829615834
 10
-47.0813323912573054
 20
101.5823648829615848
 10
-45.8395545912572544
 20
103.8401426829615701
  0
LWPOLYLINE
  5
E2
  8
0
 62
256
370
-1
  6
ByLayer
100
AcDbEntity
100
AcDbPolyline
 90
12
 70
0
 10
-44.4284433912572609
 20
104.4045870829615552
 10
-44.4284433912573462
 20
102.7112536829615834
 10
-45.7831101912573644
 20
101.5823648829615848
 10
-47.1377767912573375
 20
99.8890314829615846
 10
-47.1377767912573091
 20
99.3245870829615995
 10
-47.0813323912573622
 20
98.195698282961601
 10
-45.783110191257478
 20
98.195698282961601
 10
-44.4284433912574031
 20
98.195698282961601
 10
-44.4284433912573462
 20
97.6312536829615993
 10
-44.4284433912574031
 20
96.8410314829615828
 10
-48.0408879912574349
 20
96.8410314829615828
 10
-48.0408879912574349
 20
96.8410314829615828
  0
LWPOLYLINE
  5
E3
  8
0
 62
256
370
-1
  6
ByLayer
100
AcDbEntity
100
AcDbPolyline
 90
26
 70
0
 10
-51.2638657912573734
 20
20.4716982829615723
 10
-58.0371989912573554
 20
20.4716982829615723
 10
-58.0371989912573412
 20
27.2450314829615685
 10
-58.0371989912573696
 20
34.0183648829615777
 10
-56.3438657912573433
 20
34.0183648829615919
 10
-54.7069767912573468
 20
34.0183648829615919
 10
-54.7069767912573326
 20
29.3334760829615711
 10
-54.7069767912573326
 20
24.592142682961569
 10
-53.6345323912573662
 20
24.5921426829615974
 10
-52.6185323912573324
 20
24.592142682961569
 10
-52.6185323912573466
 20
29.3334760829615711
 10
-52.6185323912573324
 20
34.0183648829615777
 10
-51.0945323912573457
 20
34.0183648829615777
 10
-49.6269767912573769
 20
34.0183648829615777
 10
-49.6269767912573485
 20
29.3334760829615853
 10
-49.6269767912573769
 20
24.5921426829615832
 10
-48.4924433912573676
 20
24.592142682961569
 10
-47.476443391257348
 20
24.592142682961569
 10
-47.476443391257348
 20
29.3334760829615711
 10
-47.476443391257348
 20
34.0183648829615919
 10
-46.008887991257339
 20
34.0183648829615919
 10
-44.4848879912573381
 20
34.0183648829615777
 10
-44.4848879912573381
 20
27.2450314829615827
 10
-44.4848879912573381
 20
20.4716982829615866
 10
-51.2638657912573734
 20
20.4716982829615723
 10
-51.2638657912573734
 20
20.4716982829615723
  0
SPLINE
  5
E4
  8
0
 62
256
370
-1
  6
ByLayer
100
AcDbEntity
100
AcDbSpline
 70
8
 71
3
 72
8
 73
4
 74
0
 40
0.0
 40
0.0
 40
0.0
 40
0.0
 40
1.0
 40
1.0
 40
1.0
 40
1.0
 10
-59.7869767912573309
 20
36.8913870829615718
 30
0.0
 10
-60.690087991257343
 20
38.0767204829615764
 30
0.0
 10
-61.4803101912573595
 20
39.0927204829615818
 30
0.0
 10
-61.4803101912573595
 20
39.1491648829615855
 30
0.0
  0
SPLINE
  5
E5
  8
0
 62
256
370
-1
  6
ByLayer
100
AcDbEntity
100
AcDbSpline
 70
8
 71
3
 72
8
 73
4
 74
0
 40
0.0
 40
0.0
 40
0.0
 40
0.0
 40
1.0
 40
1.0
 40
1.0
 40
1.0
 10
-61.4803101912573595
 20
39.1491648829615855
 30
0.0
 10
-61.5367545912573348
 20
39.2056092829615892
 30
0.0
 10
-61.3674211912573639
 20
39.205609282961575
 30
0.0
 10
-54.9327545912573498
 20
39.205609282961575
 30
0.0
  0
LWPOLYLINE
  5
E6
  8
0
 62
256
370
-1
  6
ByLayer
100
AcDbEntity
100
AcDbPolyline
 90
3
 70
0
 10
-51.376754591257324
 20
34.80858708296158
 10
-58.0936433912573591
 20
34.80858708296158
 10
-59.7869767912573309
 20
36.8913870829615718
  0
SPLINE
  5
E7
  8
0
 62
256
370
-1
  6
ByLayer
100
AcDbEntity
100
AcDbSpline
 70
8
 71
3
 72
8
 73
4
 74
0
 40
0.0
 40
0.0
 40
0.0
 40
0.0
 40
1.0
 40
1.0
 40
1.0
 40
1.0
 10
-52.2798657912573788
 20
38.4718314829615764
 30
0.0
 10
-54.7634211912573221
 20
38.4718314829615764
 30
0.0
 10
-56.8518657912573246
 20
38.4718314829615764
 30
0.0
 10
-56.8518657912573531
 20
38.4153870829615727
 30
0.0
  0
SPLINE
  5
E8
  8
0
 62
256
370
-1
  6
ByLayer
100
AcDbEntity
100
AcDbSpline
 70
8
 71
3
 72
8
 73
4
 74
0
 40
0.0
 40
0.0
 40
0.0
 40
0.0
 40
1.0
 40
1.0
 40
1.0
 40
1.0
 10
-56.8518657912573531
 20
38.4153870829615727
 30
0.0
 10
-56.8518657912573531
 20
38.4153870829615727
 30
0.0
 10
-56.7389767912573291
 20
38.2460536829615734
 30
0.0
 10
-56.513198991257326
 20
38.0202760829615869
 30
0.0
  0
LWPOLYLINE
  5
E9
  8
0
 62
256
370
-1
  6
ByLayer
100
AcDbEntity
100
AcDbPolyline
 90
5
 70
0
 10
-54.9327545912573498
 20
39.205609282961575
 10
-48.2666657912573527
 20
39.2056092829615892
 10
-47.9279989912573541
 20
38.8669426829615929
 10
-47.5893323912573436
 20
38.4718314829615764
 10
-52.2798657912573788
 20
38.4718314829615764
  0
SPLINE
  5
EA
  8
0
 62
256
370
-1
  6
ByLayer
100
AcDbEntity
100
AcDbSpline
 70
8
 71
3
 72
8
 73
4
 74
0
 40
0.0
 40
0.0
 40
0.0
 40
0.0
 40
1.0
 40
1.0
 40
1.0
 40
1.0
 10
-45.1057767912573553
 20
35.3673870829615709
 30
0.0
 10
-44.8799989912573523
 20
35.0851648829615925
 30
0.0
 10
-44.6542211912573208
 20
34.8650314829615837
 30
0.0
 10
-44.6542211912573208
 20
34.8650314829615837
 30
0.0
  0
SPLINE
  5
EB
  8
0
 62
256
370
-1
  6
ByLayer
100
AcDbEntity
100
AcDbSpline
 70
8
 71
3
 72
8
 73
4
 74
0
 40
0.0
 40
0.0
 40
0.0
 40
0.0
 40
1.0
 40
1.0
 40
1.0
 40
1.0
 10
-44.6542211912573208
 20
34.8650314829615837
 30
0.0
 10
-44.6542211912573492
 20
34.80858708296158
 30
0.0
 10
-46.0088879912573674
 20
34.80858708296158
 30
0.0
 10
-51.376754591257324
 20
34.80858708296158
 30
0.0
  0
LWPOLYLINE
  5
EC
  8
0
 62
256
370
-1
  6
ByLayer
100
AcDbEntity
100
AcDbPolyline
 90
13
 70
0
 10
-56.513198991257326
 20
38.0202760829615869
 10
-56.2309767912573477
 20
37.5687204829615808
 10
-51.5460879912573517
 20
37.5687204829615808
 10
-46.8555545912573308
 20
37.5687204829615808
 10
-46.5168879912573487
 20
37.1171648829615748
 10
-46.1782211912573501
 20
36.6656092829615829
 10
-50.8687545912573427
 20
36.6656092829615687
 10
-55.4971989912573633
 20
36.6656092829615829
 10
-55.1585323912573529
 20
36.270498282961583
 10
-54.8763101912573461
 20
35.8753870829615806
 10
-50.1914211912573336
 20
35.8753870829615806
 10
-45.500887991257386
 20
35.8753870829615806
 10
-45.1057767912573553
 20
35.3673870829615709
  0
LWPOLYLINE
  5
ED
  8
0
 62
256
370
-1
  6
ByLayer
100
AcDbEntity
100
AcDbPolyline
 90
2
 70
0
 10
-51.376754591257324
 20
34.80858708296158
 10
-51.376754591257324
 20
34.80858708296158
  0
LWPOLYLINE
  5
EE
  8
0
 62
256
370
-1
  6
ByLayer
100
AcDbEntity
100
AcDbPolyline
 90
26
 70
0
 10
-60.2949767912573407
 20
23.4068092829615786
 10
-62.044754591257373
 20
26.0032536829615744
 10
-62.044754591257373
 20
32.3814760829615835
 10
-62.0447545912573446
 20
38.810498282961575
 10
-61.593198991257367
 20
38.2460536829615734
 10
-61.1980879912573528
 20
37.7944982829615839
 10
-61.1980879912573528
 20
33.2845870829615791
 10
-61.198087991257367
 20
28.7125870829615941
 10
-60.915865791257346
 20
28.3739204829615836
 10
-60.690087991257343
 20
28.0352536829615708
 10
-60.6336433912573227
 20
32.4943648829615768
 10
-60.6336433912573511
 20
37.0042760829615816
 10
-60.2385323912573369
 20
36.5527204829615897
 10
-59.8998657912573691
 20
36.0447204829615799
 10
-59.8998657912573265
 20
31.4783648829615892
 10
-59.8998657912573549
 20
26.9063648829615722
 10
-59.61764339125736
 20
26.4548092829615804
 10
-59.3354211912573533
 20
26.1161426829615841
 10
-59.3354211912573248
 20
30.7445870829615764
 10
-59.3354211912573533
 20
35.3109426829615671
 10
-58.9403101912573391
 20
34.8650314829615837
 10
-58.5451989912573652
 20
34.41347608296158
 10
-58.5451989912573652
 20
27.5836982829615813
 10
-58.5451989912573509
 20
20.8103648829615544
 10
-60.2949767912573407
 20
23.4068092829615786
 10
-60.2949767912573407
 20
23.4068092829615786
  0
ENDSEC
  0
SECTION
  2
OBJECTS
  0
DICTIONARY
  5
C
100
AcDbDictionary
280
0
281
1
  3
ACAD_GROUP
350
D
  3
ACAD_LAYOUT
350
1A
  3
ACAD_MLINESTYLE
350
17
  3
ACAD_PLOTSETTINGS
350
19
  3
ACAD_PLOTSTYLENAME
350
E
  3
AcDbVariableDictionary
350
EF
  0
DICTIONARY
  5
D
100
AcDbDictionary
280
0
281
1
  0
ACDBDICTIONARYWDFLT
  5
E
100
AcDbDictionary
281
1
  3
Normal
350
F
100
AcDbDictionaryWithDefault
340
F
  0
ACDBPLACEHOLDER
  5
F
  0
DICTIONARY
  5
17
100
AcDbDictionary
280
0
281
1
  3
Standard
350
18
  0
MLINESTYLE
  5
18
100
AcDbMlineStyle
  2
STANDARD
 70
0
  3

 62
256
 51
90.0
 52
90.0
 71
2
 49
0.5
 62
256
  6
BYLAYER
 49
-0.5
 62
256
  6
BYLAYER
  0
DICTIONARY
  5
19
100
AcDbDictionary
280
0
281
1
  0
DICTIONARY
  5
1A
100
AcDbDictionary
281
1
  3
Layout1
350
1E
  3
Layout2
350
26
  3
Model
350
22
  0
LAYOUT
  5
1E
100
AcDbPlotSettings
  1

  2
C:\Program Files\AutoCAD 2002\plotters\DWF ePlot (optimized for plotting).pc3
  4

  6

 40
0.0
 41
0.0
 42
0.0
 43
0.0
 44
0.0
 45
0.0
 46
0.0
 47
0.0
 48
0.0
 49
0.0
140
0.0
141
0.0
142
1.0
143
1.0
 70
688
 72
0
 73
0
 74
5
  7

 75
16
147
1.0
148
0.0
149
0.0
100
AcDbLayout
  1
Layout1
 70
1
 71
1
 10
0.0
 20
0.0
 11
420.0
 21
297.0
 12
0.0
 22
0.0
 32
0.0
 14
100000000000000000000.0
 24
100000000000000000000.0
 34
100000000000000000000.0
 15
-100000000000000000000.0
 25
-100000000000000000000.0
 35
-100000000000000000000.0
146
0.0
 13
0.0
 23
0.0
 33
0.0
 16
1.0
 26
0.0
 36
0.0
 17
0.0
 27
1.0
 37
0.0
 76
0
330
1B
  0
LAYOUT
  5
22
100
AcDbPlotSettings
  1

  2
C:\Program Files\AutoCAD 2002\plotters\DWF ePlot (optimized for plotting).pc3
  4

  6

 40
0.0
 41
0.0
 42
0.0
 43
0.0
 44
0.0
 45
0.0
 46
0.0
 47
0.0
 48
0.0
 49
0.0
140
0.0
141
0.0
142
1.0
143
1.0
 70
1712
 72
0
 73
0
 74
0
  7

 75
0
147
1.0
148
0.0
149
0.0
100
AcDbLayout
  1
Model
 70
1
 71
0
 10
0.0
 20
0.0
 11
12.0
 21
9.0
 12
0.0
 22
0.0
 32
0.0
 14
0.0
 24
0.0
 34
0.0
 15
0.0
 25
0.0
 35
0.0
146
0.0
 13
0.0
 23
0.0
 33
0.0
 16
1.0
 26
0.0
 36
0.0
 17
0.0
 27
1.0
 37
0.0
 76
0
330
1F
  0
LAYOUT
  5
26
100
AcDbPlotSettings
  1

  2
C:\Program Files\AutoCAD 2002\plotters\DWF ePlot (optimized for plotting).pc3
  4

  6

 40
0.0
 41
0.0
 42
0.0
 43
0.0
 44
0.0
 45
0.0
 46
0.0
 47
0.0
 48
0.0
 49
0.0
140
0.0
141
0.0
142
1.0
143
1.0
 70
688
 72
0
 73
0
 74
5
  7

 75
16
147
1.0
148
0.0
149
0.0
100
AcDbLayout
  1
Layout2
 70
1
 71
2
 10
0.0
 20
0.0
 11
12.0
 21
9.0
 12
0.0
 22
0.0
 32
0.0
 14
0.0
 24
0.0
 34
0.0
 15
0.0
 25
0.0
 35
0.0
146
0.0
 13
0.0
 23
0.0
 33
0.0
 16
1.0
 26
0.0
 36
0.0
 17
0.0
 27
1.0
 37
0.0
 76
0
330
23
  0
DICTIONARY
  5
EF
100
AcDbDictionary
281
1
  3
DIMASSOC
350
F1
  3
HIDETEXT
350
F0
  0
DICTIONARYVAR
  5
F0
100
DictionaryVariables
280
0
  1
2
  0
DICTIONARYVAR
  5
F1
100
DictionaryVariables
280
0
  1
1
  0
ENDSEC
  0
EOF
