999
dxflib 2.2.0.0
  0
SECTION
  2
HEADER
  9
$ACADVER
  1
AC1015
  9
$HANDSEED
  5
FFFF
  9
$USERR4
 40
0.0
  9
$DIMTDEC
 70
2
  9
$DIMTAD
 70
1
  9
$CMLSTYLE
  2
Standard
  9
$VISRETAIN
 70
1
  9
$TILEMODE
 70
1
  9
$SHADEDIF
 70
70
  9
$USERR5
 40
0.0
  9
$UCSYDIR
 10
0.0
 20
1.0
 30
0.0
  9
$CHAMFERA
 40
10.0
  9
$MENU
  1
.
  9
$DIMALTZ
 70
0
  9
$CLAYER
  8
0
  9
$DIMASZ
 40
6.0
  9
$GRIDUNIT
 10
0.1
 20
0.1
  9
$DIMADEC
 70
2
  9
$OLESTARTUP
290
0
  9
$UCSXDIR
 10
1.0
 20
0.0
 30
0.0
  9
$CHAMFERB
 40
10.0
  9
$DIMUPT
 70
0
  9
$TRACEWID
 40
1.0
  9
$REGENMODE
 70
1
  9
$ORTHOMODE
 70
0
  9
$EXTMIN
 10
23.2069412843999991
 20
-4.0636082974000001
 30
0.0
  9
$DIMGAP
 40
1.524
  9
$ENDCAPS
280
0
  9
$MEASUREMENT
 70
1
  9
$CMLJUST
 70
0
  9
$PUCSYDIR
 10
0.0
 20
1.0
 30
0.0
  9
$ANGBASE
 50
0.0
  9
$USRTIMER
 70
1
  9
$CHAMFERC
 40
20.0
  9
$SKETCHINC
 40
1.0
  9
$DIMTFAC
 40
1.0
  9
$DIMSAH
 70
0
  9
$DIMALT
 70
0
  9
$DIMSHO
 70
1
  9
$VERSIONGUID
  2
{FAEB1C32-E019-11D5-929B-00C0DF256EC4}
  9
$LWDISPLAY
290
1
  9
$PUCSXDIR
 10
1.0
 20
0.0
 30
0.0
  9
$SURFTYPE
 70
6
  9
$SPLFRAME
 70
0
  9
$CHAMFERD
 40
0.0
  9
$DIMALTRND
 40
0.0
  9
$DIMALTTD
 70
3
  9
$DIMTSZ
 40
0.0
  9
$LIMMIN
 10
0.0
 20
0.0
  9
$SPLINESEGS
 70
8
  9
$AUPREC
 70
2
  9
$LUNITS
 70
2
  9
$CELWEIGHT
370
-1
  9
$SURFTAB1
 70
6
  9
$DWGCODEPAGE
  3
ANSI_1252
  9
$PSTYLEMODE
290
1
  9
$UNITMODE
 70
0
  9
$USERI1
 70
0
  9
$UCSORTHOVIEW
 70
0
  9
$SURFTAB2
 70
6
  9
$TDUUPDATE
 40
2455903.4954400109127164
  9
$TDUCREATE
 40
2455903.4954400002025068
  9
$SKPOLY
 70
0
  9
$ELEVATION
 40
0.0
  9
$DIMDSEP
 70
44
  9
$DIMCEN
 40
2.5
  9
$DIMRND
 40
0.0
  9
$INSBASE
 10
0.0
 20
0.0
 30
0.0
  9
$DIMEXO
 40
1.0
  9
$INSUNITS
 70
4
  9
$USERI2
 70
0
  9
$UCSORGRIGHT
 10
0.0
 20
0.0
 30
0.0
  9
$UCSORG
 10
0.0
 20
0.0
 30
0.0
  9
$PELEVATION
 40
0.0
  9
$TEXTSIZE
 40
3.5
  9
$FILLMODE
 70
1
  9
$EXTMAX
 10
75.2085191761999994
 20
127.9363917026000053
 30
0.0
  9
$JOINSTYLE
280
0
  9
$USERI3
 70
0
  9
$PUCSORGBOTTOM
 10
0.0
 20
0.0
 30
0.0
  9
$SURFU
 70
6
  9
$ANGDIR
 70
0
  9
$TDUSRTIMER
 40
0.0000000116
  9
$DIMLWD
 70
-2
  9
$DIMTZIN
 70
0
  9
$DIMTOLJ
 70
0
  9
$DIMZIN
 70
0
  9
$DIMDLE
 40
0.0
  9
$DIMSCALE
 40
1.0
  9
$DIMLUNIT
 70
2
  9
$WORLDVIEW
 70
1
  9
$USERI4
 70
0
  9
$SURFV
 70
6
  9
$DIMLWE
 70
-2
  9
$DIMATFIT
 70
3
  9
$DIMALTTZ
 70
0
  9
$DIMJUST
 70
0
  9
$QTEXTMODE
 70
0
  9
$LIMMAX
 10
420.0
 20
297.0
  9
$ACADMAINTVER
 70
6
  9
$DIMTXT
 40
3.5
  9
$GRIDMODE
 70
1
  9
$EXTNAMES
290
1
  9
$PROXYGRAPHICS
 70
1
  9
$USERI5
 70
0
  9
$UCSORGTOP
 10
0.0
 20
0.0
 30
0.0
  9
$PDMODE
 70
0
  9
$LIMCHECK
 70
0
  9
$THICKNESS
 40
0.0
  9
$DIMAZIN
 70
0
  9
$DIMSE1
 70
0
  9
$DIMLIM
 70
0
  9
$ATTMODE
 70
1
  9
$LUPREC
 70
2
  9
$XEDIT
290
1
  9
$PEXTMAX
 10
-100000000000000000000.0
 20
-100000000000000000000.0
 30
-100000000000000000000.0
  9
$PEXTMIN
 10
100000000000000000000.0
 20
100000000000000000000.0
 30
100000000000000000000.0
  9
$PUCSORG
 10
0.0
 20
0.0
 30
0.0
  9
$SPLINETYPE
 70
6
  9
$TDINDWG
 40
0.0000000116
  9
$DIMSOXD
 70
0
  9
$DIMLFAC
 40
1.0
  9
$DIMSE2
 70
0
  9
$DIMTOH
 70
1
  9
$CELTYPE
  6
ByLayer
  9
$PSVPSCALE
 40
0.0
  9
$FINGERPRINTGUID
  2
{718AAE7D-AB7F-4760-B7AC-DC3FB8DF5049}
  9
$PLIMCHECK
 70
0
  9
$PUCSORGRIGHT
 10
0.0
 20
0.0
 30
0.0
  9
$PLINEWID
 40
0.0
  9
$DIMFRAC
 70
0
  9
$DIMSTYLE
  2
ISO-25
  9
$DIMTVP
 40
0.0
  9
$DIMASO
 70
1
  9
$DIMTM
 40
0.0
  9
$DIMDLI
 40
3.75
  9
$DISPSILH
 70
0
  9
$CECOLOR
 62
256
  9
$PLIMMAX
 10
420.0
 20
297.0
  9
$PLIMMIN
 10
0.0
 20
0.0
  9
$TREEDEPTH
 70
3020
  9
$MAXACTVP
 70
64
  9
$UCSORGBACK
 10
0.0
 20
0.0
 30
0.0
  9
$UCSORGLEFT
 10
0.0
 20
0.0
 30
0.0
  9
$TDUPDATE
 40
2455903.4954400109127164
  9
$FILLETRAD
 40
10.0
  9
$DIMALTU
 70
2
  9
$DIMDEC
 70
2
  9
$DIMCLRT
 70
0
  9
$DIMALTD
 70
3
  9
$DIMTIH
 70
1
  9
$LTSCALE
 40
1.0
  9
$DIMEXE
 40
1.0
  9
$CEPSNTYPE
380
0
  9
$CMLSCALE
 40
20.0
  9
$PINSBASE
 10
0.0
 20
0.0
 30
0.0
  9
$USERR1
 40
0.0
  9
$PUCSORTHOVIEW
 70
0
  9
$PDSIZE
 40
-1.0
  9
$DIMTXSTY
  7
Standard
  9
$DIMCLRD
 70
0
  9
$CELTSCALE
 40
1.0
  9
$DIMAUNIT
 70
0
  9
$PSLTSCALE
 70
1
  9
$PLINEGEN
 70
0
  9
$SHADEDGE
 70
3
  9
$USERR2
 40
0.0
  9
$PUCSORGTOP
 10
0.0
 20
0.0
 30
0.0
  9
$UCSORGFRONT
 10
0.0
 20
0.0
 30
0.0
  9
$TDCREATE
 40
2455903.4954400002025068
  9
$DIMTMOVE
 70
0
  9
$DIMSD1
 70
0
  9
$DIMCLRE
 70
0
  9
$DIMTOFL
 70
1
  9
$DIMALTF
 40
0.0393700787
  9
$DIMTOL
 70
0
  9
$DIMTP
 40
0.0
  9
$TEXTSTYLE
  7
Standard
  9
$AUNITS
 70
0
  9
$USERR3
 40
0.0
  9
$PUCSORGBACK
 10
0.0
 20
0.0
 30
0.0
  9
$PUCSORGFRONT
 10
0.0
 20
0.0
 30
0.0
  9
$PUCSORGLEFT
 10
0.0
 20
0.0
 30
0.0
  9
$UCSORGBOTTOM
 10
0.0
 20
0.0
 30
0.0
  9
$DIMSD2
 70
0
  9
$DIMTIX
 70
0
  9
$MIRRTEXT
 70
1
  0
ENDSEC
  0
SECTION
  2
TABLES
  0
TABLE
  2
VPORT
  5
8
100
AcDbSymbolTable
 70
1
  0
VPORT
  5
30
100
AcDbSymbolTableRecord
100
AcDbViewportTableRecord
  2
*Active
 70
0
 10
0.0
 20
0.0
 11
1.0
 21
1.0
 12
286.3055555555554861
 22
148.5
 13
0.0
 23
0.0
 14
10.0
 24
10.0
 15
10.0
 25
10.0
 16
0.0
 26
0.0
 36
1.0
 17
0.0
 27
0.0
 37
0.0
 40
297.0
 41
1.92798353909465
 42
50.0
 43
0.0
 44
0.0
 50
0.0
 51
0.0
 71
0
 72
100
 73
1
 74
3
 75
1
 76
1
 77
0
 78
0
281
0
 65
1
110
0.0
120
0.0
130
0.0
111
1.0
121
0.0
131
0.0
112
0.0
122
1.0
132
0.0
 79
0
146
0.0
  0
ENDTAB
  0
TABLE
  2
LTYPE
  5
5
100
AcDbSymbolTable
 70
21
  0
LTYPE
  5
14
100
AcDbSymbolTableRecord
100
AcDbLinetypeTableRecord
  2
ByBlock
 70
0
  3

 72
65
 73
0
 40
0.0
  0
LTYPE
  5
15
100
AcDbSymbolTableRecord
100
AcDbLinetypeTableRecord
  2
ByLayer
 70
0
  3

 72
65
 73
0
 40
0.0
  0
LTYPE
  5
16
100
AcDbSymbolTableRecord
100
AcDbLinetypeTableRecord
  2
CONTINUOUS
 70
0
  3
Solid line
 72
65
 73
0
 40
0.0
  0
LTYPE
  5
31
100
AcDbSymbolTableRecord
100
AcDbLinetypeTableRecord
  2
DOT
 70
0
  3
Dot . . . . . . . . . . . . . . . . . . . . . .
 72
65
 73
2
 40
6.3499999999999996
 49
0.0
 74
0
 49
-6.3499999999999996
 74
0
  0
LTYPE
  5
32
100
AcDbSymbolTableRecord
100
AcDbLinetypeTableRecord
  2
DOT2
 70
0
  3
Dot (.5x) .....................................
 72
65
 73
2
 40
3.1749999999999998
 49
0.0
 74
0
 49
-3.1749999999999998
 74
0
  0
LTYPE
  5
33
100
AcDbSymbolTableRecord
100
AcDbLinetypeTableRecord
  2
DOTX2
 70
0
  3
Dot (2x) .  .  .  .  .  .  .  .  .  .  .  .  .
 72
65
 73
2
 40
12.6999999999999993
 49
0.0
 74
0
 49
-12.6999999999999993
 74
0
  0
LTYPE
  5
34
100
AcDbSymbolTableRecord
100
AcDbLinetypeTableRecord
  2
DASHED
 70
0
  3
Dashed __ __ __ __ __ __ __ __ __ __ __ __ __ _
 72
65
 73
2
 40
19.0500000000000007
 49
12.6999999999999993
 74
0
 49
-6.3499999999999996
 74
0
  0
LTYPE
  5
35
100
AcDbSymbolTableRecord
100
AcDbLinetypeTableRecord
  2
DASHED2
 70
0
  3
Dashed (.5x) _ _ _ _ _ _ _ _ _ _ _ _ _ _ _ _ _
 72
65
 73
2
 40
9.5250000000000004
 49
6.3499999999999996
 74
0
 49
-3.1749999999999998
 74
0
  0
LTYPE
  5
36
100
AcDbSymbolTableRecord
100
AcDbLinetypeTableRecord
  2
DASHEDX2
 70
0
  3
Dashed (2x) ____  ____  ____  ____  ____  ___
 72
65
 73
2
 40
38.1000000000000014
 49
25.3999999999999986
 74
0
 49
-12.6999999999999993
 74
0
  0
LTYPE
  5
37
100
AcDbSymbolTableRecord
100
AcDbLinetypeTableRecord
  2
DASHDOT
 70
0
  3
Dash dot __ . __ . __ . __ . __ . __ . __ . __
 72
65
 73
4
 40
25.3999999999999986
 49
12.6999999999999993
 74
0
 49
-6.3499999999999996
 74
0
 49
0.0
 74
0
 49
-6.3499999999999996
 74
0
  0
LTYPE
  5
38
100
AcDbSymbolTableRecord
100
AcDbLinetypeTableRecord
  2
DASHDOT2
 70
0
  3
Dash dot (.5x) _._._._._._._._._._._._._._._.
 72
65
 73
4
 40
12.6999999999999993
 49
6.3499999999999996
 74
0
 49
-3.1749999999999998
 74
0
 49
0.0
 74
0
 49
-3.1749999999999998
 74
0
  0
LTYPE
  5
39
100
AcDbSymbolTableRecord
100
AcDbLinetypeTableRecord
  2
DASHDOTX2
 70
0
  3
Dash dot (2x) ____  .  ____  .  ____  .  ___
 72
65
 73
4
 40
50.7999999999999972
 49
25.3999999999999986
 74
0
 49
-12.6999999999999993
 74
0
 49
0.0
 74
0
 49
-12.6999999999999993
 74
0
  0
LTYPE
  5
3A
100
AcDbSymbolTableRecord
100
AcDbLinetypeTableRecord
  2
DIVIDE
 70
0
  3
Divide ____ . . ____ . . ____ . . ____ . . ____
 72
65
 73
6
 40
31.75
 49
12.6999999999999993
 74
0
 49
-6.3499999999999996
 74
0
 49
0.0
 74
0
 49
-6.3499999999999996
 74
0
 49
0.0
 74
0
 49
-6.3499999999999996
 74
0
  0
LTYPE
  5
3B
100
AcDbSymbolTableRecord
100
AcDbLinetypeTableRecord
  2
DIVIDE2
 70
0
  3
Divide (.5x) __..__..__..__..__..__..__..__.._
 72
65
 73
6
 40
15.875
 49
6.3499999999999996
 74
0
 49
-3.1749999999999998
 74
0
 49
0.0
 74
0
 49
-3.1749999999999998
 74
0
 49
0.0
 74
0
 49
-3.1749999999999998
 74
0
  0
LTYPE
  5
3C
100
AcDbSymbolTableRecord
100
AcDbLinetypeTableRecord
  2
DIVIDEX2
 70
0
  3
Divide (2x) ________  .  .  ________  .  .  _
 72
65
 73
6
 40
63.5
 49
25.3999999999999986
 74
0
 49
-12.6999999999999993
 74
0
 49
0.0
 74
0
 49
-12.6999999999999993
 74
0
 49
0.0
 74
0
 49
-12.6999999999999993
 74
0
  0
LTYPE
  5
3D
100
AcDbSymbolTableRecord
100
AcDbLinetypeTableRecord
  2
CENTER
 70
0
  3
Center ____ _ ____ _ ____ _ ____ _ ____ _ ____
 72
65
 73
4
 40
50.7999999999999972
 49
31.75
 74
0
 49
-6.3499999999999996
 74
0
 49
6.3499999999999996
 74
0
 49
-6.3499999999999996
 74
0
  0
LTYPE
  5
3E
100
AcDbSymbolTableRecord
100
AcDbLinetypeTableRecord
  2
CENTER2
 70
0
  3
Center (.5x) ___ _ ___ _ ___ _ ___ _ ___ _ ___
 72
65
 73
4
 40
28.5749999999999993
 49
19.0500000000000007
 74
0
 49
-3.1749999999999998
 74
0
 49
3.1749999999999998
 74
0
 49
-3.1749999999999998
 74
0
  0
LTYPE
  5
3F
100
AcDbSymbolTableRecord
100
AcDbLinetypeTableRecord
  2
CENTERX2
 70
0
  3
Center (2x) ________  __  ________  __  _____
 72
65
 73
4
 40
101.5999999999999943
 49
63.5
 74
0
 49
-12.6999999999999993
 74
0
 49
12.6999999999999993
 74
0
 49
-12.6999999999999993
 74
0
  0
LTYPE
  5
40
100
AcDbSymbolTableRecord
100
AcDbLinetypeTableRecord
  2
BORDER
 70
0
  3
Border __ __ . __ __ . __ __ . __ __ . __ __ .
 72
65
 73
6
 40
44.4500000000000028
 49
12.6999999999999993
 74
0
 49
-6.3499999999999996
 74
0
 49
12.6999999999999993
 74
0
 49
-6.3499999999999996
 74
0
 49
0.0
 74
0
 49
-6.3499999999999996
 74
0
  0
LTYPE
  5
41
100
AcDbSymbolTableRecord
100
AcDbLinetypeTableRecord
  2
BORDER2
 70
0
  3
Border (.5x) __.__.__.__.__.__.__.__.__.__.__.
 72
65
 73
6
 40
22.2250000000000014
 49
6.3499999999999996
 74
0
 49
-3.1749999999999998
 74
0
 49
6.3499999999999996
 74
0
 49
-3.1749999999999998
 74
0
 49
0.0
 74
0
 49
-3.1749999999999998
 74
0
  0
LTYPE
  5
42
100
AcDbSymbolTableRecord
100
AcDbLinetypeTableRecord
  2
BORDERX2
 70
0
  3
Border (2x) ____  ____  .  ____  ____  .  ___
 72
65
 73
6
 40
88.9000000000000057
 49
25.3999999999999986
 74
0
 49
-12.6999999999999993
 74
0
 49
25.3999999999999986
 74
0
 49
-12.6999999999999993
 74
0
 49
0.0
 74
0
 49
-12.6999999999999993
 74
0
  0
ENDTAB
  0
TABLE
  2
LAYER
  5
2
100
AcDbSymbolTable
 70
1
  0
LAYER
  5
10
100
AcDbSymbolTableRecord
100
AcDbLayerTableRecord
  2
0
 70
0
 62
7
  6
CONTINUOUS
370
-3
390
F
  0
ENDTAB
  0
TABLE
  2
STYLE
  5
3
100
AcDbSymbolTable
 70
1
  0
STYLE
  5
11
100
AcDbSymbolTableRecord
100
AcDbTextStyleTableRecord
  2
Standard
 70
0
 40
0.0
 41
0.75
 50
0.0
 71
0
 42
2.5
  3
txt
  4

  0
ENDTAB
  0
TABLE
  2
VIEW
  5
6
100
AcDbSymbolTable
 70
0
  0
ENDTAB
  0
TABLE
  2
UCS
  5
7
100
AcDbSymbolTable
 70
0
  0
ENDTAB
  0
TABLE
  2
APPID
  5
9
100
AcDbSymbolTable
 70
1
  0
APPID
  5
12
100
AcDbSymbolTableRecord
100
AcDbRegAppTableRecord
  2
ACAD
 70
0
  0
ENDTAB
  0
TABLE
  2
DIMSTYLE
  5
A
100
AcDbSymbolTable
 70
1
100
AcDbDimStyleTable
 71
0
  0
DIMSTYLE
105
27
100
AcDbSymbolTableRecord
100
AcDbDimStyleTableRecord
  2
Standard
 41
6.0
 42
1.0
 43
3.75
 44
1.0
 70
0
 73
0
 74
0
 77
1
 78
8
140
3.5
141
2.5
143
0.03937007874016
147
1.524
171
3
172
1
271
2
272
2
274
3
278
44
283
0
284
8
340
11
  0
ENDTAB
  0
TABLE
  2
BLOCK_RECORD
  5
1
100
AcDbSymbolTable
 70
1
  0
BLOCK_RECORD
  5
1F
100
AcDbSymbolTableRecord
100
AcDbBlockTableRecord
  2
*Model_Space
340
22
  0
BLOCK_RECORD
  5
1B
100
AcDbSymbolTableRecord
100
AcDbBlockTableRecord
  2
*Paper_Space
340
1E
  0
BLOCK_RECORD
  5
23
100
AcDbSymbolTableRecord
100
AcDbBlockTableRecord
  2
*Paper_Space0
340
26
  0
ENDTAB
  0
ENDSEC
  0
SECTION
  2
BLOCKS
  0
BLOCK
  5
20
100
AcDbEntity
  8
0
100
AcDbBlockBegin
  2
*Model_Space
 70
0
 10
0.0
 20
0.0
 30
0.0
  3
*Model_Space
  1

  0
ENDBLK
  5
21
100
AcDbEntity
  8
0
100
AcDbBlockEnd
  0
BLOCK
  5
1C
100
AcDbEntity
 67
1
  8
0
100
AcDbBlockBegin
  2
*Paper_Space
 70
0
 10
0.0
 20
0.0
 30
0.0
  3
*Paper_Space
  1

  0
ENDBLK
  5
1D
100
AcDbEntity
 67
1
  8
0
100
AcDbBlockEnd
  0
BLOCK
  5
24
100
AcDbEntity
  8
0
100
AcDbBlockBegin
  2
*Paper_Space0
 70
0
 10
0.0
 20
0.0
 30
0.0
  3
*Paper_Space0
  1

  0
ENDBLK
  5
25
100
AcDbEntity
  8
0
100
AcDbBlockEnd
  0
ENDSEC
  0
SECTION
  2
ENTITIES
  0
CIRCLE
  5
43
100
AcDbEntity
100
AcDbCircle
  8
0
 62
7
370
15
  6
CONTINUOUS
 10
68.207730230300001
 20
53.9363917025999982
 30
0.0
 40
1.5999999999999941
  0
CIRCLE
  5
44
100
AcDbEntity
100
AcDbCircle
  8
0
 62
7
370
15
  6
CONTINUOUS
 10
27.2069412843999991
 20
122.9363917026000053
 30
0.0
 40
1.6000000000000121
  0
CIRCLE
  5
45
100
AcDbEntity
100
AcDbCircle
  8
0
 62
7
370
15
  6
CONTINUOUS
 10
30.207730230300001
 20
53.9363917025999982
 30
0.0
 40
1.600000000000005
  0
CIRCLE
  5
46
100
AcDbEntity
100
AcDbCircle
  8
0
 62
7
370
15
  6
CONTINUOUS
 10
71.2085191761999994
 20
122.9363917026000053
 30
0.0
 40
1.600000000000009
  0
LINE
  5
47
100
AcDbEntity
100
AcDbLine
  8
0
 62
7
370
15
  6
CONTINUOUS
 10
26.2069412843999991
 20
-4.0636082974000001
 30
0.0
 11
72.2085191761999994
 21
-4.0636082974000001
 31
0.0
  0
LINE
  5
48
100
AcDbEntity
100
AcDbLine
  8
0
 62
7
370
15
  6
CONTINUOUS
 10
23.2069412843999991
 20
124.9363917026000053
 30
0.0
 11
23.2069412843999991
 21
-1.0636082974000001
 31
0.0
  0
LINE
  5
49
100
AcDbEntity
100
AcDbLine
  8
0
 62
7
370
15
  6
CONTINUOUS
 10
72.2085191761999994
 20
127.9363917026000053
 30
0.0
 11
26.2069412843999991
 21
127.9363917026000053
 31
0.0
  0
LINE
  5
4A
100
AcDbEntity
100
AcDbLine
  8
0
 62
7
370
15
  6
CONTINUOUS
 10
75.2085191761999994
 20
-1.0636082974000001
 30
0.0
 11
75.2085191761999994
 21
124.9363917026000053
 31
0.0
  0
ARC
  5
4B
100
AcDbEntity
  8
0
 62
7
370
15
  6
CONTINUOUS
100
AcDbCircle
 10
26.2069412843999991
 20
-1.0636082974000001
 30
0.0
 40
3.0000000000000249
100
AcDbArc
 50
180.0
 51
270.0
  0
ARC
  5
4C
100
AcDbEntity
  8
0
 62
7
370
15
  6
CONTINUOUS
100
AcDbCircle
 10
26.2069412843999991
 20
124.9363917026000053
 30
0.0
 40
3.0000000000000142
100
AcDbArc
 50
90.0
 51
180.0
  0
ARC
  5
4D
100
AcDbEntity
  8
0
 62
7
370
15
  6
CONTINUOUS
100
AcDbCircle
 10
72.2085191761999994
 20
124.9363917026000053
 30
0.0
 40
3.0000000000000431
100
AcDbArc
 50
0.0
 51
90.0
  0
ARC
  5
4E
100
AcDbEntity
  8
0
 62
7
370
15
  6
CONTINUOUS
100
AcDbCircle
 10
72.2085191761999994
 20
-1.0636082974000001
 30
0.0
 40
3.0
100
AcDbArc
 50
270.0
 51
0.0
  0
CIRCLE
  5
4F
100
AcDbEntity
100
AcDbCircle
  8
0
 62
7
370
15
  6
CONTINUOUS
 10
27.2069412844000027
 20
0.9363917026000053
 30
0.0
 40
1.6499999999999631
  0
CIRCLE
  5
50
100
AcDbEntity
100
AcDbCircle
  8
0
 62
7
370
15
  6
CONTINUOUS
 10
71.2069412844000311
 20
0.9363917026000053
 30
0.0
 40
1.6500000000000019
  0
LINE
  5
51
100
AcDbEntity
100
AcDbLine
  8
0
 62
7
370
15
  6
CONTINUOUS
 10
41.2066193982000328
 20
-0.3136082974000374
 30
0.0
 11
57.2072631706000294
 21
-0.3136082973999805
 31
0.0
  0
ARC
  5
52
100
AcDbEntity
  8
0
 62
7
370
15
  6
CONTINUOUS
100
AcDbCircle
 10
49.2069412844000453
 20
24.364050946500015
 30
0.0
 40
15.0000000000000409
100
AcDbArc
 50
256.719166772899996
 51
283.280833227100004
  0
ARC
  5
53
100
AcDbEntity
  8
0
 62
7
370
15
  6
CONTINUOUS
100
AcDbCircle
 10
57.2072631706000294
 20
-4.3136082973999947
 30
0.0
 40
4.0000000000000071
100
AcDbArc
 50
26.8069862696999976
 51
90.0
  0
ARC
  5
54
100
AcDbEntity
  8
0
 62
7
370
15
  6
CONTINUOUS
100
AcDbCircle
 10
41.2066193982000328
 20
-4.313608297400009
 30
0.0
 40
3.999999999999992
100
AcDbArc
 50
90.0
 51
153.1930137303000095
  0
LINE
  5
55
100
AcDbEntity
100
AcDbLine
  8
0
 62
7
370
15
  6
CONTINUOUS
 10
36.8513038671692641
 20
-4.0636082974000001
 30
0.0
 11
37.6364960591000255
 21
-2.5096628039000137
 31
0.0
  0
LINE
  5
56
100
AcDbEntity
100
AcDbLine
  8
0
 62
7
370
15
  6
CONTINUOUS
 10
60.7773865097000225
 20
-2.5096628038999995
 30
0.0
 11
61.562578701630791
 21
-4.0636082974000001
 31
0.0
  0
LINE
  5
57
100
AcDbEntity
100
AcDbLine
  8
0
 62
7
370
15
  6
CONTINUOUS
 10
23.2069412843999991
 20
15.0888206087187324
 30
0.0
 11
45.7610786846000366
 21
9.7652143167000389
 31
0.0
  0
LINE
  5
58
100
AcDbEntity
100
AcDbLine
  8
0
 62
7
370
15
  6
CONTINUOUS
 10
52.6528038842000257
 20
9.7652143166999963
 30
0.0
 11
75.2085191761999994
 21
15.0891930492410431
 31
0.0
  0
CIRCLE
  5
59
100
AcDbEntity
100
AcDbCircle
  8
0
 62
7
370
15
  6
CONTINUOUS
 10
27.2069412843999991
 20
122.9363917026000053
 30
0.0
 40
1.4839945274435671
  0
CIRCLE
  5
5A
100
AcDbEntity
100
AcDbCircle
  8
0
 62
7
370
15
  6
CONTINUOUS
 10
71.2069412844000027
 20
122.9363917026000337
 30
0.0
 40
1.48399452744356
  0
LINE
  5
5B
100
AcDbEntity
100
AcDbLine
  8
0
 62
7
370
15
  6
CONTINUOUS
 10
44.1096449290999999
 20
126.4700625114000019
 30
0.0
 11
52.8586521719000046
 21
128.0127485427000522
 31
0.0
  0
LINE
  5
5C
100
AcDbEntity
100
AcDbLine
  8
0
 62
7
370
15
  6
CONTINUOUS
 10
42.4569412844000027
 20
124.5004470054000336
 30
0.0
 11
42.4569412844000027
 21
107.6863917026000337
 31
0.0
  0
LINE
  5
5D
100
AcDbEntity
100
AcDbLine
  8
0
 62
7
370
15
  6
CONTINUOUS
 10
42.4569412844000027
 20
107.6863917026000337
 30
0.0
 11
55.9569412843999885
 21
107.6863917026000479
 31
0.0
  0
LINE
  5
5E
100
AcDbEntity
100
AcDbLine
  8
0
 62
7
370
15
  6
CONTINUOUS
 10
54.3042376397000055
 20
125.7290777339000556
 30
0.0
 11
45.5552303969000008
 21
124.1863917026000195
 31
0.0
  0
LINE
  5
5F
100
AcDbEntity
100
AcDbLine
  8
0
 62
7
370
15
  6
CONTINUOUS
 10
55.9569412844000027
 20
128.0127485427000238
 30
0.0
 11
55.9569412844000027
 21
127.6986932399000523
 31
0.0
  0
LINE
  5
60
100
AcDbEntity
100
AcDbLine
  8
0
 62
7
370
15
  6
CONTINUOUS
 10
45.5552303969000008
 20
124.1863917026000195
 30
0.0
 11
55.9569412844000027
 21
124.1863917026000337
 31
0.0
  0
LINE
  5
61
100
AcDbEntity
100
AcDbLine
  8
0
 62
7
370
15
  6
CONTINUOUS
 10
69.0388201285000065
 20
119.57495590030004
 30
0.0
 11
55.9569412844000027
 21
128.0127485427000238
 31
0.0
  0
LINE
  5
62
100
AcDbEntity
100
AcDbLine
  8
0
 62
7
370
15
  6
CONTINUOUS
 10
55.9569412844000027
 20
124.1863917026000337
 30
0.0
 11
55.9569412843999885
 21
107.6863917026000479
 31
0.0
  0
LINE
  5
63
100
AcDbEntity
100
AcDbLine
  8
0
 62
7
370
15
  6
CONTINUOUS
 10
42.4569412844000027
 20
128.0127485427000238
 30
0.0
 11
29.3750624402999954
 21
119.57495590030004
 31
0.0
  0
ARC
  5
64
100
AcDbEntity
  8
0
 62
7
370
15
  6
CONTINUOUS
100
AcDbCircle
 10
44.4569412844000027
 20
124.5004470054000478
 30
0.0
 40
2.0000000000000009
100
AcDbArc
 50
99.9999999999999716
 51
180.0
  0
ARC
  5
65
100
AcDbEntity
  8
0
 62
7
370
15
  6
CONTINUOUS
100
AcDbCircle
 10
53.9569412844000027
 20
127.6986932399000381
 30
0.0
 40
2.0000000000000009
100
AcDbArc
 50
280.0
 51
360.0
  0
ARC
  5
66
100
AcDbEntity
  8
0
 62
7
370
15
  6
CONTINUOUS
100
AcDbCircle
 10
27.2069412843999991
 20
122.9363917026000053
 30
0.0
 40
4.0
100
AcDbArc
 50
122.8219566534000222
 51
302.8219566534000364
  0
ARC
  5
67
100
AcDbEntity
  8
0
 62
7
370
15
  6
CONTINUOUS
100
AcDbCircle
 10
71.2069412844000027
 20
122.9363917026000337
 30
0.0
 40
4.0000000000000027
100
AcDbArc
 50
237.178043346599992
 51
57.1780433465999707
  0
LINE
  5
68
100
AcDbEntity
100
AcDbLine
  8
0
 62
7
370
15
  6
CONTINUOUS
 10
25.0388201285000029
 20
126.2978275049000416
 30
0.0
 11
27.5792355215740912
 21
127.9363917026000053
 31
0.0
  0
LINE
  5
69
100
AcDbEntity
100
AcDbLine
  8
0
 62
7
370
15
  6
CONTINUOUS
 10
70.8346470472259284
 20
127.9363917026000053
 30
0.0
 11
73.3750624402999989
 21
126.2978275049000416
 31
0.0
  0
CIRCLE
  5
6A
100
AcDbEntity
100
AcDbCircle
  8
0
 62
7
370
15
  6
CONTINUOUS
 10
68.207730230300001
 20
37.9363917025999982
 30
0.0
 40
1.5999999999999941
  0
CIRCLE
  5
6B
100
AcDbEntity
100
AcDbCircle
  8
0
 62
7
370
15
  6
CONTINUOUS
 10
30.207730230300001
 20
37.9363917025999982
 30
0.0
 40
1.600000000000005
  0
LINE
  5
6C
100
AcDbEntity
100
AcDbLine
  8
0
 62
256
370
-1
  6
ByLayer
 10
25.0
 20
33.0
 30
0.0
 11
35.0
 21
33.0
 31
0.0
  0
LINE
  5
6D
100
AcDbEntity
100
AcDbLine
  8
0
 62
256
370
-1
  6
ByLayer
 10
35.0
 20
33.0
 30
0.0
 11
35.0
 21
59.0
 31
0.0
  0
LINE
  5
6E
100
AcDbEntity
100
AcDbLine
  8
0
 62
256
370
-1
  6
ByLayer
 10
35.0
 20
59.0
 30
0.0
 11
25.0
 21
59.0
 31
0.0
  0
LINE
  5
6F
100
AcDbEntity
100
AcDbLine
  8
0
 62
256
370
-1
  6
ByLayer
 10
25.0
 20
59.0
 30
0.0
 11
25.0
 21
33.0
 31
0.0
  0
LINE
  5
70
100
AcDbEntity
100
AcDbLine
  8
0
 62
256
370
-1
  6
ByLayer
 10
63.0
 20
33.0
 30
0.0
 11
73.0
 21
33.0
 31
0.0
  0
LINE
  5
71
100
AcDbEntity
100
AcDbLine
  8
0
 62
256
370
-1
  6
ByLayer
 10
73.0
 20
33.0
 30
0.0
 11
73.0
 21
59.0
 31
0.0
  0
LINE
  5
72
100
AcDbEntity
100
AcDbLine
  8
0
 62
256
370
-1
  6
ByLayer
 10
73.0
 20
59.0
 30
0.0
 11
63.0
 21
59.0
 31
0.0
  0
LINE
  5
73
100
AcDbEntity
100
AcDbLine
  8
0
 62
256
370
-1
  6
ByLayer
 10
63.0
 20
59.0
 30
0.0
 11
63.0
 21
33.0
 31
0.0
  0
LINE
  5
74
100
AcDbEntity
100
AcDbLine
  8
0
 62
256
370
-1
  6
ByLayer
 10
38.296995708155066
 20
46.9081545064384571
 30
0.0
 11
38.9636623748217303
 21
46.0192653953273449
 31
0.0
  0
LINE
  5
75
100
AcDbEntity
100
AcDbLine
  8
0
 62
256
370
-1
  6
ByLayer
 10
38.9636623748217303
 20
46.0192653953273449
 30
0.0
 11
38.9636623748217303
 21
44.9081542840830394
 31
0.0
  0
LINE
  5
76
100
AcDbEntity
100
AcDbLine
  8
0
 62
256
370
-1
  6
ByLayer
 10
38.9636623748217303
 20
46.0192653953273449
 30
0.0
 11
39.6303290414884017
 21
46.9081545064384571
 31
0.0
  0
LINE
  5
77
100
AcDbEntity
100
AcDbLine
  8
0
 62
256
370
-1
  6
ByLayer
 10
41.7969734859328454
 20
44.9081542842162378
 30
0.0
 11
41.7969734859328454
 21
46.9081545064384571
 31
0.0
  0
LINE
  5
78
100
AcDbEntity
100
AcDbLine
  8
0
 62
256
370
-1
  6
ByLayer
 10
41.7969734859328454
 20
46.9081545064384571
 30
0.0
 11
42.3525290414883955
 21
46.9081545064384571
 31
0.0
  0
LINE
  5
79
100
AcDbEntity
100
AcDbLine
  8
0
 62
256
370
-1
  6
ByLayer
 10
41.7969734859328454
 20
46.0192653953273449
 30
0.0
 11
42.3747734859328418
 21
46.0192653953273449
 31
0.0
  0
LINE
  5
7A
100
AcDbEntity
100
AcDbLine
  8
0
 62
256
370
-1
  6
ByLayer
 10
42.9080845970439526
 20
45.4859320619940135
 30
0.0
 11
42.9080845970439526
 21
45.4414873953273499
 31
0.0
  0
LINE
  5
7B
100
AcDbEntity
100
AcDbLine
  8
0
 62
256
370
-1
  6
ByLayer
 10
42.3747734859328418
 20
44.9081542842517578
 30
0.0
 11
41.7969734859328454
 21
44.9081542842162378
 31
0.0
  0
ARC
  5
7C
100
AcDbEntity
  8
0
 62
256
370
-1
  6
ByLayer
100
AcDbCircle
 10
42.3525290414883955
 20
46.4637100619940142
 30
0.0
 40
0.4444444444444444
100
AcDbArc
 50
270.0
 51
90.0
  0
ARC
  5
7D
100
AcDbEntity
  8
0
 62
256
370
-1
  6
ByLayer
100
AcDbCircle
 10
42.3747734859328418
 20
45.4859320619940135
 30
0.0
 40
0.5333333333333333
100
AcDbArc
 50
0.0
 51
90.0
  0
ARC
  5
7E
100
AcDbEntity
  8
0
 62
256
370
-1
  6
ByLayer
100
AcDbCircle
 10
42.3747734859328418
 20
45.4414873953273499
 30
0.0
 40
0.5333333333333333
100
AcDbArc
 50
270.0
 51
0.0
  0
LINE
  5
7F
100
AcDbEntity
100
AcDbLine
  8
0
 62
256
370
-1
  6
ByLayer
 10
44.4636401525995097
 20
46.9081545064384571
 30
0.0
 11
43.5747734859328446
 21
46.9081545064384571
 31
0.0
  0
LINE
  5
80
100
AcDbEntity
100
AcDbLine
  8
0
 62
256
370
-1
  6
ByLayer
 10
43.5747734859328446
 20
46.9081545064384571
 30
0.0
 11
43.5747737081550639
 21
44.9081545064384571
 31
0.0
  0
LINE
  5
81
100
AcDbEntity
100
AcDbLine
  8
0
 62
256
370
-1
  6
ByLayer
 10
43.5747737081550639
 20
44.9081545064384571
 30
0.0
 11
44.4636401525995097
 21
44.9081542844093633
 31
0.0
  0
LINE
  5
82
100
AcDbEntity
100
AcDbLine
  8
0
 62
256
370
-1
  6
ByLayer
 10
43.5747734859328446
 20
46.0192653953273449
 30
0.0
 11
44.2414179303772883
 21
46.0192653953273449
 31
0.0
  0
LINE
  5
83
100
AcDbEntity
100
AcDbLine
  8
0
 62
256
370
-1
  6
ByLayer
 10
45.1302845970439535
 20
46.90815450643845
 30
0.0
 11
45.1302845970439535
 21
44.9081542842162307
 31
0.0
  0
LINE
  5
84
100
AcDbEntity
100
AcDbLine
  8
0
 62
256
370
-1
  6
ByLayer
 10
45.1302845970439535
 20
44.9081542842162307
 30
0.0
 11
46.0191734859328392
 21
44.9081542844093562
 31
0.0
  0
LINE
  5
85
100
AcDbEntity
100
AcDbLine
  8
0
 62
256
370
-1
  6
ByLayer
 10
46.68581793037729
 20
46.9081545064384571
 30
0.0
 11
48.0191957081550669
 21
46.9081545064384571
 31
0.0
  0
LINE
  5
86
100
AcDbEntity
100
AcDbLine
  8
0
 62
256
370
-1
  6
ByLayer
 10
47.3524845970439543
 20
46.9081545064384571
 30
0.0
 11
47.3524845970439543
 21
44.9081542840904504
 31
0.0
  0
LINE
  5
87
100
AcDbEntity
100
AcDbLine
  8
0
 62
256
370
-1
  6
ByLayer
 10
51.0747290414883963
 20
46.9081545064384571
 30
0.0
 11
50.6302845970439535
 21
46.9081545064384571
 31
0.0
  0
LINE
  5
88
100
AcDbEntity
100
AcDbLine
  8
0
 62
256
370
-1
  6
ByLayer
 10
50.1858401525995106
 20
46.4637100619940142
 30
0.0
 11
50.1858401525995106
 21
45.3525989508828999
 31
0.0
  0
LINE
  5
89
100
AcDbEntity
100
AcDbLine
  8
0
 62
256
370
-1
  6
ByLayer
 10
50.6302845970439535
 20
44.908154284217467
 30
0.0
 11
51.0747290414883963
 21
44.9081542844093633
 31
0.0
  0
ARC
  5
8A
100
AcDbEntity
  8
0
 62
256
370
-1
  6
ByLayer
100
AcDbCircle
 10
50.6302845970439535
 20
46.4637100619940142
 30
0.0
 40
0.4444444444444444
100
AcDbArc
 50
90.0
 51
180.0
  0
ARC
  5
8B
100
AcDbEntity
  8
0
 62
256
370
-1
  6
ByLayer
100
AcDbCircle
 10
50.6302845970439535
 20
45.3525989508828999
 30
0.0
 40
0.4444444444444444
100
AcDbArc
 50
180.0
 51
270.0
  0
LINE
  5
8C
100
AcDbEntity
100
AcDbLine
  8
0
 62
256
370
-1
  6
ByLayer
 10
51.74137348593284
 20
46.9081545064384429
 30
0.0
 11
51.74137348593284
 21
44.9081542842162236
 31
0.0
  0
LINE
  5
8D
100
AcDbEntity
100
AcDbLine
  8
0
 62
256
370
-1
  6
ByLayer
 10
51.74137348593284
 20
44.9081542842162236
 30
0.0
 11
52.6302623748217258
 21
44.9081542844093491
 31
0.0
  0
LINE
  5
8E
100
AcDbEntity
100
AcDbLine
  8
0
 62
256
370
-1
  6
ByLayer
 10
53.2969068192661766
 20
44.9081542842162378
 30
0.0
 11
53.9635512637106203
 21
46.9081545064384571
 31
0.0
  0
LINE
  5
8F
100
AcDbEntity
100
AcDbLine
  8
0
 62
256
370
-1
  6
ByLayer
 10
53.9635512637106203
 20
46.9081545064384571
 30
0.0
 11
54.6302845970439535
 21
44.9081542851916922
 31
0.0
  0
LINE
  5
90
100
AcDbEntity
100
AcDbLine
  8
0
 62
256
370
-1
  6
ByLayer
 10
53.4821068192661784
 20
45.4637100619940142
 30
0.0
 11
54.4450623748217311
 21
45.4637100619940142
 31
0.0
  0
LINE
  5
91
100
AcDbEntity
100
AcDbLine
  8
0
 62
256
370
-1
  6
ByLayer
 10
55.2969290414883901
 20
44.9081542842162449
 30
0.0
 11
55.2969290414883901
 21
46.9081545064384642
 31
0.0
  0
LINE
  5
92
100
AcDbEntity
100
AcDbLine
  8
0
 62
256
370
-1
  6
ByLayer
 10
55.2969290414883901
 20
46.9081545064384642
 30
0.0
 11
55.9635957081550544
 21
45.7970433953273499
 31
0.0
  0
LINE
  5
93
100
AcDbEntity
100
AcDbLine
  8
0
 62
256
370
-1
  6
ByLayer
 10
55.9635957081550544
 20
45.7970433953273499
 30
0.0
 11
56.6302623748217187
 21
46.9081545064384642
 31
0.0
  0
LINE
  5
94
100
AcDbEntity
100
AcDbLine
  8
0
 62
256
370
-1
  6
ByLayer
 10
56.6302623748217187
 20
46.9081545064384642
 30
0.0
 11
56.6302623748217187
 21
44.9081542843087718
 31
0.0
  0
LINE
  5
95
100
AcDbEntity
100
AcDbLine
  8
0
 62
256
370
-1
  6
ByLayer
 10
57.2969292637106165
 20
44.9081545064384784
 30
0.0
 11
57.2969290414883972
 21
46.9081545064384784
 31
0.0
  0
LINE
  5
96
100
AcDbEntity
100
AcDbLine
  8
0
 62
256
370
-1
  6
ByLayer
 10
57.2969290414883972
 20
46.9081545064384784
 30
0.0
 11
57.9635957081550615
 21
46.9081545064384784
 31
0.0
  0
LINE
  5
97
100
AcDbEntity
100
AcDbLine
  8
0
 62
256
370
-1
  6
ByLayer
 10
58.4080401525995114
 20
46.4637100619940355
 30
0.0
 11
58.4080401525995114
 21
46.2414876175495877
 31
0.0
  0
LINE
  5
98
100
AcDbEntity
100
AcDbLine
  8
0
 62
256
370
-1
  6
ByLayer
 10
57.9635957081550615
 20
45.7970433953273641
 30
0.0
 11
57.2969290414883972
 21
45.7970433953273641
 31
0.0
  0
ARC
  5
99
100
AcDbEntity
  8
0
 62
256
370
-1
  6
ByLayer
100
AcDbCircle
 10
57.9635957081550615
 20
46.4637100619940355
 30
0.0
 40
0.4444444444444444
100
AcDbArc
 50
0.0
 51
90.0
  0
ARC
  5
9A
100
AcDbEntity
  8
0
 62
256
370
-1
  6
ByLayer
100
AcDbCircle
 10
57.9635957081550615
 20
46.2414876175495877
 30
0.0
 40
0.4444444444444444
100
AcDbArc
 50
270.0
 51
0.0
  0
LINE
  5
9B
100
AcDbEntity
100
AcDbLine
  8
0
 62
256
370
-1
  6
ByLayer
 10
59.317284597043944
 20
46.0677740619939939
 30
0.0
 11
59.9432179303772799
 21
45.7485342842162126
 31
0.0
  0
ARC
  5
9C
100
AcDbEntity
  8
0
 62
256
370
-1
  6
ByLayer
100
AcDbCircle
 10
59.5191734859328392
 20
45.435932061993995
 30
0.0
 40
1.4722222222222221
100
AcDbArc
 50
63.0745840000000015
 51
90.0
  0
ARC
  5
9D
100
AcDbEntity
  8
0
 62
256
370
-1
  6
ByLayer
100
AcDbCircle
 10
59.5191734859328392
 20
46.4637100619939929
 30
0.0
 40
0.4444444444444444
100
AcDbArc
 50
90.0
 51
242.9811799999999948
  0
ARC
  5
9E
100
AcDbEntity
  8
0
 62
256
370
-1
  6
ByLayer
100
AcDbCircle
 10
59.7413957081550606
 20
45.3525989508828786
 30
0.0
 40
0.4444444444444444
100
AcDbArc
 50
270.0
 51
62.9811850000000035
  0
ARC
  5
9F
100
AcDbEntity
  8
0
 62
256
370
-1
  6
ByLayer
100
AcDbCircle
 10
59.7413957081550606
 20
46.3803765064384379
 30
0.0
 40
1.4722222222222221
100
AcDbArc
 50
243.0745799999999974
 51
270.0
  0
ENDSEC
  0
SECTION
  2
OBJECTS
  0
DICTIONARY
  5
C
100
AcDbDictionary
280
0
281
1
  3
ACAD_GROUP
350
D
  3
ACAD_LAYOUT
350
1A
  3
ACAD_MLINESTYLE
350
17
  3
ACAD_PLOTSETTINGS
350
19
  3
ACAD_PLOTSTYLENAME
350
E
  3
AcDbVariableDictionary
350
A0
  0
DICTIONARY
  5
D
100
AcDbDictionary
280
0
281
1
  0
ACDBDICTIONARYWDFLT
  5
E
100
AcDbDictionary
281
1
  3
Normal
350
F
100
AcDbDictionaryWithDefault
340
F
  0
ACDBPLACEHOLDER
  5
F
  0
DICTIONARY
  5
17
100
AcDbDictionary
280
0
281
1
  3
Standard
350
18
  0
MLINESTYLE
  5
18
100
AcDbMlineStyle
  2
STANDARD
 70
0
  3

 62
256
 51
90.0
 52
90.0
 71
2
 49
0.5
 62
256
  6
BYLAYER
 49
-0.5
 62
256
  6
BYLAYER
  0
DICTIONARY
  5
19
100
AcDbDictionary
280
0
281
1
  0
DICTIONARY
  5
1A
100
AcDbDictionary
281
1
  3
Layout1
350
1E
  3
Layout2
350
26
  3
Model
350
22
  0
LAYOUT
  5
1E
100
AcDbPlotSettings
  1

  2
C:\Program Files\AutoCAD 2002\plotters\DWF ePlot (optimized for plotting).pc3
  4

  6

 40
0.0
 41
0.0
 42
0.0
 43
0.0
 44
0.0
 45
0.0
 46
0.0
 47
0.0
 48
0.0
 49
0.0
140
0.0
141
0.0
142
1.0
143
1.0
 70
688
 72
0
 73
0
 74
5
  7

 75
16
147
1.0
148
0.0
149
0.0
100
AcDbLayout
  1
Layout1
 70
1
 71
1
 10
0.0
 20
0.0
 11
420.0
 21
297.0
 12
0.0
 22
0.0
 32
0.0
 14
100000000000000000000.0
 24
100000000000000000000.0
 34
100000000000000000000.0
 15
-100000000000000000000.0
 25
-100000000000000000000.0
 35
-100000000000000000000.0
146
0.0
 13
0.0
 23
0.0
 33
0.0
 16
1.0
 26
0.0
 36
0.0
 17
0.0
 27
1.0
 37
0.0
 76
0
330
1B
  0
LAYOUT
  5
22
100
AcDbPlotSettings
  1

  2
C:\Program Files\AutoCAD 2002\plotters\DWF ePlot (optimized for plotting).pc3
  4

  6

 40
0.0
 41
0.0
 42
0.0
 43
0.0
 44
0.0
 45
0.0
 46
0.0
 47
0.0
 48
0.0
 49
0.0
140
0.0
141
0.0
142
1.0
143
1.0
 70
1712
 72
0
 73
0
 74
0
  7

 75
0
147
1.0
148
0.0
149
0.0
100
AcDbLayout
  1
Model
 70
1
 71
0
 10
0.0
 20
0.0
 11
12.0
 21
9.0
 12
0.0
 22
0.0
 32
0.0
 14
0.0
 24
0.0
 34
0.0
 15
0.0
 25
0.0
 35
0.0
146
0.0
 13
0.0
 23
0.0
 33
0.0
 16
1.0
 26
0.0
 36
0.0
 17
0.0
 27
1.0
 37
0.0
 76
0
330
1F
  0
LAYOUT
  5
26
100
AcDbPlotSettings
  1

  2
C:\Program Files\AutoCAD 2002\plotters\DWF ePlot (optimized for plotting).pc3
  4

  6

 40
0.0
 41
0.0
 42
0.0
 43
0.0
 44
0.0
 45
0.0
 46
0.0
 47
0.0
 48
0.0
 49
0.0
140
0.0
141
0.0
142
1.0
143
1.0
 70
688
 72
0
 73
0
 74
5
  7

 75
16
147
1.0
148
0.0
149
0.0
100
AcDbLayout
  1
Layout2
 70
1
 71
2
 10
0.0
 20
0.0
 11
12.0
 21
9.0
 12
0.0
 22
0.0
 32
0.0
 14
0.0
 24
0.0
 34
0.0
 15
0.0
 25
0.0
 35
0.0
146
0.0
 13
0.0
 23
0.0
 33
0.0
 16
1.0
 26
0.0
 36
0.0
 17
0.0
 27
1.0
 37
0.0
 76
0
330
23
  0
DICTIONARY
  5
A0
100
AcDbDictionary
281
1
  3
DIMASSOC
350
A2
  3
HIDETEXT
350
A1
  0
DICTIONARYVAR
  5
A1
100
DictionaryVariables
280
0
  1
2
  0
DICTIONARYVAR
  5
A2
100
DictionaryVariables
280
0
  1
1
  0
ENDSEC
  0
EOF
