999
Inkscape export via "Better DXF Output" (bob@bobcookdev.com)
  0
SECTION
  2
HEADER
  9
$ACADVER
  1
AC1014
  9
$HANDSEED
  5
FFFF
  0
ENDSEC
  0
SECTION
  2
TABLES
  0
TABLE
  2
VPORT
  5
8
330
0
100
AcDbSymbolTable
 70
     4
  0
VPORT
  5
2E
330
8
100
AcDbSymbolTableRecord
100
AcDbViewportTableRecord
  2
*ACTIVE
 70
     0
 10
0.0
 20
0.0
 11
1.0
 21
1.0
 12
4.25
 22
5.5
 13
0.0
 23
0.0
 14
10.0
 24
10.0
 15
10.0
 25
10.0
 16
0.0
 26
0.0
 36
1.0
 17
0.0
 27
0.0
 37
0.0
 40
11
 41
1.24
 42
50.0
 43
0.0
 44
0.0
 50
0.0
 51
0.0
 71
     0
 72
   100
 73
     1
 74
     3
 75
     0
 76
     0
 77
     0
 78
     0
  0
ENDTAB
  0
TABLE
  2
LTYPE
  5
5
330
0
100
AcDbSymbolTable
 70
     1
  0
LTYPE
  5
14
330
5
100
AcDbSymbolTableRecord
100
AcDbLinetypeTableRecord
  2
BYBLOCK
 70
     0
  3

 72
    65
 73
     0
 40
0.0
  0
LTYPE
  5
15
330
5
100
AcDbSymbolTableRecord
100
AcDbLinetypeTableRecord
  2
BYLAYER
 70
     0
  3

 72
    65
 73
     0
 40
0.0
  0
LTYPE
  5
16
330
5
100
AcDbSymbolTableRecord
100
AcDbLinetypeTableRecord
  2
CONTINUOUS
 70
     0
  3
Solid line
 72
    65
 73
     0
 40
0.0
  0
ENDTAB
  0
TABLE
  2
LAYER
  5
2
330
0
100
AcDbSymbolTable
 70
1
  0
LAYER
  5
10
330
2
100
AcDbSymbolTableRecord
100
AcDbLayerTableRecord
  2
0
 70
     0
 62
     7
  6
CONTINUOUS
  0
ENDTAB
  0
TABLE
  2
STYLE
  5
3
330
0
100
AcDbSymbolTable
 70
     1
  0
STYLE
  5
11
330
3
100
AcDbSymbolTableRecord
100
AcDbTextStyleTableRecord
  2
STANDARD
 70
     0
 40
0.0
 41
1.0
 50
0.0
 71
     0
 42
2.5
  3
txt
  4

  0
ENDTAB
  0
TABLE
  2
VIEW
  5
6
330
0
100
AcDbSymbolTable
 70
     0
  0
ENDTAB
  0
TABLE
  2
UCS
  5
7
330
0
100
AcDbSymbolTable
 70
     0
  0
ENDTAB
  0
TABLE
  2
APPID
  5
9
330
0
100
AcDbSymbolTable
 70
     2
  0
APPID
  5
12
330
9
100
AcDbSymbolTableRecord
100
AcDbRegAppTableRecord
  2
ACAD
 70
     0
  0
ENDTAB
  0
TABLE
  2
DIMSTYLE
  5
A
330
0
100
AcDbSymbolTable
 70
     1
  0
DIMSTYLE
105
27
330
A
100
AcDbSymbolTableRecord
100
AcDbDimStyleTableRecord
  2
ISO-25
 70
     0
  3

  4

  5

  6

  7

 40
1.0
 41
2.5
 42
0.625
 43
3.75
 44
1.25
 45
0.0
 46
0.0
 47
0.0
 48
0.0
140
2.5
141
2.5
142
0.0
143
0.03937007874016
144
1.0
145
0.0
146
1.0
147
0.625
 71
     0
 72
     0
 73
     0
 74
     0
 75
     0
 76
     0
 77
     1
 78
     8
170
     0
171
     3
172
     1
173
     0
174
     0
175
     0
176
     0
177
     0
178
     0
270
     2
271
     2
272
     2
273
     2
274
     3
340
11
275
     0
280
     0
281
     0
282
     0
283
     0
284
     8
285
     0
286
     0
287
     3
288
     0
  0
ENDTAB
  0
TABLE
  2
BLOCK_RECORD
  5
1
330
0
100
AcDbSymbolTable
 70
     1
  0
BLOCK_RECORD
  5
1F
330
1
100
AcDbSymbolTableRecord
100
AcDbBlockTableRecord
  2
*MODEL_SPACE
  0
BLOCK_RECORD
  5
1B
330
1
100
AcDbSymbolTableRecord
100
AcDbBlockTableRecord
  2
*PAPER_SPACE
  0
ENDTAB
  0
ENDSEC
  0
SECTION
  2
BLOCKS
  0
BLOCK
  5
20
330
1F
100
AcDbEntity
  8
0
100
AcDbBlockBegin
  2
*MODEL_SPACE
 70
     0
 10
0.0
 20
0.0
 30
0.0
  3
*MODEL_SPACE
  1

  0
ENDBLK
  5
21
330
1F
100
AcDbEntity
  8
0
100
AcDbBlockEnd
  0
BLOCK
  5
1C
330
1B
100
AcDbEntity
 67
     1
  8
0
100
AcDbBlockBegin
  2
*PAPER_SPACE
  1

  0
ENDBLK
  5
1D
330
1B
100
AcDbEntity
 67
     1
  8
0
100
AcDbBlockEnd
  0
ENDSEC
  0
SECTION
  2
ENTITIES
0
LINE
8
Layer 1
62
4
5
100
100
AcDbEntity
100
AcDbLine
10
0.846667
20
29.068889
30
0.0
11
-0.846667
21
27.375556
31
0.0
0
LINE
8
Layer 1
62
4
5
101
100
AcDbEntity
100
AcDbLine
10
0.000000
20
29.633333
30
0.0
11
0.000000
21
26.811111
31
0.0
0
LINE
8
0
62
4
5
102
100
AcDbEntity
100
AcDbLine
10
19.304000
20
-220.697778
30
0.0
11
19.137876
21
-219.842227
31
0.0
0
LINE
8
0
62
4
5
103
100
AcDbEntity
100
AcDbLine
10
19.137876
20
-219.842227
30
0.0
11
18.548036
21
-219.200626
31
0.0
0
LINE
8
0
62
4
5
104
100
AcDbEntity
100
AcDbLine
10
18.548036
20
-219.200626
30
0.0
11
17.709444
21
-218.963292
31
0.0
0
LINE
8
0
62
4
5
105
100
AcDbEntity
100
AcDbLine
10
17.709444
20
-218.963292
30
0.0
11
16.870853
21
-219.200626
31
0.0
0
LINE
8
0
62
4
5
106
100
AcDbEntity
100
AcDbLine
10
16.870853
20
-219.200626
30
0.0
11
16.281013
21
-219.842227
31
0.0
0
LINE
8
0
62
4
5
107
100
AcDbEntity
100
AcDbLine
10
16.281013
20
-219.842227
30
0.0
11
16.114889
21
-220.697778
31
0.0
0
LINE
8
0
62
4
5
108
100
AcDbEntity
100
AcDbLine
10
16.114889
20
-220.697778
30
0.0
11
16.276524
21
-221.276466
31
0.0
0
LINE
8
0
62
4
5
109
100
AcDbEntity
100
AcDbLine
10
16.276524
20
-221.276466
30
0.0
11
16.626449
21
-221.741525
31
0.0
0
LINE
8
0
62
4
5
10a
100
AcDbEntity
100
AcDbLine
10
16.626449
20
-221.741525
30
0.0
11
17.119233
21
-222.051189
31
0.0
0
LINE
8
0
62
4
5
10b
100
AcDbEntity
100
AcDbLine
10
17.119233
20
-222.051189
30
0.0
11
17.709444
21
-222.163692
31
0.0
0
LINE
8
0
62
4
5
10c
100
AcDbEntity
100
AcDbLine
10
17.709444
20
-222.163692
30
0.0
11
18.299656
21
-222.051189
31
0.0
0
LINE
8
0
62
4
5
10d
100
AcDbEntity
100
AcDbLine
10
18.299656
20
-222.051189
30
0.0
11
18.792439
21
-221.741525
31
0.0
0
LINE
8
0
62
4
5
10e
100
AcDbEntity
100
AcDbLine
10
18.792439
20
-221.741525
30
0.0
11
19.142365
21
-221.276466
31
0.0
0
LINE
8
0
62
4
5
10f
100
AcDbEntity
100
AcDbLine
10
19.142365
20
-221.276466
30
0.0
11
19.304000
21
-220.697778
31
0.0
0
LINE
8
0
62
4
5
110
100
AcDbEntity
100
AcDbLine
10
19.304000
20
-220.697778
30
0.0
11
19.304000
21
-220.697778
31
0.0
0
LINE
8
0
62
4
5
111
100
AcDbEntity
100
AcDbLine
10
19.304000
20
-176.671111
30
0.0
11
19.137876
21
-175.815561
31
0.0
0
LINE
8
0
62
4
5
112
100
AcDbEntity
100
AcDbLine
10
19.137876
20
-175.815561
30
0.0
11
18.548036
21
-175.173959
31
0.0
0
LINE
8
0
62
4
5
113
100
AcDbEntity
100
AcDbLine
10
18.548036
20
-175.173959
30
0.0
11
17.709444
21
-174.936626
31
0.0
0
LINE
8
0
62
4
5
114
100
AcDbEntity
100
AcDbLine
10
17.709444
20
-174.936626
30
0.0
11
16.870853
21
-175.173959
31
0.0
0
LINE
8
0
62
4
5
115
100
AcDbEntity
100
AcDbLine
10
16.870853
20
-175.173959
30
0.0
11
16.281013
21
-175.815561
31
0.0
0
LINE
8
0
62
4
5
116
100
AcDbEntity
100
AcDbLine
10
16.281013
20
-175.815561
30
0.0
11
16.114889
21
-176.671111
31
0.0
0
LINE
8
0
62
4
5
117
100
AcDbEntity
100
AcDbLine
10
16.114889
20
-176.671111
30
0.0
11
16.276524
21
-177.249799
31
0.0
0
LINE
8
0
62
4
5
118
100
AcDbEntity
100
AcDbLine
10
16.276524
20
-177.249799
30
0.0
11
16.626449
21
-177.714859
31
0.0
0
LINE
8
0
62
4
5
119
100
AcDbEntity
100
AcDbLine
10
16.626449
20
-177.714859
30
0.0
11
17.119233
21
-178.024523
31
0.0
0
LINE
8
0
62
4
5
11a
100
AcDbEntity
100
AcDbLine
10
17.119233
20
-178.024523
30
0.0
11
17.709444
21
-178.137026
31
0.0
0
LINE
8
0
62
4
5
11b
100
AcDbEntity
100
AcDbLine
10
17.709444
20
-178.137026
30
0.0
11
18.299656
21
-178.024523
31
0.0
0
LINE
8
0
62
4
5
11c
100
AcDbEntity
100
AcDbLine
10
18.299656
20
-178.024523
30
0.0
11
18.792439
21
-177.714859
31
0.0
0
LINE
8
0
62
4
5
11d
100
AcDbEntity
100
AcDbLine
10
18.792439
20
-177.714859
30
0.0
11
19.142365
21
-177.249799
31
0.0
0
LINE
8
0
62
4
5
11e
100
AcDbEntity
100
AcDbLine
10
19.142365
20
-177.249799
30
0.0
11
19.304000
21
-176.671111
31
0.0
0
LINE
8
0
62
4
5
11f
100
AcDbEntity
100
AcDbLine
10
19.304000
20
-176.671111
30
0.0
11
19.304000
21
-176.671111
31
0.0
0
LINE
8
0
62
4
5
120
100
AcDbEntity
100
AcDbLine
10
152.117778
20
-176.671111
30
0.0
11
152.063213
21
-175.718593
31
0.0
0
LINE
8
0
62
4
5
121
100
AcDbEntity
100
AcDbLine
10
152.063213
20
-175.718593
30
0.0
11
151.476254
21
-174.966431
31
0.0
0
LINE
8
0
62
4
5
122
100
AcDbEntity
100
AcDbLine
10
151.476254
20
-174.966431
30
0.0
11
150.565556
21
-174.682007
31
0.0
0
LINE
8
0
62
4
5
123
100
AcDbEntity
100
AcDbLine
10
150.565556
20
-174.682007
30
0.0
11
149.654857
21
-174.966431
31
0.0
0
LINE
8
0
62
4
5
124
100
AcDbEntity
100
AcDbLine
10
149.654857
20
-174.966431
30
0.0
11
149.067898
21
-175.718593
31
0.0
0
LINE
8
0
62
4
5
125
100
AcDbEntity
100
AcDbLine
10
149.067898
20
-175.718593
30
0.0
11
149.013333
21
-176.671111
31
0.0
0
LINE
8
0
62
4
5
126
100
AcDbEntity
100
AcDbLine
10
149.013333
20
-176.671111
30
0.0
11
149.227907
21
-177.160737
31
0.0
0
LINE
8
0
62
4
5
127
100
AcDbEntity
100
AcDbLine
10
149.227907
20
-177.160737
30
0.0
11
149.581097
21
-177.543747
31
0.0
0
LINE
8
0
62
4
5
128
100
AcDbEntity
100
AcDbLine
10
149.581097
20
-177.543747
30
0.0
11
150.038461
21
-177.793263
31
0.0
0
LINE
8
0
62
4
5
129
100
AcDbEntity
100
AcDbLine
10
150.038461
20
-177.793263
30
0.0
11
150.565556
21
-177.882407
31
0.0
0
LINE
8
0
62
4
5
12a
100
AcDbEntity
100
AcDbLine
10
150.565556
20
-177.882407
30
0.0
11
151.092650
21
-177.793263
31
0.0
0
LINE
8
0
62
4
5
12b
100
AcDbEntity
100
AcDbLine
10
151.092650
20
-177.793263
30
0.0
11
151.550014
21
-177.543747
31
0.0
0
LINE
8
0
62
4
5
12c
100
AcDbEntity
100
AcDbLine
10
151.550014
20
-177.543747
30
0.0
11
151.903204
21
-177.160737
31
0.0
0
LINE
8
0
62
4
5
12d
100
AcDbEntity
100
AcDbLine
10
151.903204
20
-177.160737
30
0.0
11
152.117778
21
-176.671111
31
0.0
0
LINE
8
0
62
4
5
12e
100
AcDbEntity
100
AcDbLine
10
152.117778
20
-176.671111
30
0.0
11
152.117778
21
-176.671111
31
0.0
0
LINE
8
0
62
4
5
12f
100
AcDbEntity
100
AcDbLine
10
6.321778
20
-198.684444
30
0.0
11
6.106257
21
-197.880111
31
0.0
0
LINE
8
0
62
4
5
130
100
AcDbEntity
100
AcDbLine
10
6.106257
20
-197.880111
30
0.0
11
5.517444
21
-197.291298
31
0.0
0
LINE
8
0
62
4
5
131
100
AcDbEntity
100
AcDbLine
10
5.517444
20
-197.291298
30
0.0
11
4.713111
21
-197.075778
31
0.0
0
LINE
8
0
62
4
5
132
100
AcDbEntity
100
AcDbLine
10
4.713111
20
-197.075778
30
0.0
11
3.908778
21
-197.291298
31
0.0
0
LINE
8
0
62
4
5
133
100
AcDbEntity
100
AcDbLine
10
3.908778
20
-197.291298
30
0.0
11
3.319965
21
-197.880111
31
0.0
0
LINE
8
0
62
4
5
134
100
AcDbEntity
100
AcDbLine
10
3.319965
20
-197.880111
30
0.0
11
3.104444
21
-198.684444
31
0.0
0
LINE
8
0
62
4
5
135
100
AcDbEntity
100
AcDbLine
10
3.104444
20
-198.684444
30
0.0
11
3.230861
21
-199.310610
31
0.0
0
LINE
8
0
62
4
5
136
100
AcDbEntity
100
AcDbLine
10
3.230861
20
-199.310610
30
0.0
11
3.575612
21
-199.821944
31
0.0
0
LINE
8
0
62
4
5
137
100
AcDbEntity
100
AcDbLine
10
3.575612
20
-199.821944
30
0.0
11
4.086945
21
-200.166694
31
0.0
0
LINE
8
0
62
4
5
138
100
AcDbEntity
100
AcDbLine
10
4.086945
20
-200.166694
30
0.0
11
4.713111
21
-200.293111
31
0.0
0
LINE
8
0
62
4
5
139
100
AcDbEntity
100
AcDbLine
10
4.713111
20
-200.293111
30
0.0
11
5.339277
21
-200.166694
31
0.0
0
LINE
8
0
62
4
5
13a
100
AcDbEntity
100
AcDbLine
10
5.339277
20
-200.166694
30
0.0
11
5.850610
21
-199.821944
31
0.0
0
LINE
8
0
62
4
5
13b
100
AcDbEntity
100
AcDbLine
10
5.850610
20
-199.821944
30
0.0
11
6.195361
21
-199.310610
31
0.0
0
LINE
8
0
62
4
5
13c
100
AcDbEntity
100
AcDbLine
10
6.195361
20
-199.310610
30
0.0
11
6.321778
21
-198.684444
31
0.0
0
LINE
8
0
62
4
5
13d
100
AcDbEntity
100
AcDbLine
10
6.321778
20
-198.684444
30
0.0
11
6.321778
21
-198.684444
31
0.0
0
LINE
8
0
62
4
5
13e
100
AcDbEntity
100
AcDbLine
10
152.117778
20
-220.697778
30
0.0
11
152.063213
21
-219.745259
31
0.0
0
LINE
8
0
62
4
5
13f
100
AcDbEntity
100
AcDbLine
10
152.063213
20
-219.745259
30
0.0
11
151.476254
21
-218.993097
31
0.0
0
LINE
8
0
62
4
5
140
100
AcDbEntity
100
AcDbLine
10
151.476254
20
-218.993097
30
0.0
11
150.565556
21
-218.708674
31
0.0
0
LINE
8
0
62
4
5
141
100
AcDbEntity
100
AcDbLine
10
150.565556
20
-218.708674
30
0.0
11
149.654857
21
-218.993097
31
0.0
0
LINE
8
0
62
4
5
142
100
AcDbEntity
100
AcDbLine
10
149.654857
20
-218.993097
30
0.0
11
149.067898
21
-219.745259
31
0.0
0
LINE
8
0
62
4
5
143
100
AcDbEntity
100
AcDbLine
10
149.067898
20
-219.745259
30
0.0
11
149.013333
21
-220.697778
31
0.0
0
LINE
8
0
62
4
5
144
100
AcDbEntity
100
AcDbLine
10
149.013333
20
-220.697778
30
0.0
11
149.227907
21
-221.187404
31
0.0
0
LINE
8
0
62
4
5
145
100
AcDbEntity
100
AcDbLine
10
149.227907
20
-221.187404
30
0.0
11
149.581097
21
-221.570413
31
0.0
0
LINE
8
0
62
4
5
146
100
AcDbEntity
100
AcDbLine
10
149.581097
20
-221.570413
30
0.0
11
150.038461
21
-221.819929
31
0.0
0
LINE
8
0
62
4
5
147
100
AcDbEntity
100
AcDbLine
10
150.038461
20
-221.819929
30
0.0
11
150.565556
21
-221.909074
31
0.0
0
LINE
8
0
62
4
5
148
100
AcDbEntity
100
AcDbLine
10
150.565556
20
-221.909074
30
0.0
11
151.092650
21
-221.819929
31
0.0
0
LINE
8
0
62
4
5
149
100
AcDbEntity
100
AcDbLine
10
151.092650
20
-221.819929
30
0.0
11
151.550014
21
-221.570413
31
0.0
0
LINE
8
0
62
4
5
14a
100
AcDbEntity
100
AcDbLine
10
151.550014
20
-221.570413
30
0.0
11
151.903204
21
-221.187404
31
0.0
0
LINE
8
0
62
4
5
14b
100
AcDbEntity
100
AcDbLine
10
151.903204
20
-221.187404
30
0.0
11
152.117778
21
-220.697778
31
0.0
0
LINE
8
0
62
4
5
14c
100
AcDbEntity
100
AcDbLine
10
152.117778
20
-220.697778
30
0.0
11
152.117778
21
-220.697778
31
0.0
0
LINE
8
0
62
4
5
14d
100
AcDbEntity
100
AcDbLine
10
154.657778
20
-224.931111
30
0.0
11
147.602222
21
-224.931111
31
0.0
0
LINE
8
0
62
4
5
14e
100
AcDbEntity
100
AcDbLine
10
154.657778
20
-172.720000
30
0.0
11
154.657778
21
-224.931111
31
0.0
0
LINE
8
0
62
4
5
14f
100
AcDbEntity
100
AcDbLine
10
147.602222
20
-172.720000
30
0.0
11
154.657778
21
-172.720000
31
0.0
0
LINE
8
0
62
4
5
150
100
AcDbEntity
100
AcDbLine
10
147.602222
20
-128.693333
30
0.0
11
147.602222
21
-172.720000
31
0.0
0
LINE
8
0
62
4
5
151
100
AcDbEntity
100
AcDbLine
10
7.704667
20
-128.693333
30
0.0
11
147.602222
21
-128.693333
31
0.0
0
LINE
8
0
62
4
5
152
100
AcDbEntity
100
AcDbLine
10
7.704667
20
-172.720000
30
0.0
11
7.704667
21
-128.693333
31
0.0
0
LINE
8
0
62
4
5
153
100
AcDbEntity
100
AcDbLine
10
0.714022
20
-172.720000
30
0.0
11
7.704667
21
-172.720000
31
0.0
0
LINE
8
0
62
4
5
154
100
AcDbEntity
100
AcDbLine
10
0.714022
20
-224.931111
30
0.0
11
0.714022
21
-172.720000
31
0.0
0
LINE
8
0
62
4
5
155
100
AcDbEntity
100
AcDbLine
10
7.704667
20
-224.931111
30
0.0
11
0.714022
21
-224.931111
31
0.0
0
LINE
8
0
62
4
5
156
100
AcDbEntity
100
AcDbLine
10
7.704667
20
-268.111111
30
0.0
11
7.704667
21
-224.931111
31
0.0
0
LINE
8
0
62
4
5
157
100
AcDbEntity
100
AcDbLine
10
147.602222
20
-268.111111
30
0.0
11
7.704667
21
-268.111111
31
0.0
0
LINE
8
0
62
4
5
158
100
AcDbEntity
100
AcDbLine
10
147.602222
20
-224.931111
30
0.0
11
147.602222
21
-268.111111
31
0.0
0
LINE
8
0
62
4
5
159
100
AcDbEntity
100
AcDbLine
10
139.135556
20
-177.235556
30
0.0
11
139.080991
21
-176.283037
31
0.0
0
LINE
8
0
62
4
5
15a
100
AcDbEntity
100
AcDbLine
10
139.080991
20
-176.283037
30
0.0
11
138.494032
21
-175.530875
31
0.0
0
LINE
8
0
62
4
5
15b
100
AcDbEntity
100
AcDbLine
10
138.494032
20
-175.530875
30
0.0
11
137.583333
21
-175.246452
31
0.0
0
LINE
8
0
62
4
5
15c
100
AcDbEntity
100
AcDbLine
10
137.583333
20
-175.246452
30
0.0
11
136.672635
21
-175.530875
31
0.0
0
LINE
8
0
62
4
5
15d
100
AcDbEntity
100
AcDbLine
10
136.672635
20
-175.530875
30
0.0
11
136.085676
21
-176.283037
31
0.0
0
LINE
8
0
62
4
5
15e
100
AcDbEntity
100
AcDbLine
10
136.085676
20
-176.283037
30
0.0
11
136.031111
21
-177.235556
31
0.0
0
LINE
8
0
62
4
5
15f
100
AcDbEntity
100
AcDbLine
10
136.031111
20
-177.235556
30
0.0
11
136.245685
21
-177.725182
31
0.0
0
LINE
8
0
62
4
5
160
100
AcDbEntity
100
AcDbLine
10
136.245685
20
-177.725182
30
0.0
11
136.598875
21
-178.108191
31
0.0
0
LINE
8
0
62
4
5
161
100
AcDbEntity
100
AcDbLine
10
136.598875
20
-178.108191
30
0.0
11
137.056238
21
-178.357707
31
0.0
0
LINE
8
0
62
4
5
162
100
AcDbEntity
100
AcDbLine
10
137.056238
20
-178.357707
30
0.0
11
137.583333
21
-178.446852
31
0.0
0
LINE
8
0
62
4
5
163
100
AcDbEntity
100
AcDbLine
10
137.583333
20
-178.446852
30
0.0
11
138.110428
21
-178.357707
31
0.0
0
LINE
8
0
62
4
5
164
100
AcDbEntity
100
AcDbLine
10
138.110428
20
-178.357707
30
0.0
11
138.567792
21
-178.108191
31
0.0
0
LINE
8
0
62
4
5
165
100
AcDbEntity
100
AcDbLine
10
138.567792
20
-178.108191
30
0.0
11
138.920981
21
-177.725182
31
0.0
0
LINE
8
0
62
4
5
166
100
AcDbEntity
100
AcDbLine
10
138.920981
20
-177.725182
30
0.0
11
139.135556
21
-177.235556
31
0.0
0
LINE
8
0
62
4
5
167
100
AcDbEntity
100
AcDbLine
10
139.135556
20
-177.235556
30
0.0
11
139.135556
21
-177.235556
31
0.0
0
LINE
8
0
62
4
5
168
100
AcDbEntity
100
AcDbLine
10
139.135556
20
-221.262222
30
0.0
11
139.080991
21
-220.309704
31
0.0
0
LINE
8
0
62
4
5
169
100
AcDbEntity
100
AcDbLine
10
139.080991
20
-220.309704
30
0.0
11
138.494032
21
-219.557542
31
0.0
0
LINE
8
0
62
4
5
16a
100
AcDbEntity
100
AcDbLine
10
138.494032
20
-219.557542
30
0.0
11
137.583333
21
-219.273118
31
0.0
0
LINE
8
0
62
4
5
16b
100
AcDbEntity
100
AcDbLine
10
137.583333
20
-219.273118
30
0.0
11
136.672635
21
-219.557542
31
0.0
0
LINE
8
0
62
4
5
16c
100
AcDbEntity
100
AcDbLine
10
136.672635
20
-219.557542
30
0.0
11
136.085676
21
-220.309704
31
0.0
0
LINE
8
0
62
4
5
16d
100
AcDbEntity
100
AcDbLine
10
136.085676
20
-220.309704
30
0.0
11
136.031111
21
-221.262222
31
0.0
0
LINE
8
0
62
4
5
16e
100
AcDbEntity
100
AcDbLine
10
136.031111
20
-221.262222
30
0.0
11
136.245685
21
-221.751848
31
0.0
0
LINE
8
0
62
4
5
16f
100
AcDbEntity
100
AcDbLine
10
136.245685
20
-221.751848
30
0.0
11
136.598875
21
-222.134858
31
0.0
0
LINE
8
0
62
4
5
170
100
AcDbEntity
100
AcDbLine
10
136.598875
20
-222.134858
30
0.0
11
137.056238
21
-222.384374
31
0.0
0
LINE
8
0
62
4
5
171
100
AcDbEntity
100
AcDbLine
10
137.056238
20
-222.384374
30
0.0
11
137.583333
21
-222.473518
31
0.0
0
LINE
8
0
62
4
5
172
100
AcDbEntity
100
AcDbLine
10
137.583333
20
-222.473518
30
0.0
11
138.110428
21
-222.384374
31
0.0
0
LINE
8
0
62
4
5
173
100
AcDbEntity
100
AcDbLine
10
138.110428
20
-222.384374
30
0.0
11
138.567792
21
-222.134858
31
0.0
0
LINE
8
0
62
4
5
174
100
AcDbEntity
100
AcDbLine
10
138.567792
20
-222.134858
30
0.0
11
138.920981
21
-221.751848
31
0.0
0
LINE
8
0
62
4
5
175
100
AcDbEntity
100
AcDbLine
10
138.920981
20
-221.751848
30
0.0
11
139.135556
21
-221.262222
31
0.0
0
LINE
8
0
62
4
5
176
100
AcDbEntity
100
AcDbLine
10
139.135556
20
-221.262222
30
0.0
11
139.135556
21
-221.262222
31
0.0
  0
ENDSEC
  0
SECTION
  2
OBJECTS
  0
DICTIONARY
  5
C
330
0
100
AcDbDictionary
  3
ACAD_GROUP
350
D
  3
ACAD_MLINESTYLE
350
17
  0
DICTIONARY
  5
D
330
C
100
AcDbDictionary
  0
DICTIONARY
  5
1A
330
C
100
AcDbDictionary
  0
DICTIONARY
  5
17
330
C
100
AcDbDictionary
  3
STANDARD
350
18
  0
DICTIONARY
  5
19
330
C
100
AcDbDictionary
  0
ENDSEC
  0
EOF
