solid OpenSCAD_Model
  facet normal -1.000000 -0.000000 -0.000000
    outer loop
      vertex 0.000000 0.000000 0.000000
      vertex 0.000000 0.000000 4.000000
      vertex 0.000000 10.000000 0.000000
    endloop
  endfacet
  facet normal -1.000000 0.000000 0.000000
    outer loop
      vertex 0.000000 10.000000 0.000000
      vertex 0.000000 0.000000 4.000000
      vertex 0.000000 10.000000 4.000000
    endloop
  endfacet
  facet normal 0.000000 -1.000000 0.000000
    outer loop
      vertex 0.000000 0.000000 4.000000
      vertex 0.000000 0.000000 0.000000
      vertex 26.000000 0.000000 0.000000
    endloop
  endfacet
  facet normal 0.000000 -1.000000 0.000000
    outer loop
      vertex 26.000000 0.000000 4.000000
      vertex 0.000000 0.000000 4.000000
      vertex 26.000000 0.000000 0.000000
    endloop
  endfacet
  facet normal -0.000000 -0.000000 -1.000000
    outer loop
      vertex 6.263973 6.060600 0.000000
      vertex 0.000000 10.000000 0.000000
      vertex 26.000000 0.000000 0.000000
    endloop
  endfacet
  facet normal 0.000000 -0.000000 -1.000000
    outer loop
      vertex 20.175000 6.428942 0.000000
      vertex 0.000000 10.000000 0.000000
      vertex 26.000000 10.000000 0.000000
    endloop
  endfacet
  facet normal 0.000000 -0.000000 -1.000000
    outer loop
      vertex 0.000000 0.000000 0.000000
      vertex 0.000000 10.000000 0.000000
      vertex 3.449507 5.564333 0.000000
    endloop
  endfacet
  facet normal 0.000000 0.000000 -1.000000
    outer loop
      vertex 0.000000 0.000000 0.000000
      vertex 3.449507 5.564333 0.000000
      vertex 3.449507 4.435667 0.000000
    endloop
  endfacet
  facet normal 0.000000 0.000000 -1.000000
    outer loop
      vertex 0.000000 0.000000 0.000000
      vertex 3.449507 4.435667 0.000000
      vertex 4.175000 3.571058 0.000000
    endloop
  endfacet
  facet normal 0.000000 0.000000 -1.000000
    outer loop
      vertex 0.000000 0.000000 0.000000
      vertex 4.175000 3.571058 0.000000
      vertex 5.286519 3.375067 0.000000
    endloop
  endfacet
  facet normal -0.000000 0.000000 -1.000000
    outer loop
      vertex 0.000000 0.000000 0.000000
      vertex 5.286519 3.375067 0.000000
      vertex 26.000000 0.000000 0.000000
    endloop
  endfacet
  facet normal 0.000000 0.000000 -1.000000
    outer loop
      vertex 6.650000 5.000000 0.000000
      vertex 26.000000 0.000000 0.000000
      vertex 6.263973 3.939400 0.000000
    endloop
  endfacet
  facet normal 0.000000 0.000000 -1.000000
    outer loop
      vertex 21.286519 3.375067 0.000000
      vertex 26.000000 0.000000 0.000000
      vertex 20.175000 3.571058 0.000000
    endloop
  endfacet
  facet normal 0.000000 -0.000000 -1.000000
    outer loop
      vertex 4.175000 6.428942 0.000000
      vertex 0.000000 10.000000 0.000000
      vertex 5.286519 6.624933 0.000000
    endloop
  endfacet
  facet normal -0.000000 -0.000000 -1.000000
    outer loop
      vertex 5.286519 6.624933 0.000000
      vertex 0.000000 10.000000 0.000000
      vertex 6.263973 6.060600 0.000000
    endloop
  endfacet
  facet normal -0.000000 -0.000000 -1.000000
    outer loop
      vertex 6.650000 5.000000 0.000000
      vertex 6.263973 6.060600 0.000000
      vertex 26.000000 0.000000 0.000000
    endloop
  endfacet
  facet normal 0.000000 -0.000000 -1.000000
    outer loop
      vertex 3.449507 5.564333 0.000000
      vertex 0.000000 10.000000 0.000000
      vertex 4.175000 6.428942 0.000000
    endloop
  endfacet
  facet normal 0.000000 0.000000 -1.000000
    outer loop
      vertex 19.449507 4.435667 0.000000
      vertex 0.000000 10.000000 0.000000
      vertex 19.449507 5.564333 0.000000
    endloop
  endfacet
  facet normal 0.000000 0.000000 -1.000000
    outer loop
      vertex 20.175000 3.571058 0.000000
      vertex 0.000000 10.000000 0.000000
      vertex 19.449507 4.435667 0.000000
    endloop
  endfacet
  facet normal 0.000000 0.000000 -1.000000
    outer loop
      vertex 26.000000 0.000000 0.000000
      vertex 0.000000 10.000000 0.000000
      vertex 20.175000 3.571058 0.000000
    endloop
  endfacet
  facet normal 0.000000 0.000000 -1.000000
    outer loop
      vertex 22.263973 3.939400 0.000000
      vertex 26.000000 0.000000 0.000000
      vertex 21.286519 3.375067 0.000000
    endloop
  endfacet
  facet normal 0.000000 0.000000 -1.000000
    outer loop
      vertex 20.175000 6.428942 0.000000
      vertex 26.000000 10.000000 0.000000
      vertex 21.286519 6.624933 0.000000
    endloop
  endfacet
  facet normal 0.000000 0.000000 -1.000000
    outer loop
      vertex 26.000000 0.000000 0.000000
      vertex 22.263973 3.939400 0.000000
      vertex 26.000000 10.000000 0.000000
    endloop
  endfacet
  facet normal 0.000000 0.000000 -1.000000
    outer loop
      vertex 22.263973 3.939400 0.000000
      vertex 22.650000 5.000000 0.000000
      vertex 26.000000 10.000000 0.000000
    endloop
  endfacet
  facet normal 0.000000 -0.000000 -1.000000
    outer loop
      vertex 22.650000 5.000000 0.000000
      vertex 22.263973 6.060600 0.000000
      vertex 26.000000 10.000000 0.000000
    endloop
  endfacet
  facet normal 0.000000 -0.000000 -1.000000
    outer loop
      vertex 22.263973 6.060600 0.000000
      vertex 21.286519 6.624933 0.000000
      vertex 26.000000 10.000000 0.000000
    endloop
  endfacet
  facet normal 0.000000 -0.000000 -1.000000
    outer loop
      vertex 19.449507 5.564333 0.000000
      vertex 0.000000 10.000000 0.000000
      vertex 20.175000 6.428942 0.000000
    endloop
  endfacet
  facet normal 0.000000 0.000000 -1.000000
    outer loop
      vertex 6.263973 3.939400 0.000000
      vertex 26.000000 0.000000 0.000000
      vertex 5.286519 3.375067 0.000000
    endloop
  endfacet
  facet normal 0.000000 1.000000 0.000000
    outer loop
      vertex 0.000000 10.000000 0.000000
      vertex 0.000000 10.000000 4.000000
      vertex 26.000000 10.000000 0.000000
    endloop
  endfacet
  facet normal 0.000000 1.000000 0.000000
    outer loop
      vertex 26.000000 10.000000 0.000000
      vertex 0.000000 10.000000 4.000000
      vertex 26.000000 10.000000 4.000000
    endloop
  endfacet
  facet normal 0.000000 -0.000000 1.000000
    outer loop
      vertex 3.325684 2.100000 4.000000
      vertex 0.000000 0.000000 4.000000
      vertex 26.000000 0.000000 4.000000
    endloop
  endfacet
  facet normal 0.000000 -0.000000 1.000000
    outer loop
      vertex 6.674316 2.100000 4.000000
      vertex 3.325684 2.100000 4.000000
      vertex 26.000000 0.000000 4.000000
    endloop
  endfacet
  facet normal 0.000000 -0.000000 1.000000
    outer loop
      vertex 1.651368 5.000000 4.000000
      vertex 0.000000 0.000000 4.000000
      vertex 3.325684 2.100000 4.000000
    endloop
  endfacet
  facet normal 0.000000 0.000000 1.000000
    outer loop
      vertex 3.325684 7.900000 4.000000
      vertex 6.674316 7.900000 4.000000
      vertex 0.000000 10.000000 4.000000
    endloop
  endfacet
  facet normal 0.000000 -0.000000 1.000000
    outer loop
      vertex 0.000000 10.000000 4.000000
      vertex 0.000000 0.000000 4.000000
      vertex 1.651368 5.000000 4.000000
    endloop
  endfacet
  facet normal 0.000000 -0.000000 1.000000
    outer loop
      vertex 22.674316 2.100000 4.000000
      vertex 19.325684 2.100000 4.000000
      vertex 26.000000 0.000000 4.000000
    endloop
  endfacet
  facet normal 0.000000 0.000000 1.000000
    outer loop
      vertex 19.325684 7.900000 4.000000
      vertex 22.674316 7.900000 4.000000
      vertex 26.000000 10.000000 4.000000
    endloop
  endfacet
  facet normal 0.000000 0.000000 1.000000
    outer loop
      vertex 26.000000 10.000000 4.000000
      vertex 0.000000 10.000000 4.000000
      vertex 6.674316 7.900000 4.000000
    endloop
  endfacet
  facet normal -0.000000 -0.000000 1.000000
    outer loop
      vertex 19.325684 2.100000 4.000000
      vertex 8.348632 5.000000 4.000000
      vertex 26.000000 0.000000 4.000000
    endloop
  endfacet
  facet normal 0.000000 -0.000000 1.000000
    outer loop
      vertex 8.348632 5.000000 4.000000
      vertex 6.674316 2.100000 4.000000
      vertex 26.000000 0.000000 4.000000
    endloop
  endfacet
  facet normal 0.000000 0.000000 1.000000
    outer loop
      vertex 19.325684 2.100000 4.000000
      vertex 17.651368 5.000000 4.000000
      vertex 6.674316 7.900000 4.000000
    endloop
  endfacet
  facet normal 0.000000 0.000000 1.000000
    outer loop
      vertex 19.325684 7.900000 4.000000
      vertex 6.674316 7.900000 4.000000
      vertex 17.651368 5.000000 4.000000
    endloop
  endfacet
  facet normal 0.000000 -0.000000 1.000000
    outer loop
      vertex 24.348632 5.000000 4.000000
      vertex 22.674316 2.100000 4.000000
      vertex 26.000000 0.000000 4.000000
    endloop
  endfacet
  facet normal 0.000000 0.000000 1.000000
    outer loop
      vertex 26.000000 10.000000 4.000000
      vertex 6.674316 7.900000 4.000000
      vertex 19.325684 7.900000 4.000000
    endloop
  endfacet
  facet normal 0.000000 0.000000 1.000000
    outer loop
      vertex 26.000000 10.000000 4.000000
      vertex 24.348632 5.000000 4.000000
      vertex 26.000000 0.000000 4.000000
    endloop
  endfacet
  facet normal 0.000000 0.000000 1.000000
    outer loop
      vertex 26.000000 10.000000 4.000000
      vertex 22.674316 7.900000 4.000000
      vertex 24.348632 5.000000 4.000000
    endloop
  endfacet
  facet normal 0.000000 0.000000 1.000000
    outer loop
      vertex 1.651368 5.000000 4.000000
      vertex 3.325684 7.900000 4.000000
      vertex 0.000000 10.000000 4.000000
    endloop
  endfacet
  facet normal 0.000000 0.000000 1.000000
    outer loop
      vertex 6.674316 7.900000 4.000000
      vertex 8.348632 5.000000 4.000000
      vertex 19.325684 2.100000 4.000000
    endloop
  endfacet
  facet normal 1.000000 0.000000 -0.000000
    outer loop
      vertex 26.000000 0.000000 4.000000
      vertex 26.000000 0.000000 0.000000
      vertex 26.000000 10.000000 0.000000
    endloop
  endfacet
  facet normal 1.000000 0.000000 0.000000
    outer loop
      vertex 26.000000 10.000000 4.000000
      vertex 26.000000 0.000000 4.000000
      vertex 26.000000 10.000000 0.000000
    endloop
  endfacet
  facet normal 0.766044 -0.642788 0.000000
    outer loop
      vertex 4.175000 6.428942 0.000000
      vertex 4.175000 6.428942 2.000000
      vertex 3.449507 5.564333 2.000000
    endloop
  endfacet
  facet normal 0.766044 -0.642788 0.000000
    outer loop
      vertex 3.449507 5.564333 0.000000
      vertex 4.175000 6.428942 0.000000
      vertex 3.449507 5.564333 2.000000
    endloop
  endfacet
  facet normal 1.000000 0.000000 0.000000
    outer loop
      vertex 3.449507 5.564333 0.000000
      vertex 3.449507 5.564333 2.000000
      vertex 3.449507 4.435667 2.000000
    endloop
  endfacet
  facet normal 1.000000 0.000000 0.000000
    outer loop
      vertex 3.449507 4.435667 0.000000
      vertex 3.449507 5.564333 0.000000
      vertex 3.449507 4.435667 2.000000
    endloop
  endfacet
  facet normal 0.173648 -0.984808 0.000000
    outer loop
      vertex 5.286519 6.624933 0.000000
      vertex 5.286519 6.624933 2.000000
      vertex 4.175000 6.428942 2.000000
    endloop
  endfacet
  facet normal 0.173648 -0.984808 0.000000
    outer loop
      vertex 4.175000 6.428942 0.000000
      vertex 5.286519 6.624933 0.000000
      vertex 4.175000 6.428942 2.000000
    endloop
  endfacet
  facet normal -0.500000 -0.866026 -0.000000
    outer loop
      vertex 6.263973 6.060600 0.000000
      vertex 6.263973 6.060600 2.000000
      vertex 5.286519 6.624933 2.000000
    endloop
  endfacet
  facet normal -0.500000 -0.866026 -0.000000
    outer loop
      vertex 5.286519 6.624933 0.000000
      vertex 6.263973 6.060600 0.000000
      vertex 5.286519 6.624933 2.000000
    endloop
  endfacet
  facet normal -0.939693 -0.342020 0.000000
    outer loop
      vertex 6.650000 5.000000 2.000000
      vertex 6.263973 6.060600 2.000000
      vertex 6.650000 5.000000 0.000000
    endloop
  endfacet
  facet normal -0.939693 -0.342020 0.000000
    outer loop
      vertex 6.650000 5.000000 0.000000
      vertex 6.263973 6.060600 2.000000
      vertex 6.263973 6.060600 0.000000
    endloop
  endfacet
  facet normal -0.939693 0.342020 0.000000
    outer loop
      vertex 6.650000 5.000000 2.000000
      vertex 6.650000 5.000000 0.000000
      vertex 6.263973 3.939400 2.000000
    endloop
  endfacet
  facet normal -0.939693 0.342020 0.000000
    outer loop
      vertex 6.263973 3.939400 2.000000
      vertex 6.650000 5.000000 0.000000
      vertex 6.263973 3.939400 0.000000
    endloop
  endfacet
  facet normal -0.500000 0.866026 0.000000
    outer loop
      vertex 6.263973 3.939400 2.000000
      vertex 6.263973 3.939400 0.000000
      vertex 5.286519 3.375067 2.000000
    endloop
  endfacet
  facet normal -0.500000 0.866026 0.000000
    outer loop
      vertex 5.286519 3.375067 2.000000
      vertex 6.263973 3.939400 0.000000
      vertex 5.286519 3.375067 0.000000
    endloop
  endfacet
  facet normal 0.173648 0.984808 -0.000000
    outer loop
      vertex 5.286519 3.375067 2.000000
      vertex 5.286519 3.375067 0.000000
      vertex 4.175000 3.571058 2.000000
    endloop
  endfacet
  facet normal 0.173648 0.984808 -0.000000
    outer loop
      vertex 4.175000 3.571058 2.000000
      vertex 5.286519 3.375067 0.000000
      vertex 4.175000 3.571058 0.000000
    endloop
  endfacet
  facet normal 0.766044 0.642788 0.000000
    outer loop
      vertex 3.449507 4.435667 2.000000
      vertex 4.175000 3.571058 2.000000
      vertex 4.175000 3.571058 0.000000
    endloop
  endfacet
  facet normal 0.766044 0.642788 0.000000
    outer loop
      vertex 3.449507 4.435667 0.000000
      vertex 3.449507 4.435667 2.000000
      vertex 4.175000 3.571058 0.000000
    endloop
  endfacet
  facet normal 0.766044 -0.642788 0.000000
    outer loop
      vertex 20.175000 6.428942 0.000000
      vertex 20.175000 6.428942 2.000000
      vertex 19.449507 5.564333 2.000000
    endloop
  endfacet
  facet normal 0.766044 -0.642788 0.000000
    outer loop
      vertex 19.449507 5.564333 0.000000
      vertex 20.175000 6.428942 0.000000
      vertex 19.449507 5.564333 2.000000
    endloop
  endfacet
  facet normal 1.000000 0.000000 0.000000
    outer loop
      vertex 19.449507 5.564333 0.000000
      vertex 19.449507 5.564333 2.000000
      vertex 19.449507 4.435667 2.000000
    endloop
  endfacet
  facet normal 1.000000 0.000000 0.000000
    outer loop
      vertex 19.449507 4.435667 0.000000
      vertex 19.449507 5.564333 0.000000
      vertex 19.449507 4.435667 2.000000
    endloop
  endfacet
  facet normal 0.173648 -0.984808 0.000000
    outer loop
      vertex 21.286519 6.624933 0.000000
      vertex 21.286519 6.624933 2.000000
      vertex 20.175000 6.428942 2.000000
    endloop
  endfacet
  facet normal 0.173648 -0.984808 0.000000
    outer loop
      vertex 20.175000 6.428942 0.000000
      vertex 21.286519 6.624933 0.000000
      vertex 20.175000 6.428942 2.000000
    endloop
  endfacet
  facet normal -0.500000 -0.866026 -0.000000
    outer loop
      vertex 22.263973 6.060600 0.000000
      vertex 22.263973 6.060600 2.000000
      vertex 21.286519 6.624933 2.000000
    endloop
  endfacet
  facet normal -0.500000 -0.866026 -0.000000
    outer loop
      vertex 21.286519 6.624933 0.000000
      vertex 22.263973 6.060600 0.000000
      vertex 21.286519 6.624933 2.000000
    endloop
  endfacet
  facet normal -0.939693 -0.342020 0.000000
    outer loop
      vertex 22.650000 5.000000 2.000000
      vertex 22.263973 6.060600 2.000000
      vertex 22.650000 5.000000 0.000000
    endloop
  endfacet
  facet normal -0.939693 -0.342020 0.000000
    outer loop
      vertex 22.650000 5.000000 0.000000
      vertex 22.263973 6.060600 2.000000
      vertex 22.263973 6.060600 0.000000
    endloop
  endfacet
  facet normal -0.939693 0.342020 0.000000
    outer loop
      vertex 22.650000 5.000000 2.000000
      vertex 22.650000 5.000000 0.000000
      vertex 22.263973 3.939400 2.000000
    endloop
  endfacet
  facet normal -0.939693 0.342020 0.000000
    outer loop
      vertex 22.263973 3.939400 2.000000
      vertex 22.650000 5.000000 0.000000
      vertex 22.263973 3.939400 0.000000
    endloop
  endfacet
  facet normal -0.500000 0.866026 0.000000
    outer loop
      vertex 22.263973 3.939400 2.000000
      vertex 22.263973 3.939400 0.000000
      vertex 21.286519 3.375067 2.000000
    endloop
  endfacet
  facet normal -0.500000 0.866026 0.000000
    outer loop
      vertex 21.286519 3.375067 2.000000
      vertex 22.263973 3.939400 0.000000
      vertex 21.286519 3.375067 0.000000
    endloop
  endfacet
  facet normal 0.173648 0.984808 -0.000000
    outer loop
      vertex 21.286519 3.375067 2.000000
      vertex 21.286519 3.375067 0.000000
      vertex 20.175000 3.571058 2.000000
    endloop
  endfacet
  facet normal 0.173648 0.984808 -0.000000
    outer loop
      vertex 20.175000 3.571058 2.000000
      vertex 21.286519 3.375067 0.000000
      vertex 20.175000 3.571058 0.000000
    endloop
  endfacet
  facet normal 0.766044 0.642788 0.000000
    outer loop
      vertex 19.449507 4.435667 2.000000
      vertex 20.175000 3.571058 2.000000
      vertex 20.175000 3.571058 0.000000
    endloop
  endfacet
  facet normal 0.766044 0.642788 0.000000
    outer loop
      vertex 19.449507 4.435667 0.000000
      vertex 19.449507 4.435667 2.000000
      vertex 20.175000 3.571058 0.000000
    endloop
  endfacet
  facet normal 0.866025 0.500000 0.000000
    outer loop
      vertex 1.651368 5.000000 4.000000
      vertex 3.325684 2.100000 4.000000
      vertex 3.325684 2.100000 2.000000
    endloop
  endfacet
  facet normal 0.866025 0.500000 0.000000
    outer loop
      vertex 1.651368 5.000000 2.000000
      vertex 1.651368 5.000000 4.000000
      vertex 3.325684 2.100000 2.000000
    endloop
  endfacet
  facet normal 0.000000 1.000000 0.000000
    outer loop
      vertex 6.674316 2.100000 4.000000
      vertex 6.674316 2.100000 2.000000
      vertex 3.325684 2.100000 4.000000
    endloop
  endfacet
  facet normal 0.000000 1.000000 -0.000000
    outer loop
      vertex 3.325684 2.100000 4.000000
      vertex 6.674316 2.100000 2.000000
      vertex 3.325684 2.100000 2.000000
    endloop
  endfacet
  facet normal -0.866025 0.500000 0.000000
    outer loop
      vertex 8.348632 5.000000 4.000000
      vertex 8.348632 5.000000 2.000000
      vertex 6.674316 2.100000 4.000000
    endloop
  endfacet
  facet normal -0.866025 0.500000 0.000000
    outer loop
      vertex 6.674316 2.100000 4.000000
      vertex 8.348632 5.000000 2.000000
      vertex 6.674316 2.100000 2.000000
    endloop
  endfacet
  facet normal -0.866025 -0.500000 0.000000
    outer loop
      vertex 8.348632 5.000000 4.000000
      vertex 6.674316 7.900000 4.000000
      vertex 8.348632 5.000000 2.000000
    endloop
  endfacet
  facet normal -0.866025 -0.500000 0.000000
    outer loop
      vertex 8.348632 5.000000 2.000000
      vertex 6.674316 7.900000 4.000000
      vertex 6.674316 7.900000 2.000000
    endloop
  endfacet
  facet normal 0.000000 -1.000000 0.000000
    outer loop
      vertex 6.674316 7.900000 2.000000
      vertex 6.674316 7.900000 4.000000
      vertex 3.325684 7.900000 4.000000
    endloop
  endfacet
  facet normal -0.000000 -1.000000 -0.000000
    outer loop
      vertex 3.325684 7.900000 2.000000
      vertex 6.674316 7.900000 2.000000
      vertex 3.325684 7.900000 4.000000
    endloop
  endfacet
  facet normal 0.866025 -0.500000 0.000000
    outer loop
      vertex 3.325684 7.900000 2.000000
      vertex 3.325684 7.900000 4.000000
      vertex 1.651368 5.000000 4.000000
    endloop
  endfacet
  facet normal 0.866025 -0.500000 0.000000
    outer loop
      vertex 1.651368 5.000000 2.000000
      vertex 3.325684 7.900000 2.000000
      vertex 1.651368 5.000000 4.000000
    endloop
  endfacet
  facet normal 0.866025 0.500000 0.000000
    outer loop
      vertex 17.651368 5.000000 4.000000
      vertex 19.325684 2.100000 4.000000
      vertex 19.325684 2.100000 2.000000
    endloop
  endfacet
  facet normal 0.866025 0.500000 0.000000
    outer loop
      vertex 17.651368 5.000000 2.000000
      vertex 17.651368 5.000000 4.000000
      vertex 19.325684 2.100000 2.000000
    endloop
  endfacet
  facet normal 0.000000 1.000000 0.000000
    outer loop
      vertex 22.674316 2.100000 4.000000
      vertex 22.674316 2.100000 2.000000
      vertex 19.325684 2.100000 4.000000
    endloop
  endfacet
  facet normal 0.000000 1.000000 -0.000000
    outer loop
      vertex 19.325684 2.100000 4.000000
      vertex 22.674316 2.100000 2.000000
      vertex 19.325684 2.100000 2.000000
    endloop
  endfacet
  facet normal -0.866025 0.500000 0.000000
    outer loop
      vertex 24.348632 5.000000 4.000000
      vertex 24.348632 5.000000 2.000000
      vertex 22.674316 2.100000 4.000000
    endloop
  endfacet
  facet normal -0.866025 0.500000 0.000000
    outer loop
      vertex 22.674316 2.100000 4.000000
      vertex 24.348632 5.000000 2.000000
      vertex 22.674316 2.100000 2.000000
    endloop
  endfacet
  facet normal -0.866025 -0.500000 0.000000
    outer loop
      vertex 24.348632 5.000000 4.000000
      vertex 22.674316 7.900000 4.000000
      vertex 24.348632 5.000000 2.000000
    endloop
  endfacet
  facet normal -0.866025 -0.500000 0.000000
    outer loop
      vertex 24.348632 5.000000 2.000000
      vertex 22.674316 7.900000 4.000000
      vertex 22.674316 7.900000 2.000000
    endloop
  endfacet
  facet normal 0.000000 -1.000000 0.000000
    outer loop
      vertex 22.674316 7.900000 2.000000
      vertex 22.674316 7.900000 4.000000
      vertex 19.325684 7.900000 4.000000
    endloop
  endfacet
  facet normal -0.000000 -1.000000 -0.000000
    outer loop
      vertex 19.325684 7.900000 2.000000
      vertex 22.674316 7.900000 2.000000
      vertex 19.325684 7.900000 4.000000
    endloop
  endfacet
  facet normal 0.866025 -0.500000 0.000000
    outer loop
      vertex 19.325684 7.900000 2.000000
      vertex 19.325684 7.900000 4.000000
      vertex 17.651368 5.000000 4.000000
    endloop
  endfacet
  facet normal 0.866025 -0.500000 0.000000
    outer loop
      vertex 17.651368 5.000000 2.000000
      vertex 19.325684 7.900000 2.000000
      vertex 17.651368 5.000000 4.000000
    endloop
  endfacet
  facet normal 0.000000 0.000000 1.000000
    outer loop
      vertex 3.325684 2.100000 2.000000
      vertex 6.674316 2.100000 2.000000
      vertex 8.348632 5.000000 2.000000
    endloop
  endfacet
  facet normal -0.000000 0.000000 1.000000
    outer loop
      vertex 5.286519 3.375067 2.000000
      vertex 4.175000 3.571058 2.000000
      vertex 3.325684 2.100000 2.000000
    endloop
  endfacet
  facet normal 0.000000 -0.000000 1.000000
    outer loop
      vertex 6.263973 3.939400 2.000000
      vertex 3.325684 2.100000 2.000000
      vertex 8.348632 5.000000 2.000000
    endloop
  endfacet
  facet normal 0.000000 0.000000 1.000000
    outer loop
      vertex 1.651368 5.000000 2.000000
      vertex 3.325684 2.100000 2.000000
      vertex 3.325684 7.900000 2.000000
    endloop
  endfacet
  facet normal 0.000000 -0.000000 1.000000
    outer loop
      vertex 3.325684 7.900000 2.000000
      vertex 3.325684 2.100000 2.000000
      vertex 3.449507 5.564333 2.000000
    endloop
  endfacet
  facet normal 0.000000 0.000000 1.000000
    outer loop
      vertex 3.325684 7.900000 2.000000
      vertex 4.175000 6.428942 2.000000
      vertex 6.674316 7.900000 2.000000
    endloop
  endfacet
  facet normal 0.000000 0.000000 1.000000
    outer loop
      vertex 3.325684 7.900000 2.000000
      vertex 3.449507 5.564333 2.000000
      vertex 4.175000 6.428942 2.000000
    endloop
  endfacet
  facet normal 0.000000 -0.000000 1.000000
    outer loop
      vertex 6.674316 7.900000 2.000000
      vertex 6.263973 6.060600 2.000000
      vertex 8.348632 5.000000 2.000000
    endloop
  endfacet
  facet normal 0.000000 0.000000 1.000000
    outer loop
      vertex 6.263973 6.060600 2.000000
      vertex 6.650000 5.000000 2.000000
      vertex 8.348632 5.000000 2.000000
    endloop
  endfacet
  facet normal -0.000000 0.000000 1.000000
    outer loop
      vertex 4.175000 3.571058 2.000000
      vertex 3.449507 4.435667 2.000000
      vertex 3.325684 2.100000 2.000000
    endloop
  endfacet
  facet normal 0.000000 -0.000000 1.000000
    outer loop
      vertex 6.650000 5.000000 2.000000
      vertex 6.263973 3.939400 2.000000
      vertex 8.348632 5.000000 2.000000
    endloop
  endfacet
  facet normal 0.000000 -0.000000 1.000000
    outer loop
      vertex 5.286519 3.375067 2.000000
      vertex 3.325684 2.100000 2.000000
      vertex 6.263973 3.939400 2.000000
    endloop
  endfacet
  facet normal 0.000000 0.000000 1.000000
    outer loop
      vertex 3.449507 5.564333 2.000000
      vertex 3.325684 2.100000 2.000000
      vertex 3.449507 4.435667 2.000000
    endloop
  endfacet
  facet normal 0.000000 0.000000 1.000000
    outer loop
      vertex 4.175000 6.428942 2.000000
      vertex 5.286519 6.624933 2.000000
      vertex 6.674316 7.900000 2.000000
    endloop
  endfacet
  facet normal 0.000000 0.000000 1.000000
    outer loop
      vertex 5.286519 6.624933 2.000000
      vertex 6.263973 6.060600 2.000000
      vertex 6.674316 7.900000 2.000000
    endloop
  endfacet
  facet normal 0.000000 0.000000 1.000000
    outer loop
      vertex 19.325684 2.100000 2.000000
      vertex 22.674316 2.100000 2.000000
      vertex 24.348632 5.000000 2.000000
    endloop
  endfacet
  facet normal -0.000000 0.000000 1.000000
    outer loop
      vertex 21.286519 3.375067 2.000000
      vertex 20.175000 3.571058 2.000000
      vertex 19.325684 2.100000 2.000000
    endloop
  endfacet
  facet normal 0.000000 -0.000000 1.000000
    outer loop
      vertex 22.263973 3.939400 2.000000
      vertex 19.325684 2.100000 2.000000
      vertex 24.348632 5.000000 2.000000
    endloop
  endfacet
  facet normal 0.000000 0.000000 1.000000
    outer loop
      vertex 17.651368 5.000000 2.000000
      vertex 19.325684 2.100000 2.000000
      vertex 19.325684 7.900000 2.000000
    endloop
  endfacet
  facet normal 0.000000 -0.000000 1.000000
    outer loop
      vertex 19.325684 7.900000 2.000000
      vertex 19.325684 2.100000 2.000000
      vertex 19.449507 5.564333 2.000000
    endloop
  endfacet
  facet normal 0.000000 0.000000 1.000000
    outer loop
      vertex 19.325684 7.900000 2.000000
      vertex 20.175000 6.428942 2.000000
      vertex 22.674316 7.900000 2.000000
    endloop
  endfacet
  facet normal 0.000000 0.000000 1.000000
    outer loop
      vertex 19.325684 7.900000 2.000000
      vertex 19.449507 5.564333 2.000000
      vertex 20.175000 6.428942 2.000000
    endloop
  endfacet
  facet normal 0.000000 -0.000000 1.000000
    outer loop
      vertex 22.674316 7.900000 2.000000
      vertex 22.263973 6.060600 2.000000
      vertex 24.348632 5.000000 2.000000
    endloop
  endfacet
  facet normal 0.000000 0.000000 1.000000
    outer loop
      vertex 22.263973 6.060600 2.000000
      vertex 22.650000 5.000000 2.000000
      vertex 24.348632 5.000000 2.000000
    endloop
  endfacet
  facet normal -0.000000 0.000000 1.000000
    outer loop
      vertex 20.175000 3.571058 2.000000
      vertex 19.449507 4.435667 2.000000
      vertex 19.325684 2.100000 2.000000
    endloop
  endfacet
  facet normal 0.000000 -0.000000 1.000000
    outer loop
      vertex 22.650000 5.000000 2.000000
      vertex 22.263973 3.939400 2.000000
      vertex 24.348632 5.000000 2.000000
    endloop
  endfacet
  facet normal 0.000000 -0.000000 1.000000
    outer loop
      vertex 21.286519 3.375067 2.000000
      vertex 19.325684 2.100000 2.000000
      vertex 22.263973 3.939400 2.000000
    endloop
  endfacet
  facet normal 0.000000 0.000000 1.000000
    outer loop
      vertex 19.449507 5.564333 2.000000
      vertex 19.325684 2.100000 2.000000
      vertex 19.449507 4.435667 2.000000
    endloop
  endfacet
  facet normal 0.000000 0.000000 1.000000
    outer loop
      vertex 20.175000 6.428942 2.000000
      vertex 21.286519 6.624933 2.000000
      vertex 22.674316 7.900000 2.000000
    endloop
  endfacet
  facet normal 0.000000 0.000000 1.000000
    outer loop
      vertex 21.286519 6.624933 2.000000
      vertex 22.263973 6.060600 2.000000
      vertex 22.674316 7.900000 2.000000
    endloop
  endfacet
endsolid OpenSCAD_Model
