solid
 facet normal 0.432305 0.56339 0.704063
   outer loop
     vertex 3.53553 3.53553 4.5
     vertex 1.5 2.59808 6.5
     vertex 2.12132 2.12132 6.5
   endloop
 endfacet
 facet normal 0.432305 0.56339 0.704063
   outer loop
     vertex 3.53553 3.53553 4.5
     vertex 2.5 4.33013 4.5
     vertex 1.5 2.59808 6.5
   endloop
 endfacet
 facet normal -0.704063 0.0926916 0.704063
   outer loop
     vertex -5 0 4.5
     vertex -3 0 6.5
     vertex -2.89778 0.776457 6.5
   endloop
 endfacet
 facet normal 0.56339 0.432305 0.704063
   outer loop
     vertex 4.33013 2.5 4.5
     vertex 2.12132 2.12132 6.5
     vertex 2.59808 1.5 6.5
   endloop
 endfacet
 facet normal 0.56339 0.432305 0.704063
   outer loop
     vertex 4.33013 2.5 4.5
     vertex 3.53553 3.53553 4.5
     vertex 2.12132 2.12132 6.5
   endloop
 endfacet
 facet normal 0.704063 0.0926916 0.704063
   outer loop
     vertex 4.82963 1.2941 4.5
     vertex 2.89778 0.776457 6.5
     vertex 3 4.89859e-16 6.5
   endloop
 endfacet
 facet normal 0.656082 0.271758 0.704063
   outer loop
     vertex 4.82963 1.2941 4.5
     vertex 2.59808 1.5 6.5
     vertex 2.89778 0.776457 6.5
   endloop
 endfacet
 facet normal 0.656082 0.271758 0.704063
   outer loop
     vertex 4.82963 1.2941 4.5
     vertex 4.33013 2.5 4.5
     vertex 2.59808 1.5 6.5
   endloop
 endfacet
 facet normal -0.656082 0.271758 0.704063
   outer loop
     vertex -4.82963 1.2941 4.5
     vertex -2.89778 0.776457 6.5
     vertex -2.59808 1.5 6.5
   endloop
 endfacet
 facet normal -0.704063 0.0926916 0.704063
   outer loop
     vertex -4.82963 1.2941 4.5
     vertex -5 0 4.5
     vertex -2.89778 0.776457 6.5
   endloop
 endfacet
 facet normal 0.704063 0.0926916 0.704063
   outer loop
     vertex 5 6.12323e-16 4.5
     vertex 4.82963 1.2941 4.5
     vertex 3 4.89859e-16 6.5
   endloop
 endfacet
 facet normal -0.56339 0.432305 0.704063
   outer loop
     vertex -4.33013 2.5 4.5
     vertex -2.59808 1.5 6.5
     vertex -2.12132 2.12132 6.5
   endloop
 endfacet
 facet normal -0.656082 0.271758 0.704063
   outer loop
     vertex -4.33013 2.5 4.5
     vertex -4.82963 1.2941 4.5
     vertex -2.59808 1.5 6.5
   endloop
 endfacet
 facet normal -0.56339 0.432305 0.704063
   outer loop
     vertex -3.53553 3.53553 4.5
     vertex -4.33013 2.5 4.5
     vertex -2.12132 2.12132 6.5
   endloop
 endfacet
 facet normal -0.432305 0.56339 0.704063
   outer loop
     vertex -2.5 4.33013 4.5
     vertex -2.12132 2.12132 6.5
     vertex -1.5 2.59808 6.5
   endloop
 endfacet
 facet normal -0.432305 0.56339 0.704063
   outer loop
     vertex -2.5 4.33013 4.5
     vertex -3.53553 3.53553 4.5
     vertex -2.12132 2.12132 6.5
   endloop
 endfacet
 facet normal -0.271758 0.656082 0.704063
   outer loop
     vertex -1.2941 4.82963 4.5
     vertex -1.5 2.59808 6.5
     vertex -0.776457 2.89778 6.5
   endloop
 endfacet
 facet normal -0.271758 0.656082 0.704063
   outer loop
     vertex -1.2941 4.82963 4.5
     vertex -2.5 4.33013 4.5
     vertex -1.5 2.59808 6.5
   endloop
 endfacet
 facet normal -0.0926916 0.704063 0.704063
   outer loop
     vertex -9.18455e-16 5 4.5
     vertex -0.776457 2.89778 6.5
     vertex 8.49825e-16 3 6.5
   endloop
 endfacet
 facet normal -0.0926916 0.704063 0.704063
   outer loop
     vertex -9.18455e-16 5 4.5
     vertex -1.2941 4.82963 4.5
     vertex -0.776457 2.89778 6.5
   endloop
 endfacet
 facet normal 0.0926916 0.704063 0.704063
   outer loop
     vertex 1.2941 4.82963 4.5
     vertex 8.49825e-16 3 6.5
     vertex 0.776457 2.89778 6.5
   endloop
 endfacet
 facet normal 0.0926916 0.704063 0.704063
   outer loop
     vertex 1.2941 4.82963 4.5
     vertex -9.18455e-16 5 4.5
     vertex 8.49825e-16 3 6.5
   endloop
 endfacet
 facet normal 0.271758 0.656082 0.704063
   outer loop
     vertex 2.5 4.33013 4.5
     vertex 0.776457 2.89778 6.5
     vertex 1.5 2.59808 6.5
   endloop
 endfacet
 facet normal 0.271758 0.656082 0.704063
   outer loop
     vertex 2.5 4.33013 4.5
     vertex 1.2941 4.82963 4.5
     vertex 0.776457 2.89778 6.5
   endloop
 endfacet
 facet normal 0.92388 0.382683 -0
   outer loop
     vertex -1.59378 -0.427051 0
     vertex -1.59378 -0.427051 6.5
     vertex -1.42894 -0.825 6.5
   endloop
 endfacet
 facet normal 0.92388 0.382683 0
   outer loop
     vertex -1.59378 -0.427051 0
     vertex -1.42894 -0.825 6.5
     vertex -1.42894 -0.825 0
   endloop
 endfacet
 facet normal 0.991445 0.130526 -0
   outer loop
     vertex -1.65 0 0
     vertex -1.65 0 6.5
     vertex -1.59378 -0.427051 6.5
   endloop
 endfacet
 facet normal 0.991445 0.130526 0
   outer loop
     vertex -1.65 0 0
     vertex -1.59378 -0.427051 6.5
     vertex -1.59378 -0.427051 0
   endloop
 endfacet
 facet normal -0.991445 0.130526 0
   outer loop
     vertex 1.59378 -0.427051 0
     vertex 1.59378 -0.427051 6.5
     vertex 1.65 2.02067e-16 6.5
   endloop
 endfacet
 facet normal -0.991445 0.130526 0
   outer loop
     vertex 1.59378 -0.427051 0
     vertex 1.65 2.02067e-16 6.5
     vertex 1.65 2.02067e-16 0
   endloop
 endfacet
 facet normal -0.92388 0.382683 0
   outer loop
     vertex 1.42894 -0.825 6.5
     vertex 1.59378 -0.427051 6.5
     vertex 1.59378 -0.427051 0
   endloop
 endfacet
 facet normal -0.92388 0.382683 0
   outer loop
     vertex 1.42894 -0.825 0
     vertex 1.42894 -0.825 6.5
     vertex 1.59378 -0.427051 0
   endloop
 endfacet
 facet normal -0.793353 0.608761 0
   outer loop
     vertex 1.16673 -1.16673 6.5
     vertex 1.42894 -0.825 6.5
     vertex 1.42894 -0.825 0
   endloop
 endfacet
 facet normal -0.793353 0.608761 0
   outer loop
     vertex 1.16673 -1.16673 0
     vertex 1.16673 -1.16673 6.5
     vertex 1.42894 -0.825 0
   endloop
 endfacet
 facet normal -0.608761 0.793353 0
   outer loop
     vertex 0.825 -1.42894 6.5
     vertex 1.16673 -1.16673 6.5
     vertex 1.16673 -1.16673 0
   endloop
 endfacet
 facet normal -0.608761 0.793353 0
   outer loop
     vertex 0.825 -1.42894 0
     vertex 0.825 -1.42894 6.5
     vertex 1.16673 -1.16673 0
   endloop
 endfacet
 facet normal -0.382683 0.92388 0
   outer loop
     vertex 0.427051 -1.59378 0
     vertex 0.427051 -1.59378 6.5
     vertex 0.825 -1.42894 6.5
   endloop
 endfacet
 facet normal -0.382683 0.92388 0
   outer loop
     vertex 0.427051 -1.59378 0
     vertex 0.825 -1.42894 6.5
     vertex 0.825 -1.42894 0
   endloop
 endfacet
 facet normal -0.130526 0.991445 0
   outer loop
     vertex 3.0309e-16 -1.65 6.5
     vertex 0.427051 -1.59378 6.5
     vertex 0.427051 -1.59378 0
   endloop
 endfacet
 facet normal -0.130526 0.991445 0
   outer loop
     vertex 3.0309e-16 -1.65 0
     vertex 3.0309e-16 -1.65 6.5
     vertex 0.427051 -1.59378 0
   endloop
 endfacet
 facet normal 0.130526 0.991445 -0
   outer loop
     vertex -0.427051 -1.59378 0
     vertex -0.427051 -1.59378 6.5
     vertex 3.0309e-16 -1.65 6.5
   endloop
 endfacet
 facet normal 0.130526 0.991445 0
   outer loop
     vertex -0.427051 -1.59378 0
     vertex 3.0309e-16 -1.65 6.5
     vertex 3.0309e-16 -1.65 0
   endloop
 endfacet
 facet normal 0.382683 0.92388 -0
   outer loop
     vertex -0.825 -1.42894 0
     vertex -0.825 -1.42894 6.5
     vertex -0.427051 -1.59378 6.5
   endloop
 endfacet
 facet normal 0.382683 0.92388 0
   outer loop
     vertex -0.825 -1.42894 0
     vertex -0.427051 -1.59378 6.5
     vertex -0.427051 -1.59378 0
   endloop
 endfacet
 facet normal 0.608761 0.793353 0
   outer loop
     vertex -1.16673 -1.16673 6.5
     vertex -0.825 -1.42894 6.5
     vertex -0.825 -1.42894 0
   endloop
 endfacet
 facet normal 0.608761 0.793353 -0
   outer loop
     vertex -1.16673 -1.16673 0
     vertex -1.16673 -1.16673 6.5
     vertex -0.825 -1.42894 0
   endloop
 endfacet
 facet normal 0.793353 0.608761 -0
   outer loop
     vertex -1.42894 -0.825 0
     vertex -1.42894 -0.825 6.5
     vertex -1.16673 -1.16673 6.5
   endloop
 endfacet
 facet normal 0.793353 0.608761 0
   outer loop
     vertex -1.42894 -0.825 0
     vertex -1.16673 -1.16673 6.5
     vertex -1.16673 -1.16673 0
   endloop
 endfacet
 facet normal 0.406737 0.913545 0
   outer loop
     vertex 5 8.66025 2
     vertex 3.09017 9.51057 2
     vertex 3.09017 9.51057 4.5
   endloop
 endfacet
 facet normal 0.587785 0.809017 -0
   outer loop
     vertex 6.69131 7.43145 2
     vertex 5 8.66025 4.5
     vertex 6.69131 7.43145 4.5
   endloop
 endfacet
 facet normal -0.994522 0.104528 0
   outer loop
     vertex -9.78148 2.07912 4.5
     vertex -10 0 2
     vertex -10 0 4.5
   endloop
 endfacet
 facet normal 0.587785 0.809017 0
   outer loop
     vertex 6.69131 7.43145 2
     vertex 5 8.66025 2
     vertex 5 8.66025 4.5
   endloop
 endfacet
 facet normal -0.994522 0.104528 0
   outer loop
     vertex -9.78148 2.07912 2
     vertex -10 0 2
     vertex -9.78148 2.07912 4.5
   endloop
 endfacet
 facet normal 0.743145 0.669131 -0
   outer loop
     vertex 8.09017 5.87785 2
     vertex 6.69131 7.43145 4.5
     vertex 8.09017 5.87785 4.5
   endloop
 endfacet
 facet normal 0.743145 0.669131 0
   outer loop
     vertex 8.09017 5.87785 2
     vertex 6.69131 7.43145 2
     vertex 6.69131 7.43145 4.5
   endloop
 endfacet
 facet normal -0.951057 0.309017 0
   outer loop
     vertex -9.13545 4.06737 2
     vertex -9.78148 2.07912 4.5
     vertex -9.13545 4.06737 4.5
   endloop
 endfacet
 facet normal 0.866025 0.5 -0
   outer loop
     vertex 9.13545 4.06737 2
     vertex 8.09017 5.87785 4.5
     vertex 9.13545 4.06737 4.5
   endloop
 endfacet
 facet normal -0.951057 0.309017 0
   outer loop
     vertex -9.13545 4.06737 2
     vertex -9.78148 2.07912 2
     vertex -9.78148 2.07912 4.5
   endloop
 endfacet
 facet normal 0.866025 0.5 0
   outer loop
     vertex 9.13545 4.06737 2
     vertex 8.09017 5.87785 2
     vertex 8.09017 5.87785 4.5
   endloop
 endfacet
 facet normal -0.866025 0.5 0
   outer loop
     vertex -8.09017 5.87785 2
     vertex -9.13545 4.06737 4.5
     vertex -8.09017 5.87785 4.5
   endloop
 endfacet
 facet normal 0.951057 0.309017 -0
   outer loop
     vertex 9.78148 2.07912 2
     vertex 9.13545 4.06737 4.5
     vertex 9.78148 2.07912 4.5
   endloop
 endfacet
 facet normal -0.866025 0.5 0
   outer loop
     vertex -8.09017 5.87785 2
     vertex -9.13545 4.06737 2
     vertex -9.13545 4.06737 4.5
   endloop
 endfacet
 facet normal 0.951057 0.309017 0
   outer loop
     vertex 9.78148 2.07912 2
     vertex 9.13545 4.06737 2
     vertex 9.13545 4.06737 4.5
   endloop
 endfacet
 facet normal -0.743145 0.669131 0
   outer loop
     vertex -6.69131 7.43145 2
     vertex -8.09017 5.87785 4.5
     vertex -6.69131 7.43145 4.5
   endloop
 endfacet
 facet normal 0.994522 0.104528 -0
   outer loop
     vertex 10 1.22465e-15 2
     vertex 9.78148 2.07912 4.5
     vertex 10 1.22465e-15 4.5
   endloop
 endfacet
 facet normal -0.743145 0.669131 0
   outer loop
     vertex -6.69131 7.43145 2
     vertex -8.09017 5.87785 2
     vertex -8.09017 5.87785 4.5
   endloop
 endfacet
 facet normal 0.994522 0.104528 0
   outer loop
     vertex 10 1.22465e-15 2
     vertex 9.78148 2.07912 2
     vertex 9.78148 2.07912 4.5
   endloop
 endfacet
 facet normal -0.587785 0.809017 0
   outer loop
     vertex -5 8.66025 2
     vertex -6.69131 7.43145 4.5
     vertex -5 8.66025 4.5
   endloop
 endfacet
 facet normal -0.587785 0.809017 0
   outer loop
     vertex -5 8.66025 2
     vertex -6.69131 7.43145 2
     vertex -6.69131 7.43145 4.5
   endloop
 endfacet
 facet normal -0.406737 0.913545 0
   outer loop
     vertex -3.09017 9.51057 2
     vertex -5 8.66025 4.5
     vertex -3.09017 9.51057 4.5
   endloop
 endfacet
 facet normal -0.406737 0.913545 0
   outer loop
     vertex -3.09017 9.51057 2
     vertex -5 8.66025 2
     vertex -5 8.66025 4.5
   endloop
 endfacet
 facet normal -0.207912 0.978148 0
   outer loop
     vertex -1.04528 9.94522 2
     vertex -3.09017 9.51057 4.5
     vertex -1.04528 9.94522 4.5
   endloop
 endfacet
 facet normal -0.207912 0.978148 0
   outer loop
     vertex -1.04528 9.94522 2
     vertex -3.09017 9.51057 2
     vertex -3.09017 9.51057 4.5
   endloop
 endfacet
 facet normal 0 1 -0
   outer loop
     vertex 1.04528 9.94522 2
     vertex -1.04528 9.94522 4.5
     vertex 1.04528 9.94522 4.5
   endloop
 endfacet
 facet normal 0 1 0
   outer loop
     vertex 1.04528 9.94522 2
     vertex -1.04528 9.94522 2
     vertex -1.04528 9.94522 4.5
   endloop
 endfacet
 facet normal 0.207912 0.978148 -0
   outer loop
     vertex 3.09017 9.51057 2
     vertex 1.04528 9.94522 4.5
     vertex 3.09017 9.51057 4.5
   endloop
 endfacet
 facet normal 0.207912 0.978148 0
   outer loop
     vertex 3.09017 9.51057 2
     vertex 1.04528 9.94522 2
     vertex 1.04528 9.94522 4.5
   endloop
 endfacet
 facet normal 0.406737 0.913545 -0
   outer loop
     vertex 5 8.66025 2
     vertex 3.09017 9.51057 4.5
     vertex 5 8.66025 4.5
   endloop
 endfacet
 facet normal 0.290285 0.95694 -0
   outer loop
     vertex 4.17125 10.0703 0
     vertex 2.12648 10.6906 0
     vertex 4.17125 10.0703 2
   endloop
 endfacet
 facet normal 0.471397 0.881921 -0
   outer loop
     vertex 6.05572 9.06302 0
     vertex 4.17125 10.0703 2
     vertex 6.05572 9.06302 2
   endloop
 endfacet
 facet normal 0.471397 0.881921 0
   outer loop
     vertex 6.05572 9.06302 0
     vertex 4.17125 10.0703 0
     vertex 4.17125 10.0703 2
   endloop
 endfacet
 facet normal -0.995185 0.0980171 0
   outer loop
     vertex -10.6906 2.12648 0
     vertex -10.9 0 2
     vertex -10.6906 2.12648 2
   endloop
 endfacet
 facet normal -0.995185 0.0980171 0
   outer loop
     vertex -10.6906 2.12648 0
     vertex -10.9 0 0
     vertex -10.9 0 2
   endloop
 endfacet
 facet normal 0.634393 0.77301 -0
   outer loop
     vertex 7.70746 7.70746 0
     vertex 6.05572 9.06302 2
     vertex 7.70746 7.70746 2
   endloop
 endfacet
 facet normal 0.634393 0.77301 0
   outer loop
     vertex 7.70746 7.70746 0
     vertex 6.05572 9.06302 0
     vertex 6.05572 9.06302 2
   endloop
 endfacet
 facet normal -0.95694 0.290285 0
   outer loop
     vertex -10.0703 4.17125 0
     vertex -10.6906 2.12648 2
     vertex -10.0703 4.17125 2
   endloop
 endfacet
 facet normal 0.77301 0.634393 -0
   outer loop
     vertex 9.06302 6.05572 0
     vertex 7.70746 7.70746 2
     vertex 9.06302 6.05572 2
   endloop
 endfacet
 facet normal -0.95694 0.290285 0
   outer loop
     vertex -10.0703 4.17125 0
     vertex -10.6906 2.12648 0
     vertex -10.6906 2.12648 2
   endloop
 endfacet
 facet normal 0.77301 0.634393 0
   outer loop
     vertex 9.06302 6.05572 0
     vertex 7.70746 7.70746 0
     vertex 7.70746 7.70746 2
   endloop
 endfacet
 facet normal 0.881921 0.471397 0
   outer loop
     vertex 10.0703 4.17125 2
     vertex 9.06302 6.05572 0
     vertex 9.06302 6.05572 2
   endloop
 endfacet
 facet normal -0.881921 0.471397 0
   outer loop
     vertex -9.06302 6.05572 0
     vertex -10.0703 4.17125 2
     vertex -9.06302 6.05572 2
   endloop
 endfacet
 facet normal 0.881921 0.471397 -0
   outer loop
     vertex 10.0703 4.17125 0
     vertex 9.06302 6.05572 0
     vertex 10.0703 4.17125 2
   endloop
 endfacet
 facet normal -0.881921 0.471397 0
   outer loop
     vertex -9.06302 6.05572 0
     vertex -10.0703 4.17125 0
     vertex -10.0703 4.17125 2
   endloop
 endfacet
 facet normal 0.95694 0.290285 -0
   outer loop
     vertex 10.6906 2.12648 0
     vertex 10.0703 4.17125 2
     vertex 10.6906 2.12648 2
   endloop
 endfacet
 facet normal -0.77301 0.634393 0
   outer loop
     vertex -7.70746 7.70746 0
     vertex -9.06302 6.05572 2
     vertex -7.70746 7.70746 2
   endloop
 endfacet
 facet normal 0.95694 0.290285 0
   outer loop
     vertex 10.6906 2.12648 0
     vertex 10.0703 4.17125 0
     vertex 10.0703 4.17125 2
   endloop
 endfacet
 facet normal -0.77301 0.634393 0
   outer loop
     vertex -7.70746 7.70746 0
     vertex -9.06302 6.05572 0
     vertex -9.06302 6.05572 2
   endloop
 endfacet
 facet normal 0.995185 0.0980171 -0
   outer loop
     vertex 10.9 1.33487e-15 0
     vertex 10.6906 2.12648 2
     vertex 10.9 1.33487e-15 2
   endloop
 endfacet
 facet normal -0.634393 0.77301 0
   outer loop
     vertex -6.05572 9.06302 0
     vertex -7.70746 7.70746 2
     vertex -6.05572 9.06302 2
   endloop
 endfacet
 facet normal 0.995185 0.0980171 0
   outer loop
     vertex 10.9 1.33487e-15 0
     vertex 10.6906 2.12648 0
     vertex 10.6906 2.12648 2
   endloop
 endfacet
 facet normal -0.634393 0.77301 0
   outer loop
     vertex -6.05572 9.06302 0
     vertex -7.70746 7.70746 0
     vertex -7.70746 7.70746 2
   endloop
 endfacet
 facet normal -0.471397 0.881921 0
   outer loop
     vertex -4.17125 10.0703 2
     vertex -6.05572 9.06302 0
     vertex -6.05572 9.06302 2
   endloop
 endfacet
 facet normal -0.471397 0.881921 0
   outer loop
     vertex -4.17125 10.0703 0
     vertex -6.05572 9.06302 0
     vertex -4.17125 10.0703 2
   endloop
 endfacet
 facet normal -0.290285 0.95694 0
   outer loop
     vertex -2.12648 10.6906 2
     vertex -4.17125 10.0703 0
     vertex -4.17125 10.0703 2
   endloop
 endfacet
 facet normal -0.290285 0.95694 0
   outer loop
     vertex -2.12648 10.6906 0
     vertex -4.17125 10.0703 0
     vertex -2.12648 10.6906 2
   endloop
 endfacet
 facet normal -0.0980171 0.995185 0
   outer loop
     vertex 6.6741e-16 10.9 0
     vertex -2.12648 10.6906 2
     vertex 6.6741e-16 10.9 2
   endloop
 endfacet
 facet normal -0.0980171 0.995185 0
   outer loop
     vertex 6.6741e-16 10.9 0
     vertex -2.12648 10.6906 0
     vertex -2.12648 10.6906 2
   endloop
 endfacet
 facet normal 0.0980171 0.995185 -0
   outer loop
     vertex 2.12648 10.6906 0
     vertex 6.6741e-16 10.9 2
     vertex 2.12648 10.6906 2
   endloop
 endfacet
 facet normal 0.0980171 0.995185 0
   outer loop
     vertex 2.12648 10.6906 0
     vertex 6.6741e-16 10.9 0
     vertex 6.6741e-16 10.9 2
   endloop
 endfacet
 facet normal 0.290285 0.95694 0
   outer loop
     vertex 4.17125 10.0703 2
     vertex 2.12648 10.6906 0
     vertex 2.12648 10.6906 2
   endloop
 endfacet
 facet normal 0 0 1
   outer loop
     vertex -3.53553 -3.53553 4.5
     vertex -8.09017 -5.87785 4.5
     vertex -6.69131 -7.43145 4.5
   endloop
 endfacet
 facet normal 0 0 1
   outer loop
     vertex -2.5 -4.33013 4.5
     vertex -6.69131 -7.43145 4.5
     vertex -5 -8.66025 4.5
   endloop
 endfacet
 facet normal 0 0 1
   outer loop
     vertex -2.5 -4.33013 4.5
     vertex -5 -8.66025 4.5
     vertex -3.09017 -9.51057 4.5
   endloop
 endfacet
 facet normal 0 0 1
   outer loop
     vertex -2.5 -4.33013 4.5
     vertex -3.53553 -3.53553 4.5
     vertex -6.69131 -7.43145 4.5
   endloop
 endfacet
 facet normal 0 0 1
   outer loop
     vertex -4.33013 -2.5 4.5
     vertex -9.13545 -4.06737 4.5
     vertex -8.09017 -5.87785 4.5
   endloop
 endfacet
 facet normal 0 0 1
   outer loop
     vertex -4.33013 -2.5 4.5
     vertex -8.09017 -5.87785 4.5
     vertex -3.53553 -3.53553 4.5
   endloop
 endfacet
 facet normal 0 0 1
   outer loop
     vertex -1.2941 -4.82963 4.5
     vertex -3.09017 -9.51057 4.5
     vertex -1.04528 -9.94522 4.5
   endloop
 endfacet
 facet normal 0 0 1
   outer loop
     vertex -1.2941 -4.82963 4.5
     vertex -2.5 -4.33013 4.5
     vertex -3.09017 -9.51057 4.5
   endloop
 endfacet
 facet normal 0 0 1
   outer loop
     vertex -4.82963 -1.2941 4.5
     vertex -9.78148 -2.07912 4.5
     vertex -9.13545 -4.06737 4.5
   endloop
 endfacet
 facet normal 0 0 1
   outer loop
     vertex -4.82963 -1.2941 4.5
     vertex -9.13545 -4.06737 4.5
     vertex -4.33013 -2.5 4.5
   endloop
 endfacet
 facet normal 0 0 1
   outer loop
     vertex -5 0 4.5
     vertex -10 0 4.5
     vertex -9.78148 -2.07912 4.5
   endloop
 endfacet
 facet normal 0 0 1
   outer loop
     vertex -5 0 4.5
     vertex -9.78148 2.07912 4.5
     vertex -10 0 4.5
   endloop
 endfacet
 facet normal 0 0 1
   outer loop
     vertex -5 0 4.5
     vertex -9.78148 -2.07912 4.5
     vertex -4.82963 -1.2941 4.5
   endloop
 endfacet
 facet normal 0 0 1
   outer loop
     vertex 1.41637e-15 -5 4.5
     vertex -1.04528 -9.94522 4.5
     vertex 1.04528 -9.94522 4.5
   endloop
 endfacet
 facet normal 0 0 1
   outer loop
     vertex 1.41637e-15 -5 4.5
     vertex -1.2941 -4.82963 4.5
     vertex -1.04528 -9.94522 4.5
   endloop
 endfacet
 facet normal 0 0 1
   outer loop
     vertex -4.82963 1.2941 4.5
     vertex -9.13545 4.06737 4.5
     vertex -9.78148 2.07912 4.5
   endloop
 endfacet
 facet normal 0 0 1
   outer loop
     vertex -4.82963 1.2941 4.5
     vertex -9.78148 2.07912 4.5
     vertex -5 0 4.5
   endloop
 endfacet
 facet normal 0 0 1
   outer loop
     vertex 1.2941 -4.82963 4.5
     vertex 1.04528 -9.94522 4.5
     vertex 3.09017 -9.51057 4.5
   endloop
 endfacet
 facet normal 0 0 1
   outer loop
     vertex 1.2941 -4.82963 4.5
     vertex 1.41637e-15 -5 4.5
     vertex 1.04528 -9.94522 4.5
   endloop
 endfacet
 facet normal 0 0 1
   outer loop
     vertex -4.33013 2.5 4.5
     vertex -8.09017 5.87785 4.5
     vertex -9.13545 4.06737 4.5
   endloop
 endfacet
 facet normal 0 0 1
   outer loop
     vertex -4.33013 2.5 4.5
     vertex -9.13545 4.06737 4.5
     vertex -4.82963 1.2941 4.5
   endloop
 endfacet
 facet normal 0 0 1
   outer loop
     vertex 2.5 -4.33013 4.5
     vertex 3.09017 -9.51057 4.5
     vertex 5 -8.66025 4.5
   endloop
 endfacet
 facet normal 0 0 1
   outer loop
     vertex 2.5 -4.33013 4.5
     vertex 1.2941 -4.82963 4.5
     vertex 3.09017 -9.51057 4.5
   endloop
 endfacet
 facet normal 0 0 1
   outer loop
     vertex 6.69131 -7.43145 4.5
     vertex 2.5 -4.33013 4.5
     vertex 5 -8.66025 4.5
   endloop
 endfacet
 facet normal 0 0 1
   outer loop
     vertex 3.53553 -3.53553 4.5
     vertex 2.5 -4.33013 4.5
     vertex 6.69131 -7.43145 4.5
   endloop
 endfacet
 facet normal 0 0 1
   outer loop
     vertex -3.53553 3.53553 4.5
     vertex -8.09017 5.87785 4.5
     vertex -4.33013 2.5 4.5
   endloop
 endfacet
 facet normal 0 0 1
   outer loop
     vertex -6.69131 7.43145 4.5
     vertex -8.09017 5.87785 4.5
     vertex -3.53553 3.53553 4.5
   endloop
 endfacet
 facet normal 0 0 1
   outer loop
     vertex -2.5 4.33013 4.5
     vertex -6.69131 7.43145 4.5
     vertex -3.53553 3.53553 4.5
   endloop
 endfacet
 facet normal 0 0 1
   outer loop
     vertex 8.09017 -5.87785 4.5
     vertex 3.53553 -3.53553 4.5
     vertex 6.69131 -7.43145 4.5
   endloop
 endfacet
 facet normal 0 0 1
   outer loop
     vertex 8.09017 -5.87785 4.5
     vertex 4.33013 -2.5 4.5
     vertex 3.53553 -3.53553 4.5
   endloop
 endfacet
 facet normal 0 0 1
   outer loop
     vertex -5 8.66025 4.5
     vertex -6.69131 7.43145 4.5
     vertex -2.5 4.33013 4.5
   endloop
 endfacet
 facet normal 0 0 1
   outer loop
     vertex 9.13545 -4.06737 4.5
     vertex 4.82963 -1.2941 4.5
     vertex 4.33013 -2.5 4.5
   endloop
 endfacet
 facet normal 0 0 1
   outer loop
     vertex 9.13545 -4.06737 4.5
     vertex 4.33013 -2.5 4.5
     vertex 8.09017 -5.87785 4.5
   endloop
 endfacet
 facet normal 0 0 1
   outer loop
     vertex -3.09017 9.51057 4.5
     vertex -2.5 4.33013 4.5
     vertex -1.2941 4.82963 4.5
   endloop
 endfacet
 facet normal 0 0 1
   outer loop
     vertex -3.09017 9.51057 4.5
     vertex -5 8.66025 4.5
     vertex -2.5 4.33013 4.5
   endloop
 endfacet
 facet normal 0 0 1
   outer loop
     vertex 9.78148 -2.07912 4.5
     vertex 5 6.12323e-16 4.5
     vertex 4.82963 -1.2941 4.5
   endloop
 endfacet
 facet normal 0 0 1
   outer loop
     vertex 9.78148 -2.07912 4.5
     vertex 4.82963 -1.2941 4.5
     vertex 9.13545 -4.06737 4.5
   endloop
 endfacet
 facet normal 0 0 1
   outer loop
     vertex -1.04528 9.94522 4.5
     vertex -1.2941 4.82963 4.5
     vertex -9.18455e-16 5 4.5
   endloop
 endfacet
 facet normal 0 0 1
   outer loop
     vertex -1.04528 9.94522 4.5
     vertex -3.09017 9.51057 4.5
     vertex -1.2941 4.82963 4.5
   endloop
 endfacet
 facet normal 0 0 1
   outer loop
     vertex 10 1.22465e-15 4.5
     vertex 5 6.12323e-16 4.5
     vertex 9.78148 -2.07912 4.5
   endloop
 endfacet
 facet normal 0 0 1
   outer loop
     vertex 1.04528 9.94522 4.5
     vertex -9.18455e-16 5 4.5
     vertex 1.2941 4.82963 4.5
   endloop
 endfacet
 facet normal 0 0 1
   outer loop
     vertex 1.04528 9.94522 4.5
     vertex -1.04528 9.94522 4.5
     vertex -9.18455e-16 5 4.5
   endloop
 endfacet
 facet normal 0 0 1
   outer loop
     vertex 9.78148 2.07912 4.5
     vertex 4.82963 1.2941 4.5
     vertex 5 6.12323e-16 4.5
   endloop
 endfacet
 facet normal 0 0 1
   outer loop
     vertex 9.78148 2.07912 4.5
     vertex 5 6.12323e-16 4.5
     vertex 10 1.22465e-15 4.5
   endloop
 endfacet
 facet normal 0 0 1
   outer loop
     vertex 3.09017 9.51057 4.5
     vertex 1.2941 4.82963 4.5
     vertex 2.5 4.33013 4.5
   endloop
 endfacet
 facet normal 0 0 1
   outer loop
     vertex 3.09017 9.51057 4.5
     vertex 1.04528 9.94522 4.5
     vertex 1.2941 4.82963 4.5
   endloop
 endfacet
 facet normal 0 0 1
   outer loop
     vertex 9.13545 4.06737 4.5
     vertex 4.33013 2.5 4.5
     vertex 4.82963 1.2941 4.5
   endloop
 endfacet
 facet normal 0 0 1
   outer loop
     vertex 9.13545 4.06737 4.5
     vertex 4.82963 1.2941 4.5
     vertex 9.78148 2.07912 4.5
   endloop
 endfacet
 facet normal 0 0 1
   outer loop
     vertex 5 8.66025 4.5
     vertex 3.09017 9.51057 4.5
     vertex 2.5 4.33013 4.5
   endloop
 endfacet
 facet normal 0 0 1
   outer loop
     vertex 8.09017 5.87785 4.5
     vertex 3.53553 3.53553 4.5
     vertex 4.33013 2.5 4.5
   endloop
 endfacet
 facet normal 0 0 1
   outer loop
     vertex 8.09017 5.87785 4.5
     vertex 4.33013 2.5 4.5
     vertex 9.13545 4.06737 4.5
   endloop
 endfacet
 facet normal 0 0 1
   outer loop
     vertex 6.69131 7.43145 4.5
     vertex 2.5 4.33013 4.5
     vertex 3.53553 3.53553 4.5
   endloop
 endfacet
 facet normal 0 0 1
   outer loop
     vertex 6.69131 7.43145 4.5
     vertex 5 8.66025 4.5
     vertex 2.5 4.33013 4.5
   endloop
 endfacet
 facet normal 0 0 1
   outer loop
     vertex 6.69131 7.43145 4.5
     vertex 3.53553 3.53553 4.5
     vertex 8.09017 5.87785 4.5
   endloop
 endfacet
 facet normal 0 0 1
   outer loop
     vertex -6.69131 -7.43145 2
     vertex -7.70746 -7.70746 2
     vertex -6.05572 -9.06302 2
   endloop
 endfacet
 facet normal 0 0 1
   outer loop
     vertex -8.09017 -5.87785 2
     vertex -9.06302 -6.05572 2
     vertex -7.70746 -7.70746 2
   endloop
 endfacet
 facet normal 0 0 1
   outer loop
     vertex -8.09017 -5.87785 2
     vertex -7.70746 -7.70746 2
     vertex -6.69131 -7.43145 2
   endloop
 endfacet
 facet normal 0 0 1
   outer loop
     vertex -5 -8.66025 2
     vertex -6.05572 -9.06302 2
     vertex -4.17125 -10.0703 2
   endloop
 endfacet
 facet normal 0 0 1
   outer loop
     vertex -5 -8.66025 2
     vertex -6.69131 -7.43145 2
     vertex -6.05572 -9.06302 2
   endloop
 endfacet
 facet normal 0 0 1
   outer loop
     vertex -9.13545 -4.06737 2
     vertex -10.0703 -4.17125 2
     vertex -9.06302 -6.05572 2
   endloop
 endfacet
 facet normal 0 0 1
   outer loop
     vertex -9.13545 -4.06737 2
     vertex -9.06302 -6.05572 2
     vertex -8.09017 -5.87785 2
   endloop
 endfacet
 facet normal 0 0 1
   outer loop
     vertex -3.09017 -9.51057 2
     vertex -4.17125 -10.0703 2
     vertex -2.12648 -10.6906 2
   endloop
 endfacet
 facet normal 0 0 1
   outer loop
     vertex -3.09017 -9.51057 2
     vertex -5 -8.66025 2
     vertex -4.17125 -10.0703 2
   endloop
 endfacet
 facet normal 0 0 1
   outer loop
     vertex -9.78148 -2.07912 2
     vertex -10.6906 -2.12648 2
     vertex -10.0703 -4.17125 2
   endloop
 endfacet
 facet normal 0 0 1
   outer loop
     vertex -9.78148 -2.07912 2
     vertex -10.0703 -4.17125 2
     vertex -9.13545 -4.06737 2
   endloop
 endfacet
 facet normal 0 0 1
   outer loop
     vertex -1.04528 -9.94522 2
     vertex -3.09017 -9.51057 2
     vertex -2.12648 -10.6906 2
   endloop
 endfacet
 facet normal 0 0 1
   outer loop
     vertex 1.73601e-14 -10.9 2
     vertex -1.04528 -9.94522 2
     vertex -2.12648 -10.6906 2
   endloop
 endfacet
 facet normal 0 0 1
   outer loop
     vertex -10 0 2
     vertex -10.9 0 2
     vertex -10.6906 -2.12648 2
   endloop
 endfacet
 facet normal 0 0 1
   outer loop
     vertex -10 0 2
     vertex -10.6906 -2.12648 2
     vertex -9.78148 -2.07912 2
   endloop
 endfacet
 facet normal 0 0 1
   outer loop
     vertex 1.04528 -9.94522 2
     vertex -1.04528 -9.94522 2
     vertex 1.73601e-14 -10.9 2
   endloop
 endfacet
 facet normal 0 0 1
   outer loop
     vertex -10.6906 2.12648 2
     vertex -10.9 0 2
     vertex -10 0 2
   endloop
 endfacet
 facet normal 0 0 1
   outer loop
     vertex 2.12648 -10.6906 2
     vertex 1.04528 -9.94522 2
     vertex 1.73601e-14 -10.9 2
   endloop
 endfacet
 facet normal 0 0 1
   outer loop
     vertex -9.78148 2.07912 2
     vertex -10.6906 2.12648 2
     vertex -10 0 2
   endloop
 endfacet
 facet normal 0 0 1
   outer loop
     vertex 3.09017 -9.51057 2
     vertex 1.04528 -9.94522 2
     vertex 2.12648 -10.6906 2
   endloop
 endfacet
 facet normal 0 0 1
   outer loop
     vertex -10.0703 4.17125 2
     vertex -10.6906 2.12648 2
     vertex -9.78148 2.07912 2
   endloop
 endfacet
 facet normal 0 0 1
   outer loop
     vertex 4.17125 -10.0703 2
     vertex 3.09017 -9.51057 2
     vertex 2.12648 -10.6906 2
   endloop
 endfacet
 facet normal 0 0 1
   outer loop
     vertex -9.13545 4.06737 2
     vertex -10.0703 4.17125 2
     vertex -9.78148 2.07912 2
   endloop
 endfacet
 facet normal 0 0 1
   outer loop
     vertex 5 -8.66025 2
     vertex 3.09017 -9.51057 2
     vertex 4.17125 -10.0703 2
   endloop
 endfacet
 facet normal 0 0 1
   outer loop
     vertex -9.06302 6.05572 2
     vertex -10.0703 4.17125 2
     vertex -9.13545 4.06737 2
   endloop
 endfacet
 facet normal 0 0 1
   outer loop
     vertex 6.05572 -9.06302 2
     vertex 5 -8.66025 2
     vertex 4.17125 -10.0703 2
   endloop
 endfacet
 facet normal 0 0 1
   outer loop
     vertex -8.09017 5.87785 2
     vertex -9.06302 6.05572 2
     vertex -9.13545 4.06737 2
   endloop
 endfacet
 facet normal 0 0 1
   outer loop
     vertex 6.69131 -7.43145 2
     vertex 5 -8.66025 2
     vertex 6.05572 -9.06302 2
   endloop
 endfacet
 facet normal 0 0 1
   outer loop
     vertex -7.70746 7.70746 2
     vertex -9.06302 6.05572 2
     vertex -8.09017 5.87785 2
   endloop
 endfacet
 facet normal 0 0 1
   outer loop
     vertex 7.70746 -7.70746 2
     vertex 6.69131 -7.43145 2
     vertex 6.05572 -9.06302 2
   endloop
 endfacet
 facet normal 0 0 1
   outer loop
     vertex -6.69131 7.43145 2
     vertex -7.70746 7.70746 2
     vertex -8.09017 5.87785 2
   endloop
 endfacet
 facet normal 0 0 1
   outer loop
     vertex 8.09017 -5.87785 2
     vertex 6.69131 -7.43145 2
     vertex 7.70746 -7.70746 2
   endloop
 endfacet
 facet normal 0 0 1
   outer loop
     vertex -6.05572 9.06302 2
     vertex -7.70746 7.70746 2
     vertex -6.69131 7.43145 2
   endloop
 endfacet
 facet normal 0 0 1
   outer loop
     vertex 9.06302 -6.05572 2
     vertex 8.09017 -5.87785 2
     vertex 7.70746 -7.70746 2
   endloop
 endfacet
 facet normal 0 0 1
   outer loop
     vertex -5 8.66025 2
     vertex -6.05572 9.06302 2
     vertex -6.69131 7.43145 2
   endloop
 endfacet
 facet normal 0 0 1
   outer loop
     vertex 9.13545 -4.06737 2
     vertex 8.09017 -5.87785 2
     vertex 9.06302 -6.05572 2
   endloop
 endfacet
 facet normal 0 0 1
   outer loop
     vertex -4.17125 10.0703 2
     vertex -6.05572 9.06302 2
     vertex -5 8.66025 2
   endloop
 endfacet
 facet normal 0 0 1
   outer loop
     vertex 10.0703 -4.17125 2
     vertex 9.13545 -4.06737 2
     vertex 9.06302 -6.05572 2
   endloop
 endfacet
 facet normal 0 0 1
   outer loop
     vertex -3.09017 9.51057 2
     vertex -4.17125 10.0703 2
     vertex -5 8.66025 2
   endloop
 endfacet
 facet normal 0 0 1
   outer loop
     vertex 9.78148 -2.07912 2
     vertex 9.13545 -4.06737 2
     vertex 10.0703 -4.17125 2
   endloop
 endfacet
 facet normal 0 0 1
   outer loop
     vertex -2.12648 10.6906 2
     vertex -4.17125 10.0703 2
     vertex -3.09017 9.51057 2
   endloop
 endfacet
 facet normal 0 0 1
   outer loop
     vertex 10.6906 -2.12648 2
     vertex 9.78148 -2.07912 2
     vertex 10.0703 -4.17125 2
   endloop
 endfacet
 facet normal 0 0 1
   outer loop
     vertex -1.04528 9.94522 2
     vertex -2.12648 10.6906 2
     vertex -3.09017 9.51057 2
   endloop
 endfacet
 facet normal 0 0 1
   outer loop
     vertex 10 1.22465e-15 2
     vertex 9.78148 -2.07912 2
     vertex 10.6906 -2.12648 2
   endloop
 endfacet
 facet normal 0 0 1
   outer loop
     vertex 6.6741e-16 10.9 2
     vertex -2.12648 10.6906 2
     vertex -1.04528 9.94522 2
   endloop
 endfacet
 facet normal 0 0 1
   outer loop
     vertex 10.9 1.33487e-15 2
     vertex 10 1.22465e-15 2
     vertex 10.6906 -2.12648 2
   endloop
 endfacet
 facet normal 0 0 1
   outer loop
     vertex 1.04528 9.94522 2
     vertex 6.6741e-16 10.9 2
     vertex -1.04528 9.94522 2
   endloop
 endfacet
 facet normal 0 0 1
   outer loop
     vertex 2.12648 10.6906 2
     vertex 6.6741e-16 10.9 2
     vertex 1.04528 9.94522 2
   endloop
 endfacet
 facet normal 0 0 1
   outer loop
     vertex 2.12648 10.6906 2
     vertex 1.04528 9.94522 2
     vertex 3.09017 9.51057 2
   endloop
 endfacet
 facet normal 0 0 1
   outer loop
     vertex 10.6906 2.12648 2
     vertex 9.78148 2.07912 2
     vertex 10 1.22465e-15 2
   endloop
 endfacet
 facet normal 0 0 1
   outer loop
     vertex 10.6906 2.12648 2
     vertex 10 1.22465e-15 2
     vertex 10.9 1.33487e-15 2
   endloop
 endfacet
 facet normal 0 0 1
   outer loop
     vertex 4.17125 10.0703 2
     vertex 3.09017 9.51057 2
     vertex 5 8.66025 2
   endloop
 endfacet
 facet normal 0 0 1
   outer loop
     vertex 4.17125 10.0703 2
     vertex 2.12648 10.6906 2
     vertex 3.09017 9.51057 2
   endloop
 endfacet
 facet normal 0 0 1
   outer loop
     vertex 10.0703 4.17125 2
     vertex 9.13545 4.06737 2
     vertex 9.78148 2.07912 2
   endloop
 endfacet
 facet normal 0 0 1
   outer loop
     vertex 10.0703 4.17125 2
     vertex 9.78148 2.07912 2
     vertex 10.6906 2.12648 2
   endloop
 endfacet
 facet normal 0 0 1
   outer loop
     vertex 6.05572 9.06302 2
     vertex 5 8.66025 2
     vertex 6.69131 7.43145 2
   endloop
 endfacet
 facet normal 0 0 1
   outer loop
     vertex 6.05572 9.06302 2
     vertex 4.17125 10.0703 2
     vertex 5 8.66025 2
   endloop
 endfacet
 facet normal 0 0 1
   outer loop
     vertex 9.06302 6.05572 2
     vertex 8.09017 5.87785 2
     vertex 9.13545 4.06737 2
   endloop
 endfacet
 facet normal 0 0 1
   outer loop
     vertex 9.06302 6.05572 2
     vertex 9.13545 4.06737 2
     vertex 10.0703 4.17125 2
   endloop
 endfacet
 facet normal 0 0 1
   outer loop
     vertex 7.70746 7.70746 2
     vertex 6.69131 7.43145 2
     vertex 8.09017 5.87785 2
   endloop
 endfacet
 facet normal 0 0 1
   outer loop
     vertex 7.70746 7.70746 2
     vertex 6.05572 9.06302 2
     vertex 6.69131 7.43145 2
   endloop
 endfacet
 facet normal 0 0 1
   outer loop
     vertex 7.70746 7.70746 2
     vertex 8.09017 5.87785 2
     vertex 9.06302 6.05572 2
   endloop
 endfacet
 facet normal -0.290285 -0.95694 0
   outer loop
     vertex -4.17125 -10.0703 0
     vertex -2.12648 -10.6906 0
     vertex -4.17125 -10.0703 2
   endloop
 endfacet
 facet normal -0.471397 -0.881921 0
   outer loop
     vertex -6.05572 -9.06302 0
     vertex -4.17125 -10.0703 2
     vertex -6.05572 -9.06302 2
   endloop
 endfacet
 facet normal -0.471397 -0.881921 0
   outer loop
     vertex -6.05572 -9.06302 0
     vertex -4.17125 -10.0703 0
     vertex -4.17125 -10.0703 2
   endloop
 endfacet
 facet normal 0.995185 -0.0980171 0
   outer loop
     vertex 10.6906 -2.12648 0
     vertex 10.9 1.33487e-15 0
     vertex 10.9 1.33487e-15 2
   endloop
 endfacet
 facet normal 0.995185 -0.0980171 0
   outer loop
     vertex 10.6906 -2.12648 0
     vertex 10.9 1.33487e-15 2
     vertex 10.6906 -2.12648 2
   endloop
 endfacet
 facet normal -0.634393 -0.77301 0
   outer loop
     vertex -7.70746 -7.70746 0
     vertex -6.05572 -9.06302 2
     vertex -7.70746 -7.70746 2
   endloop
 endfacet
 facet normal -0.634393 -0.77301 0
   outer loop
     vertex -7.70746 -7.70746 0
     vertex -6.05572 -9.06302 0
     vertex -6.05572 -9.06302 2
   endloop
 endfacet
 facet normal 0.95694 -0.290285 0
   outer loop
     vertex 10.0703 -4.17125 0
     vertex 10.6906 -2.12648 2
     vertex 10.0703 -4.17125 2
   endloop
 endfacet
 facet normal 0.95694 -0.290285 0
   outer loop
     vertex 10.0703 -4.17125 0
     vertex 10.6906 -2.12648 0
     vertex 10.6906 -2.12648 2
   endloop
 endfacet
 facet normal -0.77301 -0.634393 0
   outer loop
     vertex -9.06302 -6.05572 0
     vertex -7.70746 -7.70746 2
     vertex -9.06302 -6.05572 2
   endloop
 endfacet
 facet normal -0.77301 -0.634393 0
   outer loop
     vertex -9.06302 -6.05572 0
     vertex -7.70746 -7.70746 0
     vertex -7.70746 -7.70746 2
   endloop
 endfacet
 facet normal 0.881921 -0.471397 0
   outer loop
     vertex 9.06302 -6.05572 0
     vertex 10.0703 -4.17125 2
     vertex 9.06302 -6.05572 2
   endloop
 endfacet
 facet normal -0.881921 -0.471397 0
   outer loop
     vertex -10.0703 -4.17125 0
     vertex -9.06302 -6.05572 2
     vertex -10.0703 -4.17125 2
   endloop
 endfacet
 facet normal 0.881921 -0.471397 0
   outer loop
     vertex 9.06302 -6.05572 0
     vertex 10.0703 -4.17125 0
     vertex 10.0703 -4.17125 2
   endloop
 endfacet
 facet normal -0.881921 -0.471397 0
   outer loop
     vertex -10.0703 -4.17125 0
     vertex -9.06302 -6.05572 0
     vertex -9.06302 -6.05572 2
   endloop
 endfacet
 facet normal 0.77301 -0.634393 0
   outer loop
     vertex 7.70746 -7.70746 0
     vertex 9.06302 -6.05572 2
     vertex 7.70746 -7.70746 2
   endloop
 endfacet
 facet normal -0.95694 -0.290285 0
   outer loop
     vertex -10.6906 -2.12648 0
     vertex -10.0703 -4.17125 2
     vertex -10.6906 -2.12648 2
   endloop
 endfacet
 facet normal -0.95694 -0.290285 0
   outer loop
     vertex -10.6906 -2.12648 0
     vertex -10.0703 -4.17125 0
     vertex -10.0703 -4.17125 2
   endloop
 endfacet
 facet normal 0.77301 -0.634393 0
   outer loop
     vertex 7.70746 -7.70746 0
     vertex 9.06302 -6.05572 0
     vertex 9.06302 -6.05572 2
   endloop
 endfacet
 facet normal 0.634393 -0.77301 0
   outer loop
     vertex 6.05572 -9.06302 0
     vertex 7.70746 -7.70746 2
     vertex 6.05572 -9.06302 2
   endloop
 endfacet
 facet normal -0.995185 -0.0980171 0
   outer loop
     vertex -10.9 0 0
     vertex -10.6906 -2.12648 2
     vertex -10.9 0 2
   endloop
 endfacet
 facet normal 0.634393 -0.77301 0
   outer loop
     vertex 6.05572 -9.06302 0
     vertex 7.70746 -7.70746 0
     vertex 7.70746 -7.70746 2
   endloop
 endfacet
 facet normal -0.995185 -0.0980171 0
   outer loop
     vertex -10.9 0 0
     vertex -10.6906 -2.12648 0
     vertex -10.6906 -2.12648 2
   endloop
 endfacet
 facet normal 0.471397 -0.881921 0
   outer loop
     vertex 4.17125 -10.0703 0
     vertex 6.05572 -9.06302 2
     vertex 4.17125 -10.0703 2
   endloop
 endfacet
 facet normal 0.471397 -0.881921 0
   outer loop
     vertex 4.17125 -10.0703 0
     vertex 6.05572 -9.06302 0
     vertex 6.05572 -9.06302 2
   endloop
 endfacet
 facet normal 0.290285 -0.95694 0
   outer loop
     vertex 2.12648 -10.6906 0
     vertex 4.17125 -10.0703 2
     vertex 2.12648 -10.6906 2
   endloop
 endfacet
 facet normal 0.290285 -0.95694 0
   outer loop
     vertex 2.12648 -10.6906 0
     vertex 4.17125 -10.0703 0
     vertex 4.17125 -10.0703 2
   endloop
 endfacet
 facet normal 0.0980171 -0.995185 0
   outer loop
     vertex 1.73601e-14 -10.9 0
     vertex 2.12648 -10.6906 2
     vertex 1.73601e-14 -10.9 2
   endloop
 endfacet
 facet normal 0.0980171 -0.995185 0
   outer loop
     vertex 1.73601e-14 -10.9 0
     vertex 2.12648 -10.6906 0
     vertex 2.12648 -10.6906 2
   endloop
 endfacet
 facet normal -0.0980171 -0.995185 0
   outer loop
     vertex -2.12648 -10.6906 0
     vertex 1.73601e-14 -10.9 2
     vertex -2.12648 -10.6906 2
   endloop
 endfacet
 facet normal -0.0980171 -0.995185 0
   outer loop
     vertex -2.12648 -10.6906 0
     vertex 1.73601e-14 -10.9 0
     vertex 1.73601e-14 -10.9 2
   endloop
 endfacet
 facet normal -0.290285 -0.95694 0
   outer loop
     vertex -4.17125 -10.0703 2
     vertex -2.12648 -10.6906 0
     vertex -2.12648 -10.6906 2
   endloop
 endfacet
 facet normal 0 0 -1
   outer loop
     vertex -1.16673 -1.16673 0
     vertex -7.70746 -7.70746 0
     vertex -9.06302 -6.05572 0
   endloop
 endfacet
 facet normal 0 0 -1
   outer loop
     vertex -1.16673 -1.16673 0
     vertex -6.05572 -9.06302 0
     vertex -7.70746 -7.70746 0
   endloop
 endfacet
 facet normal 0 0 -1
   outer loop
     vertex -1.42894 -0.825 0
     vertex -9.06302 -6.05572 0
     vertex -10.0703 -4.17125 0
   endloop
 endfacet
 facet normal 0 -0 -1
   outer loop
     vertex -1.42894 -0.825 0
     vertex -1.16673 -1.16673 0
     vertex -9.06302 -6.05572 0
   endloop
 endfacet
 facet normal 0 0 -1
   outer loop
     vertex -0.825 -1.42894 0
     vertex -4.17125 -10.0703 0
     vertex -6.05572 -9.06302 0
   endloop
 endfacet
 facet normal -0 0 -1
   outer loop
     vertex -0.825 -1.42894 0
     vertex -6.05572 -9.06302 0
     vertex -1.16673 -1.16673 0
   endloop
 endfacet
 facet normal 0 0 -1
   outer loop
     vertex -1.59378 -0.427051 0
     vertex -10.0703 -4.17125 0
     vertex -10.6906 -2.12648 0
   endloop
 endfacet
 facet normal 0 -0 -1
   outer loop
     vertex -1.59378 -0.427051 0
     vertex -1.42894 -0.825 0
     vertex -10.0703 -4.17125 0
   endloop
 endfacet
 facet normal 0 0 -1
   outer loop
     vertex -0.427051 -1.59378 0
     vertex -2.12648 -10.6906 0
     vertex -4.17125 -10.0703 0
   endloop
 endfacet
 facet normal -0 0 -1
   outer loop
     vertex -0.427051 -1.59378 0
     vertex -4.17125 -10.0703 0
     vertex -0.825 -1.42894 0
   endloop
 endfacet
 facet normal -0 0 -1
   outer loop
     vertex -1.65 0 0
     vertex -10.6906 -2.12648 0
     vertex -10.9 0 0
   endloop
 endfacet
 facet normal 0 0 -1
   outer loop
     vertex -1.65 0 0
     vertex -10.9 0 0
     vertex -10.6906 2.12648 0
   endloop
 endfacet
 facet normal 0 -0 -1
   outer loop
     vertex -1.65 0 0
     vertex -1.59378 -0.427051 0
     vertex -10.6906 -2.12648 0
   endloop
 endfacet
 facet normal 0 -0 -1
   outer loop
     vertex 3.0309e-16 -1.65 0
     vertex 1.73601e-14 -10.9 0
     vertex -2.12648 -10.6906 0
   endloop
 endfacet
 facet normal 0 0 -1
   outer loop
     vertex 3.0309e-16 -1.65 0
     vertex 2.12648 -10.6906 0
     vertex 1.73601e-14 -10.9 0
   endloop
 endfacet
 facet normal -0 0 -1
   outer loop
     vertex 3.0309e-16 -1.65 0
     vertex -2.12648 -10.6906 0
     vertex -0.427051 -1.59378 0
   endloop
 endfacet
 facet normal -0 0 -1
   outer loop
     vertex -1.59378 0.427051 0
     vertex -1.65 0 0
     vertex -10.6906 2.12648 0
   endloop
 endfacet
 facet normal 0 0 -1
   outer loop
     vertex -1.59378 0.427051 0
     vertex -10.6906 2.12648 0
     vertex -10.0703 4.17125 0
   endloop
 endfacet
 facet normal 0 0 -1
   outer loop
     vertex 0.427051 -1.59378 0
     vertex 4.17125 -10.0703 0
     vertex 2.12648 -10.6906 0
   endloop
 endfacet
 facet normal 0 -0 -1
   outer loop
     vertex 0.427051 -1.59378 0
     vertex 2.12648 -10.6906 0
     vertex 3.0309e-16 -1.65 0
   endloop
 endfacet
 facet normal 0 0 -1
   outer loop
     vertex 0.825 -1.42894 0
     vertex 6.05572 -9.06302 0
     vertex 4.17125 -10.0703 0
   endloop
 endfacet
 facet normal 0 -0 -1
   outer loop
     vertex 0.825 -1.42894 0
     vertex 4.17125 -10.0703 0
     vertex 0.427051 -1.59378 0
   endloop
 endfacet
 facet normal -0 0 -1
   outer loop
     vertex -1.42894 0.825 0
     vertex -1.59378 0.427051 0
     vertex -10.0703 4.17125 0
   endloop
 endfacet
 facet normal 0 0 -1
   outer loop
     vertex -1.42894 0.825 0
     vertex -10.0703 4.17125 0
     vertex -9.06302 6.05572 0
   endloop
 endfacet
 facet normal -0 0 -1
   outer loop
     vertex -1.16673 1.16673 0
     vertex -1.42894 0.825 0
     vertex -9.06302 6.05572 0
   endloop
 endfacet
 facet normal 0 -0 -1
   outer loop
     vertex 1.16673 -1.16673 0
     vertex 6.05572 -9.06302 0
     vertex 0.825 -1.42894 0
   endloop
 endfacet
 facet normal 0 -0 -1
   outer loop
     vertex -7.70746 7.70746 0
     vertex -1.16673 1.16673 0
     vertex -9.06302 6.05572 0
   endloop
 endfacet
 facet normal -0 0 -1
   outer loop
     vertex 7.70746 -7.70746 0
     vertex 6.05572 -9.06302 0
     vertex 1.16673 -1.16673 0
   endloop
 endfacet
 facet normal 0 0 -1
   outer loop
     vertex -6.05572 9.06302 0
     vertex -0.825 1.42894 0
     vertex -1.16673 1.16673 0
   endloop
 endfacet
 facet normal 0 -0 -1
   outer loop
     vertex -6.05572 9.06302 0
     vertex -1.16673 1.16673 0
     vertex -7.70746 7.70746 0
   endloop
 endfacet
 facet normal 0 0 -1
   outer loop
     vertex 9.06302 -6.05572 0
     vertex 1.16673 -1.16673 0
     vertex 1.42894 -0.825 0
   endloop
 endfacet
 facet normal -0 0 -1
   outer loop
     vertex 9.06302 -6.05572 0
     vertex 7.70746 -7.70746 0
     vertex 1.16673 -1.16673 0
   endloop
 endfacet
 facet normal 0 0 -1
   outer loop
     vertex -4.17125 10.0703 0
     vertex -0.427051 1.59378 0
     vertex -0.825 1.42894 0
   endloop
 endfacet
 facet normal 0 -0 -1
   outer loop
     vertex -4.17125 10.0703 0
     vertex -0.825 1.42894 0
     vertex -6.05572 9.06302 0
   endloop
 endfacet
 facet normal 0 0 -1
   outer loop
     vertex 10.0703 -4.17125 0
     vertex 1.42894 -0.825 0
     vertex 1.59378 -0.427051 0
   endloop
 endfacet
 facet normal -0 0 -1
   outer loop
     vertex 10.0703 -4.17125 0
     vertex 9.06302 -6.05572 0
     vertex 1.42894 -0.825 0
   endloop
 endfacet
 facet normal 0 0 -1
   outer loop
     vertex -2.12648 10.6906 0
     vertex -4.67404e-16 1.65 0
     vertex -0.427051 1.59378 0
   endloop
 endfacet
 facet normal 0 -0 -1
   outer loop
     vertex -2.12648 10.6906 0
     vertex -0.427051 1.59378 0
     vertex -4.17125 10.0703 0
   endloop
 endfacet
 facet normal 0 0 -1
   outer loop
     vertex 10.6906 -2.12648 0
     vertex 1.59378 -0.427051 0
     vertex 1.65 2.02067e-16 0
   endloop
 endfacet
 facet normal -0 0 -1
   outer loop
     vertex 10.6906 -2.12648 0
     vertex 10.0703 -4.17125 0
     vertex 1.59378 -0.427051 0
   endloop
 endfacet
 facet normal 0 0 -1
   outer loop
     vertex 10.9 1.33487e-15 0
     vertex 10.6906 -2.12648 0
     vertex 1.65 2.02067e-16 0
   endloop
 endfacet
 facet normal 0 0 -1
   outer loop
     vertex 6.6741e-16 10.9 0
     vertex -4.67404e-16 1.65 0
     vertex -2.12648 10.6906 0
   endloop
 endfacet
 facet normal 0 0 -1
   outer loop
     vertex 2.12648 10.6906 0
     vertex 0.427051 1.59378 0
     vertex -4.67404e-16 1.65 0
   endloop
 endfacet
 facet normal -0 0 -1
   outer loop
     vertex 2.12648 10.6906 0
     vertex -4.67404e-16 1.65 0
     vertex 6.6741e-16 10.9 0
   endloop
 endfacet
 facet normal 0 0 -1
   outer loop
     vertex 10.6906 2.12648 0
     vertex 1.65 2.02067e-16 0
     vertex 1.59378 0.427051 0
   endloop
 endfacet
 facet normal 0 -0 -1
   outer loop
     vertex 10.6906 2.12648 0
     vertex 10.9 1.33487e-15 0
     vertex 1.65 2.02067e-16 0
   endloop
 endfacet
 facet normal 0 0 -1
   outer loop
     vertex 4.17125 10.0703 0
     vertex 0.825 1.42894 0
     vertex 0.427051 1.59378 0
   endloop
 endfacet
 facet normal -0 0 -1
   outer loop
     vertex 4.17125 10.0703 0
     vertex 0.427051 1.59378 0
     vertex 2.12648 10.6906 0
   endloop
 endfacet
 facet normal 0 0 -1
   outer loop
     vertex 10.0703 4.17125 0
     vertex 1.59378 0.427051 0
     vertex 1.42894 0.825 0
   endloop
 endfacet
 facet normal 0 -0 -1
   outer loop
     vertex 10.0703 4.17125 0
     vertex 10.6906 2.12648 0
     vertex 1.59378 0.427051 0
   endloop
 endfacet
 facet normal 0 0 -1
   outer loop
     vertex 6.05572 9.06302 0
     vertex 1.16673 1.16673 0
     vertex 0.825 1.42894 0
   endloop
 endfacet
 facet normal -0 0 -1
   outer loop
     vertex 6.05572 9.06302 0
     vertex 0.825 1.42894 0
     vertex 4.17125 10.0703 0
   endloop
 endfacet
 facet normal 0 0 -1
   outer loop
     vertex 9.06302 6.05572 0
     vertex 1.42894 0.825 0
     vertex 1.16673 1.16673 0
   endloop
 endfacet
 facet normal 0 -0 -1
   outer loop
     vertex 9.06302 6.05572 0
     vertex 10.0703 4.17125 0
     vertex 1.42894 0.825 0
   endloop
 endfacet
 facet normal -0 0 -1
   outer loop
     vertex 7.70746 7.70746 0
     vertex 1.16673 1.16673 0
     vertex 6.05572 9.06302 0
   endloop
 endfacet
 facet normal 0 -0 -1
   outer loop
     vertex 7.70746 7.70746 0
     vertex 9.06302 6.05572 0
     vertex 1.16673 1.16673 0
   endloop
 endfacet
 facet normal -0.406737 -0.913545 0
   outer loop
     vertex -5 -8.66025 2
     vertex -3.09017 -9.51057 2
     vertex -3.09017 -9.51057 4.5
   endloop
 endfacet
 facet normal -0.587785 -0.809017 0
   outer loop
     vertex -6.69131 -7.43145 2
     vertex -5 -8.66025 4.5
     vertex -6.69131 -7.43145 4.5
   endloop
 endfacet
 facet normal -0.587785 -0.809017 0
   outer loop
     vertex -6.69131 -7.43145 2
     vertex -5 -8.66025 2
     vertex -5 -8.66025 4.5
   endloop
 endfacet
 facet normal 0.994522 -0.104528 0
   outer loop
     vertex 9.78148 -2.07912 2
     vertex 10 1.22465e-15 2
     vertex 10 1.22465e-15 4.5
   endloop
 endfacet
 facet normal 0.994522 -0.104528 0
   outer loop
     vertex 9.78148 -2.07912 2
     vertex 10 1.22465e-15 4.5
     vertex 9.78148 -2.07912 4.5
   endloop
 endfacet
 facet normal -0.743145 -0.669131 0
   outer loop
     vertex -8.09017 -5.87785 2
     vertex -6.69131 -7.43145 4.5
     vertex -8.09017 -5.87785 4.5
   endloop
 endfacet
 facet normal -0.743145 -0.669131 0
   outer loop
     vertex -8.09017 -5.87785 2
     vertex -6.69131 -7.43145 2
     vertex -6.69131 -7.43145 4.5
   endloop
 endfacet
 facet normal 0.951057 -0.309017 0
   outer loop
     vertex 9.13545 -4.06737 2
     vertex 9.78148 -2.07912 4.5
     vertex 9.13545 -4.06737 4.5
   endloop
 endfacet
 facet normal 0.951057 -0.309017 0
   outer loop
     vertex 9.13545 -4.06737 2
     vertex 9.78148 -2.07912 2
     vertex 9.78148 -2.07912 4.5
   endloop
 endfacet
 facet normal -0.866025 -0.5 0
   outer loop
     vertex -9.13545 -4.06737 2
     vertex -8.09017 -5.87785 4.5
     vertex -9.13545 -4.06737 4.5
   endloop
 endfacet
 facet normal -0.866025 -0.5 0
   outer loop
     vertex -9.13545 -4.06737 2
     vertex -8.09017 -5.87785 2
     vertex -8.09017 -5.87785 4.5
   endloop
 endfacet
 facet normal 0.866025 -0.5 0
   outer loop
     vertex 8.09017 -5.87785 2
     vertex 9.13545 -4.06737 4.5
     vertex 8.09017 -5.87785 4.5
   endloop
 endfacet
 facet normal -0.951057 -0.309017 0
   outer loop
     vertex -9.78148 -2.07912 2
     vertex -9.13545 -4.06737 4.5
     vertex -9.78148 -2.07912 4.5
   endloop
 endfacet
 facet normal 0.866025 -0.5 0
   outer loop
     vertex 8.09017 -5.87785 2
     vertex 9.13545 -4.06737 2
     vertex 9.13545 -4.06737 4.5
   endloop
 endfacet
 facet normal -0.951057 -0.309017 0
   outer loop
     vertex -9.78148 -2.07912 2
     vertex -9.13545 -4.06737 2
     vertex -9.13545 -4.06737 4.5
   endloop
 endfacet
 facet normal 0.743145 -0.669131 0
   outer loop
     vertex 6.69131 -7.43145 2
     vertex 8.09017 -5.87785 4.5
     vertex 6.69131 -7.43145 4.5
   endloop
 endfacet
 facet normal -0.994522 -0.104528 0
   outer loop
     vertex -10 0 2
     vertex -9.78148 -2.07912 4.5
     vertex -10 0 4.5
   endloop
 endfacet
 facet normal -0.994522 -0.104528 0
   outer loop
     vertex -10 0 2
     vertex -9.78148 -2.07912 2
     vertex -9.78148 -2.07912 4.5
   endloop
 endfacet
 facet normal 0.743145 -0.669131 0
   outer loop
     vertex 6.69131 -7.43145 2
     vertex 8.09017 -5.87785 2
     vertex 8.09017 -5.87785 4.5
   endloop
 endfacet
 facet normal 0.587785 -0.809017 0
   outer loop
     vertex 5 -8.66025 2
     vertex 6.69131 -7.43145 4.5
     vertex 5 -8.66025 4.5
   endloop
 endfacet
 facet normal 0.587785 -0.809017 0
   outer loop
     vertex 5 -8.66025 2
     vertex 6.69131 -7.43145 2
     vertex 6.69131 -7.43145 4.5
   endloop
 endfacet
 facet normal 0.406737 -0.913545 0
   outer loop
     vertex 3.09017 -9.51057 2
     vertex 5 -8.66025 4.5
     vertex 3.09017 -9.51057 4.5
   endloop
 endfacet
 facet normal 0.406737 -0.913545 0
   outer loop
     vertex 3.09017 -9.51057 2
     vertex 5 -8.66025 2
     vertex 5 -8.66025 4.5
   endloop
 endfacet
 facet normal 0.207912 -0.978148 0
   outer loop
     vertex 1.04528 -9.94522 2
     vertex 3.09017 -9.51057 4.5
     vertex 1.04528 -9.94522 4.5
   endloop
 endfacet
 facet normal 0.207912 -0.978148 0
   outer loop
     vertex 1.04528 -9.94522 2
     vertex 3.09017 -9.51057 2
     vertex 3.09017 -9.51057 4.5
   endloop
 endfacet
 facet normal 0 -1 0
   outer loop
     vertex -1.04528 -9.94522 2
     vertex 1.04528 -9.94522 4.5
     vertex -1.04528 -9.94522 4.5
   endloop
 endfacet
 facet normal 0 -1 0
   outer loop
     vertex -1.04528 -9.94522 2
     vertex 1.04528 -9.94522 2
     vertex 1.04528 -9.94522 4.5
   endloop
 endfacet
 facet normal -0.207912 -0.978148 0
   outer loop
     vertex -3.09017 -9.51057 2
     vertex -1.04528 -9.94522 4.5
     vertex -3.09017 -9.51057 4.5
   endloop
 endfacet
 facet normal -0.207912 -0.978148 0
   outer loop
     vertex -3.09017 -9.51057 2
     vertex -1.04528 -9.94522 2
     vertex -1.04528 -9.94522 4.5
   endloop
 endfacet
 facet normal -0.406737 -0.913545 0
   outer loop
     vertex -5 -8.66025 2
     vertex -3.09017 -9.51057 4.5
     vertex -5 -8.66025 4.5
   endloop
 endfacet
 facet normal 0 0 1
   outer loop
     vertex 0.427051 -1.59378 6.5
     vertex 3.0309e-16 -1.65 6.5
     vertex 0.776457 -2.89778 6.5
   endloop
 endfacet
 facet normal 0 0 1
   outer loop
     vertex -1.59378 0.427051 6.5
     vertex -2.89778 0.776457 6.5
     vertex -1.65 0 6.5
   endloop
 endfacet
 facet normal 0 0 1
   outer loop
     vertex 1.5 -2.59808 6.5
     vertex 0.427051 -1.59378 6.5
     vertex 0.776457 -2.89778 6.5
   endloop
 endfacet
 facet normal 0 0 1
   outer loop
     vertex 2.89778 -0.776457 6.5
     vertex 1.42894 -0.825 6.5
     vertex 2.59808 -1.5 6.5
   endloop
 endfacet
 facet normal 0 0 1
   outer loop
     vertex -2.59808 1.5 6.5
     vertex -2.89778 0.776457 6.5
     vertex -1.59378 0.427051 6.5
   endloop
 endfacet
 facet normal 0 0 1
   outer loop
     vertex 2.89778 -0.776457 6.5
     vertex 1.59378 -0.427051 6.5
     vertex 1.42894 -0.825 6.5
   endloop
 endfacet
 facet normal 0 0 1
   outer loop
     vertex 0.825 -1.42894 6.5
     vertex 0.427051 -1.59378 6.5
     vertex 1.5 -2.59808 6.5
   endloop
 endfacet
 facet normal 0 0 1
   outer loop
     vertex -0.776457 2.89778 6.5
     vertex -0.427051 1.59378 6.5
     vertex -4.67404e-16 1.65 6.5
   endloop
 endfacet
 facet normal 0 0 1
   outer loop
     vertex -0.776457 2.89778 6.5
     vertex -1.5 2.59808 6.5
     vertex -0.427051 1.59378 6.5
   endloop
 endfacet
 facet normal 0 0 1
   outer loop
     vertex -1.42894 0.825 6.5
     vertex -2.59808 1.5 6.5
     vertex -1.59378 0.427051 6.5
   endloop
 endfacet
 facet normal 0 0 1
   outer loop
     vertex 2.12132 -2.12132 6.5
     vertex 0.825 -1.42894 6.5
     vertex 1.5 -2.59808 6.5
   endloop
 endfacet
 facet normal 0 0 1
   outer loop
     vertex -1.16673 1.16673 6.5
     vertex -2.59808 1.5 6.5
     vertex -1.42894 0.825 6.5
   endloop
 endfacet
 facet normal 0 0 1
   outer loop
     vertex 3 4.89859e-16 6.5
     vertex 1.65 2.02067e-16 6.5
     vertex 1.59378 -0.427051 6.5
   endloop
 endfacet
 facet normal 0 0 1
   outer loop
     vertex 3 4.89859e-16 6.5
     vertex 1.59378 -0.427051 6.5
     vertex 2.89778 -0.776457 6.5
   endloop
 endfacet
 facet normal 0 0 1
   outer loop
     vertex 1.16673 -1.16673 6.5
     vertex 0.825 -1.42894 6.5
     vertex 2.12132 -2.12132 6.5
   endloop
 endfacet
 facet normal 0 0 1
   outer loop
     vertex -1.16673 -1.16673 6.5
     vertex -2.12132 -2.12132 6.5
     vertex -1.5 -2.59808 6.5
   endloop
 endfacet
 facet normal 0 0 1
   outer loop
     vertex 8.49825e-16 3 6.5
     vertex -4.67404e-16 1.65 6.5
     vertex 0.427051 1.59378 6.5
   endloop
 endfacet
 facet normal 0 0 1
   outer loop
     vertex -2.12132 2.12132 6.5
     vertex -2.59808 1.5 6.5
     vertex -1.16673 1.16673 6.5
   endloop
 endfacet
 facet normal 0 0 1
   outer loop
     vertex 8.49825e-16 3 6.5
     vertex -0.776457 2.89778 6.5
     vertex -4.67404e-16 1.65 6.5
   endloop
 endfacet
 facet normal 0 0 1
   outer loop
     vertex -1.42894 -0.825 6.5
     vertex -2.59808 -1.5 6.5
     vertex -2.12132 -2.12132 6.5
   endloop
 endfacet
 facet normal 0 0 1
   outer loop
     vertex 0.776457 2.89778 6.5
     vertex 0.427051 1.59378 6.5
     vertex 0.825 1.42894 6.5
   endloop
 endfacet
 facet normal 0 0 1
   outer loop
     vertex -1.42894 -0.825 6.5
     vertex -2.12132 -2.12132 6.5
     vertex -1.16673 -1.16673 6.5
   endloop
 endfacet
 facet normal 0 0 1
   outer loop
     vertex 0.776457 2.89778 6.5
     vertex 8.49825e-16 3 6.5
     vertex 0.427051 1.59378 6.5
   endloop
 endfacet
 facet normal 0 0 1
   outer loop
     vertex -0.825 -1.42894 6.5
     vertex -1.5 -2.59808 6.5
     vertex -0.776457 -2.89778 6.5
   endloop
 endfacet
 facet normal 0 0 1
   outer loop
     vertex 2.89778 0.776457 6.5
     vertex 1.65 2.02067e-16 6.5
     vertex 3 4.89859e-16 6.5
   endloop
 endfacet
 facet normal 0 0 1
   outer loop
     vertex -0.825 -1.42894 6.5
     vertex -1.16673 -1.16673 6.5
     vertex -1.5 -2.59808 6.5
   endloop
 endfacet
 facet normal 0 0 1
   outer loop
     vertex 2.59808 -1.5 6.5
     vertex 1.16673 -1.16673 6.5
     vertex 2.12132 -2.12132 6.5
   endloop
 endfacet
 facet normal 0 0 1
   outer loop
     vertex 2.89778 0.776457 6.5
     vertex 1.42894 0.825 6.5
     vertex 1.59378 0.427051 6.5
   endloop
 endfacet
 facet normal 0 0 1
   outer loop
     vertex 2.59808 -1.5 6.5
     vertex 1.42894 -0.825 6.5
     vertex 1.16673 -1.16673 6.5
   endloop
 endfacet
 facet normal 0 0 1
   outer loop
     vertex 2.89778 0.776457 6.5
     vertex 1.59378 0.427051 6.5
     vertex 1.65 2.02067e-16 6.5
   endloop
 endfacet
 facet normal 0 0 1
   outer loop
     vertex -1.5 2.59808 6.5
     vertex -1.16673 1.16673 6.5
     vertex -0.825 1.42894 6.5
   endloop
 endfacet
 facet normal 0 0 1
   outer loop
     vertex 1.5 2.59808 6.5
     vertex 0.825 1.42894 6.5
     vertex 1.16673 1.16673 6.5
   endloop
 endfacet
 facet normal 0 0 1
   outer loop
     vertex -1.5 2.59808 6.5
     vertex -2.12132 2.12132 6.5
     vertex -1.16673 1.16673 6.5
   endloop
 endfacet
 facet normal 0 0 1
   outer loop
     vertex 1.5 2.59808 6.5
     vertex 0.776457 2.89778 6.5
     vertex 0.825 1.42894 6.5
   endloop
 endfacet
 facet normal 0 0 1
   outer loop
     vertex -1.59378 -0.427051 6.5
     vertex -2.89778 -0.776457 6.5
     vertex -2.59808 -1.5 6.5
   endloop
 endfacet
 facet normal 0 0 1
   outer loop
     vertex 2.59808 1.5 6.5
     vertex 1.16673 1.16673 6.5
     vertex 1.42894 0.825 6.5
   endloop
 endfacet
 facet normal 0 0 1
   outer loop
     vertex -1.59378 -0.427051 6.5
     vertex -2.59808 -1.5 6.5
     vertex -1.42894 -0.825 6.5
   endloop
 endfacet
 facet normal 0 0 1
   outer loop
     vertex 2.59808 1.5 6.5
     vertex 1.42894 0.825 6.5
     vertex 2.89778 0.776457 6.5
   endloop
 endfacet
 facet normal 0 0 1
   outer loop
     vertex 2.12132 2.12132 6.5
     vertex 1.5 2.59808 6.5
     vertex 1.16673 1.16673 6.5
   endloop
 endfacet
 facet normal 0 0 1
   outer loop
     vertex -0.427051 -1.59378 6.5
     vertex -0.776457 -2.89778 6.5
     vertex -5.51073e-16 -3 6.5
   endloop
 endfacet
 facet normal 0 0 1
   outer loop
     vertex 2.12132 2.12132 6.5
     vertex 1.16673 1.16673 6.5
     vertex 2.59808 1.5 6.5
   endloop
 endfacet
 facet normal 0 0 1
   outer loop
     vertex -0.427051 -1.59378 6.5
     vertex -0.825 -1.42894 6.5
     vertex -0.776457 -2.89778 6.5
   endloop
 endfacet
 facet normal 0 0 1
   outer loop
     vertex -0.427051 1.59378 6.5
     vertex -1.5 2.59808 6.5
     vertex -0.825 1.42894 6.5
   endloop
 endfacet
 facet normal 0 0 1
   outer loop
     vertex -1.65 0 6.5
     vertex -3 0 6.5
     vertex -2.89778 -0.776457 6.5
   endloop
 endfacet
 facet normal 0 0 1
   outer loop
     vertex -1.65 0 6.5
     vertex -2.89778 0.776457 6.5
     vertex -3 0 6.5
   endloop
 endfacet
 facet normal 0 0 1
   outer loop
     vertex -1.65 0 6.5
     vertex -2.89778 -0.776457 6.5
     vertex -1.59378 -0.427051 6.5
   endloop
 endfacet
 facet normal 0 0 1
   outer loop
     vertex 3.0309e-16 -1.65 6.5
     vertex -5.51073e-16 -3 6.5
     vertex 0.776457 -2.89778 6.5
   endloop
 endfacet
 facet normal 0 0 1
   outer loop
     vertex 3.0309e-16 -1.65 6.5
     vertex -0.427051 -1.59378 6.5
     vertex -5.51073e-16 -3 6.5
   endloop
 endfacet
 facet normal -0.92388 -0.382683 0
   outer loop
     vertex 1.59378 0.427051 0
     vertex 1.59378 0.427051 6.5
     vertex 1.42894 0.825 6.5
   endloop
 endfacet
 facet normal -0.92388 -0.382683 0
   outer loop
     vertex 1.59378 0.427051 0
     vertex 1.42894 0.825 6.5
     vertex 1.42894 0.825 0
   endloop
 endfacet
 facet normal -0.991445 -0.130526 0
   outer loop
     vertex 1.65 2.02067e-16 0
     vertex 1.65 2.02067e-16 6.5
     vertex 1.59378 0.427051 6.5
   endloop
 endfacet
 facet normal -0.991445 -0.130526 0
   outer loop
     vertex 1.65 2.02067e-16 0
     vertex 1.59378 0.427051 6.5
     vertex 1.59378 0.427051 0
   endloop
 endfacet
 facet normal 0.991445 -0.130526 0
   outer loop
     vertex -1.59378 0.427051 0
     vertex -1.65 0 6.5
     vertex -1.65 0 0
   endloop
 endfacet
 facet normal 0.991445 -0.130526 0
   outer loop
     vertex -1.59378 0.427051 0
     vertex -1.59378 0.427051 6.5
     vertex -1.65 0 6.5
   endloop
 endfacet
 facet normal 0.92388 -0.382683 0
   outer loop
     vertex -1.42894 0.825 6.5
     vertex -1.59378 0.427051 6.5
     vertex -1.59378 0.427051 0
   endloop
 endfacet
 facet normal 0.92388 -0.382683 0
   outer loop
     vertex -1.42894 0.825 0
     vertex -1.42894 0.825 6.5
     vertex -1.59378 0.427051 0
   endloop
 endfacet
 facet normal 0.793353 -0.608761 0
   outer loop
     vertex -1.16673 1.16673 6.5
     vertex -1.42894 0.825 6.5
     vertex -1.42894 0.825 0
   endloop
 endfacet
 facet normal 0.793353 -0.608761 0
   outer loop
     vertex -1.16673 1.16673 0
     vertex -1.16673 1.16673 6.5
     vertex -1.42894 0.825 0
   endloop
 endfacet
 facet normal 0.608761 -0.793353 0
   outer loop
     vertex -0.825 1.42894 6.5
     vertex -1.16673 1.16673 6.5
     vertex -1.16673 1.16673 0
   endloop
 endfacet
 facet normal 0.608761 -0.793353 0
   outer loop
     vertex -0.825 1.42894 0
     vertex -0.825 1.42894 6.5
     vertex -1.16673 1.16673 0
   endloop
 endfacet
 facet normal 0.382683 -0.92388 0
   outer loop
     vertex -0.427051 1.59378 0
     vertex -0.427051 1.59378 6.5
     vertex -0.825 1.42894 6.5
   endloop
 endfacet
 facet normal 0.382683 -0.92388 0
   outer loop
     vertex -0.427051 1.59378 0
     vertex -0.825 1.42894 6.5
     vertex -0.825 1.42894 0
   endloop
 endfacet
 facet normal 0.130526 -0.991445 0
   outer loop
     vertex -4.67404e-16 1.65 6.5
     vertex -0.427051 1.59378 6.5
     vertex -0.427051 1.59378 0
   endloop
 endfacet
 facet normal 0.130526 -0.991445 0
   outer loop
     vertex -4.67404e-16 1.65 0
     vertex -4.67404e-16 1.65 6.5
     vertex -0.427051 1.59378 0
   endloop
 endfacet
 facet normal -0.130526 -0.991445 0
   outer loop
     vertex 0.427051 1.59378 6.5
     vertex -4.67404e-16 1.65 6.5
     vertex -4.67404e-16 1.65 0
   endloop
 endfacet
 facet normal -0.130526 -0.991445 0
   outer loop
     vertex 0.427051 1.59378 0
     vertex 0.427051 1.59378 6.5
     vertex -4.67404e-16 1.65 0
   endloop
 endfacet
 facet normal -0.382683 -0.92388 0
   outer loop
     vertex 0.825 1.42894 0
     vertex 0.825 1.42894 6.5
     vertex 0.427051 1.59378 6.5
   endloop
 endfacet
 facet normal -0.382683 -0.92388 0
   outer loop
     vertex 0.825 1.42894 0
     vertex 0.427051 1.59378 6.5
     vertex 0.427051 1.59378 0
   endloop
 endfacet
 facet normal -0.608761 -0.793353 0
   outer loop
     vertex 1.16673 1.16673 6.5
     vertex 0.825 1.42894 6.5
     vertex 0.825 1.42894 0
   endloop
 endfacet
 facet normal -0.608761 -0.793353 0
   outer loop
     vertex 1.16673 1.16673 0
     vertex 1.16673 1.16673 6.5
     vertex 0.825 1.42894 0
   endloop
 endfacet
 facet normal -0.793353 -0.608761 0
   outer loop
     vertex 1.42894 0.825 6.5
     vertex 1.16673 1.16673 6.5
     vertex 1.16673 1.16673 0
   endloop
 endfacet
 facet normal -0.793353 -0.608761 0
   outer loop
     vertex 1.42894 0.825 0
     vertex 1.42894 0.825 6.5
     vertex 1.16673 1.16673 0
   endloop
 endfacet
 facet normal -0.56339 -0.432305 0.704063
   outer loop
     vertex -3.53553 -3.53553 4.5
     vertex -2.12132 -2.12132 6.5
     vertex -2.59808 -1.5 6.5
   endloop
 endfacet
 facet normal -0.432305 -0.56339 0.704063
   outer loop
     vertex -3.53553 -3.53553 4.5
     vertex -2.5 -4.33013 4.5
     vertex -2.12132 -2.12132 6.5
   endloop
 endfacet
 facet normal -0.56339 -0.432305 0.704063
   outer loop
     vertex -4.33013 -2.5 4.5
     vertex -3.53553 -3.53553 4.5
     vertex -2.59808 -1.5 6.5
   endloop
 endfacet
 facet normal -0.704063 -0.0926916 0.704063
   outer loop
     vertex -4.82963 -1.2941 4.5
     vertex -2.89778 -0.776457 6.5
     vertex -3 0 6.5
   endloop
 endfacet
 facet normal -0.656082 -0.271758 0.704063
   outer loop
     vertex -4.82963 -1.2941 4.5
     vertex -2.59808 -1.5 6.5
     vertex -2.89778 -0.776457 6.5
   endloop
 endfacet
 facet normal -0.656082 -0.271758 0.704063
   outer loop
     vertex -4.82963 -1.2941 4.5
     vertex -4.33013 -2.5 4.5
     vertex -2.59808 -1.5 6.5
   endloop
 endfacet
 facet normal 0.704063 -0.0926916 0.704063
   outer loop
     vertex 4.82963 -1.2941 4.5
     vertex 5 6.12323e-16 4.5
     vertex 3 4.89859e-16 6.5
   endloop
 endfacet
 facet normal 0.704063 -0.0926916 0.704063
   outer loop
     vertex 4.82963 -1.2941 4.5
     vertex 3 4.89859e-16 6.5
     vertex 2.89778 -0.776457 6.5
   endloop
 endfacet
 facet normal -0.704063 -0.0926916 0.704063
   outer loop
     vertex -5 0 4.5
     vertex -4.82963 -1.2941 4.5
     vertex -3 0 6.5
   endloop
 endfacet
 facet normal 0.656082 -0.271758 0.704063
   outer loop
     vertex 4.33013 -2.5 4.5
     vertex 2.89778 -0.776457 6.5
     vertex 2.59808 -1.5 6.5
   endloop
 endfacet
 facet normal 0.656082 -0.271758 0.704063
   outer loop
     vertex 4.33013 -2.5 4.5
     vertex 4.82963 -1.2941 4.5
     vertex 2.89778 -0.776457 6.5
   endloop
 endfacet
 facet normal 0.56339 -0.432305 0.704063
   outer loop
     vertex 3.53553 -3.53553 4.5
     vertex 2.59808 -1.5 6.5
     vertex 2.12132 -2.12132 6.5
   endloop
 endfacet
 facet normal 0.56339 -0.432305 0.704063
   outer loop
     vertex 3.53553 -3.53553 4.5
     vertex 4.33013 -2.5 4.5
     vertex 2.59808 -1.5 6.5
   endloop
 endfacet
 facet normal 0.271758 -0.656082 0.704063
   outer loop
     vertex 2.5 -4.33013 4.5
     vertex 1.5 -2.59808 6.5
     vertex 0.776457 -2.89778 6.5
   endloop
 endfacet
 facet normal 0.432305 -0.56339 0.704063
   outer loop
     vertex 2.5 -4.33013 4.5
     vertex 2.12132 -2.12132 6.5
     vertex 1.5 -2.59808 6.5
   endloop
 endfacet
 facet normal 0.432305 -0.56339 0.704063
   outer loop
     vertex 2.5 -4.33013 4.5
     vertex 3.53553 -3.53553 4.5
     vertex 2.12132 -2.12132 6.5
   endloop
 endfacet
 facet normal 0.271758 -0.656082 0.704063
   outer loop
     vertex 1.2941 -4.82963 4.5
     vertex 2.5 -4.33013 4.5
     vertex 0.776457 -2.89778 6.5
   endloop
 endfacet
 facet normal -0.0926916 -0.704063 0.704063
   outer loop
     vertex 1.41637e-15 -5 4.5
     vertex -5.51073e-16 -3 6.5
     vertex -0.776457 -2.89778 6.5
   endloop
 endfacet
 facet normal 0.0926916 -0.704063 0.704063
   outer loop
     vertex 1.41637e-15 -5 4.5
     vertex 0.776457 -2.89778 6.5
     vertex -5.51073e-16 -3 6.5
   endloop
 endfacet
 facet normal 0.0926916 -0.704063 0.704063
   outer loop
     vertex 1.41637e-15 -5 4.5
     vertex 1.2941 -4.82963 4.5
     vertex 0.776457 -2.89778 6.5
   endloop
 endfacet
 facet normal -0.271758 -0.656082 0.704063
   outer loop
     vertex -1.2941 -4.82963 4.5
     vertex -0.776457 -2.89778 6.5
     vertex -1.5 -2.59808 6.5
   endloop
 endfacet
 facet normal -0.0926916 -0.704063 0.704063
   outer loop
     vertex -1.2941 -4.82963 4.5
     vertex 1.41637e-15 -5 4.5
     vertex -0.776457 -2.89778 6.5
   endloop
 endfacet
 facet normal -0.432305 -0.56339 0.704063
   outer loop
     vertex -2.5 -4.33013 4.5
     vertex -1.5 -2.59808 6.5
     vertex -2.12132 -2.12132 6.5
   endloop
 endfacet
 facet normal -0.271758 -0.656082 0.704063
   outer loop
     vertex -2.5 -4.33013 4.5
     vertex -1.2941 -4.82963 4.5
     vertex -1.5 -2.59808 6.5
   endloop
 endfacet
endsolid
