solid
 facet normal 0.000861361 0.7894 -0.613879
   outer loop
     vertex -6 7.51005 6.98995
     vertex -2.93489 7.49427 6.97396
     vertex -2.87673 7.30868 6.73539
   endloop
 endfacet
 facet normal 0.00153337 0.793352 -0.608761
   outer loop
     vertex -6 7.51005 6.98995
     vertex -2.87673 7.30868 6.73539
     vertex -6 7.28756 6.7
   endloop
 endfacet
 facet normal 0 0.0608303 0.998148
   outer loop
     vertex -3 8.32999 4.61036
     vertex -3 8.5 4.6
     vertex -6 8.5 4.6
   endloop
 endfacet
 facet normal -0.000724014 0.638931 -0.769264
   outer loop
     vertex -2.98115 7.7271 7.16738
     vertex -2.93489 7.49427 6.97396
     vertex -6 7.51005 6.98995
   endloop
 endfacet
 facet normal 0.00286097 0.608759 -0.79335
   outer loop
     vertex -6 7.8 7.21244
     vertex -2.98115 7.7271 7.16738
     vertex -6 7.51005 6.98995
   endloop
 endfacet
 facet normal 0.000598486 0.18159 0.983374
   outer loop
     vertex -6 8.13765 4.6477
     vertex -3 8.1625 4.64129
     vertex -3 8.32999 4.61036
   endloop
 endfacet
 facet normal 0.00397277 0.130525 0.991437
   outer loop
     vertex -6 8.13765 4.6477
     vertex -3 8.32999 4.61036
     vertex -6 8.5 4.6
   endloop
 endfacet
 facet normal -0.00223617 0.457064 -0.889431
   outer loop
     vertex -3 8 7.30767
     vertex -2.98115 7.7271 7.16738
     vertex -6 7.8 7.21244
   endloop
 endfacet
 facet normal -0.000442022 0.299663 0.954045
   outer loop
     vertex -3 8 4.69233
     vertex -3 8.1625 4.64129
     vertex -6 8.13765 4.6477
   endloop
 endfacet
 facet normal -0.000442022 0.299663 -0.954045
   outer loop
     vertex -6 8.13765 7.3523
     vertex -3 8.1625 7.35871
     vertex -3 8 7.30767
   endloop
 endfacet
 facet normal 0.00381603 0.382681 -0.923873
   outer loop
     vertex -6 8.13765 7.3523
     vertex -3 8 7.30767
     vertex -6 7.8 7.21244
   endloop
 endfacet
 facet normal 0.00143307 0.412315 0.91104
   outer loop
     vertex -6 7.8 4.78756
     vertex -2.99419 7.84919 4.76058
     vertex -3 8 4.69233
   endloop
 endfacet
 facet normal 0.000598486 0.18159 -0.983374
   outer loop
     vertex -3 8.32999 7.38964
     vertex -3 8.1625 7.35871
     vertex -6 8.13765 7.3523
   endloop
 endfacet
 facet normal 0.00381603 0.382681 0.923873
   outer loop
     vertex -6 7.8 4.78756
     vertex -3 8 4.69233
     vertex -6 8.13765 4.6477
   endloop
 endfacet
 facet normal 0 0.0608303 -0.998148
   outer loop
     vertex -6 8.5 7.4
     vertex -3 8.5 7.4
     vertex -3 8.32999 7.38964
   endloop
 endfacet
 facet normal -0.000767265 0.516679 0.856179
   outer loop
     vertex -2.9784 7.70865 4.8454
     vertex -2.99419 7.84919 4.76058
     vertex -6 7.8 4.78756
   endloop
 endfacet
 facet normal 0.00397277 0.130525 -0.991437
   outer loop
     vertex -6 8.5 7.4
     vertex -3 8.32999 7.38964
     vertex -6 8.13765 7.3523
   endloop
 endfacet
 facet normal 0.00321909 0.608758 0.793349
   outer loop
     vertex -6 7.51005 5.01005
     vertex -2.9784 7.70865 4.8454
     vertex -6 7.8 4.78756
   endloop
 endfacet
 facet normal -0.00143836 0.65112 0.758974
   outer loop
     vertex -2.93057 7.47822 5.04317
     vertex -2.9784 7.70865 4.8454
     vertex -6 7.51005 5.01005
   endloop
 endfacet
 facet normal 0.000666491 0.799108 0.601187
   outer loop
     vertex -6 7.28756 5.3
     vertex -2.87235 7.29692 5.2841
     vertex -2.93057 7.47822 5.04317
   endloop
 endfacet
 facet normal 0.00165767 0.793352 0.608761
   outer loop
     vertex -6 7.28756 5.3
     vertex -2.93057 7.47822 5.04317
     vertex -6 7.51005 5.01005
   endloop
 endfacet
 facet normal -0.000608362 0.909616 0.415449
   outer loop
     vertex -2.82008 7.17095 5.55998
     vertex -2.87235 7.29692 5.2841
     vertex -6 7.28756 5.3
   endloop
 endfacet
 facet normal 0.00259359 0.923876 0.382682
   outer loop
     vertex -6 7.1477 5.63765
     vertex -2.82008 7.17095 5.55998
     vertex -6 7.28756 5.3
   endloop
 endfacet
 facet normal -0.00205463 0.978004 0.208576
   outer loop
     vertex -2.78972 7.10718 5.85927
     vertex -2.82008 7.17095 5.55998
     vertex -6 7.1477 5.63765
   endloop
 endfacet
 facet normal 0.00350299 0.991439 0.130525
   outer loop
     vertex -6 7.1 6
     vertex -2.78972 7.10718 5.85927
     vertex -6 7.1477 5.63765
   endloop
 endfacet
 facet normal -0.00262584 0.999957 -0.00884741
   outer loop
     vertex -2.79108 7.10989 6.16556
     vertex -2.78972 7.10718 5.85927
     vertex -6 7.1 6
   endloop
 endfacet
 facet normal 0.00367814 0.991438 -0.130525
   outer loop
     vertex -6 7.1477 6.36235
     vertex -2.79108 7.10989 6.16556
     vertex -6 7.1 6
   endloop
 endfacet
 facet normal -0.00236855 0.974169 -0.225807
   outer loop
     vertex -2.82361 7.17873 6.46289
     vertex -2.79108 7.10989 6.16556
     vertex -6 7.1477 6.36235
   endloop
 endfacet
 facet normal -0.00122323 0.902523 -0.430641
   outer loop
     vertex -6 7.28756 6.7
     vertex -2.87673 7.30868 6.73539
     vertex -2.82361 7.17873 6.46289
   endloop
 endfacet
 facet normal 0.0030884 0.923875 -0.382682
   outer loop
     vertex -6 7.28756 6.7
     vertex -2.82361 7.17873 6.46289
     vertex -6 7.1477 6.36235
   endloop
 endfacet
 facet normal 7.08812e-16 0.608761 -0.793353
   outer loop
     vertex -6 17.3 7.21244
     vertex -3 17.0101 6.98995
     vertex -6 17.0101 6.98995
   endloop
 endfacet
 facet normal 2.73523e-16 0.382683 -0.92388
   outer loop
     vertex -6 17.6377 7.3523
     vertex -3 17.6377 7.3523
     vertex -3 17.3 7.21244
   endloop
 endfacet
 facet normal 3.67064e-16 0.382683 -0.92388
   outer loop
     vertex -6 17.6377 7.3523
     vertex -3 17.3 7.21244
     vertex -6 17.3 7.21244
   endloop
 endfacet
 facet normal -1.38953e-16 0.130526 0.991445
   outer loop
     vertex -6 17.6377 4.6477
     vertex -3 17.6377 4.6477
     vertex -3 18 4.6
   endloop
 endfacet
 facet normal 0 0.130526 0.991445
   outer loop
     vertex -6 17.6377 4.6477
     vertex -3 18 4.6
     vertex -6 18 4.6
   endloop
 endfacet
 facet normal 0 0.130526 -0.991445
   outer loop
     vertex -6 18 7.4
     vertex -3 18 7.4
     vertex -3 17.6377 7.3523
   endloop
 endfacet
 facet normal 2.94284e-16 0.130526 -0.991445
   outer loop
     vertex -6 18 7.4
     vertex -3 17.6377 7.3523
     vertex -6 17.6377 7.3523
   endloop
 endfacet
 facet normal 6.32853e-16 0.382683 0.92388
   outer loop
     vertex -6 17.3 4.78756
     vertex -3 17.3 4.78756
     vertex -3 17.6377 4.6477
   endloop
 endfacet
 facet normal 1.77203e-16 0.382683 0.92388
   outer loop
     vertex -6 17.3 4.78756
     vertex -3 17.6377 4.6477
     vertex -6 17.6377 4.6477
   endloop
 endfacet
 facet normal 2.51159e-16 0.608761 0.793353
   outer loop
     vertex -6 17.0101 5.01005
     vertex -3 17.0101 5.01005
     vertex -3 17.3 4.78756
   endloop
 endfacet
 facet normal 1.20245e-15 0.608761 0.793353
   outer loop
     vertex -6 17.0101 5.01005
     vertex -3 17.3 4.78756
     vertex -6 17.3 4.78756
   endloop
 endfacet
 facet normal 3.9883e-16 0.793353 0.608761
   outer loop
     vertex -6 16.7876 5.3
     vertex -3 16.7876 5.3
     vertex -3 17.0101 5.01005
   endloop
 endfacet
 facet normal 5.69581e-16 0.793353 0.608761
   outer loop
     vertex -6 16.7876 5.3
     vertex -3 17.0101 5.01005
     vertex -6 17.0101 5.01005
   endloop
 endfacet
 facet normal -3.39891e-16 0.92388 0.382683
   outer loop
     vertex -6 16.6477 5.63765
     vertex -3 16.6477 5.63765
     vertex -3 16.7876 5.3
   endloop
 endfacet
 facet normal 7.53113e-16 0.92388 0.382683
   outer loop
     vertex -6 16.6477 5.63765
     vertex -3 16.7876 5.3
     vertex -6 16.7876 5.3
   endloop
 endfacet
 facet normal -1.15931e-16 0.991445 0.130526
   outer loop
     vertex -6 16.6 6
     vertex -3 16.6 6
     vertex -3 16.6477 5.63765
   endloop
 endfacet
 facet normal -1.17081e-16 0.991445 0.130526
   outer loop
     vertex -6 16.6 6
     vertex -3 16.6477 5.63765
     vertex -6 16.6477 5.63765
   endloop
 endfacet
 facet normal 1.15931e-16 0.991445 -0.130526
   outer loop
     vertex -6 16.6477 6.36235
     vertex -3 16.6477 6.36235
     vertex -3 16.6 6
   endloop
 endfacet
 facet normal 1.17081e-16 0.991445 -0.130526
   outer loop
     vertex -6 16.6477 6.36235
     vertex -3 16.6 6
     vertex -6 16.6 6
   endloop
 endfacet
 facet normal 4.53188e-16 0.92388 -0.382683
   outer loop
     vertex -6 16.7876 6.7
     vertex -3 16.7876 6.7
     vertex -3 16.6477 6.36235
   endloop
 endfacet
 facet normal 3.3542e-16 0.92388 -0.382683
   outer loop
     vertex -6 16.7876 6.7
     vertex -3 16.6477 6.36235
     vertex -6 16.6477 6.36235
   endloop
 endfacet
 facet normal 5.40689e-16 0.793353 -0.608761
   outer loop
     vertex -6 17.0101 6.98995
     vertex -3 17.0101 6.98995
     vertex -3 16.7876 6.7
   endloop
 endfacet
 facet normal 7.2147e-16 0.793353 -0.608761
   outer loop
     vertex -6 17.0101 6.98995
     vertex -3 16.7876 6.7
     vertex -6 16.7876 6.7
   endloop
 endfacet
 facet normal -1.6279e-17 0.608761 -0.793353
   outer loop
     vertex -6 17.3 7.21244
     vertex -3 17.3 7.21244
     vertex -3 17.0101 6.98995
   endloop
 endfacet
 facet normal 0.382683 4.40602e-16 -0.92388
   outer loop
     vertex 5.18472 2.55271 9.04267
     vertex 4.425 2.55271 8.72798
     vertex 4.425 6 8.72798
   endloop
 endfacet
 facet normal 0.382683 -2.31026e-16 -0.92388
   outer loop
     vertex 5.18472 6 9.04267
     vertex 5.18472 2.55271 9.04267
     vertex 4.425 6 8.72798
   endloop
 endfacet
 facet normal 0.130526 6.21739e-16 -0.991445
   outer loop
     vertex 6 2.55271 9.15
     vertex 5.18472 2.55271 9.04267
     vertex 5.18472 6 9.04267
   endloop
 endfacet
 facet normal 0.130526 0 -0.991445
   outer loop
     vertex 6 6 9.15
     vertex 6 2.55271 9.15
     vertex 5.18472 6 9.04267
   endloop
 endfacet
 facet normal 0.130526 6.7259e-17 0.991445
   outer loop
     vertex 5.18472 6 2.95733
     vertex 5.18472 2.55271 2.95733
     vertex 6 2.55271 2.85
   endloop
 endfacet
 facet normal 0.130526 0 0.991445
   outer loop
     vertex 5.18472 6 2.95733
     vertex 6 2.55271 2.85
     vertex 6 6 2.85
   endloop
 endfacet
 facet normal 0.382683 -2.042e-17 0.92388
   outer loop
     vertex 4.425 6 3.27202
     vertex 4.425 2.55271 3.27202
     vertex 5.18472 2.55271 2.95733
   endloop
 endfacet
 facet normal 0.382683 1.95823e-16 0.92388
   outer loop
     vertex 4.425 6 3.27202
     vertex 5.18472 2.55271 2.95733
     vertex 5.18472 6 2.95733
   endloop
 endfacet
 facet normal 0.608761 1.33065e-16 0.793353
   outer loop
     vertex 3.77261 6 3.77261
     vertex 3.77261 2.55271 3.77261
     vertex 4.425 2.55271 3.27202
   endloop
 endfacet
 facet normal 0.608761 5.8747e-17 0.793353
   outer loop
     vertex 3.77261 6 3.77261
     vertex 4.425 2.55271 3.27202
     vertex 4.425 6 3.27202
   endloop
 endfacet
 facet normal 0.793353 9.51185e-17 0.608761
   outer loop
     vertex 3.27202 6 4.425
     vertex 3.27202 2.55271 4.425
     vertex 3.77261 2.55271 3.77261
   endloop
 endfacet
 facet normal 0.793353 2.15406e-16 0.608761
   outer loop
     vertex 3.27202 6 4.425
     vertex 3.77261 2.55271 3.77261
     vertex 3.77261 6 3.77261
   endloop
 endfacet
 facet normal 0.92388 2.83944e-16 0.382683
   outer loop
     vertex 2.95733 2.55271 5.18472
     vertex 3.27202 2.55271 4.425
     vertex 3.27202 6 4.425
   endloop
 endfacet
 facet normal 0.92388 -1.69165e-17 0.382683
   outer loop
     vertex 2.95733 6 5.18472
     vertex 2.95733 2.55271 5.18472
     vertex 3.27202 6 4.425
   endloop
 endfacet
 facet normal 0.991445 3.42691e-16 0.130526
   outer loop
     vertex 2.85 2.55271 6
     vertex 2.95733 2.55271 5.18472
     vertex 2.95733 6 5.18472
   endloop
 endfacet
 facet normal 0.991445 -7.40562e-17 0.130526
   outer loop
     vertex 2.85 6 6
     vertex 2.85 2.55271 6
     vertex 2.95733 6 5.18472
   endloop
 endfacet
 facet normal 0.991445 3.28004e-16 -0.130526
   outer loop
     vertex 2.95733 2.55271 6.81528
     vertex 2.85 2.55271 6
     vertex 2.85 6 6
   endloop
 endfacet
 facet normal 0.991445 -1.47756e-16 -0.130526
   outer loop
     vertex 2.95733 6 6.81528
     vertex 2.95733 2.55271 6.81528
     vertex 2.85 6 6
   endloop
 endfacet
 facet normal 0.92388 3.329e-16 -0.382683
   outer loop
     vertex 3.27202 2.55271 7.575
     vertex 2.95733 2.55271 6.81528
     vertex 2.95733 6 6.81528
   endloop
 endfacet
 facet normal 0.92388 -1.6336e-16 -0.382683
   outer loop
     vertex 3.27202 6 7.575
     vertex 3.27202 2.55271 7.575
     vertex 2.95733 6 6.81528
   endloop
 endfacet
 facet normal 0.793353 4.30811e-16 -0.608761
   outer loop
     vertex 3.77261 2.55271 8.22739
     vertex 3.27202 2.55271 7.575
     vertex 3.27202 6 7.575
   endloop
 endfacet
 facet normal 0.793353 -1.7607e-16 -0.608761
   outer loop
     vertex 3.77261 6 8.22739
     vertex 3.77261 2.55271 8.22739
     vertex 3.27202 6 7.575
   endloop
 endfacet
 facet normal 0.608761 5.28723e-16 -0.793353
   outer loop
     vertex 4.425 2.55271 8.72798
     vertex 3.77261 2.55271 8.22739
     vertex 3.77261 6 8.22739
   endloop
 endfacet
 facet normal 0.608761 -3.42023e-16 -0.793353
   outer loop
     vertex 4.425 6 8.72798
     vertex 4.425 2.55271 8.72798
     vertex 3.77261 6 8.22739
   endloop
 endfacet
 facet normal 0.608761 1.90237e-16 -0.793353
   outer loop
     vertex 4.425 -2.55271 8.72798
     vertex 4.425 -6 8.72798
     vertex 3.77261 -2.55271 8.22739
   endloop
 endfacet
 facet normal 0.382683 5.58096e-16 -0.92388
   outer loop
     vertex 5.18472 -6 9.04267
     vertex 4.425 -6 8.72798
     vertex 4.425 -2.55271 8.72798
   endloop
 endfacet
 facet normal 0.382683 -1.15513e-16 -0.92388
   outer loop
     vertex 5.18472 -2.55271 9.04267
     vertex 5.18472 -6 9.04267
     vertex 4.425 -2.55271 8.72798
   endloop
 endfacet
 facet normal 0.130526 3.08422e-16 -0.991445
   outer loop
     vertex 6 -6 9.15
     vertex 5.18472 -6 9.04267
     vertex 5.18472 -2.55271 9.04267
   endloop
 endfacet
 facet normal 0.130526 1.27721e-16 0.991445
   outer loop
     vertex 5.18472 -2.55271 2.95733
     vertex 5.18472 -6 2.95733
     vertex 6 -6 2.85
   endloop
 endfacet
 facet normal 0.130526 0 0.991445
   outer loop
     vertex 5.18472 -2.55271 2.95733
     vertex 6 -6 2.85
     vertex 6 -2.55271 2.85
   endloop
 endfacet
 facet normal 0.130526 5.10883e-16 -0.991445
   outer loop
     vertex 6 -2.55271 9.15
     vertex 6 -6 9.15
     vertex 5.18472 -2.55271 9.04267
   endloop
 endfacet
 facet normal 0.382683 2.58453e-16 0.92388
   outer loop
     vertex 4.425 -2.55271 3.27202
     vertex 4.425 -6 3.27202
     vertex 5.18472 -6 2.95733
   endloop
 endfacet
 facet normal 0.382683 1.17494e-16 0.92388
   outer loop
     vertex 4.425 -2.55271 3.27202
     vertex 5.18472 -6 2.95733
     vertex 5.18472 -2.55271 2.95733
   endloop
 endfacet
 facet normal 0.608761 3.77945e-16 0.793353
   outer loop
     vertex 3.77261 -2.55271 3.77261
     vertex 3.77261 -6 3.77261
     vertex 4.425 -6 3.27202
   endloop
 endfacet
 facet normal 0.608761 1.56659e-16 0.793353
   outer loop
     vertex 3.77261 -2.55271 3.77261
     vertex 4.425 -6 3.27202
     vertex 4.425 -2.55271 3.27202
   endloop
 endfacet
 facet normal 0.793353 5.25177e-16 0.608761
   outer loop
     vertex 3.27202 -2.55271 4.425
     vertex 3.27202 -6 4.425
     vertex 3.77261 -6 3.77261
   endloop
 endfacet
 facet normal 0.793353 1.56659e-16 0.608761
   outer loop
     vertex 3.27202 -2.55271 4.425
     vertex 3.77261 -6 3.77261
     vertex 3.77261 -2.55271 3.77261
   endloop
 endfacet
 facet normal 0.92388 3.1621e-16 0.382683
   outer loop
     vertex 2.95733 -2.55271 5.18472
     vertex 2.95733 -6 5.18472
     vertex 3.27202 -6 4.425
   endloop
 endfacet
 facet normal 0.92388 2.74153e-16 0.382683
   outer loop
     vertex 2.95733 -2.55271 5.18472
     vertex 3.27202 -6 4.425
     vertex 3.27202 -2.55271 4.425
   endloop
 endfacet
 facet normal 0.991445 2.55441e-16 0.130526
   outer loop
     vertex 2.85 -2.55271 6
     vertex 2.85 -6 6
     vertex 2.95733 -6 5.18472
   endloop
 endfacet
 facet normal 0.991445 1.95823e-16 0.130526
   outer loop
     vertex 2.85 -2.55271 6
     vertex 2.95733 -6 5.18472
     vertex 2.95733 -2.55271 5.18472
   endloop
 endfacet
 facet normal 0.991445 1.6135e-16 -0.130526
   outer loop
     vertex 2.95733 -2.55271 6.81528
     vertex 2.95733 -6 6.81528
     vertex 2.85 -6 6
   endloop
 endfacet
 facet normal 0.991445 2.59466e-16 -0.130526
   outer loop
     vertex 2.95733 -2.55271 6.81528
     vertex 2.85 -6 6
     vertex 2.85 -2.55271 6
   endloop
 endfacet
 facet normal 0.92388 1.76773e-16 -0.382683
   outer loop
     vertex 3.27202 -2.55271 7.575
     vertex 3.27202 -6 7.575
     vertex 2.95733 -6 6.81528
   endloop
 endfacet
 facet normal 0.92388 2.15406e-16 -0.382683
   outer loop
     vertex 3.27202 -2.55271 7.575
     vertex 2.95733 -6 6.81528
     vertex 2.95733 -2.55271 6.81528
   endloop
 endfacet
 facet normal 0.793353 3.72064e-16 -0.608761
   outer loop
     vertex 3.77261 -6 8.22739
     vertex 3.27202 -6 7.575
     vertex 3.27202 -2.55271 7.575
   endloop
 endfacet
 facet normal 0.793353 1.16369e-16 -0.608761
   outer loop
     vertex 3.77261 -2.55271 8.22739
     vertex 3.77261 -6 8.22739
     vertex 3.27202 -2.55271 7.575
   endloop
 endfacet
 facet normal 0.608761 4.11229e-16 -0.793353
   outer loop
     vertex 4.425 -6 8.72798
     vertex 3.77261 -6 8.22739
     vertex 3.77261 -2.55271 8.22739
   endloop
 endfacet
 facet normal 0.992148 -0.12507 0
   outer loop
     vertex -3.19676 0.81898 0
     vertex -3.19676 0.81898 12
     vertex -3.3 0 12
   endloop
 endfacet
 facet normal 0.992148 -0.12507 0
   outer loop
     vertex -3.19676 0.81898 0
     vertex -3.3 0 12
     vertex -3.3 0 0
   endloop
 endfacet
 facet normal 0.930069 -0.367384 0
   outer loop
     vertex -2.8935 1.58672 12
     vertex -3.19676 0.81898 12
     vertex -3.19676 0.81898 0
   endloop
 endfacet
 facet normal 0.930069 -0.367384 0
   outer loop
     vertex -2.8935 1.58672 0
     vertex -2.8935 1.58672 12
     vertex -3.19676 0.81898 0
   endloop
 endfacet
 facet normal 0.809796 -0.586711 0
   outer loop
     vertex -2.40919 2.25517 12
     vertex -2.8935 1.58672 12
     vertex -2.8935 1.58672 0
   endloop
 endfacet
 facet normal 0.809796 -0.586711 0
   outer loop
     vertex -2.40919 2.25517 0
     vertex -2.40919 2.25517 12
     vertex -2.8935 1.58672 0
   endloop
 endfacet
 facet normal 0.638854 -0.769328 0
   outer loop
     vertex -1.77414 2.78252 12
     vertex -2.40919 2.25517 12
     vertex -2.40919 2.25517 0
   endloop
 endfacet
 facet normal 0.638854 -0.769328 0
   outer loop
     vertex -1.77414 2.78252 0
     vertex -1.77414 2.78252 12
     vertex -2.40919 2.25517 0
   endloop
 endfacet
 facet normal 0.427939 -0.903808 0
   outer loop
     vertex -1.02808 3.13577 12
     vertex -1.77414 2.78252 12
     vertex -1.77414 2.78252 0
   endloop
 endfacet
 facet normal 0.427939 -0.903808 0
   outer loop
     vertex -1.02808 3.13577 0
     vertex -1.02808 3.13577 12
     vertex -1.77414 2.78252 0
   endloop
 endfacet
 facet normal 0.190247 -0.981736 0
   outer loop
     vertex -0.217694 3.29281 12
     vertex -1.02808 3.13577 12
     vertex -1.02808 3.13577 0
   endloop
 endfacet
 facet normal 0.190247 -0.981736 0
   outer loop
     vertex -0.217694 3.29281 0
     vertex -0.217694 3.29281 12
     vertex -1.02808 3.13577 0
   endloop
 endfacet
 facet normal -0.0593478 -0.998237 0
   outer loop
     vertex 0.606313 3.24382 12
     vertex -0.217694 3.29281 12
     vertex -0.217694 3.29281 0
   endloop
 endfacet
 facet normal -0.0593478 -0.998237 0
   outer loop
     vertex 0.606313 3.24382 0
     vertex 0.606313 3.24382 12
     vertex -0.217694 3.29281 0
   endloop
 endfacet
 facet normal -0.30523 -0.952279 0
   outer loop
     vertex 1.39238 2.99187 12
     vertex 0.606313 3.24382 12
     vertex 0.606313 3.24382 0
   endloop
 endfacet
 facet normal -0.30523 -0.952279 0
   outer loop
     vertex 1.39238 2.99187 0
     vertex 1.39238 2.99187 12
     vertex 0.606313 3.24382 0
   endloop
 endfacet
 facet normal -0.532013 -0.846736 0
   outer loop
     vertex 2.09133 2.55271 12
     vertex 1.39238 2.99187 12
     vertex 1.39238 2.99187 0
   endloop
 endfacet
 facet normal -0.532013 -0.846736 0
   outer loop
     vertex 2.09133 2.55271 0
     vertex 2.09133 2.55271 12
     vertex 1.39238 2.99187 0
   endloop
 endfacet
 facet normal -0.532013 0.846736 0
   outer loop
     vertex 1.39238 -2.99187 0
     vertex 2.09133 -2.55271 12
     vertex 2.09133 -2.55271 0
   endloop
 endfacet
 facet normal -0.532013 0.846736 0
   outer loop
     vertex 1.39238 -2.99187 0
     vertex 1.39238 -2.99187 12
     vertex 2.09133 -2.55271 12
   endloop
 endfacet
 facet normal -0.30523 0.952279 0
   outer loop
     vertex 0.606313 -3.24382 12
     vertex 1.39238 -2.99187 12
     vertex 1.39238 -2.99187 0
   endloop
 endfacet
 facet normal -0.30523 0.952279 0
   outer loop
     vertex 0.606313 -3.24382 0
     vertex 0.606313 -3.24382 12
     vertex 1.39238 -2.99187 0
   endloop
 endfacet
 facet normal -0.0593478 0.998237 0
   outer loop
     vertex -0.217694 -3.29281 12
     vertex 0.606313 -3.24382 12
     vertex 0.606313 -3.24382 0
   endloop
 endfacet
 facet normal -0.0593478 0.998237 0
   outer loop
     vertex -0.217694 -3.29281 0
     vertex -0.217694 -3.29281 12
     vertex 0.606313 -3.24382 0
   endloop
 endfacet
 facet normal 0.190247 0.981736 0
   outer loop
     vertex -1.02808 -3.13577 12
     vertex -0.217694 -3.29281 12
     vertex -0.217694 -3.29281 0
   endloop
 endfacet
 facet normal 0.190247 0.981736 -0
   outer loop
     vertex -1.02808 -3.13577 0
     vertex -1.02808 -3.13577 12
     vertex -0.217694 -3.29281 0
   endloop
 endfacet
 facet normal 0.427939 0.903808 0
   outer loop
     vertex -1.77414 -2.78252 12
     vertex -1.02808 -3.13577 12
     vertex -1.02808 -3.13577 0
   endloop
 endfacet
 facet normal 0.427939 0.903808 -0
   outer loop
     vertex -1.77414 -2.78252 0
     vertex -1.77414 -2.78252 12
     vertex -1.02808 -3.13577 0
   endloop
 endfacet
 facet normal 0.638854 0.769328 0
   outer loop
     vertex -2.40919 -2.25517 12
     vertex -1.77414 -2.78252 12
     vertex -1.77414 -2.78252 0
   endloop
 endfacet
 facet normal 0.638854 0.769328 -0
   outer loop
     vertex -2.40919 -2.25517 0
     vertex -2.40919 -2.25517 12
     vertex -1.77414 -2.78252 0
   endloop
 endfacet
 facet normal 0.809796 0.586711 0
   outer loop
     vertex -2.8935 -1.58672 12
     vertex -2.40919 -2.25517 12
     vertex -2.40919 -2.25517 0
   endloop
 endfacet
 facet normal 0.809796 0.586711 -0
   outer loop
     vertex -2.8935 -1.58672 0
     vertex -2.8935 -1.58672 12
     vertex -2.40919 -2.25517 0
   endloop
 endfacet
 facet normal 0.930069 0.367384 0
   outer loop
     vertex -3.19676 -0.81898 12
     vertex -2.8935 -1.58672 12
     vertex -2.8935 -1.58672 0
   endloop
 endfacet
 facet normal 0.930069 0.367384 -0
   outer loop
     vertex -3.19676 -0.81898 0
     vertex -3.19676 -0.81898 12
     vertex -2.8935 -1.58672 0
   endloop
 endfacet
 facet normal 0.992148 0.12507 -0
   outer loop
     vertex -3.3 0 0
     vertex -3.3 0 12
     vertex -3.19676 -0.81898 12
   endloop
 endfacet
 facet normal 0.992148 0.12507 0
   outer loop
     vertex -3.3 0 0
     vertex -3.19676 -0.81898 12
     vertex -3.19676 -0.81898 0
   endloop
 endfacet
 facet normal 5.11083e-17 -1 6.66056e-17
   outer loop
     vertex 7.575 2.55271 8.72798
     vertex 8.22739 2.55271 8.22739
     vertex 12 2.55271 12
   endloop
 endfacet
 facet normal -1.47363e-16 -1 -6.10396e-17
   outer loop
     vertex 2.95733 2.55271 5.18472
     vertex 2.09133 2.55271 0
     vertex 3.27202 2.55271 4.425
   endloop
 endfacet
 facet normal 4.51772e-16 -1 3.34058e-16
   outer loop
     vertex 8.72798 2.55271 4.425
     vertex 8.22739 2.55271 3.77261
     vertex 12 2.55271 0
   endloop
 endfacet
 facet normal 5.11083e-17 -1 -6.66056e-17
   outer loop
     vertex 7.575 2.55271 3.27202
     vertex 12 2.55271 0
     vertex 8.22739 2.55271 3.77261
   endloop
 endfacet
 facet normal 3.60335e-17 -1 8.69925e-17
   outer loop
     vertex 6.81528 2.55271 9.04267
     vertex 7.575 2.55271 8.72798
     vertex 12 2.55271 12
   endloop
 endfacet
 facet normal 0 -1 -0
   outer loop
     vertex 9.04267 2.55271 5.18472
     vertex 8.72798 2.55271 4.425
     vertex 12 2.55271 0
   endloop
 endfacet
 facet normal -2.86771e-16 -1 -3.77542e-17
   outer loop
     vertex 2.85 2.55271 6
     vertex 2.09133 2.55271 0
     vertex 2.95733 2.55271 5.18472
   endloop
 endfacet
 facet normal 1.60623e-17 -1 1.22005e-16
   outer loop
     vertex 6 2.55271 9.15
     vertex 6.81528 2.55271 9.04267
     vertex 12 2.55271 12
   endloop
 endfacet
 facet normal 3.60335e-17 -1 -8.69925e-17
   outer loop
     vertex 6.81528 2.55271 2.95733
     vertex 12 2.55271 0
     vertex 7.575 2.55271 3.27202
   endloop
 endfacet
 facet normal 0 -1 -0
   outer loop
     vertex 9.15 2.55271 6
     vertex 9.04267 2.55271 5.18472
     vertex 12 2.55271 0
   endloop
 endfacet
 facet normal 1.60623e-17 -1 -1.22005e-16
   outer loop
     vertex 6 2.55271 2.85
     vertex 12 2.55271 0
     vertex 6.81528 2.55271 2.95733
   endloop
 endfacet
 facet normal -2.86771e-16 -1 3.77542e-17
   outer loop
     vertex 2.09133 2.55271 12
     vertex 2.85 2.55271 6
     vertex 2.95733 2.55271 6.81528
   endloop
 endfacet
 facet normal -1.47363e-16 -1 6.10396e-17
   outer loop
     vertex 2.09133 2.55271 12
     vertex 2.95733 2.55271 6.81528
     vertex 3.27202 2.55271 7.575
   endloop
 endfacet
 facet normal 5.61192e-16 -1 2.50098e-16
   outer loop
     vertex 2.09133 2.55271 12
     vertex 3.27202 2.55271 7.575
     vertex 3.77261 2.55271 8.22739
   endloop
 endfacet
 facet normal 0 -1 0
   outer loop
     vertex 2.09133 2.55271 0
     vertex 6 2.55271 2.85
     vertex 5.18472 2.55271 2.95733
   endloop
 endfacet
 facet normal 0 -1 0
   outer loop
     vertex 2.09133 2.55271 12
     vertex 3.77261 2.55271 8.22739
     vertex 4.425 2.55271 8.72798
   endloop
 endfacet
 facet normal 0 -1 0
   outer loop
     vertex 2.09133 2.55271 12
     vertex 4.425 2.55271 8.72798
     vertex 5.18472 2.55271 9.04267
   endloop
 endfacet
 facet normal 0 -1 0
   outer loop
     vertex 2.09133 2.55271 12
     vertex 5.18472 2.55271 9.04267
     vertex 6 2.55271 9.15
   endloop
 endfacet
 facet normal 4.48183e-17 -1 -6.14666e-17
   outer loop
     vertex 2.09133 2.55271 0
     vertex 12 2.55271 0
     vertex 6 2.55271 2.85
   endloop
 endfacet
 facet normal 4.48183e-17 -1 6.14666e-17
   outer loop
     vertex 2.09133 2.55271 12
     vertex 6 2.55271 9.15
     vertex 12 2.55271 12
   endloop
 endfacet
 facet normal -5.85354e-16 -1 0
   outer loop
     vertex 2.09133 2.55271 0
     vertex 2.85 2.55271 6
     vertex 2.09133 2.55271 12
   endloop
 endfacet
 facet normal 0 -1 -0
   outer loop
     vertex 4.425 2.55271 3.27202
     vertex 2.09133 2.55271 0
     vertex 5.18472 2.55271 2.95733
   endloop
 endfacet
 facet normal 0 -1 0
   outer loop
     vertex 12 2.55271 12
     vertex 8.72798 2.55271 7.575
     vertex 9.04267 2.55271 6.81528
   endloop
 endfacet
 facet normal 0 -1 0
   outer loop
     vertex 12 2.55271 12
     vertex 9.04267 2.55271 6.81528
     vertex 9.15 2.55271 6
   endloop
 endfacet
 facet normal 0 -1 -0
   outer loop
     vertex 12 2.55271 12
     vertex 9.15 2.55271 6
     vertex 12 2.55271 0
   endloop
 endfacet
 facet normal 4.51772e-16 -1 -3.34058e-16
   outer loop
     vertex 8.22739 2.55271 8.22739
     vertex 8.72798 2.55271 7.575
     vertex 12 2.55271 12
   endloop
 endfacet
 facet normal 0 -1 -0
   outer loop
     vertex 3.77261 2.55271 3.77261
     vertex 2.09133 2.55271 0
     vertex 4.425 2.55271 3.27202
   endloop
 endfacet
 facet normal 5.61192e-16 -1 -2.50098e-16
   outer loop
     vertex 3.27202 2.55271 4.425
     vertex 2.09133 2.55271 0
     vertex 3.77261 2.55271 3.77261
   endloop
 endfacet
 facet normal 1 0 0
   outer loop
     vertex 12 6 12
     vertex 12 2.55271 0
     vertex 12 6 0
   endloop
 endfacet
 facet normal 1 0 0
   outer loop
     vertex 12 6 12
     vertex 12 2.55271 12
     vertex 12 2.55271 0
   endloop
 endfacet
 facet normal 0 1 0
   outer loop
     vertex 9.04267 6 5.18472
     vertex 12 6 0
     vertex 8.72798 6 4.425
   endloop
 endfacet
 facet normal 0 1 0
   outer loop
     vertex 5.18472 6 9.04267
     vertex 4.425 6 8.72798
     vertex -1 6 12
   endloop
 endfacet
 facet normal 0 1 0
   outer loop
     vertex 3.27202 6 4.425
     vertex 3.77261 6 3.77261
     vertex -1 6 0
   endloop
 endfacet
 facet normal 0 1 0
   outer loop
     vertex 9.15 6 6
     vertex 12 6 0
     vertex 9.04267 6 5.18472
   endloop
 endfacet
 facet normal 0 1 0
   outer loop
     vertex 4.425 6 3.27202
     vertex -1 6 0
     vertex 3.77261 6 3.77261
   endloop
 endfacet
 facet normal 0 1 0
   outer loop
     vertex 6 6 9.15
     vertex 5.18472 6 9.04267
     vertex -1 6 12
   endloop
 endfacet
 facet normal 0 1 0
   outer loop
     vertex 2.95733 6 5.18472
     vertex 3.27202 6 4.425
     vertex -1 6 0
   endloop
 endfacet
 facet normal 0 1 0
   outer loop
     vertex 5.18472 6 2.95733
     vertex -1 6 0
     vertex 4.425 6 3.27202
   endloop
 endfacet
 facet normal 0 1 0
   outer loop
     vertex 2.85 6 6
     vertex 2.95733 6 5.18472
     vertex -1 6 0
   endloop
 endfacet
 facet normal 0 1 0
   outer loop
     vertex 6 6 2.85
     vertex -1 6 0
     vertex 5.18472 6 2.95733
   endloop
 endfacet
 facet normal 0 1 0
   outer loop
     vertex 12 6 12
     vertex 9.15 6 6
     vertex 9.04267 6 6.81528
   endloop
 endfacet
 facet normal 0 1 0
   outer loop
     vertex 12 6 12
     vertex 9.04267 6 6.81528
     vertex 8.72798 6 7.575
   endloop
 endfacet
 facet normal 0 1 0
   outer loop
     vertex 12 6 12
     vertex 8.72798 6 7.575
     vertex 8.22739 6 8.22739
   endloop
 endfacet
 facet normal 0 1 0
   outer loop
     vertex 12 6 12
     vertex 8.22739 6 8.22739
     vertex 7.575 6 8.72798
   endloop
 endfacet
 facet normal 0 1 0
   outer loop
     vertex 12 6 12
     vertex 7.575 6 8.72798
     vertex 6.81528 6 9.04267
   endloop
 endfacet
 facet normal 0 1 0
   outer loop
     vertex 12 6 12
     vertex 6.81528 6 9.04267
     vertex 6 6 9.15
   endloop
 endfacet
 facet normal 0 1 0
   outer loop
     vertex 12 6 12
     vertex 12 6 0
     vertex 9.15 6 6
   endloop
 endfacet
 facet normal 0 1 0
   outer loop
     vertex -1 6 12
     vertex 3.27202 6 7.575
     vertex 2.95733 6 6.81528
   endloop
 endfacet
 facet normal 0 1 0
   outer loop
     vertex -1 6 12
     vertex 2.95733 6 6.81528
     vertex 2.85 6 6
   endloop
 endfacet
 facet normal 0 1 0
   outer loop
     vertex 12 6 12
     vertex 6 6 9.15
     vertex -1 6 12
   endloop
 endfacet
 facet normal 0 1 0
   outer loop
     vertex -1 6 12
     vertex 2.85 6 6
     vertex -1 6 0
   endloop
 endfacet
 facet normal 0 1 0
   outer loop
     vertex 3.77261 6 8.22739
     vertex 3.27202 6 7.575
     vertex -1 6 12
   endloop
 endfacet
 facet normal 0 1 0
   outer loop
     vertex 12 6 0
     vertex 6 6 2.85
     vertex 6.81528 6 2.95733
   endloop
 endfacet
 facet normal 0 1 0
   outer loop
     vertex 12 6 0
     vertex 6.81528 6 2.95733
     vertex 7.575 6 3.27202
   endloop
 endfacet
 facet normal 0 1 0
   outer loop
     vertex 12 6 0
     vertex 7.575 6 3.27202
     vertex 8.22739 6 3.77261
   endloop
 endfacet
 facet normal 0 1 0
   outer loop
     vertex 12 6 0
     vertex -1 6 0
     vertex 6 6 2.85
   endloop
 endfacet
 facet normal 0 1 0
   outer loop
     vertex 8.72798 6 4.425
     vertex 12 6 0
     vertex 8.22739 6 3.77261
   endloop
 endfacet
 facet normal 0 1 0
   outer loop
     vertex 4.425 6 8.72798
     vertex 3.77261 6 8.22739
     vertex -1 6 12
   endloop
 endfacet
 facet normal 0.923875 0.382682 0.00302654
   outer loop
     vertex -2.93185 7.48236 0
     vertex -2.87235 7.29692 5.2841
     vertex -2.73205 7 0
   endloop
 endfacet
 facet normal 0.980807 0.194979 -0.000130785
   outer loop
     vertex -2.98115 7.7271 7.16738
     vertex -2.93185 7.48236 12
     vertex -2.93489 7.49427 6.97396
   endloop
 endfacet
 facet normal 0.979144 0.203167 -8.17306e-05
   outer loop
     vertex -2.9784 7.70865 4.8454
     vertex -2.93057 7.47822 5.04317
     vertex -2.93185 7.48236 0
   endloop
 endfacet
 facet normal 0.130526 0.991445 0
   outer loop
     vertex -1.51764 6.06815 0
     vertex -1 6 12
     vertex -1 6 0
   endloop
 endfacet
 facet normal 0.130526 0.991445 -0
   outer loop
     vertex -1.51764 6.06815 0
     vertex -1.51764 6.06815 12
     vertex -1 6 12
   endloop
 endfacet
 facet normal 0.991439 0.130525 -0.00350335
   outer loop
     vertex -3 8 12
     vertex -2.93185 7.48236 12
     vertex -2.98115 7.7271 7.16738
   endloop
 endfacet
 facet normal 0.382683 0.92388 -0
   outer loop
     vertex -2 6.26795 0
     vertex -2 6.26795 12
     vertex -1.51764 6.06815 12
   endloop
 endfacet
 facet normal 0.382683 0.92388 0
   outer loop
     vertex -2 6.26795 0
     vertex -1.51764 6.06815 12
     vertex -1.51764 6.06815 0
   endloop
 endfacet
 facet normal 0.993583 0.113083 0.00237047
   outer loop
     vertex -3 8 0
     vertex -2.99419 7.84919 4.76058
     vertex -2.9784 7.70865 4.8454
   endloop
 endfacet
 facet normal 0.99926 0.0384755 -0
   outer loop
     vertex -3 8 0
     vertex -3 8 4.69233
     vertex -2.99419 7.84919 4.76058
   endloop
 endfacet
 facet normal 0.608761 0.793353 -0
   outer loop
     vertex -2.41421 6.58579 0
     vertex -2.41421 6.58579 12
     vertex -2 6.26795 12
   endloop
 endfacet
 facet normal 0.991439 0.130525 0.00342885
   outer loop
     vertex -3 8 0
     vertex -2.9784 7.70865 4.8454
     vertex -2.93185 7.48236 0
   endloop
 endfacet
 facet normal 0.608761 0.793353 0
   outer loop
     vertex -2.41421 6.58579 0
     vertex -2 6.26795 12
     vertex -2 6.26795 0
   endloop
 endfacet
 facet normal 0.997623 0.0689142 -2.8325e-16
   outer loop
     vertex -3 8 7.30767
     vertex -3 8 12
     vertex -2.98115 7.7271 7.16738
   endloop
 endfacet
 facet normal 0.793353 0.608761 -0
   outer loop
     vertex -2.73205 7 0
     vertex -2.73205 7 12
     vertex -2.41421 6.58579 12
   endloop
 endfacet
 facet normal 0.793353 0.608761 0
   outer loop
     vertex -2.73205 7 0
     vertex -2.41421 6.58579 12
     vertex -2.41421 6.58579 0
   endloop
 endfacet
 facet normal 0.880626 0.473812 0
   outer loop
     vertex -2.78972 7.10718 5.85927
     vertex -2.73205 7 12
     vertex -2.73205 7 0
   endloop
 endfacet
 facet normal 0.885196 0.465217 -0.000192943
   outer loop
     vertex -2.78972 7.10718 5.85927
     vertex -2.79108 7.10989 6.16556
     vertex -2.73205 7 12
   endloop
 endfacet
 facet normal 0.902439 0.430816 -0.00101534
   outer loop
     vertex -2.82361 7.17873 6.46289
     vertex -2.73205 7 12
     vertex -2.79108 7.10989 6.16556
   endloop
 endfacet
 facet normal 0.901184 0.433435 0.000940975
   outer loop
     vertex -2.82008 7.17095 5.55998
     vertex -2.78972 7.10718 5.85927
     vertex -2.73205 7 0
   endloop
 endfacet
 facet normal 0.923502 0.383584 -0.0028882
   outer loop
     vertex -2.87673 7.30868 6.73539
     vertex -2.73205 7 12
     vertex -2.82361 7.17873 6.46289
   endloop
 endfacet
 facet normal 0.921561 0.388225 0.00265362
   outer loop
     vertex -2.87235 7.29692 5.2841
     vertex -2.82008 7.17095 5.55998
     vertex -2.73205 7 0
   endloop
 endfacet
 facet normal 0.923876 0.382682 -0.00295136
   outer loop
     vertex -2.93185 7.48236 12
     vertex -2.73205 7 12
     vertex -2.87673 7.30868 6.73539
   endloop
 endfacet
 facet normal 0.954289 0.298887 0.000131427
   outer loop
     vertex -2.93489 7.49427 6.97396
     vertex -2.93185 7.48236 12
     vertex -2.87673 7.30868 6.73539
   endloop
 endfacet
 facet normal 0.952106 0.305768 9.39892e-06
   outer loop
     vertex -2.93185 7.48236 0
     vertex -2.93057 7.47822 5.04317
     vertex -2.87235 7.29692 5.2841
   endloop
 endfacet
 facet normal 1 1.42059e-15 1.09006e-15
   outer loop
     vertex -3 15 6
     vertex -3 17.0101 5.01005
     vertex -3 16.7876 5.3
   endloop
 endfacet
 facet normal 1 0 0
   outer loop
     vertex -3 15 6
     vertex -3 9.71244 5.3
     vertex -3 9.48995 5.01005
   endloop
 endfacet
 facet normal 1 0 0
   outer loop
     vertex -3 15 6
     vertex -3 9.8523 5.63765
     vertex -3 9.71244 5.3
   endloop
 endfacet
 facet normal 1 0 0
   outer loop
     vertex -3 15 6
     vertex -3 9.9 6
     vertex -3 9.8523 5.63765
   endloop
 endfacet
 facet normal 1 1.75344e-17 2.87717e-16
   outer loop
     vertex -3 8.32999 4.61036
     vertex -3 8 0
     vertex -3 8.5 4.6
   endloop
 endfacet
 facet normal 1 -5.04724e-17 -2.80929e-16
   outer loop
     vertex -3 15 6
     vertex -3 8 12
     vertex -3 9.48995 6.98995
   endloop
 endfacet
 facet normal 1 0 0
   outer loop
     vertex -3 15 6
     vertex -3 9.8523 6.36235
     vertex -3 9.9 6
   endloop
 endfacet
 facet normal 1 6.30703e-16 5.13776e-16
   outer loop
     vertex -3 15 6
     vertex -3 17.0101 6.98995
     vertex -3 8 12
   endloop
 endfacet
 facet normal 1 0 0
   outer loop
     vertex -3 15 6
     vertex -3 9.71244 6.7
     vertex -3 9.8523 6.36235
   endloop
 endfacet
 facet normal 1 0 0
   outer loop
     vertex -3 15 6
     vertex -3 9.48995 6.98995
     vertex -3 9.71244 6.7
   endloop
 endfacet
 facet normal 1 5.26658e-17 2.85203e-16
   outer loop
     vertex -3 8.1625 4.64129
     vertex -3 8 0
     vertex -3 8.32999 4.61036
   endloop
 endfacet
 facet normal 1 -5.04724e-17 2.80929e-16
   outer loop
     vertex -3 15 6
     vertex -3 9.48995 5.01005
     vertex -3 8 0
   endloop
 endfacet
 facet normal 1 6.30703e-16 -5.13776e-16
   outer loop
     vertex -3 15 6
     vertex -3 8 0
     vertex -3 17.0101 5.01005
   endloop
 endfacet
 facet normal 1 -1.29578e-16 9.94286e-17
   outer loop
     vertex -3 19.2124 5.3
     vertex -3 18.9899 5.01005
     vertex -3 22 0
   endloop
 endfacet
 facet normal 1 -9.31075e-17 1.2134e-16
   outer loop
     vertex -3 18.7 4.78756
     vertex -3 22 0
     vertex -3 18.9899 5.01005
   endloop
 endfacet
 facet normal 1 2.8706e-17 -2.18044e-16
   outer loop
     vertex -3 22 12
     vertex -3 17.6377 7.3523
     vertex -3 18 7.4
   endloop
 endfacet
 facet normal 1 -5.9777e-17 1.44314e-16
   outer loop
     vertex -3 18.3623 4.6477
     vertex -3 22 0
     vertex -3 18.7 4.78756
   endloop
 endfacet
 facet normal 1 -2.62006e-16 -3.44938e-17
   outer loop
     vertex -3 22 12
     vertex -3 19.3523 6.36235
     vertex -3 19.4 6
   endloop
 endfacet
 facet normal 1 -1.78245e-16 -7.38317e-17
   outer loop
     vertex -3 22 12
     vertex -3 19.2124 6.7
     vertex -3 19.3523 6.36235
   endloop
 endfacet
 facet normal 1 8.19869e-15 0
   outer loop
     vertex -3 8 4.69233
     vertex -3 8 0
     vertex -3 8.1625 4.64129
   endloop
 endfacet
 facet normal 1 -1.29578e-16 -9.94286e-17
   outer loop
     vertex -3 22 12
     vertex -3 18.9899 6.98995
     vertex -3 19.2124 6.7
   endloop
 endfacet
 facet normal 1 -9.31075e-17 -1.2134e-16
   outer loop
     vertex -3 22 12
     vertex -3 18.7 7.21244
     vertex -3 18.9899 6.98995
   endloop
 endfacet
 facet normal 1 -5.9777e-17 -1.44314e-16
   outer loop
     vertex -3 22 12
     vertex -3 18.3623 7.3523
     vertex -3 18.7 7.21244
   endloop
 endfacet
 facet normal 1 -2.28086e-17 -1.73249e-16
   outer loop
     vertex -3 22 12
     vertex -3 18 7.4
     vertex -3 18.3623 7.3523
   endloop
 endfacet
 facet normal 1 -1.78245e-16 7.38317e-17
   outer loop
     vertex -3 19.3523 5.63765
     vertex -3 19.2124 5.3
     vertex -3 22 0
   endloop
 endfacet
 facet normal 1 -3.41607e-16 0
   outer loop
     vertex -3 22 12
     vertex -3 19.4 6
     vertex -3 22 0
   endloop
 endfacet
 facet normal 1 -2.28086e-17 1.73249e-16
   outer loop
     vertex -3 18 4.6
     vertex -3 22 0
     vertex -3 18.3623 4.6477
   endloop
 endfacet
 facet normal 1 2.0005e-16 2.6071e-16
   outer loop
     vertex -3 8 0
     vertex -3 17.3 4.78756
     vertex -3 17.0101 5.01005
   endloop
 endfacet
 facet normal 1 1.49036e-16 3.59805e-16
   outer loop
     vertex -3 8 0
     vertex -3 17.6377 4.6477
     vertex -3 17.3 4.78756
   endloop
 endfacet
 facet normal 1 -2.62006e-16 3.44938e-17
   outer loop
     vertex -3 19.4 6
     vertex -3 19.3523 5.63765
     vertex -3 22 0
   endloop
 endfacet
 facet normal 1 1.58603e-16 3.39966e-16
   outer loop
     vertex -3 8 0
     vertex -3 22 0
     vertex -3 17.6377 4.6477
   endloop
 endfacet
 facet normal 1 2.8706e-17 2.18044e-16
   outer loop
     vertex -3 17.6377 4.6477
     vertex -3 22 0
     vertex -3 18 4.6
   endloop
 endfacet
 facet normal 1 -2.64377e-16 3.44543e-16
   outer loop
     vertex -3 9.2 4.78756
     vertex -3 8 0
     vertex -3 9.48995 5.01005
   endloop
 endfacet
 facet normal 1 1.49036e-16 -3.59805e-16
   outer loop
     vertex -3 8 12
     vertex -3 17.3 7.21244
     vertex -3 17.6377 7.3523
   endloop
 endfacet
 facet normal 1 2.0005e-16 -2.6071e-16
   outer loop
     vertex -3 8 12
     vertex -3 17.0101 6.98995
     vertex -3 17.3 7.21244
   endloop
 endfacet
 facet normal 1 -1.2862e-16 3.10515e-16
   outer loop
     vertex -3 8.86235 4.6477
     vertex -3 8 0
     vertex -3 9.2 4.78756
   endloop
 endfacet
 facet normal 1 1.75344e-17 -2.87717e-16
   outer loop
     vertex -3 8 12
     vertex -3 8.32999 7.38964
     vertex -3 8.5 7.4
   endloop
 endfacet
 facet normal 1 5.26658e-17 -2.85203e-16
   outer loop
     vertex -3 8 12
     vertex -3 8.1625 7.35871
     vertex -3 8.32999 7.38964
   endloop
 endfacet
 facet normal 1 -3.86832e-17 2.93828e-16
   outer loop
     vertex -3 8.5 4.6
     vertex -3 8 0
     vertex -3 8.86235 4.6477
   endloop
 endfacet
 facet normal 1 8.91799e-17 -2.83925e-16
   outer loop
     vertex -3 8 12
     vertex -3 8 7.30767
     vertex -3 8.1625 7.35871
   endloop
 endfacet
 facet normal 1 -2.64377e-16 -3.44543e-16
   outer loop
     vertex -3 8 12
     vertex -3 9.2 7.21244
     vertex -3 9.48995 6.98995
   endloop
 endfacet
 facet normal 1 -1.2862e-16 -3.10515e-16
   outer loop
     vertex -3 8 12
     vertex -3 8.86235 7.3523
     vertex -3 9.2 7.21244
   endloop
 endfacet
 facet normal 1 -3.86832e-17 -2.93828e-16
   outer loop
     vertex -3 8 12
     vertex -3 8.5 7.4
     vertex -3 8.86235 7.3523
   endloop
 endfacet
 facet normal 1 1.58603e-16 -3.39966e-16
   outer loop
     vertex -3 8 12
     vertex -3 17.6377 7.3523
     vertex -3 22 12
   endloop
 endfacet
 facet normal 1 1.42059e-15 -1.09006e-15
   outer loop
     vertex -3 15 6
     vertex -3 16.7876 6.7
     vertex -3 17.0101 6.98995
   endloop
 endfacet
 facet normal 1 1.18612e-15 -4.91309e-16
   outer loop
     vertex -3 15 6
     vertex -3 16.6477 6.36235
     vertex -3 16.7876 6.7
   endloop
 endfacet
 facet normal 1 1.11022e-15 -1.46164e-16
   outer loop
     vertex -3 15 6
     vertex -3 16.6 6
     vertex -3 16.6477 6.36235
   endloop
 endfacet
 facet normal 1 1.11022e-15 1.46164e-16
   outer loop
     vertex -3 15 6
     vertex -3 16.6477 5.63765
     vertex -3 16.6 6
   endloop
 endfacet
 facet normal 1 1.18612e-15 4.91309e-16
   outer loop
     vertex -3 15 6
     vertex -3 16.7876 5.3
     vertex -3 16.6477 5.63765
   endloop
 endfacet
 facet normal 0 1 0
   outer loop
     vertex -3 22 0
     vertex -6 22 0
     vertex -6 22 12
   endloop
 endfacet
 facet normal 0 1 -0
   outer loop
     vertex -3 22 0
     vertex -6 22 12
     vertex -3 22 12
   endloop
 endfacet
 facet normal -1 0 0
   outer loop
     vertex -6 7.28756 6.7
     vertex -6 7.34788e-16 12
     vertex -6 7.51005 6.98995
   endloop
 endfacet
 facet normal -1 -0 0
   outer loop
     vertex -6 7.8 7.21244
     vertex -6 7.51005 6.98995
     vertex -6 7.34788e-16 12
   endloop
 endfacet
 facet normal -1 -0 0
   outer loop
     vertex -6 8.13765 7.3523
     vertex -6 7.8 7.21244
     vertex -6 7.34788e-16 12
   endloop
 endfacet
 facet normal -1 0 0
   outer loop
     vertex -6 7.1477 6.36235
     vertex -6 7.34788e-16 12
     vertex -6 7.28756 6.7
   endloop
 endfacet
 facet normal -1 -0 0
   outer loop
     vertex -6 7.1 6
     vertex -6 7.34788e-16 0
     vertex -6 7.34788e-16 12
   endloop
 endfacet
 facet normal -1 0 0
   outer loop
     vertex -6 7.1 6
     vertex -6 7.34788e-16 12
     vertex -6 7.1477 6.36235
   endloop
 endfacet
 facet normal -1 -0 0
   outer loop
     vertex -6 8.5 7.4
     vertex -6 8.13765 7.3523
     vertex -6 7.34788e-16 12
   endloop
 endfacet
 facet normal -1 -0 0
   outer loop
     vertex -6 7.1477 5.63765
     vertex -6 7.34788e-16 0
     vertex -6 7.1 6
   endloop
 endfacet
 facet normal -1 0 0
   outer loop
     vertex -6 8.86235 7.3523
     vertex -6 8.5 7.4
     vertex -6 7.34788e-16 12
   endloop
 endfacet
 facet normal -1 -0 0
   outer loop
     vertex -6 7.28756 5.3
     vertex -6 7.34788e-16 0
     vertex -6 7.1477 5.63765
   endloop
 endfacet
 facet normal -1 -0 0
   outer loop
     vertex -6 7.51005 5.01005
     vertex -6 7.34788e-16 0
     vertex -6 7.28756 5.3
   endloop
 endfacet
 facet normal -1 -0 0
   outer loop
     vertex -6 7.8 4.78756
     vertex -6 7.34788e-16 0
     vertex -6 7.51005 5.01005
   endloop
 endfacet
 facet normal -1 -0 0
   outer loop
     vertex -6 8.13765 4.6477
     vertex -6 7.34788e-16 0
     vertex -6 7.8 4.78756
   endloop
 endfacet
 facet normal -1 -0 0
   outer loop
     vertex -6 8.5 4.6
     vertex -6 7.34788e-16 0
     vertex -6 8.13765 4.6477
   endloop
 endfacet
 facet normal -1 0 0
   outer loop
     vertex -6 8.86235 4.6477
     vertex -6 7.34788e-16 0
     vertex -6 8.5 4.6
   endloop
 endfacet
 facet normal -1 0 0
   outer loop
     vertex -6 22 12
     vertex -6 9.2 7.21244
     vertex -6 8.86235 7.3523
   endloop
 endfacet
 facet normal -1 -0 0
   outer loop
     vertex -6 22 12
     vertex -6 8.86235 7.3523
     vertex -6 7.34788e-16 12
   endloop
 endfacet
 facet normal -1 -0 0
   outer loop
     vertex -6 17.3 7.21244
     vertex -6 9.48995 6.98995
     vertex -6 9.2 7.21244
   endloop
 endfacet
 facet normal -1 0 0
   outer loop
     vertex -6 17.3 7.21244
     vertex -6 17.0101 6.98995
     vertex -6 9.48995 6.98995
   endloop
 endfacet
 facet normal -1 0 0
   outer loop
     vertex -6 17.3 7.21244
     vertex -6 9.2 7.21244
     vertex -6 22 12
   endloop
 endfacet
 facet normal -1 -0 0
   outer loop
     vertex -6 17.6377 7.3523
     vertex -6 17.3 7.21244
     vertex -6 22 12
   endloop
 endfacet
 facet normal -1 -0 0
   outer loop
     vertex -6 18 7.4
     vertex -6 17.6377 7.3523
     vertex -6 22 12
   endloop
 endfacet
 facet normal -1 0 0
   outer loop
     vertex -6 18.3623 7.3523
     vertex -6 18 7.4
     vertex -6 22 12
   endloop
 endfacet
 facet normal -1 0 0
   outer loop
     vertex -6 18.7 7.21244
     vertex -6 18.3623 7.3523
     vertex -6 22 12
   endloop
 endfacet
 facet normal -1 0 0
   outer loop
     vertex -6 18.9899 6.98995
     vertex -6 18.7 7.21244
     vertex -6 22 12
   endloop
 endfacet
 facet normal -1 -0 0
   outer loop
     vertex -6 17.0101 5.01005
     vertex -6 9.2 4.78756
     vertex -6 9.48995 5.01005
   endloop
 endfacet
 facet normal -1 0 0
   outer loop
     vertex -6 19.2124 6.7
     vertex -6 18.9899 6.98995
     vertex -6 22 12
   endloop
 endfacet
 facet normal -1 0 0
   outer loop
     vertex -6 17.3 4.78756
     vertex -6 9.2 4.78756
     vertex -6 17.0101 5.01005
   endloop
 endfacet
 facet normal -1 0 0
   outer loop
     vertex -6 19.3523 6.36235
     vertex -6 19.2124 6.7
     vertex -6 22 12
   endloop
 endfacet
 facet normal -1 0 0
   outer loop
     vertex -6 19.4 6
     vertex -6 19.3523 6.36235
     vertex -6 22 12
   endloop
 endfacet
 facet normal -1 0 0
   outer loop
     vertex -6 22 0
     vertex -6 8.86235 4.6477
     vertex -6 9.2 4.78756
   endloop
 endfacet
 facet normal -1 0 0
   outer loop
     vertex -6 22 0
     vertex -6 9.2 4.78756
     vertex -6 17.3 4.78756
   endloop
 endfacet
 facet normal -1 0 0
   outer loop
     vertex -6 22 0
     vertex -6 19.4 6
     vertex -6 22 12
   endloop
 endfacet
 facet normal -1 0 0
   outer loop
     vertex -6 22 0
     vertex -6 19.3523 5.63765
     vertex -6 19.4 6
   endloop
 endfacet
 facet normal -1 0 0
   outer loop
     vertex -6 22 0
     vertex -6 19.2124 5.3
     vertex -6 19.3523 5.63765
   endloop
 endfacet
 facet normal -1 0 0
   outer loop
     vertex -6 22 0
     vertex -6 18.9899 5.01005
     vertex -6 19.2124 5.3
   endloop
 endfacet
 facet normal -1 0 0
   outer loop
     vertex -6 22 0
     vertex -6 18.7 4.78756
     vertex -6 18.9899 5.01005
   endloop
 endfacet
 facet normal -1 0 0
   outer loop
     vertex -6 22 0
     vertex -6 18.3623 4.6477
     vertex -6 18.7 4.78756
   endloop
 endfacet
 facet normal -1 0 0
   outer loop
     vertex -6 22 0
     vertex -6 18 4.6
     vertex -6 18.3623 4.6477
   endloop
 endfacet
 facet normal -1 0 0
   outer loop
     vertex -6 22 0
     vertex -6 17.6377 4.6477
     vertex -6 18 4.6
   endloop
 endfacet
 facet normal -1 0 0
   outer loop
     vertex -6 22 0
     vertex -6 17.3 4.78756
     vertex -6 17.6377 4.6477
   endloop
 endfacet
 facet normal -1 0 0
   outer loop
     vertex -6 22 0
     vertex -6 7.34788e-16 0
     vertex -6 8.86235 4.6477
   endloop
 endfacet
 facet normal -1 0 0
   outer loop
     vertex -6 11 6
     vertex -6 9.71244 6.7
     vertex -6 9.48995 6.98995
   endloop
 endfacet
 facet normal -1 0 0
   outer loop
     vertex -6 11 6
     vertex -6 9.8523 6.36235
     vertex -6 9.71244 6.7
   endloop
 endfacet
 facet normal -1 -0 0
   outer loop
     vertex -6 11 6
     vertex -6 9.9 6
     vertex -6 9.8523 6.36235
   endloop
 endfacet
 facet normal -1 0 0
   outer loop
     vertex -6 11 6
     vertex -6 9.8523 5.63765
     vertex -6 9.9 6
   endloop
 endfacet
 facet normal -1 0 0
   outer loop
     vertex -6 11 6
     vertex -6 9.71244 5.3
     vertex -6 9.8523 5.63765
   endloop
 endfacet
 facet normal -1 0 0
   outer loop
     vertex -6 11 6
     vertex -6 9.48995 5.01005
     vertex -6 9.71244 5.3
   endloop
 endfacet
 facet normal -1 0 -0
   outer loop
     vertex -6 11 6
     vertex -6 17.0101 5.01005
     vertex -6 9.48995 5.01005
   endloop
 endfacet
 facet normal -1 0 0
   outer loop
     vertex -6 11 6
     vertex -6 16.7876 5.3
     vertex -6 17.0101 5.01005
   endloop
 endfacet
 facet normal -1 0 0
   outer loop
     vertex -6 11 6
     vertex -6 16.6477 5.63765
     vertex -6 16.7876 5.3
   endloop
 endfacet
 facet normal -1 0 0
   outer loop
     vertex -6 11 6
     vertex -6 16.6 6
     vertex -6 16.6477 5.63765
   endloop
 endfacet
 facet normal -1 0 0
   outer loop
     vertex -6 11 6
     vertex -6 16.6477 6.36235
     vertex -6 16.6 6
   endloop
 endfacet
 facet normal -1 0 0
   outer loop
     vertex -6 11 6
     vertex -6 16.7876 6.7
     vertex -6 16.6477 6.36235
   endloop
 endfacet
 facet normal -1 0 0
   outer loop
     vertex -6 11 6
     vertex -6 17.0101 6.98995
     vertex -6 16.7876 6.7
   endloop
 endfacet
 facet normal -1 0 0
   outer loop
     vertex -6 11 6
     vertex -6 9.48995 6.98995
     vertex -6 17.0101 6.98995
   endloop
 endfacet
 facet normal -0.130526 -0.991445 0
   outer loop
     vertex -1.55291 -5.79555 0
     vertex 0 -6 0
     vertex 0 -6 12
   endloop
 endfacet
 facet normal -0.130526 -0.991445 0
   outer loop
     vertex -1.55291 -5.79555 0
     vertex 0 -6 12
     vertex -1.55291 -5.79555 12
   endloop
 endfacet
 facet normal -0.382683 -0.92388 0
   outer loop
     vertex -3 -5.19615 0
     vertex -1.55291 -5.79555 12
     vertex -3 -5.19615 12
   endloop
 endfacet
 facet normal -0.382683 -0.92388 0
   outer loop
     vertex -3 -5.19615 0
     vertex -1.55291 -5.79555 0
     vertex -1.55291 -5.79555 12
   endloop
 endfacet
 facet normal -0.608761 -0.793353 0
   outer loop
     vertex -4.24264 -4.24264 0
     vertex -3 -5.19615 12
     vertex -4.24264 -4.24264 12
   endloop
 endfacet
 facet normal -0.608761 -0.793353 0
   outer loop
     vertex -4.24264 -4.24264 0
     vertex -3 -5.19615 0
     vertex -3 -5.19615 12
   endloop
 endfacet
 facet normal -0.793353 -0.608761 0
   outer loop
     vertex -5.19615 -3 0
     vertex -4.24264 -4.24264 12
     vertex -5.19615 -3 12
   endloop
 endfacet
 facet normal -0.793353 -0.608761 0
   outer loop
     vertex -5.19615 -3 0
     vertex -4.24264 -4.24264 0
     vertex -4.24264 -4.24264 12
   endloop
 endfacet
 facet normal -0.92388 -0.382683 0
   outer loop
     vertex -5.79555 -1.55291 0
     vertex -5.19615 -3 12
     vertex -5.79555 -1.55291 12
   endloop
 endfacet
 facet normal -0.92388 -0.382683 0
   outer loop
     vertex -5.79555 -1.55291 0
     vertex -5.19615 -3 0
     vertex -5.19615 -3 12
   endloop
 endfacet
 facet normal -0.991445 -0.130526 0
   outer loop
     vertex -6 7.34788e-16 12
     vertex -5.79555 -1.55291 0
     vertex -5.79555 -1.55291 12
   endloop
 endfacet
 facet normal -0.991445 -0.130526 0
   outer loop
     vertex -6 7.34788e-16 0
     vertex -5.79555 -1.55291 0
     vertex -6 7.34788e-16 12
   endloop
 endfacet
 facet normal -0 -1 0
   outer loop
     vertex 5.18472 -6 9.04267
     vertex 0 -6 12
     vertex 4.425 -6 8.72798
   endloop
 endfacet
 facet normal 0 -1 -0
   outer loop
     vertex 9.04267 -6 5.18472
     vertex 8.72798 -6 4.425
     vertex 12 -6 0
   endloop
 endfacet
 facet normal -0 -1 0
   outer loop
     vertex 4.425 -6 3.27202
     vertex 3.77261 -6 3.77261
     vertex 0 -6 0
   endloop
 endfacet
 facet normal -0 -1 0
   outer loop
     vertex 6 -6 9.15
     vertex 0 -6 12
     vertex 5.18472 -6 9.04267
   endloop
 endfacet
 facet normal 0 -1 -0
   outer loop
     vertex 3.27202 -6 4.425
     vertex 0 -6 0
     vertex 3.77261 -6 3.77261
   endloop
 endfacet
 facet normal 0 -1 -0
   outer loop
     vertex 9.15 -6 6
     vertex 9.04267 -6 5.18472
     vertex 12 -6 0
   endloop
 endfacet
 facet normal 0 -1 -0
   outer loop
     vertex 2.95733 -6 5.18472
     vertex 0 -6 0
     vertex 3.27202 -6 4.425
   endloop
 endfacet
 facet normal -0 -1 0
   outer loop
     vertex 5.18472 -6 2.95733
     vertex 4.425 -6 3.27202
     vertex 0 -6 0
   endloop
 endfacet
 facet normal 0 -1 -0
   outer loop
     vertex 2.85 -6 6
     vertex 0 -6 0
     vertex 2.95733 -6 5.18472
   endloop
 endfacet
 facet normal -0 -1 0
   outer loop
     vertex 6 -6 2.85
     vertex 5.18472 -6 2.95733
     vertex 0 -6 0
   endloop
 endfacet
 facet normal 0 -1 0
   outer loop
     vertex 12 -6 12
     vertex 6 -6 9.15
     vertex 6.81528 -6 9.04267
   endloop
 endfacet
 facet normal 0 -1 0
   outer loop
     vertex 12 -6 12
     vertex 6.81528 -6 9.04267
     vertex 7.575 -6 8.72798
   endloop
 endfacet
 facet normal 0 -1 0
   outer loop
     vertex 12 -6 12
     vertex 7.575 -6 8.72798
     vertex 8.22739 -6 8.22739
   endloop
 endfacet
 facet normal 0 -1 0
   outer loop
     vertex 12 -6 12
     vertex 8.22739 -6 8.22739
     vertex 8.72798 -6 7.575
   endloop
 endfacet
 facet normal 0 -1 0
   outer loop
     vertex 12 -6 12
     vertex 8.72798 -6 7.575
     vertex 9.04267 -6 6.81528
   endloop
 endfacet
 facet normal 0 -1 0
   outer loop
     vertex 12 -6 12
     vertex 9.04267 -6 6.81528
     vertex 9.15 -6 6
   endloop
 endfacet
 facet normal -0 -1 0
   outer loop
     vertex 12 -6 12
     vertex 0 -6 12
     vertex 6 -6 9.15
   endloop
 endfacet
 facet normal 0 -1 -0
   outer loop
     vertex 12 -6 12
     vertex 9.15 -6 6
     vertex 12 -6 0
   endloop
 endfacet
 facet normal 0 -1 0
   outer loop
     vertex 0 -6 12
     vertex 2.85 -6 6
     vertex 2.95733 -6 6.81528
   endloop
 endfacet
 facet normal 0 -1 0
   outer loop
     vertex 0 -6 12
     vertex 2.95733 -6 6.81528
     vertex 3.27202 -6 7.575
   endloop
 endfacet
 facet normal 0 -1 0
   outer loop
     vertex 0 -6 12
     vertex 3.27202 -6 7.575
     vertex 3.77261 -6 8.22739
   endloop
 endfacet
 facet normal 0 -1 0
   outer loop
     vertex 0 -6 12
     vertex 0 -6 0
     vertex 2.85 -6 6
   endloop
 endfacet
 facet normal 0 -1 0
   outer loop
     vertex 12 -6 0
     vertex 8.22739 -6 3.77261
     vertex 7.575 -6 3.27202
   endloop
 endfacet
 facet normal 0 -1 0
   outer loop
     vertex 12 -6 0
     vertex 7.575 -6 3.27202
     vertex 6.81528 -6 2.95733
   endloop
 endfacet
 facet normal 0 -1 0
   outer loop
     vertex 12 -6 0
     vertex 6.81528 -6 2.95733
     vertex 6 -6 2.85
   endloop
 endfacet
 facet normal 0 -1 0
   outer loop
     vertex 12 -6 0
     vertex 6 -6 2.85
     vertex 0 -6 0
   endloop
 endfacet
 facet normal -0 -1 0
   outer loop
     vertex 4.425 -6 8.72798
     vertex 0 -6 12
     vertex 3.77261 -6 8.22739
   endloop
 endfacet
 facet normal 0 -1 -0
   outer loop
     vertex 8.72798 -6 4.425
     vertex 8.22739 -6 3.77261
     vertex 12 -6 0
   endloop
 endfacet
 facet normal 1 0 0
   outer loop
     vertex 12 -2.55271 12
     vertex 12 -6 0
     vertex 12 -2.55271 0
   endloop
 endfacet
 facet normal 1 0 0
   outer loop
     vertex 12 -2.55271 12
     vertex 12 -6 12
     vertex 12 -6 0
   endloop
 endfacet
 facet normal -8.69925e-17 1 3.60335e-17
   outer loop
     vertex 9.04267 -2.55271 5.18472
     vertex 12 -2.55271 0
     vertex 8.72798 -2.55271 4.425
   endloop
 endfacet
 facet normal 4.33977e-17 1 -1.04771e-16
   outer loop
     vertex 5.18472 -2.55271 9.04267
     vertex 4.425 -2.55271 8.72798
     vertex 2.09133 -2.55271 12
   endloop
 endfacet
 facet normal 6.58237e-16 1 -1.75632e-16
   outer loop
     vertex 3.27202 -2.55271 4.425
     vertex 3.77261 -2.55271 3.77261
     vertex 2.09133 -2.55271 0
   endloop
 endfacet
 facet normal -1.22005e-16 1 1.60623e-17
   outer loop
     vertex 9.15 -2.55271 6
     vertex 12 -2.55271 0
     vertex 9.04267 -2.55271 5.18472
   endloop
 endfacet
 facet normal 6.73082e-17 1 8.77177e-17
   outer loop
     vertex 4.425 -2.55271 3.27202
     vertex 2.09133 -2.55271 0
     vertex 3.77261 -2.55271 3.77261
   endloop
 endfacet
 facet normal 0 1 0
   outer loop
     vertex 2.95733 -2.55271 5.18472
     vertex 3.27202 -2.55271 4.425
     vertex 2.09133 -2.55271 0
   endloop
 endfacet
 facet normal 1.73767e-17 1 -1.31989e-16
   outer loop
     vertex 6 -2.55271 9.15
     vertex 5.18472 -2.55271 9.04267
     vertex 2.09133 -2.55271 12
   endloop
 endfacet
 facet normal 4.33977e-17 1 1.04771e-16
   outer loop
     vertex 5.18472 -2.55271 2.95733
     vertex 2.09133 -2.55271 0
     vertex 4.425 -2.55271 3.27202
   endloop
 endfacet
 facet normal 0 1 0
   outer loop
     vertex 2.85 -2.55271 6
     vertex 2.95733 -2.55271 5.18472
     vertex 2.09133 -2.55271 0
   endloop
 endfacet
 facet normal 1.73767e-17 1 1.31989e-16
   outer loop
     vertex 6 -2.55271 2.85
     vertex 2.09133 -2.55271 0
     vertex 5.18472 -2.55271 2.95733
   endloop
 endfacet
 facet normal -1.22005e-16 1 -1.60623e-17
   outer loop
     vertex 12 -2.55271 12
     vertex 9.15 -2.55271 6
     vertex 9.04267 -2.55271 6.81528
   endloop
 endfacet
 facet normal -8.69925e-17 1 -3.60335e-17
   outer loop
     vertex 12 -2.55271 12
     vertex 9.04267 -2.55271 6.81528
     vertex 8.72798 -2.55271 7.575
   endloop
 endfacet
 facet normal 3.85166e-16 1 -3.85166e-16
   outer loop
     vertex 12 -2.55271 12
     vertex 8.72798 -2.55271 7.575
     vertex 8.22739 -2.55271 8.22739
   endloop
 endfacet
 facet normal 0 1 0
   outer loop
     vertex 12 -2.55271 12
     vertex 8.22739 -2.55271 8.22739
     vertex 7.575 -2.55271 8.72798
   endloop
 endfacet
 facet normal 0 1 0
   outer loop
     vertex 12 -2.55271 12
     vertex 7.575 -2.55271 8.72798
     vertex 6.81528 -2.55271 9.04267
   endloop
 endfacet
 facet normal 0 1 0
   outer loop
     vertex 12 -2.55271 12
     vertex 6.81528 -2.55271 9.04267
     vertex 6 -2.55271 9.15
   endloop
 endfacet
 facet normal -1.55821e-16 1 0
   outer loop
     vertex 12 -2.55271 12
     vertex 12 -2.55271 0
     vertex 9.15 -2.55271 6
   endloop
 endfacet
 facet normal 4.48183e-17 1 -9.43542e-17
   outer loop
     vertex 12 -2.55271 12
     vertex 6 -2.55271 9.15
     vertex 2.09133 -2.55271 12
   endloop
 endfacet
 facet normal 0 1 0
   outer loop
     vertex 2.09133 -2.55271 12
     vertex 2.85 -2.55271 6
     vertex 2.09133 -2.55271 0
   endloop
 endfacet
 facet normal 0 1 0
   outer loop
     vertex 12 -2.55271 0
     vertex 6 -2.55271 2.85
     vertex 6.81528 -2.55271 2.95733
   endloop
 endfacet
 facet normal 0 1 0
   outer loop
     vertex 12 -2.55271 0
     vertex 6.81528 -2.55271 2.95733
     vertex 7.575 -2.55271 3.27202
   endloop
 endfacet
 facet normal 0 1 0
   outer loop
     vertex 12 -2.55271 0
     vertex 7.575 -2.55271 3.27202
     vertex 8.22739 -2.55271 3.77261
   endloop
 endfacet
 facet normal 4.48183e-17 1 9.43542e-17
   outer loop
     vertex 12 -2.55271 0
     vertex 2.09133 -2.55271 0
     vertex 6 -2.55271 2.85
   endloop
 endfacet
 facet normal 3.85166e-16 1 3.85166e-16
   outer loop
     vertex 8.72798 -2.55271 4.425
     vertex 12 -2.55271 0
     vertex 8.22739 -2.55271 3.77261
   endloop
 endfacet
 facet normal 6.73082e-17 1 -8.77177e-17
   outer loop
     vertex 2.09133 -2.55271 12
     vertex 4.425 -2.55271 8.72798
     vertex 3.77261 -2.55271 8.22739
   endloop
 endfacet
 facet normal 6.58237e-16 1 1.75632e-16
   outer loop
     vertex 2.09133 -2.55271 12
     vertex 3.77261 -2.55271 8.22739
     vertex 3.27202 -2.55271 7.575
   endloop
 endfacet
 facet normal 0 1 0
   outer loop
     vertex 2.09133 -2.55271 12
     vertex 3.27202 -2.55271 7.575
     vertex 2.95733 -2.55271 6.81528
   endloop
 endfacet
 facet normal 0 1 0
   outer loop
     vertex 2.09133 -2.55271 12
     vertex 2.95733 -2.55271 6.81528
     vertex 2.85 -2.55271 6
   endloop
 endfacet
 facet normal 0 0 1
   outer loop
     vertex -1 6 12
     vertex -1.02808 3.13577 12
     vertex -0.217694 3.29281 12
   endloop
 endfacet
 facet normal 0 0 1
   outer loop
     vertex -1 6 12
     vertex -0.217694 3.29281 12
     vertex 0.606313 3.24382 12
   endloop
 endfacet
 facet normal 0 0 1
   outer loop
     vertex -1 6 12
     vertex 0.606313 3.24382 12
     vertex 1.39238 2.99187 12
   endloop
 endfacet
 facet normal 0 0 1
   outer loop
     vertex -2.8935 1.58672 12
     vertex -6 7.34788e-16 12
     vertex -3.19676 0.81898 12
   endloop
 endfacet
 facet normal 0 0 1
   outer loop
     vertex -1 6 12
     vertex 1.39238 2.99187 12
     vertex 2.09133 2.55271 12
   endloop
 endfacet
 facet normal 0 0 1
   outer loop
     vertex -1 6 12
     vertex -1.51764 6.06815 12
     vertex -1.02808 3.13577 12
   endloop
 endfacet
 facet normal 0 0 1
   outer loop
     vertex 2.09133 -2.55271 12
     vertex 1.39238 -2.99187 12
     vertex 0 -6 12
   endloop
 endfacet
 facet normal 0 0 1
   outer loop
     vertex 12 -6 12
     vertex 2.09133 -2.55271 12
     vertex 0 -6 12
   endloop
 endfacet
 facet normal 0 0 1
   outer loop
     vertex 12 -2.55271 12
     vertex 2.09133 -2.55271 12
     vertex 12 -6 12
   endloop
 endfacet
 facet normal 0 0 1
   outer loop
     vertex -6 22 12
     vertex -6 7.34788e-16 12
     vertex -3 8 12
   endloop
 endfacet
 facet normal 0 0 1
   outer loop
     vertex 12 6 12
     vertex -1 6 12
     vertex 2.09133 2.55271 12
   endloop
 endfacet
 facet normal 0 0 1
   outer loop
     vertex 12 6 12
     vertex 2.09133 2.55271 12
     vertex 12 2.55271 12
   endloop
 endfacet
 facet normal 0 0 1
   outer loop
     vertex -2.40919 -2.25517 12
     vertex -5.19615 -3 12
     vertex -4.24264 -4.24264 12
   endloop
 endfacet
 facet normal 0 0 1
   outer loop
     vertex -3 22 12
     vertex -6 22 12
     vertex -3 8 12
   endloop
 endfacet
 facet normal 0 0 1
   outer loop
     vertex -1.77414 -2.78252 12
     vertex -4.24264 -4.24264 12
     vertex -3 -5.19615 12
   endloop
 endfacet
 facet normal 0 0 1
   outer loop
     vertex -1.77414 -2.78252 12
     vertex -2.40919 -2.25517 12
     vertex -4.24264 -4.24264 12
   endloop
 endfacet
 facet normal 0 0 1
   outer loop
     vertex -2.8935 -1.58672 12
     vertex -5.79555 -1.55291 12
     vertex -5.19615 -3 12
   endloop
 endfacet
 facet normal 0 0 1
   outer loop
     vertex -2.8935 -1.58672 12
     vertex -5.19615 -3 12
     vertex -2.40919 -2.25517 12
   endloop
 endfacet
 facet normal 0 0 1
   outer loop
     vertex -2.73205 7 12
     vertex -2.8935 1.58672 12
     vertex -2.40919 2.25517 12
   endloop
 endfacet
 facet normal 0 0 1
   outer loop
     vertex -1.02808 -3.13577 12
     vertex -3 -5.19615 12
     vertex -1.55291 -5.79555 12
   endloop
 endfacet
 facet normal 0 0 1
   outer loop
     vertex -2.73205 7 12
     vertex -6 7.34788e-16 12
     vertex -2.8935 1.58672 12
   endloop
 endfacet
 facet normal 0 0 1
   outer loop
     vertex -2.73205 7 12
     vertex -2.40919 2.25517 12
     vertex -2.41421 6.58579 12
   endloop
 endfacet
 facet normal 0 0 1
   outer loop
     vertex -2 6.26795 12
     vertex -2.40919 2.25517 12
     vertex -1.77414 2.78252 12
   endloop
 endfacet
 facet normal 0 0 1
   outer loop
     vertex -1.02808 -3.13577 12
     vertex -1.77414 -2.78252 12
     vertex -3 -5.19615 12
   endloop
 endfacet
 facet normal 0 0 1
   outer loop
     vertex -3.19676 -0.81898 12
     vertex -6 7.34788e-16 12
     vertex -5.79555 -1.55291 12
   endloop
 endfacet
 facet normal 0 0 1
   outer loop
     vertex -3.19676 -0.81898 12
     vertex -5.79555 -1.55291 12
     vertex -2.8935 -1.58672 12
   endloop
 endfacet
 facet normal 0 0 1
   outer loop
     vertex -2 6.26795 12
     vertex -2.41421 6.58579 12
     vertex -2.40919 2.25517 12
   endloop
 endfacet
 facet normal 0 0 1
   outer loop
     vertex -0.217694 -3.29281 12
     vertex -1.55291 -5.79555 12
     vertex 0 -6 12
   endloop
 endfacet
 facet normal 0 0 1
   outer loop
     vertex -0.217694 -3.29281 12
     vertex -1.02808 -3.13577 12
     vertex -1.55291 -5.79555 12
   endloop
 endfacet
 facet normal 0 0 1
   outer loop
     vertex -3.3 0 12
     vertex -6 7.34788e-16 12
     vertex -3.19676 -0.81898 12
   endloop
 endfacet
 facet normal 0 0 1
   outer loop
     vertex -2.93185 7.48236 12
     vertex -6 7.34788e-16 12
     vertex -2.73205 7 12
   endloop
 endfacet
 facet normal 0 0 1
   outer loop
     vertex -1.51764 6.06815 12
     vertex -1.77414 2.78252 12
     vertex -1.02808 3.13577 12
   endloop
 endfacet
 facet normal 0 0 1
   outer loop
     vertex 0.606313 -3.24382 12
     vertex -0.217694 -3.29281 12
     vertex 0 -6 12
   endloop
 endfacet
 facet normal 0 0 1
   outer loop
     vertex -1.51764 6.06815 12
     vertex -2 6.26795 12
     vertex -1.77414 2.78252 12
   endloop
 endfacet
 facet normal 0 0 1
   outer loop
     vertex -3.19676 0.81898 12
     vertex -6 7.34788e-16 12
     vertex -3.3 0 12
   endloop
 endfacet
 facet normal 0 0 1
   outer loop
     vertex -3 8 12
     vertex -6 7.34788e-16 12
     vertex -2.93185 7.48236 12
   endloop
 endfacet
 facet normal 0 0 1
   outer loop
     vertex 1.39238 -2.99187 12
     vertex 0.606313 -3.24382 12
     vertex 0 -6 12
   endloop
 endfacet
 facet normal -0 0 -1
   outer loop
     vertex -1 6 0
     vertex -1.02808 3.13577 0
     vertex -1.51764 6.06815 0
   endloop
 endfacet
 facet normal 0 -0 -1
   outer loop
     vertex -1 6 0
     vertex -0.217694 3.29281 0
     vertex -1.02808 3.13577 0
   endloop
 endfacet
 facet normal 0 0 -1
   outer loop
     vertex -1 6 0
     vertex 0.606313 3.24382 0
     vertex -0.217694 3.29281 0
   endloop
 endfacet
 facet normal 0 0 -1
   outer loop
     vertex -2.8935 1.58672 0
     vertex -3.19676 0.81898 0
     vertex -6 7.34788e-16 0
   endloop
 endfacet
 facet normal 0 0 -1
   outer loop
     vertex -1 6 0
     vertex 1.39238 2.99187 0
     vertex 0.606313 3.24382 0
   endloop
 endfacet
 facet normal 0 0 -1
   outer loop
     vertex -1 6 0
     vertex 2.09133 2.55271 0
     vertex 1.39238 2.99187 0
   endloop
 endfacet
 facet normal 0 0 -1
   outer loop
     vertex 2.09133 -2.55271 0
     vertex 0 -6 0
     vertex 1.39238 -2.99187 0
   endloop
 endfacet
 facet normal 0 0 -1
   outer loop
     vertex 12 -6 0
     vertex 0 -6 0
     vertex 2.09133 -2.55271 0
   endloop
 endfacet
 facet normal -0 -0 -1
   outer loop
     vertex 12 -2.55271 0
     vertex 12 -6 0
     vertex 2.09133 -2.55271 0
   endloop
 endfacet
 facet normal 0 0 -1
   outer loop
     vertex -6 22 0
     vertex -3 8 0
     vertex -6 7.34788e-16 0
   endloop
 endfacet
 facet normal -0 0 -1
   outer loop
     vertex 12 6 0
     vertex 2.09133 2.55271 0
     vertex -1 6 0
   endloop
 endfacet
 facet normal 0 -0 -1
   outer loop
     vertex 12 6 0
     vertex 12 2.55271 0
     vertex 2.09133 2.55271 0
   endloop
 endfacet
 facet normal 0 0 -1
   outer loop
     vertex -2.40919 -2.25517 0
     vertex -4.24264 -4.24264 0
     vertex -5.19615 -3 0
   endloop
 endfacet
 facet normal -0 -0 -1
   outer loop
     vertex -3 22 0
     vertex -3 8 0
     vertex -6 22 0
   endloop
 endfacet
 facet normal 0 0 -1
   outer loop
     vertex -1.77414 -2.78252 0
     vertex -3 -5.19615 0
     vertex -4.24264 -4.24264 0
   endloop
 endfacet
 facet normal -0 0 -1
   outer loop
     vertex -1.77414 -2.78252 0
     vertex -4.24264 -4.24264 0
     vertex -2.40919 -2.25517 0
   endloop
 endfacet
 facet normal -0 0 -1
   outer loop
     vertex -2.8935 -1.58672 0
     vertex -5.19615 -3 0
     vertex -5.79555 -1.55291 0
   endloop
 endfacet
 facet normal 0 -0 -1
   outer loop
     vertex -2.8935 -1.58672 0
     vertex -2.40919 -2.25517 0
     vertex -5.19615 -3 0
   endloop
 endfacet
 facet normal 0 -0 -1
   outer loop
     vertex -2.73205 7 0
     vertex -2.40919 2.25517 0
     vertex -2.8935 1.58672 0
   endloop
 endfacet
 facet normal 0 0 -1
   outer loop
     vertex -1.02808 -3.13577 0
     vertex -1.55291 -5.79555 0
     vertex -3 -5.19615 0
   endloop
 endfacet
 facet normal 0 0 -1
   outer loop
     vertex -2.73205 7 0
     vertex -2.8935 1.58672 0
     vertex -6 7.34788e-16 0
   endloop
 endfacet
 facet normal 0 0 -1
   outer loop
     vertex -2.73205 7 0
     vertex -2.41421 6.58579 0
     vertex -2.40919 2.25517 0
   endloop
 endfacet
 facet normal -0 0 -1
   outer loop
     vertex -1.02808 -3.13577 0
     vertex -3 -5.19615 0
     vertex -1.77414 -2.78252 0
   endloop
 endfacet
 facet normal 0 -0 -1
   outer loop
     vertex -2 6.26795 0
     vertex -1.77414 2.78252 0
     vertex -2.40919 2.25517 0
   endloop
 endfacet
 facet normal -0 0 -1
   outer loop
     vertex -3.19676 -0.81898 0
     vertex -5.79555 -1.55291 0
     vertex -6 7.34788e-16 0
   endloop
 endfacet
 facet normal 0 -0 -1
   outer loop
     vertex -3.19676 -0.81898 0
     vertex -2.8935 -1.58672 0
     vertex -5.79555 -1.55291 0
   endloop
 endfacet
 facet normal -0 0 -1
   outer loop
     vertex -2 6.26795 0
     vertex -2.40919 2.25517 0
     vertex -2.41421 6.58579 0
   endloop
 endfacet
 facet normal 0 -0 -1
   outer loop
     vertex -0.217694 -3.29281 0
     vertex 0 -6 0
     vertex -1.55291 -5.79555 0
   endloop
 endfacet
 facet normal -0 0 -1
   outer loop
     vertex -0.217694 -3.29281 0
     vertex -1.55291 -5.79555 0
     vertex -1.02808 -3.13577 0
   endloop
 endfacet
 facet normal -0 -0 -1
   outer loop
     vertex -3.3 0 0
     vertex -3.19676 -0.81898 0
     vertex -6 7.34788e-16 0
   endloop
 endfacet
 facet normal 0 -0 -1
   outer loop
     vertex -2.93185 7.48236 0
     vertex -2.73205 7 0
     vertex -6 7.34788e-16 0
   endloop
 endfacet
 facet normal 0 -0 -1
   outer loop
     vertex -1.51764 6.06815 0
     vertex -1.02808 3.13577 0
     vertex -1.77414 2.78252 0
   endloop
 endfacet
 facet normal 0 0 -1
   outer loop
     vertex 0.606313 -3.24382 0
     vertex 0 -6 0
     vertex -0.217694 -3.29281 0
   endloop
 endfacet
 facet normal -0 0 -1
   outer loop
     vertex -1.51764 6.06815 0
     vertex -1.77414 2.78252 0
     vertex -2 6.26795 0
   endloop
 endfacet
 facet normal 0 0 -1
   outer loop
     vertex -3.19676 0.81898 0
     vertex -3.3 0 0
     vertex -6 7.34788e-16 0
   endloop
 endfacet
 facet normal 0 -0 -1
   outer loop
     vertex -3 8 0
     vertex -2.93185 7.48236 0
     vertex -6 7.34788e-16 0
   endloop
 endfacet
 facet normal 0 0 -1
   outer loop
     vertex 1.39238 -2.99187 0
     vertex 0 -6 0
     vertex 0.606313 -3.24382 0
   endloop
 endfacet
 facet normal -0.382683 1.39437e-16 0.92388
   outer loop
     vertex 6.81528 -2.55271 2.95733
     vertex 6.81528 -6 2.95733
     vertex 7.575 -2.55271 3.27202
   endloop
 endfacet
 facet normal -0.130526 2.25197e-16 0.991445
   outer loop
     vertex 6 -6 2.85
     vertex 6.81528 -6 2.95733
     vertex 6.81528 -2.55271 2.95733
   endloop
 endfacet
 facet normal -0.130526 0 0.991445
   outer loop
     vertex 6 -2.55271 2.85
     vertex 6 -6 2.85
     vertex 6.81528 -2.55271 2.95733
   endloop
 endfacet
 facet normal -0.130526 5.0914e-16 -0.991445
   outer loop
     vertex 6.81528 -6 9.04267
     vertex 6 -6 9.15
     vertex 6 -2.55271 9.15
   endloop
 endfacet
 facet normal -0.130526 -1.07329e-16 -0.991445
   outer loop
     vertex 6.81528 -2.55271 9.04267
     vertex 6.81528 -6 9.04267
     vertex 6 -2.55271 9.15
   endloop
 endfacet
 facet normal -0.382683 7.14755e-16 -0.92388
   outer loop
     vertex 7.575 -6 8.72798
     vertex 6.81528 -6 9.04267
     vertex 6.81528 -2.55271 9.04267
   endloop
 endfacet
 facet normal -0.382683 3.3833e-17 -0.92388
   outer loop
     vertex 7.575 -2.55271 8.72798
     vertex 7.575 -6 8.72798
     vertex 6.81528 -2.55271 9.04267
   endloop
 endfacet
 facet normal -0.608761 7.63711e-16 -0.793353
   outer loop
     vertex 8.22739 -6 8.22739
     vertex 7.575 -6 8.72798
     vertex 7.575 -2.55271 8.72798
   endloop
 endfacet
 facet normal -0.608761 -3.80474e-16 -0.793353
   outer loop
     vertex 8.22739 -2.55271 8.22739
     vertex 8.22739 -6 8.22739
     vertex 7.575 -2.55271 8.72798
   endloop
 endfacet
 facet normal -0.793353 3.72064e-16 -0.608761
   outer loop
     vertex 8.72798 -6 7.575
     vertex 8.22739 -6 8.22739
     vertex 8.22739 -2.55271 8.22739
   endloop
 endfacet
 facet normal -0.793353 -2.83336e-17 -0.608761
   outer loop
     vertex 8.72798 -2.55271 7.575
     vertex 8.72798 -6 7.575
     vertex 8.22739 -2.55271 8.22739
   endloop
 endfacet
 facet normal -0.92388 6.36426e-16 -0.382683
   outer loop
     vertex 9.04267 -6 6.81528
     vertex 8.72798 -6 7.575
     vertex 8.72798 -2.55271 7.575
   endloop
 endfacet
 facet normal -0.92388 6.47636e-17 -0.382683
   outer loop
     vertex 9.04267 -2.55271 6.81528
     vertex 9.04267 -6 6.81528
     vertex 8.72798 -2.55271 7.575
   endloop
 endfacet
 facet normal -0.991445 7.1965e-16 -0.130526
   outer loop
     vertex 9.15 -6 6
     vertex 9.04267 -6 6.81528
     vertex 9.04267 -2.55271 6.81528
   endloop
 endfacet
 facet normal -0.991445 2.41847e-16 -0.130526
   outer loop
     vertex 9.15 -2.55271 6
     vertex 9.15 -6 6
     vertex 9.04267 -2.55271 6.81528
   endloop
 endfacet
 facet normal -0.991445 7.83293e-16 0.130526
   outer loop
     vertex 9.04267 -6 5.18472
     vertex 9.15 -6 6
     vertex 9.15 -2.55271 6
   endloop
 endfacet
 facet normal -0.991445 -2.75476e-16 0.130526
   outer loop
     vertex 9.04267 -2.55271 5.18472
     vertex 9.04267 -6 5.18472
     vertex 9.15 -2.55271 6
   endloop
 endfacet
 facet normal -0.92388 2.15406e-16 0.382683
   outer loop
     vertex 8.72798 -6 4.425
     vertex 9.04267 -6 5.18472
     vertex 9.04267 -2.55271 5.18472
   endloop
 endfacet
 facet normal -0.92388 1.15513e-16 0.382683
   outer loop
     vertex 8.72798 -2.55271 4.425
     vertex 8.72798 -6 4.425
     vertex 9.04267 -2.55271 5.18472
   endloop
 endfacet
 facet normal -0.793353 5.28723e-16 0.608761
   outer loop
     vertex 8.22739 -6 3.77261
     vertex 8.72798 -6 4.425
     vertex 8.72798 -2.55271 4.425
   endloop
 endfacet
 facet normal -0.793353 2.18571e-16 0.608761
   outer loop
     vertex 8.22739 -2.55271 3.77261
     vertex 8.22739 -6 3.77261
     vertex 8.72798 -2.55271 4.425
   endloop
 endfacet
 facet normal -0.608761 5.0914e-16 0.793353
   outer loop
     vertex 7.575 -6 3.27202
     vertex 8.22739 -6 3.77261
     vertex 8.22739 -2.55271 3.77261
   endloop
 endfacet
 facet normal -0.608761 9.51185e-17 0.793353
   outer loop
     vertex 7.575 -2.55271 3.27202
     vertex 7.575 -6 3.27202
     vertex 8.22739 -2.55271 3.77261
   endloop
 endfacet
 facet normal -0.382683 2.83944e-16 0.92388
   outer loop
     vertex 6.81528 -6 2.95733
     vertex 7.575 -6 3.27202
     vertex 7.575 -2.55271 3.27202
   endloop
 endfacet
 facet normal -0.382683 3.52482e-16 0.92388
   outer loop
     vertex 6.81528 6 2.95733
     vertex 7.575 2.55271 3.27202
     vertex 7.575 6 3.27202
   endloop
 endfacet
 facet normal -0.130526 0 0.991445
   outer loop
     vertex 6 6 2.85
     vertex 6 2.55271 2.85
     vertex 6.81528 2.55271 2.95733
   endloop
 endfacet
 facet normal -0.130526 0 -0.991445
   outer loop
     vertex 6.81528 2.55271 9.04267
     vertex 6 2.55271 9.15
     vertex 6 6 9.15
   endloop
 endfacet
 facet normal -0.130526 6.36426e-17 0.991445
   outer loop
     vertex 6 6 2.85
     vertex 6.81528 2.55271 2.95733
     vertex 6.81528 6 2.95733
   endloop
 endfacet
 facet normal -0.130526 -1.07329e-16 -0.991445
   outer loop
     vertex 6.81528 6 9.04267
     vertex 6.81528 2.55271 9.04267
     vertex 6 6 9.15
   endloop
 endfacet
 facet normal -0.382683 7.04964e-16 -0.92388
   outer loop
     vertex 7.575 2.55271 8.72798
     vertex 6.81528 2.55271 9.04267
     vertex 6.81528 6 9.04267
   endloop
 endfacet
 facet normal -0.382683 -3.43637e-16 -0.92388
   outer loop
     vertex 7.575 6 8.72798
     vertex 7.575 2.55271 8.72798
     vertex 6.81528 6 9.04267
   endloop
 endfacet
 facet normal -0.608761 5.0914e-16 -0.793353
   outer loop
     vertex 8.22739 2.55271 8.22739
     vertex 7.575 2.55271 8.72798
     vertex 7.575 6 8.72798
   endloop
 endfacet
 facet normal -0.608761 -3.80474e-16 -0.793353
   outer loop
     vertex 8.22739 6 8.22739
     vertex 8.22739 2.55271 8.22739
     vertex 7.575 6 8.72798
   endloop
 endfacet
 facet normal -0.793353 3.72064e-16 -0.608761
   outer loop
     vertex 8.72798 2.55271 7.575
     vertex 8.22739 2.55271 8.22739
     vertex 8.22739 6 8.22739
   endloop
 endfacet
 facet normal -0.793353 -2.83336e-17 -0.608761
   outer loop
     vertex 8.72798 6 7.575
     vertex 8.72798 2.55271 7.575
     vertex 8.22739 6 8.22739
   endloop
 endfacet
 facet normal -0.92388 6.46217e-16 -0.382683
   outer loop
     vertex 9.04267 2.55271 6.81528
     vertex 8.72798 2.55271 7.575
     vertex 8.72798 6 7.575
   endloop
 endfacet
 facet normal -0.92388 -2.1411e-16 -0.382683
   outer loop
     vertex 9.04267 6 6.81528
     vertex 9.04267 2.55271 6.81528
     vertex 8.72798 6 7.575
   endloop
 endfacet
 facet normal -0.991445 2.74153e-16 -0.130526
   outer loop
     vertex 9.15 2.55271 6
     vertex 9.04267 2.55271 6.81528
     vertex 9.04267 6 6.81528
   endloop
 endfacet
 facet normal -0.991445 -2.01777e-16 -0.130526
   outer loop
     vertex 9.15 6 6
     vertex 9.15 2.55271 6
     vertex 9.04267 6 6.81528
   endloop
 endfacet
 facet normal -0.991445 2.05614e-16 0.130526
   outer loop
     vertex 9.04267 2.55271 5.18472
     vertex 9.15 2.55271 6
     vertex 9.15 6 6
   endloop
 endfacet
 facet normal -0.991445 -3.42735e-16 0.130526
   outer loop
     vertex 9.04267 6 5.18472
     vertex 9.04267 2.55271 5.18472
     vertex 9.15 6 6
   endloop
 endfacet
 facet normal -0.92388 9.79116e-18 0.382683
   outer loop
     vertex 8.72798 2.55271 4.425
     vertex 9.04267 2.55271 5.18472
     vertex 9.04267 6 5.18472
   endloop
 endfacet
 facet normal -0.92388 2.9579e-16 0.382683
   outer loop
     vertex 8.72798 6 4.425
     vertex 8.72798 2.55271 4.425
     vertex 9.04267 6 5.18472
   endloop
 endfacet
 facet normal -0.793353 4.69976e-16 0.608761
   outer loop
     vertex 8.22739 2.55271 3.77261
     vertex 8.72798 2.55271 4.425
     vertex 8.72798 6 4.425
   endloop
 endfacet
 facet normal -0.793353 2.35267e-16 0.608761
   outer loop
     vertex 8.22739 6 3.77261
     vertex 8.22739 2.55271 3.77261
     vertex 8.72798 6 4.425
   endloop
 endfacet
 facet normal -0.608761 3.06606e-16 0.793353
   outer loop
     vertex 7.575 6 3.27202
     vertex 7.575 2.55271 3.27202
     vertex 8.22739 2.55271 3.77261
   endloop
 endfacet
 facet normal -0.608761 2.93735e-16 0.793353
   outer loop
     vertex 7.575 6 3.27202
     vertex 8.22739 2.55271 3.77261
     vertex 8.22739 6 3.77261
   endloop
 endfacet
 facet normal -0.382683 -7.81766e-17 0.92388
   outer loop
     vertex 6.81528 6 2.95733
     vertex 6.81528 2.55271 2.95733
     vertex 7.575 2.55271 3.27202
   endloop
 endfacet
 facet normal 0 -0.382683 0.92388
   outer loop
     vertex -6 18.3623 4.6477
     vertex -3 18.7 4.78756
     vertex -6 18.7 4.78756
   endloop
 endfacet
 facet normal 0 -0.130526 0.991445
   outer loop
     vertex -3 18 4.6
     vertex -3 18.3623 4.6477
     vertex -6 18.3623 4.6477
   endloop
 endfacet
 facet normal 0 -0.130526 -0.991445
   outer loop
     vertex -3 18.3623 7.3523
     vertex -3 18 7.4
     vertex -6 18 7.4
   endloop
 endfacet
 facet normal 0 -0.130526 0.991445
   outer loop
     vertex -6 18 4.6
     vertex -3 18 4.6
     vertex -6 18.3623 4.6477
   endloop
 endfacet
 facet normal 0 -0.130526 -0.991445
   outer loop
     vertex -6 18.3623 7.3523
     vertex -3 18.3623 7.3523
     vertex -6 18 7.4
   endloop
 endfacet
 facet normal 0 -0.382683 -0.92388
   outer loop
     vertex -3 18.7 7.21244
     vertex -3 18.3623 7.3523
     vertex -6 18.3623 7.3523
   endloop
 endfacet
 facet normal 0 -0.382683 -0.92388
   outer loop
     vertex -6 18.7 7.21244
     vertex -3 18.7 7.21244
     vertex -6 18.3623 7.3523
   endloop
 endfacet
 facet normal 0 -0.608761 -0.793353
   outer loop
     vertex -3 18.9899 6.98995
     vertex -3 18.7 7.21244
     vertex -6 18.7 7.21244
   endloop
 endfacet
 facet normal 4.6976e-16 -0.608761 -0.793353
   outer loop
     vertex -6 18.9899 6.98995
     vertex -3 18.9899 6.98995
     vertex -6 18.7 7.21244
   endloop
 endfacet
 facet normal 3.67064e-16 -0.793353 -0.608761
   outer loop
     vertex -3 19.2124 6.7
     vertex -3 18.9899 6.98995
     vertex -6 18.9899 6.98995
   endloop
 endfacet
 facet normal 3.60459e-16 -0.793353 -0.608761
   outer loop
     vertex -6 19.2124 6.7
     vertex -3 19.2124 6.7
     vertex -6 18.9899 6.98995
   endloop
 endfacet
 facet normal 2.27833e-16 -0.92388 -0.382683
   outer loop
     vertex -3 19.3523 6.36235
     vertex -3 19.2124 6.7
     vertex -6 19.2124 6.7
   endloop
 endfacet
 facet normal 0 -0.92388 -0.382683
   outer loop
     vertex -6 19.3523 6.36235
     vertex -3 19.3523 6.36235
     vertex -6 19.2124 6.7
   endloop
 endfacet
 facet normal 0 -0.991445 -0.130526
   outer loop
     vertex -3 19.4 6
     vertex -3 19.3523 6.36235
     vertex -6 19.3523 6.36235
   endloop
 endfacet
 facet normal 3.86435e-17 -0.991445 -0.130526
   outer loop
     vertex -6 19.4 6
     vertex -3 19.4 6
     vertex -6 19.3523 6.36235
   endloop
 endfacet
 facet normal -3.79721e-17 -0.991445 0.130526
   outer loop
     vertex -3 19.3523 5.63765
     vertex -3 19.4 6
     vertex -6 19.4 6
   endloop
 endfacet
 facet normal 0 -0.991445 0.130526
   outer loop
     vertex -6 19.3523 5.63765
     vertex -3 19.3523 5.63765
     vertex -6 19.4 6
   endloop
 endfacet
 facet normal 0 -0.92388 0.382683
   outer loop
     vertex -3 19.2124 5.3
     vertex -3 19.3523 5.63765
     vertex -6 19.3523 5.63765
   endloop
 endfacet
 facet normal 1.13297e-16 -0.92388 0.382683
   outer loop
     vertex -6 19.2124 5.3
     vertex -3 19.2124 5.3
     vertex -6 19.3523 5.63765
   endloop
 endfacet
 facet normal 1.8023e-16 -0.793353 0.608761
   outer loop
     vertex -6 18.9899 5.01005
     vertex -3 18.9899 5.01005
     vertex -3 19.2124 5.3
   endloop
 endfacet
 facet normal 1.77203e-16 -0.793353 0.608761
   outer loop
     vertex -6 18.9899 5.01005
     vertex -3 19.2124 5.3
     vertex -6 19.2124 5.3
   endloop
 endfacet
 facet normal 0 -0.608761 0.793353
   outer loop
     vertex -6 18.7 4.78756
     vertex -3 18.7 4.78756
     vertex -3 18.9899 5.01005
   endloop
 endfacet
 facet normal 2.27833e-16 -0.608761 0.793353
   outer loop
     vertex -6 18.7 4.78756
     vertex -3 18.9899 5.01005
     vertex -6 18.9899 5.01005
   endloop
 endfacet
 facet normal 0 -0.382683 0.92388
   outer loop
     vertex -6 18.3623 4.6477
     vertex -3 18.3623 4.6477
     vertex -3 18.7 4.78756
   endloop
 endfacet
 facet normal 0 -0.382683 0.92388
   outer loop
     vertex -6 8.86235 4.6477
     vertex -3 9.2 4.78756
     vertex -6 9.2 4.78756
   endloop
 endfacet
 facet normal 0 -0.130526 0.991445
   outer loop
     vertex -3 8.5 4.6
     vertex -3 8.86235 4.6477
     vertex -6 8.86235 4.6477
   endloop
 endfacet
 facet normal 0 -0.130526 -0.991445
   outer loop
     vertex -3 8.86235 7.3523
     vertex -3 8.5 7.4
     vertex -6 8.5 7.4
   endloop
 endfacet
 facet normal 0 -0.130526 0.991445
   outer loop
     vertex -6 8.5 4.6
     vertex -3 8.5 4.6
     vertex -6 8.86235 4.6477
   endloop
 endfacet
 facet normal -7.7287e-17 -0.130526 -0.991445
   outer loop
     vertex -6 8.86235 7.3523
     vertex -3 8.86235 7.3523
     vertex -6 8.5 7.4
   endloop
 endfacet
 facet normal -2.27833e-16 -0.382683 -0.92388
   outer loop
     vertex -3 9.2 7.21244
     vertex -3 8.86235 7.3523
     vertex -6 8.86235 7.3523
   endloop
 endfacet
 facet normal 0 -0.382683 -0.92388
   outer loop
     vertex -6 9.2 7.21244
     vertex -3 9.2 7.21244
     vertex -6 8.86235 7.3523
   endloop
 endfacet
 facet normal 0 -0.608761 -0.793353
   outer loop
     vertex -3 9.48995 6.98995
     vertex -3 9.2 7.21244
     vertex -6 9.2 7.21244
   endloop
 endfacet
 facet normal 2.3488e-16 -0.608761 -0.793353
   outer loop
     vertex -6 9.48995 6.98995
     vertex -3 9.48995 6.98995
     vertex -6 9.2 7.21244
   endloop
 endfacet
 facet normal 1.77203e-16 -0.793353 -0.608761
   outer loop
     vertex -3 9.71244 6.7
     vertex -3 9.48995 6.98995
     vertex -6 9.48995 6.98995
   endloop
 endfacet
 facet normal 1.8023e-16 -0.793353 -0.608761
   outer loop
     vertex -6 9.71244 6.7
     vertex -3 9.71244 6.7
     vertex -6 9.48995 6.98995
   endloop
 endfacet
 facet normal 1.13916e-16 -0.92388 -0.382683
   outer loop
     vertex -3 9.8523 6.36235
     vertex -3 9.71244 6.7
     vertex -6 9.71244 6.7
   endloop
 endfacet
 facet normal 1.13297e-16 -0.92388 -0.382683
   outer loop
     vertex -6 9.8523 6.36235
     vertex -3 9.8523 6.36235
     vertex -6 9.71244 6.7
   endloop
 endfacet
 facet normal 4.11364e-17 -0.991445 -0.130526
   outer loop
     vertex -3 9.9 6
     vertex -3 9.8523 6.36235
     vertex -6 9.8523 6.36235
   endloop
 endfacet
 facet normal 3.86435e-17 -0.991445 -0.130526
   outer loop
     vertex -6 9.9 6
     vertex -3 9.9 6
     vertex -6 9.8523 6.36235
   endloop
 endfacet
 facet normal -3.79721e-17 -0.991445 0.130526
   outer loop
     vertex -3 9.8523 5.63765
     vertex -3 9.9 6
     vertex -6 9.9 6
   endloop
 endfacet
 facet normal 3.86435e-17 -0.991445 0.130526
   outer loop
     vertex -6 9.8523 5.63765
     vertex -3 9.8523 5.63765
     vertex -6 9.9 6
   endloop
 endfacet
 facet normal 1.13916e-16 -0.92388 0.382683
   outer loop
     vertex -3 9.71244 5.3
     vertex -3 9.8523 5.63765
     vertex -6 9.8523 5.63765
   endloop
 endfacet
 facet normal 1.13297e-16 -0.92388 0.382683
   outer loop
     vertex -6 9.71244 5.3
     vertex -3 9.71244 5.3
     vertex -6 9.8523 5.63765
   endloop
 endfacet
 facet normal 0 -0.793353 0.608761
   outer loop
     vertex -6 9.48995 5.01005
     vertex -3 9.48995 5.01005
     vertex -3 9.71244 5.3
   endloop
 endfacet
 facet normal 1.77203e-16 -0.793353 0.608761
   outer loop
     vertex -6 9.48995 5.01005
     vertex -3 9.71244 5.3
     vertex -6 9.71244 5.3
   endloop
 endfacet
 facet normal 0 -0.608761 0.793353
   outer loop
     vertex -6 9.2 4.78756
     vertex -3 9.2 4.78756
     vertex -3 9.48995 5.01005
   endloop
 endfacet
 facet normal 0 -0.608761 0.793353
   outer loop
     vertex -6 9.2 4.78756
     vertex -3 9.48995 5.01005
     vertex -6 9.48995 5.01005
   endloop
 endfacet
 facet normal 0 -0.382683 0.92388
   outer loop
     vertex -6 8.86235 4.6477
     vertex -3 8.86235 4.6477
     vertex -3 9.2 4.78756
   endloop
 endfacet
endsolid
